<svg width="32" height="32" viewBox="0 0 32 32" fill="none" xmlns="http://www.w3.org/2000/svg">
<mask id="mask0" mask-type="alpha" maskUnits="userSpaceOnUse" x="0" y="0" width="32" height="32">
<rect width="32" height="32" fill="#C4C4C4"/>
</mask>
<g mask="url(#mask0)">
<path opacity="0.5" d="M12.9651 2.81699C13.332 2.07374 14.3918 2.07374 14.7586 2.81699L17.7031 8.78319C17.8488 9.07833 18.1303 9.2829 18.4561 9.33023L25.0401 10.287C25.8604 10.4061 26.1879 11.4141 25.5944 11.9926L20.8301 16.6367C20.5944 16.8664 20.4868 17.1974 20.5425 17.5218L21.6672 24.0793C21.8073 24.8962 20.9498 25.5192 20.2162 25.1335L14.3272 22.0375C14.0359 21.8843 13.6879 21.8843 13.3965 22.0375L7.50754 25.1335C6.77392 25.5192 5.91648 24.8962 6.05659 24.0793L7.18129 17.5218C7.23693 17.1974 7.12938 16.8664 6.8937 16.6367L2.1294 11.9926C1.53588 11.4141 1.86339 10.4061 2.68361 10.287L9.26771 9.33023C9.59342 9.2829 9.87498 9.07833 10.0206 8.78319L12.9651 2.81699Z" fill="#3160E2"/>
<path opacity="0.5" d="M23.9359 16.0879C24.5336 15.5137 25.5303 15.874 25.6226 16.6977L26.0148 20.1986C26.0514 20.5257 26.2467 20.8138 26.5369 20.9691L29.6433 22.6307C30.3741 23.0216 30.3394 24.0809 29.5846 24.4232L26.3762 25.8781C26.0764 26.014 25.8627 26.2887 25.8048 26.6127L25.1844 30.0805C25.0384 30.8964 24.0203 31.1908 23.4615 30.5786L21.0863 27.9768C20.8644 27.7338 20.5371 27.6154 20.2111 27.6604L16.7213 28.142C15.9002 28.2553 15.3057 27.378 15.7152 26.6573L17.4557 23.5945C17.6183 23.3083 17.6297 22.9605 17.4861 22.6643L15.9497 19.4941C15.5882 18.7482 16.2389 17.9117 17.0508 18.0784L20.5016 18.7873C20.824 18.8535 21.1584 18.7568 21.3957 18.5288L23.9359 16.0879Z" fill="#FF85A5"/>
</g>
</svg>
