<svg width="34" height="34" viewBox="0 0 34 34" fill="none" xmlns="http://www.w3.org/2000/svg">
<path d="M17.0036 4.50358C19.2952 4.50358 21.1702 6.37858 21.1702 8.67025C21.1702 10.9619 19.2952 12.8369 17.0036 12.8369C14.7119 12.8369 12.8369 10.9619 12.8369 8.67025C12.8369 6.37858 14.7119 4.50358 17.0036 4.50358ZM17.0036 25.3369C22.6286 25.3369 29.0869 28.0244 29.5036 29.5036H4.50358C4.98275 28.0036 11.3994 25.3369 17.0036 25.3369ZM17.0036 0.336914C12.3994 0.336914 8.67025 4.06608 8.67025 8.67025C8.67025 13.2744 12.3994 17.0036 17.0036 17.0036C21.6077 17.0036 25.3369 13.2744 25.3369 8.67025C25.3369 4.06608 21.6077 0.336914 17.0036 0.336914ZM17.0036 21.1702C11.4411 21.1702 0.336914 23.9619 0.336914 29.5036V33.6702H33.6702V29.5036C33.6702 23.9619 22.5661 21.1702 17.0036 21.1702Z" fill="#663AB7"/>
</svg>
