<svg width="48" height="41" viewBox="0 0 48 41" fill="none" xmlns="http://www.w3.org/2000/svg">
<path d="M46.7741 35.8222C45.1302 42.3062 5.13025 40.9363 1.75125 34.1783C-1.35377 28.0596 0.107414 7.87695 2.75581 3.49338C6.40878 -2.44269 41.8426 0.0230632 44.7649 4.6806C47.596 9.06416 48.5092 29.1555 46.7741 35.8222Z" fill="url(#paint0_radial)"/>
<path d="M46.6824 34.7263C45.0386 40.9364 5.31257 38.1966 1.93357 31.7126C-1.17145 25.7765 0.289738 8.05965 2.93814 3.76741C6.59111 -1.98601 41.8422 0.297092 44.7646 4.8633C47.5044 9.06421 48.4176 28.2423 46.6824 34.7263Z" fill="url(#paint1_linear)"/>
<path d="M46.2264 34.1784C44.5826 40.2058 5.76977 37.466 2.39077 31.1647C-0.622925 25.4112 0.746937 8.24229 3.39534 4.1327C6.95699 -1.43807 41.4775 0.753709 44.3086 5.13727C47.0483 9.15553 47.8702 27.877 46.2264 34.1784Z" fill="url(#paint2_linear)"/>
<path d="M4.21719 32.445C4.39984 31.7144 2.57335 28.6094 2.11673 28.6094C1.66011 28.6094 2.02541 30.7098 2.39071 31.1665C2.756 31.6231 4.12587 32.8103 4.21719 32.445Z" fill="white"/>
<path d="M44.4909 8.69921C44.4909 8.69921 45.7694 5.41154 43.3037 4.22433C40.7466 3.03711 32.6188 1.8499 32.1621 2.21519C31.7968 2.48917 35.6325 3.95035 37.6416 4.68095C39.6507 5.41154 43.395 9.24716 44.4909 8.69921Z" fill="white"/>
<path d="M29.5139 9C29.5139 9 24.1258 11.1005 16.5459 20.1415C16.5459 20.1415 21.1121 26.8995 29.5139 30.7352L31.2491 27.9954C31.2491 27.9954 26.0436 24.3425 22.8473 19.8676C22.8473 19.8676 25.039 15.1187 30.6098 11.7397L29.5139 9Z" fill="white"/>
<defs>
<radialGradient id="paint0_radial" cx="0" cy="0" r="1" gradientUnits="userSpaceOnUse" gradientTransform="translate(23.0975 37.2254) rotate(180) scale(18.406 34.5133)">
<stop stop-color="#F55982"/>
<stop offset="1" stop-color="#F9265D"/>
</radialGradient>
<linearGradient id="paint1_linear" x1="23.8689" y1="38.2238" x2="23.8689" y2="0.386864" gradientUnits="userSpaceOnUse">
<stop stop-color="#F55982"/>
<stop offset="1" stop-color="#F9265D"/>
</linearGradient>
<linearGradient id="paint2_linear" x1="23.8695" y1="37.5351" x2="23.8695" y2="0.785947" gradientUnits="userSpaceOnUse">
<stop stop-color="#F55982"/>
<stop offset="1" stop-color="#F9265D"/>
</linearGradient>
</defs>
</svg>
