<svg width="48" height="41" viewBox="0 0 48 41" fill="none" xmlns="http://www.w3.org/2000/svg">
<path d="M0.880222 35.8222C2.52406 42.3062 42.5241 40.9363 45.903 34.1783C49.0081 28.0596 47.5469 7.87695 44.8985 3.49338C41.2455 -2.44269 5.81173 0.0230632 2.88935 4.6806C0.0583041 9.06416 -0.854938 29.1555 0.880222 35.8222Z" fill="url(#paint0_radial)"/>
<path d="M0.971864 34.7263C2.6157 40.9364 42.3417 38.1966 45.7207 31.7126C48.8257 25.7765 47.3646 8.05965 44.7162 3.76741C41.0632 -1.98601 5.81205 0.297092 2.88967 4.8633C0.149946 9.06421 -0.763296 28.2423 0.971864 34.7263Z" fill="url(#paint1_linear)"/>
<path d="M1.4279 34.1784C3.07174 40.2058 41.8845 37.466 45.2635 31.1647C48.2772 25.4112 46.9074 8.24229 44.259 4.1327C40.6973 -1.43807 6.17676 0.753709 3.34571 5.13727C0.605986 9.15553 -0.215932 27.877 1.4279 34.1784Z" fill="url(#paint2_linear)"/>
<path d="M43.4371 32.445C43.2545 31.7144 45.0809 28.6094 45.5376 28.6094C45.9942 28.6094 45.6289 30.7098 45.2636 31.1665C44.8983 31.6231 43.5284 32.8103 43.4371 32.445Z" fill="white"/>
<path d="M3.16339 8.69921C3.16339 8.69921 1.88486 5.41154 4.35061 4.22433C6.90769 3.03711 15.0355 1.8499 15.4922 2.21519C15.8575 2.48917 12.0218 3.95035 10.0127 4.68095C8.00358 5.41154 4.25929 9.24716 3.16339 8.69921Z" fill="white"/>
<path d="M18.1404 9C18.1404 9 23.5285 11.1005 31.1084 20.1415C31.1084 20.1415 26.5422 26.8995 18.1404 30.7352L16.4052 27.9954C16.4052 27.9954 21.6107 24.3425 24.807 19.8676C24.807 19.8676 22.6153 15.1187 17.0445 11.7397L18.1404 9Z" fill="white"/>
<defs>
<radialGradient id="paint0_radial" cx="0" cy="0" r="1" gradientUnits="userSpaceOnUse" gradientTransform="translate(24.5568 37.2254) scale(18.406 34.5133)">
<stop stop-color="#F55982"/>
<stop offset="1" stop-color="#F9265D"/>
</radialGradient>
<linearGradient id="paint1_linear" x1="23.7854" y1="38.2238" x2="23.7854" y2="0.386864" gradientUnits="userSpaceOnUse">
<stop stop-color="#F55982"/>
<stop offset="1" stop-color="#F9265D"/>
</linearGradient>
<linearGradient id="paint2_linear" x1="23.7848" y1="37.5351" x2="23.7848" y2="0.785947" gradientUnits="userSpaceOnUse">
<stop stop-color="#F55982"/>
<stop offset="1" stop-color="#F9265D"/>
</linearGradient>
</defs>
</svg>
