<svg width="1366" height="660" viewBox="0 0 1366 660" fill="none" xmlns="http://www.w3.org/2000/svg">
<rect width="1366" height="660" fill="url(#paint0_linear)"/>
<path d="M742.391 60.8591C738.728 62.1714 737.171 63.7276 735.859 67.3914C735.568 68.2029 734.432 68.2029 734.141 67.3914C732.829 63.7276 731.272 62.1714 727.609 60.8591C726.797 60.5684 726.797 59.4316 727.609 59.1409C731.272 57.8286 732.829 56.2724 734.141 52.6086C734.432 51.7971 735.568 51.7971 735.859 52.6086C737.171 56.2724 738.728 57.8286 742.391 59.1409C743.203 59.4316 743.203 60.5684 742.391 60.8591Z" fill="white"/>
<path d="M736.949 64.2857C735.646 60.646 734.099 59.0862 730.486 57.7793C729.695 58.2947 728.755 58.7296 727.609 59.1403C726.797 59.431 726.797 60.5678 727.609 60.8585C731.272 62.1709 732.829 63.727 734.141 67.3908C734.432 68.2023 735.568 68.2023 735.859 67.3908C736.253 66.2904 736.671 65.3829 737.16 64.6123C737.074 64.5222 736.998 64.4189 736.949 64.2857Z" fill="#F3F0F3"/>
<path d="M284.675 86C284.501 85.9986 284.357 85.8624 284.346 85.6881C283.888 78.1565 283.578 77.8415 276.055 77.2608C275.88 77.2474 275.747 77.1015 275.748 76.927C275.749 76.7526 275.886 76.6089 276.06 76.5983C283.592 76.1396 283.907 75.8296 284.487 68.3066C284.501 68.1324 284.647 67.9986 284.821 68C284.995 68.0014 285.139 68.1376 285.15 68.3119C285.608 75.8435 285.918 76.1585 293.441 76.7392C293.616 76.7526 293.749 76.8985 293.748 77.073C293.747 77.2474 293.61 77.3911 293.436 77.4017C285.905 77.8604 285.59 78.1704 285.009 85.6934C284.995 85.8674 284.85 86.0014 284.675 86Z" fill="#FEA613"/>
<path d="M372.675 610C372.501 609.999 372.357 609.862 372.346 609.688C371.888 602.156 371.578 601.841 364.055 601.261C363.88 601.247 363.747 601.102 363.748 600.927C363.749 600.753 363.886 600.609 364.06 600.598C371.592 600.14 371.907 599.83 372.487 592.307C372.501 592.132 372.647 591.999 372.821 592C372.995 592.001 373.139 592.138 373.15 592.312C373.608 599.844 373.918 600.159 381.441 600.739C381.616 600.753 381.749 600.898 381.748 601.073C381.747 601.247 381.61 601.391 381.436 601.402C373.905 601.86 373.59 602.17 373.009 609.693C372.995 609.867 372.85 610.001 372.675 610Z" fill="#FEA613"/>
<path d="M32.2197 56C32.1518 55.9995 32.096 55.9465 32.0918 55.8787C31.9135 52.9497 31.7929 52.8272 28.8673 52.6014C28.7995 52.5962 28.7475 52.5395 28.7481 52.4716C28.7486 52.4038 28.8016 52.3479 28.8693 52.3438C31.7983 52.1654 31.9208 52.0449 32.1466 49.1192C32.1518 49.0515 32.2086 48.9995 32.2764 49C32.3443 49.0005 32.4001 49.0535 32.4043 49.1213C32.5826 52.0503 32.7032 52.1728 35.6288 52.3986C35.6966 52.4038 35.7486 52.4605 35.748 52.5284C35.7475 52.5962 35.6945 52.6521 35.6267 52.6562C32.6978 52.8346 32.5753 52.9551 32.3495 55.8808C32.3443 55.9484 32.2875 56.0005 32.2197 56Z" fill="#FEA613"/>
<path d="M171.41 19.2882C168.396 20.3679 167.116 21.6481 166.036 24.6623C165.797 25.3299 164.862 25.3299 164.623 24.6623C163.543 21.6481 162.263 20.3679 159.249 19.2882C158.581 19.0492 158.581 18.1138 159.249 17.8748C162.263 16.7951 163.543 15.5149 164.623 12.5007C164.862 11.8331 165.797 11.8331 166.036 12.5007C167.116 15.5149 168.396 16.7951 171.41 17.8748C172.078 18.1138 172.078 19.0489 171.41 19.2882V19.2882Z" fill="#FED402"/>
<path d="M30.4103 545.288C27.3962 546.368 26.1159 547.648 25.0363 550.662C24.7972 551.33 23.8619 551.33 23.6228 550.662C22.5432 547.648 21.2629 546.368 18.2488 545.288C17.5811 545.049 17.5811 544.114 18.2488 543.875C21.2629 542.795 22.5432 541.515 23.6228 538.501C23.8619 537.833 24.7972 537.833 25.0363 538.501C26.1159 541.515 27.3962 542.795 30.4103 543.875C31.078 544.114 31.078 545.049 30.4103 545.288V545.288Z" fill="#FED402"/>
<path d="M226.41 645.288C223.396 646.368 222.116 647.648 221.036 650.662C220.797 651.33 219.862 651.33 219.623 650.662C218.543 647.648 217.263 646.368 214.249 645.288C213.581 645.049 213.581 644.114 214.249 643.875C217.263 642.795 218.543 641.515 219.623 638.501C219.862 637.833 220.797 637.833 221.036 638.501C222.116 641.515 223.396 642.795 226.41 643.875C227.078 644.114 227.078 645.049 226.41 645.288V645.288Z" fill="#FED402"/>
<path d="M565.662 410.288C562.648 411.368 561.368 412.648 560.288 415.662C560.049 416.33 559.114 416.33 558.875 415.662C557.795 412.648 556.515 411.368 553.501 410.288C552.833 410.049 552.833 409.114 553.501 408.875C556.515 407.795 557.795 406.515 558.875 403.501C559.114 402.833 560.049 402.833 560.288 403.501C561.368 406.515 562.648 407.795 565.662 408.875C566.33 409.114 566.33 410.049 565.662 410.288V410.288Z" fill="#FED402"/>
<path d="M1256.66 461.288C1253.65 462.368 1252.37 463.648 1251.29 466.662C1251.05 467.33 1250.11 467.33 1249.87 466.662C1248.8 463.648 1247.51 462.368 1244.5 461.288C1243.83 461.049 1243.83 460.114 1244.5 459.875C1247.51 458.795 1248.8 457.515 1249.87 454.501C1250.11 453.833 1251.05 453.833 1251.29 454.501C1252.37 457.515 1253.65 458.795 1256.66 459.875C1257.33 460.114 1257.33 461.049 1256.66 461.288V461.288Z" fill="#FED402"/>
<path d="M373.593 454.224L371.972 455.845C371.834 455.983 371.611 455.983 371.472 455.845L369.852 454.224C369.714 454.086 369.714 453.862 369.852 453.724L371.472 452.103C371.61 451.966 371.834 451.966 371.972 452.103L373.593 453.724C373.731 453.863 373.731 454.086 373.593 454.224Z" fill="#FED402"/>
<path d="M1248.85 617.224L1247.22 618.845C1247.09 618.983 1246.86 618.983 1246.72 618.845L1245.1 617.224C1244.97 617.086 1244.97 616.862 1245.1 616.724L1246.72 615.103C1246.86 614.966 1247.09 614.966 1247.22 615.103L1248.85 616.724C1248.98 616.863 1248.98 617.086 1248.85 617.224Z" fill="#FED402"/>
<path d="M39.5933 263.224L37.9724 264.845C37.8344 264.983 37.6104 264.983 37.4724 264.845L35.8515 263.224C35.7136 263.086 35.7136 262.862 35.8515 262.724L37.4724 261.103C37.6104 260.966 37.8344 260.966 37.9724 261.103L39.5933 262.724C39.7313 262.863 39.7313 263.086 39.5933 263.224Z" fill="#FED402"/>
<path d="M361.593 131.224L359.972 132.845C359.834 132.983 359.61 132.983 359.472 132.845L357.852 131.224C357.714 131.086 357.714 130.862 357.852 130.724L359.472 129.103C359.61 128.966 359.834 128.966 359.972 129.103L361.593 130.724C361.731 130.863 361.731 131.086 361.593 131.224Z" fill="#FED402"/>
<path d="M183.593 615.224L181.972 616.845C181.834 616.983 181.61 616.983 181.472 616.845L179.852 615.224C179.714 615.086 179.714 614.862 179.852 614.724L181.472 613.103C181.61 612.966 181.834 612.966 181.972 613.103L183.593 614.724C183.731 614.863 183.731 615.086 183.593 615.224Z" fill="#FED402"/>
<defs>
<linearGradient id="paint0_linear" x1="700.5" y1="642.735" x2="709.073" y2="15.3489" gradientUnits="userSpaceOnUse">
<stop offset="0.307292" stop-color="#070330"/>
<stop offset="1" stop-color="#648CFC"/>
</linearGradient>
</defs>
</svg>
