<svg width="120" height="40" viewBox="0 0 120 40" fill="none" xmlns="http://www.w3.org/2000/svg">
<path d="M2.21655 35.7954C6.35602 42.2746 107.083 40.9058 115.592 34.1528C123.411 28.0387 119.731 7.87107 113.062 3.49078C103.863 -2.44087 14.6349 0.023046 7.2759 4.67711C0.14682 9.0574 -2.15288 29.1337 2.21655 35.7954Z" fill="url(#paint0_radial)"/>
<path d="M2.22715 34.8606C6.36877 41.1571 106.458 38.3792 114.971 31.8049C122.794 25.7861 119.113 7.8224 112.44 3.47037C103.236 -2.36321 14.4219 -0.0482981 7.05904 4.58152C0.156348 8.84096 -2.14455 28.2862 2.22715 34.8606Z" fill="url(#paint1_linear)"/>
<path d="M3.96755 34.234C8.08824 40.2728 105.382 37.5279 113.853 31.2145C121.407 25.4502 117.973 8.2486 111.335 4.13121C102.406 -1.45015 15.8718 0.745792 8.77502 5.13768C1.9072 9.16358 -0.153147 27.9206 3.96755 34.234Z" fill="url(#paint2_linear)"/>
<path d="M101.741 33.9119C100.694 32.9763 111.163 29 113.78 29C116.397 29 114.303 31.6899 112.21 32.2746C110.116 32.8594 102.265 34.3797 101.741 33.9119Z" fill="white"/>
<path d="M8.56275 7.84598C8.56275 7.84598 3.6882 6.16759 12.25 4.87332C21.1337 3.55757 49.6597 0.932236 51.3105 1.04478C52.629 1.12381 39.2677 2.90503 32.2651 3.81711C25.2625 4.72919 12.4879 7.91818 8.56275 7.84598Z" fill="white"/>
<defs>
<radialGradient id="paint0_radial" cx="0" cy="0" r="1" gradientUnits="userSpaceOnUse" gradientTransform="translate(61.8382 37.1977) scale(46.3494 34.4876)">
<stop stop-color="#FA6B90"/>
<stop offset="1" stop-color="#F9265D"/>
</radialGradient>
<linearGradient id="paint1_linear" x1="59.7054" y1="38.4068" x2="59.7054" y2="0.0427243" gradientUnits="userSpaceOnUse">
<stop stop-color="#FA6B90"/>
<stop offset="1" stop-color="#F9265D"/>
</linearGradient>
<linearGradient id="paint2_linear" x1="60.0108" y1="37.597" x2="60.0108" y2="0.778091" gradientUnits="userSpaceOnUse">
<stop stop-color="#F55982"/>
<stop offset="1" stop-color="#F9265D"/>
</linearGradient>
</defs>
</svg>
