<svg width="16" height="16" viewBox="0 0 16 16" fill="none" xmlns="http://www.w3.org/2000/svg">
<path fill-rule="evenodd" clip-rule="evenodd" d="M8 0C9.46155 0 10.8141 0.365381 12.0577 1.09615C13.2628 1.78847 14.2115 2.73717 14.9038 3.94231C15.6346 5.1859 16 6.53845 16 8C16 9.46155 15.6346 10.8141 14.9038 12.0577C14.2115 13.2628 13.2628 14.2115 12.0577 14.9038C10.8141 15.6346 9.46155 16 8 16C6.53845 16 5.1859 15.6346 3.94231 14.9038C2.73717 14.1987 1.78847 13.2436 1.09615 12.0385C0.365381 10.7949 0 9.44873 0 8C0 6.55127 0.365381 5.20513 1.09615 3.96154C1.80129 2.7564 2.7564 1.80129 3.96154 1.09615C5.20513 0.365381 6.55127 0 8 0Z" fill="#3750B2"/>
<path fill-rule="evenodd" clip-rule="evenodd" d="M6.26601 11.6914L12.7531 5.44347L11.556 4.25146L6.26601 9.36598L4.38455 7.53435L3.1875 8.68727L6.26601 11.6914Z" fill="#DADADA"/>
</svg>
