<svg width="58" height="57" viewBox="0 0 58 57" fill="none" xmlns="http://www.w3.org/2000/svg">
<g filter="url(#filter0_d)">
<path d="M4.87664 17.6714C5.03503 14.5505 6.63267 11.6798 9.20145 9.90039C10.4784 9.01582 11.9426 8.43854 13.4797 8.21364L35.875 4.93689C43.5124 3.81942 50.8373 8.3909 53.189 15.7427C53.7259 17.4209 53.9779 19.1772 53.9345 20.9386L53.369 43.9222C53.2933 46.9954 51.7051 49.8329 49.125 51.5043C47.618 52.4805 45.8607 53 44.065 53H24.2656C15.3755 53 7.5526 47.1318 5.06472 38.597L4.94449 38.1846C4.31925 36.0396 4.05782 33.8051 4.17107 31.5738L4.87664 17.6714Z" fill="#663AB7"/>
</g>
<rect x="21.6572" y="33.3848" width="18" height="2" transform="rotate(-45 21.6572 33.3848)" fill="white"/>
<rect x="34.3848" y="34.7988" width="18" height="2" transform="rotate(-135 34.3848 34.7988)" fill="white"/>
<defs>
<filter id="filter0_d" x="0.145508" y="0.769409" width="57.7939" height="56.2306" filterUnits="userSpaceOnUse" color-interpolation-filters="sRGB">
<feFlood flood-opacity="0" result="BackgroundImageFix"/>
<feColorMatrix in="SourceAlpha" type="matrix" values="0 0 0 0 0 0 0 0 0 0 0 0 0 0 0 0 0 0 127 0"/>
<feOffset/>
<feGaussianBlur stdDeviation="2"/>
<feColorMatrix type="matrix" values="0 0 0 0 0 0 0 0 0 0 0 0 0 0 0 0 0 0 0.25 0"/>
<feBlend mode="normal" in2="BackgroundImageFix" result="effect1_dropShadow"/>
<feBlend mode="normal" in="SourceGraphic" in2="effect1_dropShadow" result="shape"/>
</filter>
</defs>
</svg>
