<svg width="40" height="39" viewBox="0 0 40 39" fill="none" xmlns="http://www.w3.org/2000/svg">
<g filter="url(#filter0_d)">
<path d="M4.56105 12.3897C4.66242 10.3923 5.68491 8.55507 7.32893 7.41625C8.14618 6.85013 9.08328 6.48066 10.067 6.33673L24.4 4.2396C29.2879 3.52443 33.9759 6.45018 35.481 11.1553C35.8246 12.2294 35.9858 13.3534 35.9581 14.4807L35.5961 29.1902C35.5477 31.157 34.5312 32.9731 32.88 34.0427C31.9155 34.6675 30.7908 35 29.6416 35H17.1944C11.3718 35 6.24807 31.1566 4.6186 25.5666C4.2091 24.1618 4.03787 22.6982 4.11204 21.2368L4.56105 12.3897Z" fill="#FFCF4B"/>
<path d="M4.66092 12.3947C4.76072 10.4284 5.76735 8.61962 7.38587 7.49845C8.19045 6.94111 9.11302 6.57738 10.0815 6.43568L24.4145 4.33855C29.254 3.63045 33.8955 6.52724 35.3857 11.1858C35.7259 12.2492 35.8856 13.3621 35.8581 14.4783L35.4962 29.1877C35.4486 31.1215 34.4491 32.9071 32.8256 33.9588C31.8773 34.5731 30.7715 34.9 29.6416 34.9H17.1944C11.4163 34.9 6.33164 31.0859 4.71461 25.5386C4.30823 24.1445 4.13831 22.6921 4.21191 21.2419L4.66092 12.3947Z" stroke="#5466FD" stroke-width="0.2"/>
</g>
<path d="M12 23.6642V26.9982H15.3339L25.1712 17.1608L21.8373 13.8269L12 23.6642Z" fill="#3D317A"/>
<path d="M27.7419 13.336L25.666 11.26C25.3192 10.9133 24.7547 10.9133 24.408 11.26L22.781 12.887L26.1149 16.2209L27.7419 14.594C28.0887 14.2472 28.0887 13.6827 27.7419 13.336Z" fill="#3D317A"/>
<defs>
<filter id="filter0_d" x="0.0952148" y="0.132446" width="39.8659" height="38.8676" filterUnits="userSpaceOnUse" color-interpolation-filters="sRGB">
<feFlood flood-opacity="0" result="BackgroundImageFix"/>
<feColorMatrix in="SourceAlpha" type="matrix" values="0 0 0 0 0 0 0 0 0 0 0 0 0 0 0 0 0 0 127 0"/>
<feOffset/>
<feGaussianBlur stdDeviation="2"/>
<feColorMatrix type="matrix" values="0 0 0 0 0 0 0 0 0 0 0 0 0 0 0 0 0 0 0.15 0"/>
<feBlend mode="normal" in2="BackgroundImageFix" result="effect1_dropShadow"/>
<feBlend mode="normal" in="SourceGraphic" in2="effect1_dropShadow" result="shape"/>
</filter>
</defs>
</svg>
