<svg width="20" height="20" viewBox="0 0 20 20" fill="none" xmlns="http://www.w3.org/2000/svg">
<path d="M13.5482 2.354C12.0982 2.354 10.7065 3.029 9.79818 4.09567C8.88984 3.029 7.49818 2.354 6.04818 2.354C3.48151 2.354 1.46484 4.37067 1.46484 6.93734C1.46484 10.0873 4.29818 12.654 8.58984 16.554L9.79818 17.6457L11.0065 16.5457C15.2982 12.654 18.1315 10.0873 18.1315 6.93734C18.1315 4.37067 16.1148 2.354 13.5482 2.354ZM9.88151 15.3123L9.79818 15.3957L9.71484 15.3123C5.74818 11.7207 3.13151 9.34567 3.13151 6.93734C3.13151 5.27067 4.38151 4.02067 6.04818 4.02067C7.33151 4.02067 8.58151 4.84567 9.02318 5.98734H10.5815C11.0148 4.84567 12.2648 4.02067 13.5482 4.02067C15.2148 4.02067 16.4648 5.27067 16.4648 6.93734C16.4648 9.34567 13.8482 11.7207 9.88151 15.3123Z" fill="#F9265D"/>
</svg>
