<svg width="40" height="50" viewBox="0 0 40 50" fill="none" xmlns="http://www.w3.org/2000/svg">
<path d="M39.2696 20.5306C38.2351 18.4994 38.428 16.6391 38.6323 14.6696C38.7832 13.2144 38.9392 11.7096 38.5988 10.11C38.1614 8.05781 37.0407 6.1 35.4434 4.59717C33.7933 3.04463 31.8517 2.18965 29.9762 2.18965H26.8096C24.8897 0.812109 22.538 0 20 0C17.462 0 15.1102 0.812109 13.1903 2.18955H10.0238C8.14822 2.18955 6.20662 3.04453 4.55652 4.59707C2.95926 6.1 1.83855 8.05781 1.40105 10.1104C1.06082 11.7096 1.21678 13.2144 1.36766 14.6696C1.57195 16.6391 1.76473 18.4994 0.730352 20.5306C0.578496 20.8287 0.589922 21.1839 0.760625 21.4718C0.93123 21.7597 1.23748 21.94 1.57195 21.9499C1.72215 21.9543 1.8701 21.9565 2.01629 21.9565C5.0865 21.9565 7.30447 20.985 8.61228 19.0655C8.74637 18.8687 8.86639 18.667 8.97596 18.4621C10.0095 21.344 12.1413 23.7073 14.8659 25.0424V26.8237C14.2224 27.0179 13.5597 27.2264 12.8545 27.3866C9.26824 28.2015 6.94861 29.4681 6.21199 29.9755C3.93777 31.542 2.80818 33.7634 2.75838 36.7666C2.75828 36.772 2.75828 36.7773 2.75828 36.7828V49.0234C2.75828 49.5628 3.19559 50 3.73484 50H15.6154C16.1547 50 16.592 49.5628 16.592 49.0234C16.592 48.4841 16.1547 48.0469 15.6154 48.0469H9.97898V30.2813C10.8119 29.9809 11.6995 29.7252 12.607 29.4771V35.5979C12.607 36.1373 13.0443 36.5745 13.5836 36.5745H26.4164C26.9556 36.5745 27.393 36.1373 27.393 35.5979V29.4771C28.3005 29.7253 29.1881 29.9809 30.021 30.2813V48.0469H24.3846C23.8453 48.0469 23.408 48.4841 23.408 49.0234C23.408 49.5628 23.8453 50 24.3846 50H36.2651C36.8044 50 37.2417 49.5628 37.2417 49.0234V36.7826C37.2417 36.7772 37.2417 36.7719 37.2416 36.7664C37.1918 33.7632 36.0622 31.5418 33.788 29.9753C31.499 28.6376 28.5636 27.7686 27.1455 27.3864C26.4472 27.1982 25.7775 27.0178 25.1341 26.8235V25.0422C27.8587 23.7071 29.9905 21.3438 31.024 18.4619C31.1336 18.6667 31.2536 18.8686 31.3877 19.0653C32.6956 20.985 34.9131 21.9564 37.9837 21.9563C38.1297 21.9563 38.2781 21.9542 38.428 21.9497C38.7625 21.9398 39.0687 21.7595 39.2393 21.4716C39.4101 21.1839 39.4215 20.8287 39.2696 20.5306ZM8.29148 11.7087V13.686C8.29139 13.6867 8.29139 13.6874 8.29139 13.6881C8.15711 15.0199 7.85701 16.7048 6.99803 17.9657C6.20506 19.1295 4.91102 19.7871 3.06316 19.9583C3.67381 17.9737 3.48289 16.1314 3.31033 14.4682C3.16883 13.1036 3.03523 11.8147 3.31131 10.5172C4.03523 7.12148 7.17186 4.14277 10.0237 4.14277H11.0721C9.33885 6.18486 8.29148 8.82656 8.29148 11.7087ZM8.02586 48.0469H4.71141V36.7907C4.76209 33.8688 6.09158 32.233 8.02586 31.1505V48.0469ZM35.2887 36.7907V48.0469H31.9742V31.1505C33.9084 32.233 35.238 33.8688 35.2887 36.7907ZM25.4398 28.9452V34.6214H14.5601V28.9452C15.0984 28.7944 15.6339 28.6371 16.1486 28.4671C16.5487 28.335 16.8189 27.9611 16.8189 27.5397V25.7905C17.8308 26.0766 18.8978 26.2299 20 26.2299C21.1021 26.2299 22.1692 26.0766 23.181 25.7905V27.5397C23.181 27.961 23.4513 28.335 23.8513 28.4671C24.3661 28.637 24.9015 28.7944 25.4398 28.9452ZM29.7554 14.5212C29.7554 19.9004 25.3792 24.2768 20 24.2768C14.6208 24.2768 10.2446 19.9005 10.2446 14.5212V13.7564C10.3585 13.7604 10.4723 13.7629 10.5863 13.7629C14.0576 13.7629 17.5407 11.9248 20 9.88916C22.4592 11.9248 25.942 13.7629 29.4137 13.7629C29.5276 13.7629 29.6415 13.7604 29.7554 13.7564V14.5212ZM29.7554 11.7999C26.4038 11.9453 22.8213 9.84551 20.6575 7.87529C20.2899 7.54072 19.7099 7.54072 19.3426 7.87529C17.1786 9.8456 13.5961 11.9452 10.2447 11.7999V11.7088C10.2446 6.32939 14.6209 1.95312 20 1.95312C25.3791 1.95312 29.7554 6.32939 29.7554 11.7087V11.7999ZM33.0019 17.9657C32.143 16.7049 31.8428 15.0946 31.7085 13.7628V11.7086C31.7085 8.82647 30.6611 6.18477 28.9279 4.14258H29.9762C32.8281 4.14258 35.9647 7.12129 36.6886 10.5167C36.9647 11.8146 36.8311 13.1035 36.6896 14.4681C36.5171 16.1314 36.3262 17.9736 36.9368 19.9582C35.0891 19.787 33.7948 19.1295 33.0019 17.9657Z" fill="#A1A4B1"/>
</svg>
