<svg width="1366" height="613" viewBox="0 0 1366 613" fill="none" xmlns="http://www.w3.org/2000/svg">
<g filter="url(#filter0_d)">
<path d="M0 191L682.511 140.111C683.502 140.037 684.498 140.037 685.489 140.111L1366 191V613H0V191Z" fill="#463987"/>
<g opacity="0.8">
<path d="M1411.47 604.487C1229.97 407.524 1041.18 407.082 791.392 157.297C787.818 153.723 784.243 150.148 780.851 146.602C775.077 167.401 771.622 189.376 770.537 212.214C834.611 260.197 896.66 311.502 956.296 365.809C1121.72 515.77 1179.85 604.823 1253.44 678.413C1266.47 691.449 1280.81 704.862 1295.88 718.386L1295.99 718.491C1317.91 716.136 1338.9 711.549 1358.68 704.791C1380.04 697.621 1399.89 687.925 1417.89 675.858C1429.85 667.843 1440.94 658.786 1451.09 648.753C1438.98 634.789 1425.77 620.034 1411.47 604.487Z" fill="#64599C"/>
<path d="M1489.44 585.474C1470.53 563.179 1448.02 544.122 1423.11 529.309C1358.58 490.523 1316.2 473.875 1260.76 366.965C1220.78 289.916 1141.59 213.692 1100.53 177.129C1087.03 181.802 1074.09 187.631 1061.85 194.558C1024.25 215.627 993.603 246.27 972.533 283.869C965.806 295.74 960.134 308.273 955.572 321.345C957.943 323.844 960.452 326.353 962.961 328.862C1138.29 504.194 1283.08 492.234 1409.47 631.496C1419.44 642.489 1428.61 652.947 1436.98 662.87C1437.7 662.3 1438.35 661.657 1438.99 661.013C1460.49 639.567 1477.56 614.009 1489.44 585.474Z" fill="#54498E"/>
<path d="M1092.08 209.083C1188.4 305.402 1244.38 405.712 1216.98 433.116C1189.58 460.519 1089.27 404.536 992.946 308.217C985.168 300.438 977.604 292.591 970.4 284.82C994.54 244.397 1028.26 210.676 1068.68 186.536C1076.46 193.74 1084.3 201.304 1092.08 209.083Z" fill="#64599C"/>
<path d="M1264.06 689.034C1277.31 702.291 1291.89 715.94 1307.2 729.707C1253.63 734.92 1195.46 726.742 1137.17 705.803C1093.37 639.321 1042.33 576.376 985.417 518.64C928.18 461.912 865.373 411.447 798.919 368.79C779.915 316.38 771.129 263.967 773.102 214.779C838.126 263.714 901.138 315.981 961.741 371.255C1129.84 523.892 1189.22 614.195 1264.06 689.034Z" fill="#584D91"/>
</g>
<path d="M622.527 428.773L608.78 442.519L581.368 422.235C578.245 419.924 575.635 416.99 573.703 413.619C571.771 410.248 570.558 406.513 570.142 402.65L568.633 388.625L582.658 390.135C586.521 390.551 590.256 391.763 593.626 393.696C596.997 395.628 599.931 398.238 602.242 401.361L622.527 428.773Z" fill="#E80054"/>
<path d="M584.149 451.403L588.67 427.637L608.78 442.518L592.022 459.276L584.149 451.403Z" fill="#3D5DC5"/>
<path d="M593.615 431.303L590.27 448.88C590.229 449.09 590.241 449.307 590.304 449.512C590.367 449.717 590.479 449.903 590.631 450.055L595.941 455.365L597.8 453.506L592.983 448.69L595.961 433.039L593.615 431.303Z" fill="#73C3F9"/>
<path d="M631.408 404.145L607.643 408.666L622.524 428.776L639.282 412.018L631.408 404.145Z" fill="#3D5DC5"/>
<path d="M628.883 410.263L611.306 413.608L613.041 415.953L628.692 412.976L633.509 417.792L635.367 415.934L630.057 410.623C629.906 410.472 629.719 410.36 629.515 410.297C629.31 410.234 629.093 410.223 628.883 410.263Z" fill="#73C3F9"/>
<path d="M608.776 442.519L622.523 428.772L627.568 433.816L613.821 447.563L608.776 442.519Z" fill="#73C3F9"/>
<path d="M634.743 454.746C628.495 454.121 622.655 451.354 618.214 446.914L616.347 445.046L625.042 436.35L626.91 438.218C631.351 442.658 634.118 448.498 634.743 454.746Z" fill="#FED402"/>
<path d="M619.767 441.616L624.656 446.506C624.903 446.752 625.237 446.891 625.586 446.891C625.934 446.891 626.269 446.752 626.515 446.506C626.761 446.26 626.9 445.925 626.9 445.577C626.9 445.228 626.761 444.894 626.515 444.647L621.625 439.758L619.767 441.616Z" fill="#FF7129"/>
<path d="M592.662 412.665C595.064 410.264 594.247 405.553 590.837 402.144C587.428 398.735 582.717 397.917 580.316 400.319C577.914 402.72 578.732 407.431 582.141 410.84C585.55 414.25 590.261 415.067 592.662 412.665Z" fill="#FCF9F0"/>
<path opacity="0.4" d="M635 453.969C672.299 472.894 764.113 462.571 715.911 550.318C691.714 594.366 640.165 827.321 1082.59 589.89C1436.54 399.944 1464.19 562.36 1433.78 667.311" stroke="white" stroke-dasharray="5 5"/>
</g>
<defs>
<filter id="filter0_d" x="-4" y="59.7861" width="1521" height="751.605" filterUnits="userSpaceOnUse" color-interpolation-filters="sRGB">
<feFlood flood-opacity="0" result="BackgroundImageFix"/>
<feColorMatrix in="SourceAlpha" type="matrix" values="0 0 0 0 0 0 0 0 0 0 0 0 0 0 0 0 0 0 127 0"/>
<feOffset dy="4"/>
<feGaussianBlur stdDeviation="2"/>
<feColorMatrix type="matrix" values="0 0 0 0 0 0 0 0 0 0 0 0 0 0 0 0 0 0 0.25 0"/>
<feBlend mode="normal" in2="BackgroundImageFix" result="effect1_dropShadow"/>
<feBlend mode="normal" in="SourceGraphic" in2="effect1_dropShadow" result="shape"/>
</filter>
</defs>
</svg>
