<svg width="28" height="28" viewBox="0 0 28 28" fill="none" xmlns="http://www.w3.org/2000/svg">
<circle cx="14" cy="14" r="13.5" fill="white" stroke="#F1F1F1"/>
<g clip-path="url(#clip0)">
<path d="M8.98918 15.876L8.36263 18.215L6.07258 18.2635C5.3882 16.9941 5 15.5417 5 13.9984C5 12.506 5.36295 11.0986 6.00631 9.85938H6.0068L8.04559 10.2332L8.9387 12.2597C8.75177 12.8047 8.64989 13.3897 8.64989 13.9984C8.64996 14.659 8.76963 15.292 8.98918 15.876Z" fill="#FBBB00"/>
<path d="M22.8441 12.3203C22.9475 12.8647 23.0014 13.427 23.0014 14.0016C23.0014 14.646 22.9336 15.2745 22.8046 15.8808C22.3664 17.9438 21.2216 19.7453 19.6358 21.0202L19.6353 21.0197L17.0673 20.8886L16.7039 18.6198C17.7562 18.0027 18.5786 17.0369 19.0118 15.8808H14.1992V12.3203H19.082H22.8441Z" fill="#518EF8"/>
<path d="M19.6355 21.0193L19.636 21.0198C18.0937 22.2595 16.1344 23.0012 14.0016 23.0012C10.5742 23.0012 7.59434 21.0855 6.07422 18.2664L8.99082 15.8789C9.75086 17.9074 11.7076 19.3513 14.0016 19.3513C14.9877 19.3513 15.9114 19.0848 16.7041 18.6194L19.6355 21.0193Z" fill="#28B446"/>
<path d="M19.7462 7.07197L16.8306 9.45894C16.0102 8.94615 15.0404 8.64992 14.0015 8.64992C11.6556 8.64992 9.6622 10.1601 8.94023 12.2613L6.0083 9.86098H6.00781C7.50568 6.97307 10.5231 5 14.0015 5C16.1852 5 18.1875 5.77787 19.7462 7.07197Z" fill="#F14336"/>
</g>
<defs>
<clipPath id="clip0">
<rect width="18" height="18" fill="white" transform="translate(5 5)"/>
</clipPath>
</defs>
</svg>
