<svg width="24" height="24" viewBox="0 0 24 24" fill="none" xmlns="http://www.w3.org/2000/svg">
<path d="M5.625 12.0002C5.625 10.8111 5.95261 9.69721 6.52177 8.74344V4.69775H2.47608C0.870375 6.78313 0 9.32464 0 12.0002C0 14.6757 0.870375 17.2172 2.47608 19.3026H6.52177V15.2569C5.95261 14.3031 5.625 13.1893 5.625 12.0002Z" fill="#FBBD00"/>
<path d="M12 18.3751L9.1875 21.1876L12 24.0001C14.6756 24.0001 17.217 23.1297 19.3024 21.524V17.4826H15.261C14.2989 18.0538 13.1804 18.3751 12 18.3751Z" fill="#0F9D58"/>
<path d="M6.52249 15.2571L2.47681 19.3028C2.79471 19.7157 3.14088 20.1111 3.51546 20.4857C5.78196 22.7522 8.79542 24.0004 12.0007 24.0004V18.3754C9.6746 18.3754 7.63587 17.1229 6.52249 15.2571Z" fill="#31AA52"/>
<path d="M24 11.9998C24 11.2697 23.9339 10.5383 23.8035 9.82591L23.698 9.24939H12V14.8744H17.6931C17.1402 15.9741 16.2902 16.8714 15.261 17.4824L19.3024 21.5238C19.7153 21.2059 20.1106 20.8597 20.4853 20.4851C22.7518 18.2186 24 15.2051 24 11.9998Z" fill="#3C79E6"/>
<path d="M16.5078 7.49217L17.005 7.98933L20.9825 4.01189L20.4853 3.51473C18.2188 1.24823 15.2054 0 12 0L9.1875 2.8125L12 5.625C13.7028 5.625 15.3037 6.28809 16.5078 7.49217Z" fill="#CF2D48"/>
<path d="M11.9998 5.625V0C8.79449 0 5.78103 1.24823 3.51449 3.51469C3.13991 3.88927 2.79374 4.28466 2.47583 4.69758L6.52152 8.74327C7.63494 6.8775 9.67367 5.625 11.9998 5.625Z" fill="#EB4132"/>
</svg>
