<svg width="34" height="34" viewBox="0 0 34 34" fill="none" xmlns="http://www.w3.org/2000/svg">
<path d="M22.5591 16.9919H26.2628C26.2628 11.8808 22.1147 7.7326 17.0036 7.7326V11.4363C20.0777 11.4363 22.5591 13.9178 22.5591 16.9919ZM29.9665 16.9919H33.6702C33.6702 7.78816 26.2073 0.325195 17.0036 0.325195V4.0289C24.1702 4.0289 29.9665 9.8252 29.9665 16.9919ZM31.8184 23.4733C29.5036 23.4733 27.2814 23.103 25.2073 22.4178C25.0221 22.3622 24.8184 22.3252 24.6332 22.3252C24.1517 22.3252 23.6888 22.5104 23.3184 22.8622L19.2443 26.9363C14.0036 24.2696 9.70728 19.9919 7.04062 14.7326L11.1147 10.64C11.6332 10.1585 11.7814 9.43631 11.5777 8.78816C10.8925 6.71408 10.5221 4.49186 10.5221 2.17705C10.5221 1.15853 9.68877 0.325195 8.67025 0.325195H2.18877C1.17025 0.325195 0.336914 1.15853 0.336914 2.17705C0.336914 19.5659 14.4295 33.6585 31.8184 33.6585C32.8369 33.6585 33.6702 32.8252 33.6702 31.8067V25.3252C33.6702 24.3067 32.8369 23.4733 31.8184 23.4733ZM4.09617 4.0289H6.87395C7.00358 5.65853 7.28136 7.26964 7.70728 8.80668L5.48506 11.0474C4.74432 8.80668 4.26284 6.47334 4.09617 4.0289ZM29.9665 29.8993C27.5221 29.7326 25.1517 29.2511 22.9295 28.4919L25.1517 26.2696C26.7258 26.7141 28.3369 26.9919 29.9665 27.103V29.8993Z" fill="#663AB7"/>
</svg>
