<svg width="28" height="29" viewBox="0 0 28 29" fill="none" xmlns="http://www.w3.org/2000/svg">
<circle cx="14" cy="14.6411" r="13.5" fill="white" stroke="#F1F1F1"/>
<path d="M21.9519 11.7017C21.913 10.8501 21.7777 10.2686 21.58 9.75977C21.3792 9.22595 21.0642 8.74243 20.6572 8.34277C20.2577 7.93579 19.774 7.62073 19.2402 7.4198C18.7313 7.22217 18.1499 7.08704 17.2983 7.04834C16.4452 7.00928 16.1726 7 14 7C11.8274 7 11.5548 7.00928 10.7017 7.0481C9.8501 7.08704 9.26868 7.22229 8.75977 7.42004C8.22595 7.62085 7.74243 7.93579 7.34277 8.34277C6.93579 8.74231 6.62073 9.22583 6.4198 9.75964C6.22217 10.2686 6.08704 10.8501 6.04834 11.7015C6.00928 12.5548 6 12.8273 6 14.9999C6 17.1726 6.00928 17.4452 6.04834 18.2983C6.08716 19.1498 6.22241 19.7313 6.42017 20.2402C6.62097 20.7739 6.93591 21.2576 7.3429 21.6571C7.74243 22.0641 8.22607 22.379 8.75989 22.5798C9.26868 22.7777 9.85022 22.9128 10.7018 22.9518C11.5551 22.9907 11.8275 22.9999 14.0001 22.9999C16.1727 22.9999 16.4453 22.9907 17.2985 22.9518C18.15 22.9128 18.7314 22.7777 19.2404 22.5798C20.3149 22.1643 21.1644 21.3148 21.58 20.2402C21.7778 19.7313 21.913 19.1498 21.9519 18.2983C21.9907 17.4451 22 17.1726 22 15C22 12.8273 21.9907 12.5548 21.9519 11.7017V11.7017ZM20.5118 18.2328C20.4763 19.0128 20.3459 19.4364 20.2365 19.7183C19.9673 20.416 19.4159 20.9674 18.7181 21.2366C18.4363 21.3461 18.0127 21.4764 17.2327 21.512C16.3893 21.5505 16.1362 21.5586 14 21.5586C11.8636 21.5586 11.6107 21.5505 10.7672 21.512C9.9873 21.4764 9.56372 21.3461 9.28174 21.2366C8.93433 21.1083 8.62 20.9038 8.36194 20.6381C8.09619 20.38 7.89172 20.0658 7.76343 19.7183C7.65393 19.4364 7.52356 19.0128 7.48804 18.2328C7.44958 17.3893 7.44141 17.1362 7.44141 15.0001C7.44141 12.8639 7.44958 12.611 7.48804 11.7673C7.52368 10.9873 7.65393 10.5637 7.76343 10.2819C7.89172 9.93433 8.09631 9.62 8.36194 9.36194C8.62 9.09619 8.93433 8.89172 9.28186 8.76355C9.56372 8.65393 9.9873 8.52368 10.7673 8.48804C11.6108 8.44958 11.8639 8.44141 14 8.44141H13.9999C16.136 8.44141 16.389 8.44958 17.2327 8.48816C18.0127 8.52368 18.4362 8.65405 18.7181 8.76355C19.0656 8.89185 19.3799 9.09631 19.6379 9.36194C19.9037 9.62 20.1082 9.93433 20.2363 10.2819C20.3459 10.5637 20.4763 10.9873 20.5118 11.7673C20.5503 12.6108 20.5585 12.8639 20.5585 15C20.5585 17.1362 20.5504 17.3892 20.5118 18.2328Z" fill="url(#paint0_linear)"/>
<path d="M14.0006 10.8921C11.7318 10.8921 9.89258 12.7314 9.89258 15.0002C9.89258 17.269 11.7318 19.1083 14.0006 19.1083C16.2695 19.1083 18.1088 17.269 18.1088 15.0002C18.1088 12.7314 16.2695 10.8921 14.0006 10.8921V10.8921ZM14.0006 17.6669C12.528 17.6667 11.334 16.4729 11.3341 15.0001C11.3341 13.5275 12.528 12.3335 14.0007 12.3335C15.4735 12.3336 16.6674 13.5275 16.6674 15.0001C16.6674 16.4729 15.4734 17.6669 14.0006 17.6669V17.6669Z" fill="url(#paint1_linear)"/>
<path d="M19.2306 10.7296C19.2306 11.2598 18.8008 11.6896 18.2706 11.6896C17.7404 11.6896 17.3105 11.2598 17.3105 10.7296C17.3105 10.1993 17.7404 9.76953 18.2706 9.76953C18.8008 9.76953 19.2306 10.1993 19.2306 10.7296V10.7296Z" fill="url(#paint2_linear)"/>
<defs>
<linearGradient id="paint0_linear" x1="7.34269" y1="21.6572" x2="20.6573" y2="8.34256" gradientUnits="userSpaceOnUse">
<stop stop-color="#FFD600"/>
<stop offset="0.5" stop-color="#FF0100"/>
<stop offset="1" stop-color="#D800B9"/>
</linearGradient>
<linearGradient id="paint1_linear" x1="11.0958" y1="17.9051" x2="16.9055" y2="12.0953" gradientUnits="userSpaceOnUse">
<stop stop-color="#FF6400"/>
<stop offset="0.5" stop-color="#FF0100"/>
<stop offset="1" stop-color="#FD0056"/>
</linearGradient>
<linearGradient id="paint2_linear" x1="17.5918" y1="11.4084" x2="18.9494" y2="10.0508" gradientUnits="userSpaceOnUse">
<stop stop-color="#F30072"/>
<stop offset="1" stop-color="#E50097"/>
</linearGradient>
</defs>
</svg>
