<svg width="34" height="30" viewBox="0 0 34 30" fill="none" xmlns="http://www.w3.org/2000/svg">
<path d="M18.3218 19.605L14.4733 15.84L14.5187 15.795C17.1551 12.885 19.0339 9.54 20.1399 6H24.5793V3H13.9733V0H10.943V3H0.336914V5.985H17.2612C16.246 8.88 14.6399 11.625 12.4581 14.025C11.049 12.48 9.88237 10.785 8.95813 9H5.92782C7.03388 11.445 8.54904 13.755 10.443 15.84L2.73085 23.37L4.88237 25.5L12.4581 18L17.1702 22.665L18.3218 19.605ZM26.8521 12H23.8218L17.0036 30H20.0339L21.7309 25.5H28.9278L30.6399 30H33.6702L26.8521 12ZM22.8824 22.5L25.3369 16.005L27.7915 22.5H22.8824Z" fill="#663AB7"/>
</svg>
