<svg width="128" height="51" viewBox="0 0 128 51" fill="none" xmlns="http://www.w3.org/2000/svg">
<path d="M2.36432 44.7777C6.77975 52.8827 114.222 51.1704 123.298 42.7229C131.638 35.0745 127.713 9.84618 120.6 4.36673C110.788 -3.05336 15.6106 0.0288291 7.76096 5.85075C0.156608 11.3302 -2.29641 36.4444 2.36432 44.7777Z" fill="url(#paint0_radial)"/>
<path d="M2.60877 43.4077C7.0242 51.1702 113.73 47.7456 122.807 39.6405C131.147 32.2204 127.222 10.0743 120.108 4.70902C110.296 -2.48276 15.6098 0.371121 7.76011 6.07888C0.401059 11.33 -2.05196 35.3026 2.60877 43.4077Z" fill="url(#paint1_linear)"/>
<path d="M3.83777 42.7122C8.2532 50.2465 112.506 46.8218 121.583 38.9451C129.678 31.7533 125.998 10.2921 118.884 5.15514C109.317 -1.80833 16.5935 0.931394 8.9891 6.41085C1.63005 11.4337 -0.577664 34.8355 3.83777 42.7122Z" fill="url(#paint2_linear)"/>
<path d="M116.677 40.5543C116.186 39.641 121.092 35.7598 122.319 35.7598C123.545 35.7598 122.564 38.3853 121.583 38.9561C120.602 39.5269 116.922 41.0109 116.677 40.5543Z" fill="white"/>
<path d="M8.49553 10.8737C8.49553 10.8737 5.06131 6.76406 11.6845 5.28004C18.5529 3.79602 40.3847 2.31201 41.6113 2.76863C42.5925 3.11109 32.2898 4.93758 26.8932 5.85082C21.4965 6.76406 11.4391 11.5586 8.49553 10.8737Z" fill="white"/>
<defs>
<radialGradient id="paint0_radial" cx="0" cy="0" r="1" gradientUnits="userSpaceOnUse" gradientTransform="translate(65.9608 46.5318) scale(49.4394 43.1417)">
<stop stop-color="#FFBD00"/>
<stop offset="1" stop-color="#FF772C"/>
</radialGradient>
<linearGradient id="paint1_linear" x1="63.8871" y1="47.7796" x2="63.8871" y2="0.483336" gradientUnits="userSpaceOnUse">
<stop stop-color="#FFF300"/>
<stop offset="1" stop-color="#FF9700"/>
</linearGradient>
<linearGradient id="paint2_linear" x1="63.8896" y1="46.9081" x2="63.8896" y2="0.971692" gradientUnits="userSpaceOnUse">
<stop stop-color="#FFCC00"/>
<stop offset="1" stop-color="#FF9700"/>
</linearGradient>
</defs>
</svg>
