<svg width="18" height="18" viewBox="0 0 18 18" fill="none" xmlns="http://www.w3.org/2000/svg">
<path d="M9.99951 0H7.99951V10H9.99951V0ZM14.8295 2.17L13.4095 3.59C14.9895 4.86 15.9995 6.81 15.9995 9C15.9995 12.87 12.8695 16 8.99951 16C5.12951 16 1.99951 12.87 1.99951 9C1.99951 6.81 3.00951 4.86 4.57951 3.58L3.16951 2.17C1.22951 3.82 -0.000488281 6.26 -0.000488281 9C-0.000488281 13.97 4.02951 18 8.99951 18C13.9695 18 17.9995 13.97 17.9995 9C17.9995 6.26 16.7695 3.82 14.8295 2.17Z" fill="#D84C54"/>
</svg>
