<svg width="360" height="621" viewBox="0 0 360 621" fill="none" xmlns="http://www.w3.org/2000/svg">
<path d="M0 112.745L175.951 73.9508C178.792 73.3245 181.735 73.3254 184.576 73.9535L360 112.745V621H0V112.745Z" fill="#463987"/>
<g opacity="0.8">
<path d="M493.788 393.713C375.43 265.272 252.319 264.983 89.4311 102.096C87.1002 99.7649 84.7693 97.434 82.5574 95.1213C78.7919 108.685 76.5391 123.015 75.8312 137.908C117.614 169.198 158.078 202.655 196.967 238.069C304.842 335.86 342.747 393.933 390.736 441.921C399.237 450.422 408.588 459.169 418.416 467.988L418.485 468.057C432.777 466.521 446.465 463.53 459.366 459.123C473.298 454.447 486.237 448.124 497.977 440.255C505.775 435.029 513.01 429.122 519.629 422.58C511.733 413.474 503.119 403.852 493.788 393.713Z" fill="#64599C"/>
<path d="M544.632 381.32C532.302 366.781 517.625 354.354 501.377 344.694C459.3 319.402 431.659 308.545 395.51 238.828C369.435 188.583 317.798 138.877 291.018 115.034C282.217 118.081 273.781 121.882 265.794 126.399C241.275 140.139 221.292 160.122 207.552 184.64C203.165 192.381 199.466 200.554 196.492 209.079C198.038 210.709 199.674 212.345 201.31 213.981C315.646 328.317 410.063 320.518 492.485 411.332C498.982 418.501 504.963 425.32 510.426 431.791C510.894 431.419 511.314 431 511.733 430.58C525.753 416.595 536.885 399.928 544.632 381.32Z" fill="#54498E"/>
<path d="M285.512 135.868C348.323 198.679 384.83 264.092 366.96 281.963C349.09 299.833 283.676 263.326 220.865 200.515C215.793 195.442 210.86 190.325 206.162 185.258C221.904 158.897 243.894 136.907 270.255 121.165C275.322 125.863 280.439 130.796 285.512 135.868Z" fill="#64599C"/>
<path d="M397.658 448.854C406.303 457.499 415.809 466.399 425.795 475.377C390.859 478.776 352.927 473.444 314.912 459.788C286.349 416.435 253.068 375.388 215.954 337.737C178.629 300.745 137.672 267.836 94.3359 240.019C81.9432 205.842 76.2137 171.662 77.5003 139.587C119.904 171.497 160.994 205.582 200.514 241.626C310.135 341.163 348.855 400.05 397.658 448.854Z" fill="#584D91"/>
</g>
<path d="M124.468 406.115L117.117 413.466L102.458 402.619C100.788 401.383 99.3918 399.814 98.3586 398.012C97.3253 396.209 96.677 394.212 96.4545 392.146L95.6471 384.646L103.147 385.453C105.213 385.676 107.21 386.324 109.013 387.357C110.815 388.391 112.384 389.786 113.62 391.456L124.468 406.115Z" fill="#E80054"/>
<path d="M103.944 418.216L106.362 405.507L117.116 413.465L108.155 422.426L103.944 418.216Z" fill="#3D5DC5"/>
<path d="M109.005 407.466L107.216 416.865C107.195 416.978 107.201 417.094 107.235 417.203C107.268 417.313 107.328 417.412 107.409 417.493L110.249 420.333L111.243 419.339L108.667 416.763L110.26 408.394L109.005 407.466Z" fill="#73C3F9"/>
<path d="M129.218 392.942L116.509 395.36L124.467 406.114L133.429 397.152L129.218 392.942Z" fill="#3D5DC5"/>
<path d="M127.867 396.216L118.468 398.005L119.396 399.259L127.765 397.667L130.341 400.242L131.335 399.248L128.495 396.409C128.414 396.328 128.315 396.268 128.205 396.234C128.096 396.201 127.98 396.194 127.867 396.216Z" fill="#73C3F9"/>
<path d="M117.117 413.465L124.468 406.114L127.166 408.811L119.815 416.162L117.117 413.465Z" fill="#73C3F9"/>
<path d="M131.002 420.004C127.66 419.67 124.537 418.19 122.163 415.815L121.164 414.816L125.814 410.166L126.813 411.165C129.188 413.539 130.668 416.662 131.002 420.004Z" fill="#FED402"/>
<path d="M122.992 412.984L125.607 415.599C125.739 415.731 125.918 415.805 126.104 415.805C126.29 415.805 126.469 415.731 126.601 415.599C126.733 415.467 126.807 415.289 126.807 415.102C126.807 414.916 126.733 414.737 126.601 414.605L123.986 411.99L122.992 412.984Z" fill="#FF7129"/>
<path d="M108.498 397.5C109.782 396.216 109.345 393.697 107.522 391.873C105.699 390.05 103.18 389.613 101.896 390.897C100.611 392.182 101.048 394.701 102.872 396.524C104.695 398.347 107.214 398.784 108.498 397.5Z" fill="#FCF9F0"/>
<path opacity="0.4" d="M131 420C149.28 429.267 194.278 424.212 170.654 467.175C158.796 488.742 133.531 602.803 350.365 486.55C523.832 393.548 537.387 473.071 522.482 524.458" stroke="white" stroke-dasharray="5 5"/>
</svg>
