<svg width="20" height="16" viewBox="0 0 20 16" fill="none" xmlns="http://www.w3.org/2000/svg">
<path d="M8.1667 7.08317L7.30503 8.9715L5.4167 9.83317L7.30503 10.6948L8.1667 12.5832L9.02836 10.6948L10.9167 9.83317L9.02836 8.9715L8.1667 7.08317ZM15.5092 0.666504L17.3425 4.33317H14.5925L12.7592 0.666504H10.9259L12.7592 4.33317H10.0092L8.17586 0.666504H6.34253L8.17586 4.33317H5.42586L3.59253 0.666504H2.67586C1.66753 0.666504 0.851696 1.4915 0.851696 2.49984L0.842529 13.4998C0.842529 14.5082 1.66753 15.3332 2.67586 15.3332H17.3425C18.3509 15.3332 19.1667 14.5082 19.1667 13.4998V0.666504H15.5092ZM17.3425 13.4998H2.67586V2.93067L4.2892 6.1665H13.6667L13.0892 7.42234L11.8334 7.99984L13.0892 8.57734L13.6667 9.83317L14.2442 8.57734L15.5 7.99984L14.2442 7.42234L13.6667 6.1665H17.3425V13.4998Z" fill="#FFCF4B"/>
</svg>
