<svg width="20" height="20" viewBox="0 0 20 20" fill="none" xmlns="http://www.w3.org/2000/svg">
<path d="M10.0002 0.833496C4.94016 0.833496 0.833496 4.94016 0.833496 10.0002C0.833496 15.0602 4.94016 19.1668 10.0002 19.1668C15.0602 19.1668 19.1668 15.0602 19.1668 10.0002C19.1668 4.94016 15.0602 0.833496 10.0002 0.833496ZM9.0835 17.2693C5.46266 16.8202 2.66683 13.7402 2.66683 10.0002C2.66683 9.43183 2.74016 8.891 2.85933 8.35933L7.25016 12.7502V13.6668C7.25016 14.6752 8.07516 15.5002 9.0835 15.5002V17.2693ZM15.4085 14.941C15.1702 14.1985 14.4918 13.6668 13.6668 13.6668H12.7502V10.9168C12.7502 10.4127 12.3377 10.0002 11.8335 10.0002H6.3335V8.16683H8.16683C8.671 8.16683 9.0835 7.75433 9.0835 7.25016V5.41683H10.9168C11.9252 5.41683 12.7502 4.59183 12.7502 3.5835V3.20766C15.436 4.2985 17.3335 6.92933 17.3335 10.0002C17.3335 11.9068 16.6002 13.6393 15.4085 14.941Z" fill="#FFCF4B"/>
</svg>
