<svg width="360" height="366" viewBox="0 0 360 366" fill="none" xmlns="http://www.w3.org/2000/svg">
<path d="M0 0H360V288.421C360 301.421 347.792 310.966 335.176 307.831L15.1761 228.3C6.25972 226.084 0 218.079 0 208.891V0Z" fill="#463987"/>
<g opacity="0.8">
<path d="M454.102 197.502C328.875 60.8534 193.844 64.9467 21.0065 -107.891C18.5332 -110.364 16.06 -112.838 13.7165 -115.295C9.10029 -100.283 6.11593 -84.483 4.80608 -68.1218C49.5175 -35.2958 92.7032 -0.0462153 134.093 37.4064C248.919 140.81 288.416 203.152 339.337 254.073C348.357 263.093 358.302 272.352 368.766 281.674L368.839 281.747C384.571 279.551 399.693 275.779 414.001 270.483C429.451 264.855 443.87 257.456 457.03 248.404C465.771 242.392 473.918 235.654 481.413 228.24C473.078 218.535 463.974 208.289 454.102 197.502Z" fill="#64599C"/>
<path d="M529.388 160.963C514.947 143.515 497.332 128.962 477.473 118.072C426.073 89.5157 391.805 78.0933 351.827 -7.57439C322.986 -69.3122 261.533 -128.137 229.494 -156.179C218.017 -151.531 206.939 -145.953 196.369 -139.503C163.936 -119.863 136.738 -92.6646 117.098 -60.2315C110.834 -49.9876 105.41 -39.2537 100.878 -28.1347C102.706 -26.1929 104.647 -24.2511 106.589 -22.3093C242.287 113.388 363.25 95.2268 460.34 203.739C467.993 212.306 475.017 220.473 481.414 228.24C482.042 227.726 482.613 227.155 483.184 226.584C502.264 207.546 517.897 185.343 529.388 160.963Z" fill="#483B8A"/>
<path d="M214.755 -121.796C290.428 -46.1233 333.948 33.1479 311.845 55.2501C289.743 77.3524 210.472 33.8332 134.799 -41.8399C128.688 -47.9509 122.748 -54.1189 117.094 -60.2299C136.734 -92.663 163.932 -119.861 196.365 -139.501C202.476 -133.847 208.644 -127.907 214.755 -121.796Z" fill="#64599C"/>
<path d="M343.253 257.995C353.046 267.787 363.813 277.869 375.124 288.038C335.552 291.889 292.586 285.848 249.525 270.381C217.171 221.274 179.473 174.778 137.433 132.131C95.1546 90.2292 48.7615 52.9528 -0.32586 21.4434C-14.3632 -17.2698 -20.8532 -55.9853 -19.3959 -92.318C28.6354 -56.1722 75.1794 -17.5643 119.945 23.264C244.114 136.011 287.973 202.714 343.253 257.995Z" fill="#483B8A"/>
</g>
</svg>
