<svg width="22" height="18" viewBox="0 0 22 18" fill="none" xmlns="http://www.w3.org/2000/svg">
<path d="M20 0H2C0.9 0 0 0.9 0 2V14C0 15.1 0.9 16 2 16H7V17C7 17.55 7.45 18 8 18H14C14.55 18 15 17.55 15 17V16H20C21.1 16 21.99 15.1 21.99 14L22 2C22 0.89 21.1 0 20 0ZM19 14H3C2.45 14 2 13.55 2 13V3C2 2.45 2.45 2 3 2H19C19.55 2 20 2.45 20 3V13C20 13.55 19.55 14 19 14ZM13.48 8.87L9.5 11.15C8.83 11.53 8 11.04 8 10.28V5.72C8 4.95 8.83 4.47 9.5 4.85L13.48 7.13C14.15 7.52 14.15 8.48 13.48 8.87Z" fill="#FFCF4B"/>
</svg>
