<svg width="44" height="50" viewBox="0 0 44 50" fill="none" xmlns="http://www.w3.org/2000/svg">
<path d="M43.1872 48.0641L42.534 38.8319C42.3767 36.6115 41.3685 34.6988 39.5374 33.1469C38.2465 32.0528 36.5354 31.1211 34.3246 30.3077L34.9921 27.8413C35.2027 27.0618 35.0715 26.2856 34.6319 25.7114C34.2092 25.1594 33.5503 24.8554 32.7762 24.8554H30.3516C31.5933 23.4822 32.5788 21.8936 33.1491 20.2554C35.1164 20.0572 36.9522 18.8667 36.9522 16.7794V15.7247C36.9522 14.6448 36.2486 13.7278 35.2799 13.4155C36.6571 12.108 37.4609 10.124 37.6751 7.4841L37.6782 7.44542C37.7304 6.79649 37.7717 6.28399 37.2908 5.98116C36.8038 5.67422 36.2951 5.97002 35.924 6.18585C35.0381 6.7003 34.2519 7.00968 33.3943 7.17286C32.7683 5.0623 31.4716 3.29501 29.6148 2.03279C27.8539 0.835717 25.6034 0.118623 23.2782 0.0132511C21.3181 -0.0757142 19.3928 0.277413 17.8553 1.00671C16.3441 1.72361 15.2625 2.75819 14.6958 4.02001C13.6026 4.02704 12.6863 4.36289 11.966 5.02187C10.5381 6.32842 10.3249 8.54191 10.3249 9.74505V13.3006H9.45178C8.12599 13.3006 7.04737 14.3879 7.04737 15.7245V16.7792C7.04737 18.8664 8.88293 20.0568 10.8501 20.2552C11.412 21.855 12.403 23.461 13.6582 24.8553H11.2261C10.4506 24.8553 9.79055 25.1596 9.3675 25.712C8.92814 26.286 8.79699 27.0619 9.00783 27.842L9.67707 30.3069C6.43106 31.5019 4.20682 32.9877 2.88963 34.838C2.65506 35.1676 2.73201 35.6248 3.06151 35.8594C3.19031 35.9511 3.33866 35.9952 3.48563 35.9952C3.71454 35.9952 3.94003 35.8882 4.0829 35.6875C5.24589 34.0538 7.29922 32.7213 10.3503 31.6209L14.9005 36.5487V48.5331L9.64152 48.5338V44.5557C9.64152 44.1512 9.31359 43.8233 8.9091 43.8233C8.5046 43.8233 8.17667 44.1512 8.17667 44.5557V48.534L2.67517 48.5348C2.45896 48.5348 2.2614 48.3437 2.27361 48.1673L2.92684 38.9353C2.95535 38.5317 2.65144 38.1815 2.24793 38.1529C1.84509 38.1249 1.49421 38.4283 1.4656 38.8318L0.812274 48.065C0.778289 48.5555 0.795379 49.1127 1.17985 49.5247C1.57038 49.9432 2.15486 49.9996 2.67517 49.9996H8.909C8.91496 49.9996 8.92082 49.9988 8.92677 49.9987L41.3271 49.9996C41.8473 49.9996 42.4317 49.9429 42.8223 49.5233C43.2069 49.11 43.2226 48.5532 43.1872 48.0641ZM8.51222 16.7793V15.7246C8.51222 15.2047 8.9425 14.7656 9.45178 14.7656H10.3249V17.38C10.3249 17.8237 10.3669 18.2697 10.4424 18.707C9.38322 18.4579 8.51222 17.8037 8.51222 16.7793ZM35.4875 15.7245V16.7792C35.4875 17.8034 34.6172 18.4574 33.5585 18.7066C33.6347 18.2696 33.6776 17.8236 33.6776 17.3799V14.7655H34.5507C35.0586 14.7656 35.4875 15.2047 35.4875 15.7245ZM12.0946 19.3452C11.8923 18.6615 11.7897 18.0003 11.7897 17.3799V14.2458C13.0121 12.3683 15.0424 10.9505 16.4426 11.7603C17.6795 12.4761 19.1168 13.0862 20.7148 13.5737C21.102 13.6917 21.5111 13.4737 21.6291 13.0869C21.7471 12.6999 21.5292 12.2907 21.1423 12.1726C19.651 11.7176 18.3166 11.1524 17.1762 10.4924C15.4418 9.48928 13.3697 10.3617 11.7897 11.9341V9.74505C11.7897 8.97043 11.9033 7.06485 12.9548 6.10264C13.4862 5.61641 14.196 5.42022 15.1252 5.50293C15.4668 5.53301 15.783 5.32324 15.8876 4.99707C16.6048 2.76141 19.6176 1.31511 23.2118 1.47654C26.4632 1.6239 30.5532 3.25692 31.9069 7.32511C29.684 7.384 27.1403 6.75147 26.118 5.825C25.8184 5.55342 25.3551 5.57617 25.0834 5.87588C24.8118 6.17559 24.8346 6.63878 25.1343 6.91046C26.5253 8.17101 29.2645 8.79445 31.6004 8.79445C32.063 8.79445 32.5102 8.76985 32.9276 8.72102C32.9283 8.72092 32.929 8.72102 32.9296 8.72092C32.9313 8.72072 32.9329 8.72053 32.9345 8.72033C32.9353 8.72023 32.9361 8.72023 32.9368 8.72014C32.9371 8.72014 32.9373 8.72004 32.9376 8.72004C34.0974 8.59387 35.0942 8.2883 36.1826 7.71652C35.8734 10.6618 34.7573 12.495 32.7779 13.311C32.7676 13.3126 32.7571 13.3137 32.7469 13.3158C30.0623 13.5593 27.071 13.4222 24.3073 12.9274C23.9097 12.8565 23.5286 13.1211 23.4573 13.5193C23.3861 13.9175 23.651 14.2981 24.0493 14.3694C26.0043 14.7193 28.0694 14.8981 30.0717 14.8981C30.7965 14.8981 31.5125 14.8738 32.2127 14.8266V17.38C32.2127 17.4567 32.2111 17.5343 32.2079 17.6125C32.1853 18.1599 32.0837 18.7417 31.9049 19.3459C30.9212 22.6817 27.8011 25.9937 24.4851 27.2211C23.5578 27.5657 22.7681 27.7261 21.9997 27.7261C21.2314 27.7261 20.4417 27.5657 19.5126 27.2204C18.6843 26.9151 17.8574 26.4781 17.0552 25.9218C14.7142 24.2973 12.8134 21.7773 12.0946 19.3452ZM15.9664 32.0444L15.2597 34.7793L11.2216 30.405L10.4218 27.459C10.3311 27.1236 10.3708 26.8115 10.5307 26.6026C10.7094 26.3692 11.0075 26.3201 11.2262 26.3201H15.171C15.4298 26.5382 15.6952 26.7468 15.9665 26.9443V32.0444H15.9664ZM27.6342 48.533L21.9997 48.5322L16.3654 48.533V40.0986C18.0541 40.6292 20.0408 40.9172 22.0772 40.9172C24.0497 40.9172 25.9823 40.6462 27.6341 40.1467V48.533H27.6342ZM27.6342 38.6082C26.0359 39.1537 24.0855 39.4523 22.0773 39.4523C20.002 39.4523 17.9966 39.1347 16.3655 38.5543V36.3554L16.9023 34.2779L17.8366 34.2485C18.2704 34.2497 18.3788 34.3218 18.7307 35.1459L19.0518 35.8905C19.1713 36.1675 19.4412 36.3331 19.7248 36.3331C19.8216 36.3331 19.92 36.3138 20.0144 36.273C20.3859 36.1129 20.5572 35.6819 20.397 35.3104L20.0768 34.568C19.7552 33.8149 19.3146 32.7835 17.8255 32.7835C17.8177 32.7835 17.8101 32.7836 17.8024 32.7839L17.284 32.8002L17.408 32.3206C17.4234 32.2607 17.4312 32.1991 17.4312 32.1374V27.8732C17.9507 28.1573 18.4764 28.3995 19.0043 28.5941C20.1001 29.0011 21.0519 29.1908 21.9998 29.1908C22.9478 29.1908 23.8996 29.0012 24.9945 28.5944C25.5292 28.3964 26.0564 28.1527 26.5713 27.8708V32.1374C26.5713 32.199 26.5791 32.2604 26.5945 32.3202L26.7139 32.7836H26.3432C24.86 32.7836 24.4164 33.8139 24.0918 34.5678L23.7734 35.3125C23.6145 35.6845 23.7871 36.1148 24.159 36.2739C24.2529 36.314 24.3505 36.333 24.4465 36.333C24.731 36.333 25.0015 36.1663 25.1203 35.8883L25.4379 35.1453C25.7954 34.3147 25.9025 34.2483 26.3431 34.2483H27.0913L27.6342 36.3548V38.6082ZM28.3797 33.3781C28.3739 33.3475 28.3661 33.3176 28.3567 33.2885L28.0361 32.0447V26.9408C28.3074 26.7437 28.5735 26.5371 28.8325 26.3203H32.7762C32.9938 26.3203 33.2906 26.3692 33.4688 26.602C33.6289 26.8111 33.6686 27.1235 33.578 27.4589L32.7806 30.4051L28.7407 34.7786L28.3797 33.3781ZM41.3273 48.5349L35.8229 48.5341V44.5558C35.8229 44.1513 35.4951 43.8234 35.0905 43.8234C34.6859 43.8234 34.3581 44.1513 34.3581 44.5558V48.5339L29.0991 48.5332V36.5486L33.6517 31.6208C38.4813 33.3641 40.8432 35.6959 41.0727 38.9354L41.726 48.1686C41.7388 48.3442 41.5422 48.5349 41.3273 48.5349Z" fill="#3D317A"/>
</svg>
