<svg width="360" height="744" viewBox="0 0 360 744" fill="none" xmlns="http://www.w3.org/2000/svg">
<g clip-path="url(#clip0)">
<rect width="360" height="744" fill="#1F64FD"/>
<path d="M0 0H360V744H0V0Z" fill="url(#paint0_linear)"/>
<path d="M7.84231 528.927C7.55219 528.925 7.31335 528.698 7.29578 528.409C6.53317 515.886 6.01775 515.363 -6.49032 514.397C-6.77958 514.375 -7.00229 514.132 -6.99998 513.842C-6.99768 513.552 -6.77123 513.313 -6.48139 513.296C6.04079 512.533 6.56457 512.018 7.53001 499.51C7.55219 499.22 7.79478 498.998 8.0849 499C8.37502 499.002 8.61386 499.229 8.63143 499.519C9.39404 512.041 9.90947 512.565 22.4175 513.53C22.7068 513.552 22.9295 513.795 22.9272 514.085C22.9249 514.375 22.6984 514.614 22.4086 514.631C9.88642 515.394 9.36264 515.909 8.3972 528.418C8.37502 528.707 8.13243 528.929 7.84231 528.927V528.927Z" fill="#FEA613"/>
<path d="M3.20716 512.02C1.23391 512.87 -1.76132 513.12 -6.42508 513.404C-6.71428 513.422 -6.94024 513.66 -6.94254 513.949C-6.94484 514.239 -6.72262 514.481 -6.43399 514.503C6.04687 515.466 6.56117 515.989 7.32212 528.484C7.33966 528.773 7.57798 528.999 7.86747 529.001C8.15696 529.004 8.39902 528.782 8.42115 528.493C8.77619 523.892 9.07229 520.918 9.92955 518.958C9.24248 514.31 7.78669 512.795 3.20716 512.02V512.02Z" fill="#FE9901"/>
<path d="M330.331 723.946C329.992 723.943 329.714 723.679 329.693 723.34C328.803 708.718 328.201 708.107 313.595 706.979C313.257 706.953 312.997 706.67 313 706.331C313.003 705.992 313.267 705.714 313.606 705.693C328.228 704.803 328.839 704.201 329.967 689.595C329.992 689.257 330.276 688.997 330.615 689C330.953 689.003 331.232 689.267 331.253 689.606C332.143 704.228 332.745 704.839 347.351 705.967C347.689 705.992 347.948 706.276 347.946 706.615C347.943 706.953 347.679 707.232 347.34 707.253C332.718 708.143 332.107 708.745 330.979 723.351C330.953 723.688 330.67 723.948 330.331 723.946Z" fill="#FEA613"/>
<path d="M53.3388 573.965L49.9085 577.395C49.6165 577.687 49.143 577.687 48.8505 577.395L45.4201 573.965C45.1282 573.673 45.1282 573.199 45.4201 572.907L48.8505 569.477C49.1424 569.185 49.6165 569.185 49.9085 569.477L53.3388 572.907C53.6307 573.2 53.6307 573.673 53.3388 573.965Z" fill="#FED402"/>
<path d="M17.0673 141.004L13.637 144.434C13.345 144.726 12.8709 144.726 12.579 144.434L9.14864 141.004C8.8567 140.712 8.8567 140.238 9.14864 139.946L12.579 136.516C12.8709 136.224 13.345 136.224 13.637 136.516L17.0673 139.946C17.3593 140.239 17.3593 140.712 17.0673 141.004Z" fill="#FED402"/>
<path d="M295.242 126.181C290.204 127.986 288.065 130.125 286.26 135.163C285.861 136.279 284.297 136.279 283.898 135.163C282.093 130.125 279.954 127.986 274.916 126.181C273.8 125.782 273.8 124.218 274.916 123.819C279.954 122.014 282.093 119.875 283.898 114.837C284.297 113.721 285.861 113.721 286.26 114.837C288.065 119.875 290.204 122.014 295.242 123.819C296.358 124.218 296.358 125.781 295.242 126.181V126.181Z" fill="#FED402"/>
<path d="M288.146 130.628C286.351 125.616 284.222 123.488 279.21 121.692C279.166 121.677 279.127 121.656 279.086 121.637C277.939 122.439 276.56 123.101 274.833 123.72C273.722 124.117 273.722 125.672 274.833 126.07C279.844 127.865 281.973 129.994 283.769 135.006C284.166 136.116 285.721 136.116 286.119 135.006C286.737 133.278 287.399 131.899 288.202 130.753C288.183 130.712 288.162 130.672 288.146 130.628V130.628Z" fill="#FAC600"/>
<path d="M234.675 46C234.501 45.9986 234.357 45.8624 234.346 45.6881C233.888 38.1565 233.578 37.8415 226.055 37.2608C225.88 37.2474 225.747 37.1015 225.748 36.927C225.749 36.7526 225.886 36.6089 226.06 36.5983C233.592 36.1396 233.907 35.8296 234.487 28.3066C234.501 28.1324 234.647 27.9986 234.821 28C234.995 28.0014 235.139 28.1376 235.15 28.3119C235.608 35.8435 235.918 36.1585 243.441 36.7392C243.616 36.7526 243.749 36.8985 243.748 37.073C243.747 37.2474 243.61 37.3911 243.436 37.4017C235.905 37.8604 235.59 38.1704 235.009 45.6934C234.995 45.8674 234.85 46.0014 234.675 46Z" fill="#FEA613"/>
</g>
<defs>
<linearGradient id="paint0_linear" x1="184.612" y1="686.224" x2="225.818" y2="-18.7348" gradientUnits="userSpaceOnUse">
<stop offset="0.307292" stop-color="#070330"/>
<stop offset="1" stop-color="#648CFC"/>
</linearGradient>
<clipPath id="clip0">
<rect width="360" height="744" fill="white"/>
</clipPath>
</defs>
</svg>
