<svg width="31" height="22" viewBox="0 0 31 22" fill="none" xmlns="http://www.w3.org/2000/svg">
<path d="M15.3913 14.8591C11.7276 16.1714 10.1714 17.7276 8.85906 21.3913C8.56849 22.2029 7.43151 22.2029 7.14094 21.3913C5.8286 17.7276 4.27241 16.1714 0.608652 14.8591C-0.202884 14.5685 -0.202884 13.4315 0.608652 13.1409C4.27241 11.8286 5.8286 10.2724 7.14094 6.60865C7.43151 5.79712 8.56849 5.79712 8.85906 6.60865C10.1714 10.2724 11.7276 11.8286 15.3913 13.1409C16.2029 13.4315 16.2029 14.5682 15.3913 14.8591Z" fill="#FF824B"/>
<path d="M30.3913 8.85906C26.7276 10.1714 25.1714 11.7276 23.8591 15.3913C23.5685 16.2029 22.4315 16.2029 22.1409 15.3913C20.8286 11.7276 19.2724 10.1714 15.6087 8.85906C14.7971 8.56849 14.7971 7.43151 15.6087 7.14095C19.2724 5.8286 20.8286 4.27241 22.1409 0.608652C22.4315 -0.202884 23.5685 -0.202884 23.8591 0.608652C25.1714 4.27241 26.7276 5.8286 30.3913 7.14095C31.2029 7.43151 31.2029 8.56817 30.3913 8.85906Z" fill="#F9265D"/>
</svg>
