<svg width="24" height="24" viewBox="0 0 24 24" fill="none" xmlns="http://www.w3.org/2000/svg">
<path d="M10.0017 11L9.06172 13.06L7.00172 14L9.06172 14.94L10.0017 17L10.9417 14.94L13.0017 14L10.9417 13.06L10.0017 11ZM18.0117 4L20.0117 8H17.0117L15.0117 4H13.0117L15.0117 8H12.0117L10.0117 4H8.01172L10.0117 8H7.01172L5.01172 4H4.01172C2.91172 4 2.02172 4.9 2.02172 6L2.01172 18C2.01172 19.1 2.91172 20 4.01172 20H20.0117C21.1117 20 22.0017 19.1 22.0017 18V4H18.0117ZM20.0117 18H4.01172V6.47L5.77172 10H16.0017L15.3717 11.37L14.0017 12L15.3717 12.63L16.0017 14L16.6317 12.63L18.0017 12L16.6317 11.37L16.0017 10H20.0117V18Z" fill="white"/>
</svg>
