<svg width="20" height="19" viewBox="0 0 20 19" fill="none" xmlns="http://www.w3.org/2000/svg">
<path d="M14.4995 0C12.7595 0 11.0895 0.81 9.99951 2.09C8.90951 0.81 7.23951 0 5.49951 0C2.41951 0 -0.000488281 2.42 -0.000488281 5.5C-0.000488281 9.28 3.39951 12.36 8.54951 17.04L9.99951 18.35L11.4495 17.03C16.5995 12.36 19.9995 9.28 19.9995 5.5C19.9995 2.42 17.5795 0 14.4995 0ZM10.0995 15.55L9.99951 15.65L9.89951 15.55C5.13951 11.24 1.99951 8.39 1.99951 5.5C1.99951 3.5 3.49951 2 5.49951 2C7.03951 2 8.53951 2.99 9.06951 4.36H10.9395C11.4595 2.99 12.9595 2 14.4995 2C16.4995 2 17.9995 3.5 17.9995 5.5C17.9995 8.39 14.8595 11.24 10.0995 15.55Z" fill="#8B90A0"/>
</svg>
