<svg width="16" height="17" viewBox="0 0 16 17" fill="none" xmlns="http://www.w3.org/2000/svg">
<path d="M12.4128 7.54325V12.4604C12.4128 12.7697 12.6706 12.9725 12.925 12.9725H13.7768C13.9787 12.9725 14.1164 13.1102 14.1164 13.3121C14.1164 13.4684 13.986 13.613 13.7768 13.613H2.23896C2.02972 13.613 1.89935 13.4684 1.89935 13.3121C1.89935 13.1102 2.03697 12.9725 2.23896 12.9725H3.09074C3.3451 12.9725 3.60292 12.7697 3.60292 12.4604V7.54325C3.60292 5.13437 5.59898 3.13831 8.00786 3.13831C10.4167 3.13831 12.4128 5.13437 12.4128 7.54325ZM8.00786 0.875C7.08044 0.875 6.27324 1.57832 6.11491 2.45659C4.05134 3.22881 2.57857 5.2304 2.57857 7.54325V11.9482H2.23896C1.47301 11.9482 0.875 12.5462 0.875 13.3121C0.875 14.042 1.47561 14.6374 2.23896 14.6374H5.58587C5.86621 15.7275 6.85863 16.5345 8.00786 16.5345C9.15708 16.5345 10.1495 15.7275 10.4298 14.6374H13.7768C14.5401 14.6374 15.1407 14.042 15.1407 13.3121C15.1407 12.5462 14.5427 11.9482 13.7768 11.9482H13.4371V7.54325C13.4371 5.2304 11.9644 3.22881 9.90081 2.45659C9.74248 1.57832 8.93527 0.875 8.00786 0.875ZM8.00786 1.89935C8.2464 1.89935 8.46852 2.00078 8.62592 2.15443C8.42912 2.13139 8.21893 2.11396 8.00786 2.11396C7.79679 2.11396 7.5866 2.13139 7.3898 2.15443C7.5472 2.00078 7.76932 1.89935 8.00786 1.89935ZM8.00786 15.5102C7.42434 15.5102 6.89988 15.1561 6.67576 14.6374H9.33996C9.11583 15.1561 8.59137 15.5102 8.00786 15.5102Z" fill="white" stroke="white" stroke-width="0.25"/>
</svg>
