<svg width="32" height="32" viewBox="0 0 32 32" fill="none" xmlns="http://www.w3.org/2000/svg">
<g clip-path="url(#clip0)">
<path d="M24.1038 23.0994C24.0333 23.0536 23.5023 22.6816 22.9707 21.5564C21.9943 19.49 21.7894 16.5792 21.7894 14.5012C21.7894 14.4921 21.7892 14.4832 21.7889 14.4742C21.7782 11.7278 20.1337 9.36034 17.7804 8.29811V6.67356C17.7804 5.19934 16.583 4 15.1112 4H14.89C13.4182 4 12.2209 5.19934 12.2209 6.67356V8.29802C9.85968 9.36367 8.21188 11.7432 8.21188 14.5012C8.21188 16.5792 8.00694 19.49 7.03058 21.5564C6.49897 22.6816 5.96802 23.0535 5.89743 23.0994C5.60015 23.2369 5.45357 23.5548 5.52196 23.8768C5.591 24.2021 5.89504 24.4263 6.22705 24.4263H11.3808C11.4096 26.4017 13.0218 28 15.0006 28C16.9795 28 18.5917 26.4017 18.6205 24.4263H23.7742C24.1062 24.4263 24.4103 24.2021 24.4793 23.8768C24.5476 23.5548 24.4011 23.2369 24.1038 23.0994ZM13.6272 6.67356C13.6272 5.97602 14.1937 5.40855 14.8901 5.40855H15.1113C15.8076 5.40855 16.3742 5.97602 16.3742 6.67356V7.84155C15.9304 7.74981 15.4709 7.70153 15.0005 7.70153C14.5301 7.70153 14.0708 7.74977 13.6272 7.84141V6.67356H13.6272ZM15.0006 26.5915C13.7972 26.5915 12.8156 25.625 12.7871 24.4264H17.2142C17.1857 25.625 16.2041 26.5915 15.0006 26.5915ZM17.8319 23.0177C17.8318 23.0177 7.82947 23.0177 7.82947 23.0177C7.95111 22.8282 8.07491 22.6135 8.19796 22.371C9.14033 20.5127 9.61818 17.8649 9.61818 14.5012C9.61818 11.5285 12.0327 9.11008 15.0004 9.11008C17.9682 9.11008 20.3826 11.5285 20.3826 14.5035C20.3826 14.5122 20.3828 14.5208 20.3831 14.5294C20.3858 17.8797 20.8636 20.518 21.8033 22.371C21.9264 22.6136 22.0502 22.8282 22.1718 23.0177H17.8319Z" fill="#093B77"/>
</g>
<defs>
<clipPath id="clip0">
<rect width="24" height="24" fill="white" transform="translate(3.00049 4)"/>
</clipPath>
</defs>
</svg>
