<svg width="20" height="17" viewBox="0 0 20 17" fill="none" xmlns="http://www.w3.org/2000/svg">
<path d="M9.99992 3.83333C12.2999 3.83333 14.1666 5.7 14.1666 8C14.1666 8.54167 14.0583 9.05 13.8666 9.525L16.2999 11.9583C17.5583 10.9083 18.5499 9.55 19.1583 8C17.7166 4.34167 14.1583 1.75 9.99158 1.75C8.82492 1.75 7.70825 1.95833 6.67492 2.33333L8.47492 4.13333C8.94992 3.94167 9.45825 3.83333 9.99992 3.83333ZM1.66659 1.55833L3.56659 3.45833L3.94992 3.84167C2.56659 4.91667 1.48325 6.35 0.833252 8C2.27492 11.6583 5.83325 14.25 9.99992 14.25C11.2916 14.25 12.5249 14 13.6499 13.55L13.9999 13.9L16.4416 16.3333L17.4999 15.275L2.72492 0.5L1.66659 1.55833ZM6.27492 6.16667L7.56659 7.45833C7.52492 7.63333 7.49992 7.81667 7.49992 8C7.49992 9.38333 8.61659 10.5 9.99992 10.5C10.1833 10.5 10.3666 10.475 10.5416 10.4333L11.8333 11.725C11.2749 12 10.6583 12.1667 9.99992 12.1667C7.69992 12.1667 5.83325 10.3 5.83325 8C5.83325 7.34167 5.99992 6.725 6.27492 6.16667ZM9.86658 5.51667L12.4916 8.14167L12.5083 8.00833C12.5083 6.625 11.3916 5.50833 10.0083 5.50833L9.86658 5.51667Z" fill="#ACACAC"/>
</svg>
