<svg width="30" height="30" viewBox="0 0 30 30" fill="none" xmlns="http://www.w3.org/2000/svg">
<circle cx="15.0193" cy="15.0188" r="14.9758" fill="url(#paint0_linear)"/>
<path d="M14.5362 27.7297C14.205 27.7297 13.9365 27.4612 13.9365 27.13C13.9365 26.7988 14.205 26.5303 14.5362 26.5303C15.4985 26.531 16.4573 26.4158 17.392 26.1873C17.6033 26.1267 17.8307 26.1866 17.9848 26.3433C18.1389 26.5 18.1949 26.7285 18.1308 26.9387C18.0667 27.1489 17.8928 27.3072 17.6775 27.3513C16.6494 27.6033 15.5947 27.7303 14.5362 27.7297Z" fill="white"/>
<path d="M20.5331 26.2064C20.2589 26.2065 20.0195 26.0206 19.9518 25.7549C19.884 25.4892 20.0051 25.2114 20.2458 25.0801C20.8482 24.7524 21.4217 24.3742 21.9604 23.9497C22.1284 23.8167 22.3547 23.7836 22.5538 23.8627C22.753 23.9418 22.8949 24.1211 22.926 24.3331C22.957 24.5452 22.8727 24.7577 22.7046 24.8906C22.1125 25.3578 21.4819 25.774 20.8197 26.135C20.7317 26.1826 20.6331 26.2071 20.5331 26.2064Z" fill="white"/>
<path d="M24.7306 22.5212C24.5054 22.5209 24.2993 22.3943 24.1971 22.1936C24.0949 21.9929 24.1138 21.7519 24.246 21.5695C25.7353 19.5273 26.5352 17.0638 26.5297 14.5362C26.5297 14.205 26.7982 13.9365 27.1294 13.9365C27.4606 13.9365 27.7291 14.205 27.7291 14.5362C27.7347 17.3165 26.8544 20.0263 25.2157 22.2724C25.1033 22.4283 24.9229 22.5208 24.7306 22.5212Z" fill="white"/>
<path d="M12.7434 9.33303L18.7788 13.4428C19.1274 13.6966 19.3336 14.1018 19.3336 14.533C19.3336 14.9642 19.1274 15.3694 18.7788 15.6233L12.7434 19.733C12.3656 19.97 11.8865 19.974 11.5048 19.7434C11.1231 19.5128 10.9037 19.0869 10.9377 18.6422V10.4263C10.9028 9.98118 11.1217 9.55438 11.5036 9.32314C11.8856 9.0919 12.3652 9.09573 12.7434 9.33303Z" fill="white"/>
<defs>
<linearGradient id="paint0_linear" x1="15.0193" y1="0.0429687" x2="15.0193" y2="29.9947" gradientUnits="userSpaceOnUse">
<stop stop-color="#DD9BF8"/>
<stop offset="1" stop-color="#663AB7"/>
</linearGradient>
</defs>
</svg>
