<svg width="40" height="40" viewBox="0 0 40 40" fill="none" xmlns="http://www.w3.org/2000/svg">
<path d="M20 40C31.0457 40 40 31.0457 40 20C40 8.9543 31.0457 0 20 0C8.9543 0 0 8.9543 0 20C0 31.0457 8.9543 40 20 40Z" fill="white"/>
<path d="M3.33203 20.5557C3.33203 11.0441 11.0427 3.3335 20.5543 3.3335V3.3335C30.0658 3.3335 37.7765 11.0441 37.7765 20.5557V20.5557C37.7765 30.0673 30.0658 37.7779 20.5543 37.7779V37.7779C11.0427 37.7779 3.33203 30.0673 3.33203 20.5557V20.5557Z" fill="url(#paint0_linear)"/>
<path d="M19.9982 35.173C19.6174 35.173 19.3086 34.8643 19.3086 34.4834C19.3086 34.1025 19.6174 33.7937 19.9982 33.7937C21.1048 33.7945 22.2075 33.6621 23.2824 33.3993C23.5253 33.3296 23.7869 33.3985 23.9641 33.5787C24.1413 33.7589 24.2057 34.0216 24.132 34.2634C24.0583 34.5051 23.8583 34.6872 23.6107 34.7379C22.4284 35.0276 21.2155 35.1737 19.9982 35.173V35.173Z" fill="white"/>
<path d="M26.897 33.4212C26.5817 33.4213 26.3064 33.2075 26.2285 32.902C26.1506 32.5965 26.2898 32.277 26.5666 32.126C27.2594 31.7491 27.919 31.3142 28.5384 30.826C28.7317 30.6731 28.9918 30.635 29.2209 30.726C29.4499 30.8169 29.6131 31.0231 29.6488 31.267C29.6846 31.5108 29.5875 31.7552 29.3942 31.9081C28.7133 32.4453 27.9882 32.924 27.2266 33.3391C27.1254 33.3938 27.012 33.4221 26.897 33.4212V33.4212Z" fill="white"/>
<path d="M31.7237 29.1835C31.4647 29.183 31.2278 29.0375 31.1102 28.8067C30.9927 28.5759 31.0144 28.2987 31.1665 28.089C32.8792 25.7405 33.7991 22.9074 33.7927 20.0007C33.7927 19.6198 34.1015 19.311 34.4823 19.311C34.8632 19.311 35.172 19.6198 35.172 20.0007C35.1785 23.198 34.1661 26.3142 32.2817 28.8972C32.1523 29.0766 31.9448 29.183 31.7237 29.1835Z" fill="white"/>
<path d="M20.3295 38.2625C10.431 38.2515 2.40949 30.2299 2.39847 20.3315C2.39365 17.8626 2.90358 15.4198 3.89571 13.1591C3.984 12.9183 4.19855 12.7465 4.45274 12.7128C4.70692 12.6792 4.95878 12.7894 5.10664 12.9989C5.25449 13.2083 5.27392 13.4825 5.15709 13.7108C4.2424 15.7979 3.77265 18.0527 3.77778 20.3315C3.77778 27.026 7.81048 33.0614 13.9954 35.6233C20.1804 38.1852 27.2996 36.7691 32.0333 32.0353C36.7671 27.3016 38.1832 20.1824 35.6213 13.9974C33.0594 7.81245 27.0241 3.77975 20.3295 3.77975C18.0507 3.7743 15.7958 4.24406 13.7088 5.15906C13.4816 5.26672 13.2138 5.24217 13.0099 5.09501C12.806 4.94784 12.6984 4.70138 12.729 4.45181C12.7596 4.20223 12.9237 3.98911 13.1571 3.89561C15.4179 2.90388 17.8607 2.39465 20.3295 2.40044C30.2325 2.40044 38.2605 10.4284 38.2605 20.3315C38.2605 30.2345 30.2325 38.2625 20.3295 38.2625Z" fill="#FF9700"/>
<path d="M6.7557 9.65327C6.48803 9.65313 6.24463 9.49812 6.13129 9.25564C6.01795 9.01315 6.05516 8.72699 6.22673 8.52155C6.68298 7.97564 7.17071 7.45683 7.68742 6.96776C7.86655 6.79849 8.12237 6.73764 8.35853 6.80813C8.59468 6.87862 8.77529 7.06975 8.83232 7.30951C8.88935 7.54927 8.81414 7.80125 8.63501 7.97052C8.15759 8.42225 7.70694 8.90145 7.28535 9.40569C7.15425 9.56267 6.96023 9.65336 6.7557 9.65327V9.65327Z" fill="#FF9700"/>
<path d="M17.9362 14.0183L24.8769 18.7445C25.2778 19.0365 25.5149 19.5025 25.5149 19.9983C25.5149 20.4942 25.2778 20.9602 24.8769 21.2521L17.9362 25.9783C17.5017 26.2508 16.9508 26.2555 16.5118 25.9902C16.0728 25.725 15.8206 25.2352 15.8597 24.7239V15.2756C15.8194 14.7637 16.0712 14.2729 16.5105 14.007C16.9497 13.741 17.5013 13.7454 17.9362 14.0183V14.0183Z" fill="white"/>
<defs>
<linearGradient id="paint0_linear" x1="33.7101" y1="4.35606" x2="22.8655" y2="43.0394" gradientUnits="userSpaceOnUse">
<stop stop-color="#FFCC00"/>
<stop offset="0.890625" stop-color="#FF9700"/>
</linearGradient>
</defs>
</svg>
