<svg width="48" height="48" viewBox="0 0 48 48" fill="none" xmlns="http://www.w3.org/2000/svg">
<circle cx="24.0294" cy="24.0296" r="23.3998" fill="url(#paint0_linear)"/>
<path d="M23.2737 43.8926C22.7562 43.8926 22.3367 43.4731 22.3367 42.9556C22.3367 42.4381 22.7562 42.0185 23.2737 42.0185C24.7772 42.0196 26.2754 41.8396 27.7358 41.4826C28.066 41.388 28.4214 41.4815 28.6621 41.7264C28.9029 41.9712 28.9904 42.3282 28.8902 42.6566C28.7901 42.9851 28.5183 43.2324 28.1819 43.3013C26.5755 43.695 24.9276 43.8936 23.2737 43.8926Z" fill="white"/>
<path d="M32.6469 41.5114C32.2185 41.5116 31.8445 41.2211 31.7386 40.806C31.6327 40.3908 31.8219 39.9567 32.1981 39.7517C33.1393 39.2395 34.0355 38.6486 34.877 37.9854C35.1397 37.7776 35.4932 37.7258 35.8044 37.8494C36.1156 37.973 36.3372 38.2532 36.3858 38.5845C36.4344 38.9158 36.3025 39.2478 36.0399 39.4556C35.1147 40.1855 34.1295 40.8359 33.0948 41.3999C32.9573 41.4742 32.8032 41.5126 32.6469 41.5114Z" fill="white"/>
<path d="M39.2033 35.7544C38.8513 35.7539 38.5294 35.5562 38.3697 35.2425C38.21 34.9289 38.2395 34.5523 38.4461 34.2674C40.7732 31.0765 42.023 27.2271 42.0144 23.2779C42.0144 22.7603 42.4339 22.3408 42.9514 22.3408C43.4689 22.3408 43.8884 22.7603 43.8884 23.2779C43.8972 27.622 42.5216 31.856 39.9613 35.3656C39.7856 35.6092 39.5037 35.7538 39.2033 35.7544Z" fill="white"/>
<path d="M20.4741 15.1466L29.9044 21.5681C30.449 21.9647 30.7712 22.5978 30.7712 23.2716C30.7712 23.9453 30.449 24.5785 29.9044 24.9751L20.4741 31.3966C19.8837 31.7668 19.1352 31.7731 18.5387 31.4128C17.9423 31.0524 17.5996 30.3869 17.6527 29.6921V16.8548C17.598 16.1593 17.9401 15.4924 18.5369 15.1311C19.1337 14.7698 19.8831 14.7758 20.4741 15.1466Z" fill="white"/>
<defs>
<linearGradient id="paint0_linear" x1="24.0294" y1="0.629883" x2="24.0294" y2="47.4294" gradientUnits="userSpaceOnUse">
<stop stop-color="#F55982"/>
<stop offset="1" stop-color="#F9265D"/>
</linearGradient>
</defs>
</svg>
