<svg width="60" height="60" viewBox="0 0 60 60" fill="none" xmlns="http://www.w3.org/2000/svg">
<path d="M30 60C46.5685 60 60 46.5685 60 30C60 13.4315 46.5685 0 30 0C13.4315 0 0 13.4315 0 30C0 46.5685 13.4315 60 30 60Z" fill="white"/>
<path d="M5 25C5 13.9543 13.9543 5 25 5H36.6667C47.7123 5 56.6667 13.9543 56.6667 25V36.6667C56.6667 47.7123 47.7124 56.6667 36.6667 56.6667H25C13.9543 56.6667 5 47.7124 5 36.6667V25Z" fill="url(#paint0_linear)"/>
<path d="M29.9993 52.7593C29.428 52.7593 28.9648 52.2961 28.9648 51.7248C28.9648 51.1535 29.428 50.6904 29.9993 50.6904C31.6592 50.6915 33.3132 50.4928 34.9255 50.0986C35.29 49.9942 35.6823 50.0975 35.9481 50.3678C36.2139 50.6381 36.3105 51.0322 36.2 51.3948C36.0894 51.7574 35.7893 52.0305 35.4179 52.1065C33.6446 52.5412 31.8252 52.7604 29.9993 52.7593Z" fill="white"/>
<path d="M40.3455 50.1316C39.8725 50.1317 39.4596 49.8111 39.3427 49.3528C39.2258 48.8944 39.4347 48.4152 39.85 48.1888C40.8891 47.6234 41.8785 46.9711 42.8075 46.2388C43.0975 46.0095 43.4877 45.9523 43.8313 46.0887C44.1749 46.2251 44.4196 46.5345 44.4732 46.9002C44.5268 47.266 44.3813 47.6326 44.0913 47.8619C43.0699 48.6677 41.9823 49.3858 40.84 50.0085C40.6881 50.0905 40.518 50.1328 40.3455 50.1316Z" fill="white"/>
<path d="M47.5856 43.7752C47.1971 43.7746 46.8416 43.5563 46.6653 43.2101C46.4891 42.8638 46.5217 42.448 46.7497 42.1335C49.3188 38.6107 50.6986 34.361 50.689 30.001C50.689 29.4297 51.1522 28.9666 51.7235 28.9666C52.2949 28.9666 52.758 29.4297 52.758 30.001C52.7677 34.797 51.2491 39.4714 48.4225 43.3459C48.2285 43.6149 47.9172 43.7745 47.5856 43.7752Z" fill="white"/>
<path d="M30.4962 57.3934C15.6485 57.3769 3.61619 45.3446 3.59966 30.4968C3.59243 26.7935 4.35733 23.1294 5.84552 19.7382C5.97796 19.3771 6.29978 19.1193 6.68106 19.0689C7.06234 19.0185 7.44013 19.1837 7.66191 19.4979C7.88368 19.8121 7.91284 20.2235 7.73759 20.5658C6.36556 23.6965 5.66093 27.0787 5.66863 30.4968C5.66863 40.5387 11.7177 49.5917 20.9951 53.4345C30.2725 57.2774 40.9513 55.1532 48.052 48.0526C55.1526 40.952 57.2767 30.2732 53.4339 20.9957C49.5911 11.7183 40.538 5.66926 30.4962 5.66926C27.078 5.66108 23.6957 6.36573 20.5652 7.73822C20.2243 7.89971 19.8226 7.8629 19.5168 7.64215C19.211 7.4214 19.0495 7.0517 19.0955 6.67734C19.1414 6.30298 19.3875 5.9833 19.7376 5.84305C23.1288 4.35546 26.7931 3.5916 30.4962 3.60029C45.3508 3.60029 57.3928 15.6423 57.3928 30.4968C57.3928 45.3514 45.3508 57.3934 30.4962 57.3934Z" fill="#FF9700"/>
<path d="M10.1355 14.4799C9.734 14.4797 9.3689 14.2472 9.19889 13.8835C9.02888 13.5197 9.08469 13.0905 9.34205 12.7823C10.0264 11.9635 10.758 11.1852 11.5331 10.4516C11.8018 10.1977 12.1855 10.1065 12.5397 10.2122C12.894 10.3179 13.1649 10.6046 13.2504 10.9643C13.336 11.3239 13.2232 11.7019 12.9545 11.9558C12.2383 12.6334 11.5624 13.3522 10.93 14.1085C10.7333 14.344 10.4423 14.48 10.1355 14.4799Z" fill="#FF9700"/>
<path d="M26.9063 21.0279L37.3173 28.1172C37.9186 28.5551 38.2743 29.254 38.2743 29.9979C38.2743 30.7417 37.9186 31.4407 37.3173 31.8786L26.9063 38.9679C26.2545 39.3766 25.4282 39.3835 24.7697 38.9857C24.1112 38.5879 23.7328 37.8532 23.7914 37.0861V22.9137C23.7311 22.1459 24.1088 21.4097 24.7676 21.0108C25.4265 20.6119 26.2539 20.6185 26.9063 21.0279Z" fill="white"/>
<defs>
<linearGradient id="paint0_linear" x1="50.5671" y1="6.53385" x2="34.3001" y2="64.5589" gradientUnits="userSpaceOnUse">
<stop stop-color="#FFCC00"/>
<stop offset="0.890625" stop-color="#FF9700"/>
</linearGradient>
</defs>
</svg>
