<svg width="40" height="39" viewBox="0 0 40 39" fill="none" xmlns="http://www.w3.org/2000/svg">
<g filter="url(#filter0_d)">
<path d="M4.56105 12.3897C4.66242 10.3923 5.68491 8.55507 7.32893 7.41625C8.14618 6.85013 9.08328 6.48066 10.067 6.33673L24.4 4.2396C29.2879 3.52443 33.9759 6.45018 35.481 11.1553C35.8246 12.2294 35.9858 13.3534 35.9581 14.4807L35.5961 29.1902C35.5477 31.157 34.5312 32.9731 32.88 34.0427C31.9155 34.6675 30.7908 35 29.6416 35H17.1944C11.3718 35 6.24807 31.1566 4.6186 25.5666C4.2091 24.1618 4.03787 22.6982 4.11204 21.2368L4.56105 12.3897Z" fill="url(#paint0_linear)"/>
<path d="M4.66092 12.3947C4.76072 10.4284 5.76735 8.61962 7.38587 7.49845C8.19045 6.94111 9.11302 6.57738 10.0815 6.43568L24.4145 4.33855C29.254 3.63045 33.8955 6.52724 35.3857 11.1858C35.7259 12.2492 35.8856 13.3621 35.8581 14.4783L35.4962 29.1877C35.4486 31.1215 34.4491 32.9071 32.8256 33.9588C31.8773 34.5731 30.7715 34.9 29.6416 34.9H17.1944C11.4163 34.9 6.33164 31.0859 4.71461 25.5386C4.30823 24.1445 4.13831 22.6921 4.21191 21.2419L4.66092 12.3947Z" stroke="#F83367" stroke-width="0.2"/>
</g>
<path d="M28.1918 12.688C27.3972 12.2601 26.5108 13.0853 25.9913 13.5743C24.7994 14.7357 23.7908 16.0805 22.6599 17.303C21.4068 18.6478 20.2455 19.9925 18.9618 21.3068C18.2283 22.0403 17.4337 22.8349 16.9447 23.7518C15.8444 22.6821 14.897 21.5207 13.6744 20.5733C12.7881 19.9009 11.3211 19.4119 11.3517 21.0317C11.4128 23.1406 13.2771 25.4022 14.6525 26.8387C15.2332 27.4499 15.9972 28.0917 16.8835 28.1223C17.9532 28.1834 19.0535 26.8998 19.6953 26.1968C20.8262 24.9743 21.7431 23.5989 22.7822 22.3459C24.1269 20.6955 25.5023 19.0756 26.8165 17.3947C27.6417 16.3555 30.2395 13.7882 28.1918 12.688ZM12.6964 20.9095C12.6658 20.9095 12.6353 20.9095 12.5741 20.94C12.4519 20.9095 12.3602 20.8788 12.2379 20.8177C12.3296 20.7566 12.4824 20.7872 12.6964 20.9095Z" fill="white"/>
<defs>
<filter id="filter0_d" x="0.0952148" y="0.132446" width="39.8659" height="38.8676" filterUnits="userSpaceOnUse" color-interpolation-filters="sRGB">
<feFlood flood-opacity="0" result="BackgroundImageFix"/>
<feColorMatrix in="SourceAlpha" type="matrix" values="0 0 0 0 0 0 0 0 0 0 0 0 0 0 0 0 0 0 127 0"/>
<feOffset/>
<feGaussianBlur stdDeviation="2"/>
<feColorMatrix type="matrix" values="0 0 0 0 0 0 0 0 0 0 0 0 0 0 0 0 0 0 0.15 0"/>
<feBlend mode="normal" in2="BackgroundImageFix" result="effect1_dropShadow"/>
<feBlend mode="normal" in="SourceGraphic" in2="effect1_dropShadow" result="shape"/>
</filter>
<linearGradient id="paint0_linear" x1="31.954" y1="35.124" x2="2.83444" y2="33.0329" gradientUnits="userSpaceOnUse">
<stop stop-color="#F9265D"/>
<stop offset="1" stop-color="#FF8DAB"/>
</linearGradient>
</defs>
</svg>
