<svg width="18" height="18" viewBox="0 0 18 18" fill="none" xmlns="http://www.w3.org/2000/svg">
<g clip-path="url(#clip0)">
<path d="M3.09326 8.15625C3.09326 8.23084 3.12289 8.30238 3.17564 8.35512C3.22838 8.40787 3.29992 8.4375 3.37451 8.4375H6.74951C6.8241 8.4375 6.89564 8.40787 6.94839 8.35512C7.00113 8.30238 7.03076 8.23084 7.03076 8.15625V7.3125H13.7808V6.75H7.03076V5.90625C7.03076 5.83166 7.00113 5.76012 6.94839 5.70738C6.89564 5.65463 6.8241 5.625 6.74951 5.625H3.37451C3.29992 5.625 3.22838 5.65463 3.17564 5.70738C3.12289 5.76012 3.09326 5.83166 3.09326 5.90625V6.75H1.96826V7.3125H3.09326V8.15625Z" fill="#8B90A0"/>
<path d="M3.09326 2.8125H3.65576V3.375H3.09326V2.8125Z" fill="#8B90A0"/>
<path d="M1.96826 2.8125H2.53076V3.375H1.96826V2.8125Z" fill="#8B90A0"/>
<path d="M0.843262 2.8125H1.40576V3.375H0.843262V2.8125Z" fill="#8B90A0"/>
<path d="M16.5933 2.8125H17.1558V3.375H16.5933V2.8125Z" fill="#8B90A0"/>
<path d="M15.4683 2.8125H16.0308V3.375H15.4683V2.8125Z" fill="#8B90A0"/>
<path d="M14.9058 2.8125H13.7808V1.96875C13.7808 1.89416 13.7511 1.82262 13.6984 1.76988C13.6456 1.71713 13.5741 1.6875 13.4995 1.6875H10.1245C10.0499 1.6875 9.97838 1.71713 9.92564 1.76988C9.87289 1.82262 9.84326 1.89416 9.84326 1.96875V2.8125H4.21826V3.375H9.84326V4.21875C9.84326 4.29334 9.87289 4.36488 9.92564 4.41762C9.97838 4.47037 10.0499 4.5 10.1245 4.5H13.4995C13.5741 4.5 13.6456 4.47037 13.6984 4.41762C13.7511 4.36488 13.7808 4.29334 13.7808 4.21875V3.375H14.9058V2.8125Z" fill="#8B90A0"/>
<path d="M3.37451 10.6875H3.93701V11.25H3.37451V10.6875Z" fill="#8B90A0"/>
<path d="M2.24951 10.6875H2.81201V11.25H2.24951V10.6875Z" fill="#8B90A0"/>
<path d="M1.12451 10.6875H1.68701V11.25H1.12451V10.6875Z" fill="#8B90A0"/>
<path d="M16.8745 10.6875H17.437V11.25H16.8745V10.6875Z" fill="#8B90A0"/>
<path d="M16.312 10.6875H14.062V9.84375C14.062 9.76916 14.0324 9.69762 13.9796 9.64488C13.9269 9.59213 13.8554 9.5625 13.7808 9.5625H10.4058C10.3312 9.5625 10.2596 9.59213 10.2069 9.64488C10.1541 9.69762 10.1245 9.76916 10.1245 9.84375V10.6875H4.49951V11.25H10.1245V12.0938C10.1245 12.1683 10.1541 12.2399 10.2069 12.2926C10.2596 12.3454 10.3312 12.375 10.4058 12.375H13.7808C13.8554 12.375 13.9269 12.3454 13.9796 12.2926C14.0324 12.2399 14.062 12.1683 14.062 12.0938V11.25H16.312V10.6875Z" fill="#8B90A0"/>
<path d="M0.843262 6.75H1.40576V7.3125H0.843262V6.75Z" fill="#8B90A0"/>
<path d="M16.5933 6.75H17.1558V7.3125H16.5933V6.75Z" fill="#8B90A0"/>
<path d="M15.4683 6.75H16.0308V7.3125H15.4683V6.75Z" fill="#8B90A0"/>
<path d="M14.3433 6.75H14.9058V7.3125H14.3433V6.75Z" fill="#8B90A0"/>
<path d="M5.62451 16.3125H8.99951C9.0741 16.3125 9.14564 16.2829 9.19839 16.2301C9.25113 16.1774 9.28076 16.1058 9.28076 16.0312V15.1875H12.6558V14.625H9.28076V13.7812C9.28076 13.7067 9.25113 13.6351 9.19839 13.5824C9.14564 13.5296 9.0741 13.5 8.99951 13.5H5.62451C5.54992 13.5 5.47838 13.5296 5.42564 13.5824C5.37289 13.6351 5.34326 13.7067 5.34326 13.7812V14.625H2.81201V15.1875H5.34326V16.0312C5.34326 16.1058 5.37289 16.1774 5.42564 16.2301C5.47838 16.2829 5.54992 16.3125 5.62451 16.3125Z" fill="#8B90A0"/>
<path d="M0.562012 14.625H1.12451V15.1875H0.562012V14.625Z" fill="#8B90A0"/>
<path d="M1.68701 14.625H2.24951V15.1875H1.68701V14.625Z" fill="#8B90A0"/>
<path d="M16.5933 14.625H17.1558V15.1875H16.5933V14.625Z" fill="#8B90A0"/>
<path d="M15.4683 14.625H16.0308V15.1875H15.4683V14.625Z" fill="#8B90A0"/>
<path d="M14.3433 14.625H14.9058V15.1875H14.3433V14.625Z" fill="#8B90A0"/>
<path d="M13.2183 14.625H13.7808V15.1875H13.2183V14.625Z" fill="#8B90A0"/>
</g>
<defs>
<clipPath id="clip0">
<rect width="18" height="18" fill="white" transform="translate(-0.000488281)"/>
</clipPath>
</defs>
</svg>
