<svg width="24" height="24" viewBox="0 0 24 24" fill="none" xmlns="http://www.w3.org/2000/svg">
<path d="M19.4015 16.6085L16.7681 13.9751C17.2469 13.0175 17.5661 11.9002 17.5661 10.783C17.5661 7.03242 14.5337 4 10.7831 4C7.03242 4 4 7.03242 4 10.783C4 14.5337 7.03242 17.5661 10.7831 17.5661C11.9003 17.5661 13.0175 17.2469 13.9751 16.7681L16.6085 19.4015C17.4065 20.1995 18.6035 20.1995 19.4015 19.4015C20.1197 18.6035 20.1197 17.4065 19.4015 16.6085ZM10.7831 15.9701C7.91023 15.9701 5.59601 13.6559 5.59601 10.783C5.59601 7.91022 7.91023 5.59601 10.7831 5.59601C13.6559 5.59601 15.9701 7.91022 15.9701 10.783C15.9701 13.6559 13.6559 15.9701 10.7831 15.9701Z" fill="#463987"/>
</svg>
