<svg width="34" height="36" viewBox="0 0 34 36" fill="none" xmlns="http://www.w3.org/2000/svg">
<path d="M29.7381 19.5402C29.8066 18.9802 29.858 18.4202 29.858 17.8252C29.858 17.2302 29.8066 16.6702 29.7381 16.1102L33.3534 13.2227C33.679 12.9602 33.7646 12.4877 33.559 12.1027L30.1322 6.0477C29.978 5.7677 29.6867 5.6102 29.3783 5.6102C29.2755 5.6102 29.1727 5.6277 29.087 5.6627L24.8206 7.4127C23.9296 6.7127 22.9701 6.1352 21.9249 5.6977L21.2738 1.0602C21.2224 0.640195 20.8626 0.325195 20.4342 0.325195H13.5805C13.1522 0.325195 12.7923 0.640195 12.7409 1.0602L12.0898 5.6977C11.0447 6.1352 10.0851 6.7302 9.19416 7.4127L4.92774 5.6627C4.82493 5.6277 4.72213 5.6102 4.61932 5.6102C4.32804 5.6102 4.03676 5.7677 3.88255 6.0477L0.455708 12.1027C0.232963 12.4877 0.335769 12.9602 0.661319 13.2227L4.27664 16.1102C4.2081 16.6702 4.1567 17.2477 4.1567 17.8252C4.1567 18.4027 4.2081 18.9802 4.27664 19.5402L0.661319 22.4277C0.335769 22.6902 0.250098 23.1627 0.455708 23.5477L3.88255 29.6027C4.03676 29.8827 4.32804 30.0402 4.63646 30.0402C4.73926 30.0402 4.84207 30.0227 4.92774 29.9877L9.19416 28.2377C10.0851 28.9377 11.0447 29.5152 12.0898 29.9527L12.7409 34.5902C12.7923 35.0102 13.1522 35.3252 13.5805 35.3252H20.4342C20.8626 35.3252 21.2224 35.0102 21.2738 34.5902L21.9249 29.9527C22.9701 29.5152 23.9296 28.9202 24.8206 28.2377L29.087 29.9877C29.1898 30.0227 29.2926 30.0402 29.3954 30.0402C29.6867 30.0402 29.978 29.8827 30.1322 29.6027L33.559 23.5477C33.7646 23.1627 33.679 22.6902 33.3534 22.4277L29.7381 19.5402ZM26.3455 16.5477C26.4141 17.0902 26.4312 17.4577 26.4312 17.8252C26.4312 18.1927 26.3969 18.5777 26.3455 19.1027L26.1056 21.0802L27.6306 22.3052L29.4811 23.7752L28.2817 25.8927L26.1056 25.0002L24.3237 24.2652L22.7816 25.4552C22.0448 26.0152 21.3423 26.4352 20.6398 26.7327L18.8236 27.4852L18.5494 29.4627L18.2068 31.8252H15.808L15.4824 29.4627L15.2083 27.4852L13.392 26.7327C12.6553 26.4177 11.9699 26.0152 11.2845 25.4902L9.72532 24.2652L7.90909 25.0177L5.73305 25.9102L4.53365 23.7927L6.38415 22.3227L7.90909 21.0977L7.66922 19.1202C7.61781 18.5777 7.58354 18.1752 7.58354 17.8252C7.58354 17.4752 7.61781 17.0727 7.66922 16.5477L7.90909 14.5702L6.38415 13.3452L4.53365 11.8752L5.73305 9.7577L7.90909 10.6502L9.69105 11.3852L11.2331 10.1952C11.9699 9.63519 12.6724 9.21519 13.3749 8.9177L15.1911 8.1652L15.4653 6.1877L15.808 3.8252H18.1896L18.5152 6.1877L18.7893 8.1652L20.6056 8.9177C21.3423 9.23269 22.0277 9.63519 22.7131 10.1602L24.2723 11.3852L26.0885 10.6327L28.2645 9.7402L29.4639 11.8577L27.6306 13.3452L26.1056 14.5702L26.3455 16.5477ZM17.0074 10.8252C13.2207 10.8252 10.1537 13.9577 10.1537 17.8252C10.1537 21.6927 13.2207 24.8252 17.0074 24.8252C20.794 24.8252 23.8611 21.6927 23.8611 17.8252C23.8611 13.9577 20.794 10.8252 17.0074 10.8252ZM17.0074 21.3252C15.1226 21.3252 13.5805 19.7502 13.5805 17.8252C13.5805 15.9002 15.1226 14.3252 17.0074 14.3252C18.8921 14.3252 20.4342 15.9002 20.4342 17.8252C20.4342 19.7502 18.8921 21.3252 17.0074 21.3252Z" fill="#663AB7"/>
</svg>
