<svg width="16" height="18" viewBox="0 0 16 18" fill="none" xmlns="http://www.w3.org/2000/svg">
<path d="M13 12.4013C12.3667 12.4013 11.8 12.6513 11.3667 13.043L5.425 9.58464C5.46667 9.39297 5.5 9.2013 5.5 9.0013C5.5 8.8013 5.46667 8.60964 5.425 8.41797L11.3 4.99297C11.75 5.40964 12.3417 5.66797 13 5.66797C14.3833 5.66797 15.5 4.5513 15.5 3.16797C15.5 1.78464 14.3833 0.667969 13 0.667969C11.6167 0.667969 10.5 1.78464 10.5 3.16797C10.5 3.36797 10.5333 3.55964 10.575 3.7513L4.7 7.1763C4.25 6.75964 3.65833 6.5013 3 6.5013C1.61667 6.5013 0.5 7.61797 0.5 9.0013C0.5 10.3846 1.61667 11.5013 3 11.5013C3.65833 11.5013 4.25 11.243 4.7 10.8263L10.6333 14.293C10.5917 14.468 10.5667 14.6513 10.5667 14.8346C10.5667 16.1763 11.6583 17.268 13 17.268C14.3417 17.268 15.4333 16.1763 15.4333 14.8346C15.4333 13.493 14.3417 12.4013 13 12.4013Z" fill="#1FB53A"/>
</svg>
