<svg width="20" height="20" viewBox="0 0 20 20" fill="none" xmlns="http://www.w3.org/2000/svg">
<path d="M15 13.3998C14.3667 13.3998 13.8 13.6498 13.3667 14.0415L7.425 10.5832C7.46667 10.3915 7.5 10.1998 7.5 9.99984C7.5 9.79984 7.46667 9.60817 7.425 9.4165L13.3 5.9915C13.75 6.40817 14.3417 6.6665 15 6.6665C16.3833 6.6665 17.5 5.54984 17.5 4.1665C17.5 2.78317 16.3833 1.6665 15 1.6665C13.6167 1.6665 12.5 2.78317 12.5 4.1665C12.5 4.3665 12.5333 4.55817 12.575 4.74984L6.7 8.17484C6.25 7.75817 5.65833 7.49984 5 7.49984C3.61667 7.49984 2.5 8.6165 2.5 9.99984C2.5 11.3832 3.61667 12.4998 5 12.4998C5.65833 12.4998 6.25 12.2415 6.7 11.8248L12.6333 15.2915C12.5917 15.4665 12.5667 15.6498 12.5667 15.8332C12.5667 17.1748 13.6583 18.2665 15 18.2665C16.3417 18.2665 17.4333 17.1748 17.4333 15.8332C17.4333 14.4915 16.3417 13.3998 15 13.3998Z" fill="#1FB53A"/>
</svg>
