<svg width="32" height="32" viewBox="0 0 32 32" fill="none" xmlns="http://www.w3.org/2000/svg">
<path d="M0.56105 9.38968C0.66242 7.39232 1.68491 5.55507 3.32893 4.41625C4.14618 3.85013 5.08328 3.48066 6.067 3.33673L20.4 1.2396C25.2879 0.524426 29.9759 3.45018 31.481 8.1553C31.8246 9.22936 31.9858 10.3534 31.9581 11.4807L31.5961 26.1902C31.5477 28.157 30.5312 29.9731 28.88 31.0427C27.9155 31.6675 26.7908 32 25.6416 32H13.1944C7.3718 32 2.24807 28.1566 0.618603 22.5666C0.209096 21.1618 0.0378715 19.6982 0.112042 18.2368L0.56105 9.38968Z" fill="#F9265D"/>
<path d="M9.60156 11.3542C9.60156 10.7592 10.1207 10.2964 10.7125 10.358C16.1022 10.9187 18.8562 10.9993 21.0931 10.5655C21.7522 10.4377 22.4016 10.9175 22.4016 11.5889V11.9242C22.4016 12.4254 22.031 12.8468 21.5316 12.8882C20.3637 12.9849 18.1826 13.0906 16.0016 12.7997C13.9764 12.5297 11.9513 12.6015 10.7373 12.6906C10.1341 12.7348 9.60156 12.2624 9.60156 11.6576V11.3542Z" fill="white"/>
<path d="M13.8672 16.1453C13.8672 15.7249 14.2318 15.3969 14.6502 15.4374C18.1711 15.7774 19.9971 15.829 21.4727 15.5719C21.9434 15.4899 22.4005 15.8345 22.4005 16.3124C22.4005 16.6759 22.1303 16.9807 21.7678 17.0077C20.9775 17.0666 19.5557 17.1253 18.1339 16.9488C16.8073 16.7842 15.4808 16.8243 14.6672 16.8782C14.2413 16.9064 13.8672 16.5721 13.8672 16.1453Z" fill="white"/>
<path d="M11.3086 20.4125C11.3086 19.9878 11.6728 19.6534 12.0963 19.6853C17.0739 20.0595 19.4945 20.1037 21.5005 19.793C21.9664 19.7209 22.4019 20.0707 22.4019 20.5422C22.4019 20.9231 22.1136 21.2401 21.7334 21.2637C20.745 21.3249 18.8001 21.3997 16.8553 21.214C14.9921 21.036 13.1289 21.0972 12.1066 21.1565C11.6776 21.1814 11.3086 20.8422 11.3086 20.4125Z" fill="white"/>
</svg>
