<svg width="50" height="51" viewBox="0 0 50 51" fill="none" xmlns="http://www.w3.org/2000/svg">
<path d="M24.999 0.00183105C11.199 0.00183105 -0.000976562 11.2018 -0.000976562 25.0018C-0.000976562 38.8018 11.199 50.0018 24.999 50.0018C38.799 50.0018 49.999 38.8018 49.999 25.0018C49.999 11.2018 38.799 0.00183105 24.999 0.00183105ZM18.224 35.7268L9.24902 26.7518C8.27402 25.7768 8.27402 24.2018 9.24902 23.2268C10.224 22.2518 11.799 22.2518 12.774 23.2268L19.999 30.4268L37.199 13.2268C38.174 12.2518 39.749 12.2518 40.724 13.2268C41.699 14.2018 41.699 15.7768 40.724 16.7518L21.749 35.7268C20.799 36.7018 19.199 36.7018 18.224 35.7268Z" fill="#1FB53A"/>
</svg>
