<svg width="14" height="14" viewBox="0 0 14 14" fill="none" xmlns="http://www.w3.org/2000/svg">
<path d="M6.99992 0.333374C3.31992 0.333374 0.333252 3.32004 0.333252 7.00004C0.333252 10.68 3.31992 13.6667 6.99992 13.6667C10.6799 13.6667 13.6666 10.68 13.6666 7.00004C13.6666 3.32004 10.6799 0.333374 6.99992 0.333374ZM5.19325 9.86004L2.79992 7.46671C2.53992 7.20671 2.53992 6.78671 2.79992 6.52671C3.05992 6.26671 3.47992 6.26671 3.73992 6.52671L5.66659 8.44671L10.2533 3.86004C10.5133 3.60004 10.9333 3.60004 11.1933 3.86004C11.4533 4.12004 11.4533 4.54004 11.1933 4.80004L6.13325 9.86004C5.87992 10.12 5.45325 10.12 5.19325 9.86004Z" fill="#1FB53A"/>
</svg>
