<svg width="22" height="16" viewBox="0 0 22 16" fill="none" xmlns="http://www.w3.org/2000/svg">
<path d="M17.9995 4L13.9995 8H16.9995C16.9995 11.31 14.3095 14 10.9995 14C9.98951 14 9.02951 13.75 8.19951 13.3L6.73951 14.76C7.96951 15.54 9.42951 16 10.9995 16C15.4195 16 18.9995 12.42 18.9995 8H21.9995L17.9995 4ZM4.99951 8C4.99951 4.69 7.68951 2 10.9995 2C12.0095 2 12.9695 2.25 13.7995 2.7L15.2595 1.24C14.0295 0.46 12.5695 0 10.9995 0C6.57951 0 2.99951 3.58 2.99951 8H-0.000488281L3.99951 12L7.99951 8H4.99951Z" fill="#8B90A0"/>
</svg>
