<svg width="50" height="50" viewBox="0 0 50 50" fill="none" xmlns="http://www.w3.org/2000/svg">
<path d="M0.87664 14.6714C1.03503 11.5505 2.63267 8.6798 5.20145 6.90039C6.47841 6.01582 7.94263 5.43854 9.47968 5.21364L31.875 1.93689C39.5124 0.819419 46.8373 5.3909 49.189 12.7427C49.7259 14.4209 49.9779 16.1772 49.9345 17.9386L49.369 40.9222C49.2933 43.9954 47.7051 46.8329 45.125 48.5043C43.618 49.4805 41.8607 50 40.065 50H20.2656C11.3755 50 3.5526 44.1318 1.06472 35.597L0.944488 35.1846C0.319249 33.0396 0.0578224 30.8051 0.171066 28.5738L0.87664 14.6714Z" fill="#F9265D"/>
<path d="M15 17.1145C15 16.5195 15.5175 16.0564 16.1092 16.119C25.5657 17.1199 29.9743 17.2205 33.6977 16.3504C34.3515 16.1976 35 16.6778 35 17.3492V19.1245C35 19.6257 34.6291 20.0474 34.1302 20.0947C32.4841 20.2511 28.7421 20.4989 25 20C21.4462 19.5262 17.8924 19.7259 16.1339 19.8811C15.5315 19.9342 15 19.4626 15 18.8578V17.1145Z" fill="white"/>
<path d="M21.6675 25.1061C21.6675 24.514 22.1821 24.0522 22.7714 24.1094C28.4826 24.6639 31.3629 24.7395 33.7142 24.3018C34.3663 24.1804 35.0008 24.6588 35.0008 25.3222V25.5991C35.0008 26.1037 34.6246 26.5271 34.1215 26.5663C32.9118 26.6607 30.623 26.7668 28.3341 26.4826C26.1924 26.2168 24.0506 26.2926 22.7931 26.3807C22.1934 26.4228 21.6675 25.952 21.6675 25.3508V25.1061Z" fill="white"/>
<path d="M17.667 31.7449C17.667 31.162 18.1661 30.703 18.7473 30.7469C26.7854 31.354 30.5892 31.4178 33.7818 30.8964C34.4114 30.7936 35.0003 31.2672 35.0003 31.9052V32.2378C35.0003 32.7532 34.6094 33.1824 34.095 33.2157C32.5997 33.3126 29.4667 33.446 26.3337 33.1468C23.3279 32.8598 20.3222 32.971 18.7626 33.066C18.1739 33.1019 17.667 32.6366 17.667 32.0468V31.7449Z" fill="white"/>
</svg>
