<svg width="36" height="36" viewBox="0 0 36 36" fill="none" xmlns="http://www.w3.org/2000/svg">
<path d="M18 36C27.9411 36 36 27.9411 36 18C36 8.05887 27.9411 0 18 0C8.05887 0 0 8.05887 0 18C0 27.9411 8.05887 36 18 36Z" fill="white"/>
<path d="M3 18.5C3 9.93959 9.93959 3 18.5 3C27.0604 3 34 9.93959 34 18.5C34 27.0604 27.0604 34 18.5 34C9.93959 34 3 27.0604 3 18.5Z" fill="url(#paint0_linear)"/>
<path d="M28.5513 26.2651C28.3182 26.2647 28.105 26.1337 27.9992 25.926C27.8934 25.7182 27.913 25.4688 28.0498 25.28C29.5913 23.1664 30.4192 20.6166 30.4134 18.0006C30.4134 17.6578 30.6913 17.3799 31.0341 17.3799C31.3769 17.3799 31.6548 17.6578 31.6548 18.0006C31.6606 20.8782 30.7495 23.6828 29.0535 26.0075C28.9371 26.1689 28.7503 26.2647 28.5513 26.2651Z" fill="white"/>
<path d="M18.2981 34.4361C9.3895 34.4261 2.17011 27.2068 2.16019 18.2981C2.15585 16.0761 2.61479 13.8776 3.5077 11.843C3.58717 11.6263 3.78026 11.4716 4.00903 11.4414C4.23779 11.4111 4.46447 11.5102 4.59753 11.6988C4.7306 11.8873 4.74809 12.1341 4.64295 12.3395C3.81973 14.2179 3.39695 16.2473 3.40157 18.2981C3.40157 24.3232 7.03099 29.755 12.5975 32.0608C18.1639 34.3665 24.5712 33.092 28.8316 28.8316C33.092 24.5712 34.3664 18.1639 32.0607 12.5975C29.755 7.03101 24.3232 3.40158 18.2981 3.40158C16.2472 3.39667 14.2178 3.81946 12.3395 4.64296C12.135 4.73985 11.894 4.71776 11.7105 4.58531C11.527 4.45286 11.4301 4.23104 11.4577 4.00643C11.4852 3.78181 11.6329 3.59 11.8429 3.50586C13.8777 2.6133 16.0762 2.15499 18.2981 2.1602C27.2108 2.1602 34.436 9.3854 34.436 18.2981C34.436 27.2109 27.2108 34.4361 18.2981 34.4361Z" fill="#B092E7"/>
<path d="M6.0813 8.68814C5.8404 8.68801 5.62134 8.5485 5.51933 8.33027C5.41733 8.11203 5.45082 7.85449 5.60523 7.66959C6.01586 7.17827 6.45481 6.71134 6.91985 6.27118C7.08107 6.11884 7.31131 6.06407 7.52385 6.12751C7.73639 6.19096 7.89894 6.36297 7.95026 6.57875C8.00159 6.79454 7.9339 7.02132 7.77268 7.17366C7.34301 7.58022 6.93742 8.0115 6.55799 8.46531C6.44 8.6066 6.26538 8.68822 6.0813 8.68814Z" fill="#B092E7"/>
<path d="M16.1442 12.6167L22.3908 16.8703C22.7516 17.133 22.9649 17.5524 22.9649 17.9987C22.9649 18.445 22.7516 18.8644 22.3908 19.1271L16.1442 23.3807C15.7531 23.626 15.2573 23.6301 14.8622 23.3914C14.4671 23.1527 14.2401 22.7119 14.2753 22.2517V13.7482C14.2391 13.2875 14.4657 12.8458 14.861 12.6065C15.2563 12.3671 15.7527 12.3711 16.1442 12.6167Z" fill="white"/>
<defs>
<linearGradient id="paint0_linear" x1="30.3403" y1="3.92031" x2="20.5801" y2="38.7353" gradientUnits="userSpaceOnUse">
<stop stop-color="#8860D2"/>
<stop offset="0.890625" stop-color="#663AB7"/>
</linearGradient>
</defs>
</svg>
