<svg width="169" height="50" viewBox="0 0 169 50" fill="none" xmlns="http://www.w3.org/2000/svg">
<path d="M66.888 20.816C66.776 20.64 66.672 20.4 66.576 20.096C66.48 19.792 66.432 19.472 66.432 19.136C66.432 18.512 66.568 18.064 66.84 17.792C67.128 17.52 67.496 17.384 67.944 17.384H78.408C78.52 17.56 78.624 17.8 78.72 18.104C78.816 18.408 78.864 18.728 78.864 19.064C78.864 19.688 78.72 20.136 78.432 20.408C78.16 20.68 77.8 20.816 77.352 20.816H74.688V31.904C74.512 31.952 74.232 32 73.848 32.048C73.48 32.096 73.112 32.12 72.744 32.12C72.376 32.12 72.048 32.088 71.76 32.024C71.488 31.976 71.256 31.88 71.064 31.736C70.872 31.592 70.728 31.392 70.632 31.136C70.536 30.88 70.488 30.544 70.488 30.128V20.816H66.888ZM88.1496 31.688C87.9256 31.864 87.5976 32.008 87.1656 32.12C86.7336 32.232 86.2456 32.288 85.7016 32.288C85.0776 32.288 84.5336 32.208 84.0696 32.048C83.6216 31.888 83.3096 31.632 83.1336 31.28C82.9896 31.008 82.8136 30.632 82.6056 30.152C82.4136 29.656 82.2056 29.112 81.9816 28.52C81.7576 27.912 81.5256 27.264 81.2856 26.576C81.0456 25.888 80.8136 25.208 80.5896 24.536C80.3816 23.864 80.1896 23.216 80.0136 22.592C79.8376 21.968 79.6936 21.416 79.5816 20.936C79.8056 20.712 80.1016 20.52 80.4696 20.36C80.8536 20.184 81.2696 20.096 81.7176 20.096C82.2776 20.096 82.7336 20.216 83.0856 20.456C83.4536 20.68 83.7256 21.112 83.9016 21.752L84.8376 25.424C85.0136 26.144 85.1816 26.8 85.3416 27.392C85.5016 27.968 85.6216 28.416 85.7016 28.736H85.8216C86.1256 27.552 86.4456 26.24 86.7816 24.8C87.1176 23.36 87.4216 21.944 87.6936 20.552C87.9656 20.408 88.2696 20.296 88.6056 20.216C88.9576 20.136 89.2936 20.096 89.6136 20.096C90.1736 20.096 90.6456 20.216 91.0296 20.456C91.4136 20.696 91.6056 21.112 91.6056 21.704C91.6056 21.96 91.5416 22.336 91.4136 22.832C91.3016 23.312 91.1496 23.864 90.9576 24.488C90.7816 25.096 90.5656 25.744 90.3096 26.432C90.0696 27.12 89.8216 27.792 89.5656 28.448C89.3096 29.104 89.0536 29.72 88.7976 30.296C88.5576 30.856 88.3416 31.32 88.1496 31.688ZM102.672 26.216C101.968 25.976 101.328 25.736 100.752 25.496C100.176 25.24 99.6804 24.936 99.2644 24.584C98.8484 24.232 98.5204 23.816 98.2804 23.336C98.0564 22.84 97.9444 22.24 97.9444 21.536C97.9444 20.176 98.4644 19.088 99.5044 18.272C100.56 17.456 102.032 17.048 103.92 17.048C104.608 17.048 105.248 17.096 105.84 17.192C106.432 17.288 106.936 17.44 107.352 17.648C107.784 17.84 108.12 18.096 108.36 18.416C108.6 18.72 108.72 19.08 108.72 19.496C108.72 19.912 108.624 20.272 108.432 20.576C108.24 20.864 108.008 21.112 107.736 21.32C107.384 21.096 106.912 20.904 106.32 20.744C105.728 20.568 105.08 20.48 104.376 20.48C103.656 20.48 103.128 20.584 102.792 20.792C102.456 20.984 102.288 21.232 102.288 21.536C102.288 21.776 102.392 21.976 102.6 22.136C102.808 22.28 103.12 22.416 103.536 22.544L104.808 22.952C106.312 23.432 107.464 24.048 108.264 24.8C109.08 25.536 109.488 26.544 109.488 27.824C109.488 29.184 108.952 30.288 107.88 31.136C106.808 31.968 105.232 32.384 103.152 32.384C102.416 32.384 101.728 32.32 101.088 32.192C100.464 32.08 99.9124 31.912 99.4324 31.688C98.9684 31.448 98.6004 31.16 98.3284 30.824C98.0724 30.472 97.9444 30.072 97.9444 29.624C97.9444 29.16 98.0804 28.768 98.3524 28.448C98.6244 28.112 98.9204 27.856 99.2404 27.68C99.6884 28.032 100.232 28.336 100.872 28.592C101.528 28.848 102.24 28.976 103.008 28.976C103.792 28.976 104.344 28.856 104.664 28.616C104.984 28.376 105.144 28.096 105.144 27.776C105.144 27.456 105.016 27.216 104.76 27.056C104.504 26.88 104.144 26.712 103.68 26.552L102.672 26.216ZM122.971 31.976C122.811 32.024 122.555 32.072 122.203 32.12C121.867 32.168 121.515 32.192 121.147 32.192C120.795 32.192 120.475 32.168 120.187 32.12C119.915 32.072 119.683 31.976 119.491 31.832C119.299 31.688 119.147 31.496 119.035 31.256C118.939 31 118.891 30.672 118.891 30.272V24.944C118.891 24.288 118.723 23.832 118.387 23.576C118.067 23.304 117.667 23.168 117.187 23.168C116.867 23.168 116.563 23.208 116.275 23.288C115.987 23.368 115.755 23.464 115.579 23.576V31.976C115.419 32.024 115.163 32.072 114.811 32.12C114.475 32.168 114.123 32.192 113.755 32.192C113.403 32.192 113.083 32.168 112.795 32.12C112.523 32.072 112.291 31.976 112.099 31.832C111.907 31.688 111.755 31.496 111.643 31.256C111.547 31 111.499 30.672 111.499 30.272V16.352C111.675 16.32 111.931 16.28 112.267 16.232C112.619 16.168 112.971 16.136 113.323 16.136C113.675 16.136 113.987 16.16 114.259 16.208C114.547 16.256 114.787 16.352 114.979 16.496C115.171 16.64 115.315 16.84 115.411 17.096C115.523 17.336 115.579 17.656 115.579 18.056V20.408C115.787 20.328 116.099 20.24 116.515 20.144C116.947 20.032 117.419 19.976 117.931 19.976C119.515 19.976 120.747 20.376 121.627 21.176C122.523 21.96 122.971 23.136 122.971 24.704V31.976ZM137.562 26.168C137.562 27.16 137.41 28.048 137.106 28.832C136.802 29.6 136.37 30.248 135.81 30.776C135.266 31.304 134.61 31.704 133.842 31.976C133.074 32.248 132.218 32.384 131.274 32.384C130.33 32.384 129.474 32.24 128.706 31.952C127.938 31.664 127.274 31.256 126.714 30.728C126.17 30.184 125.746 29.528 125.442 28.76C125.138 27.992 124.986 27.128 124.986 26.168C124.986 25.224 125.138 24.368 125.442 23.6C125.746 22.832 126.17 22.184 126.714 21.656C127.274 21.112 127.938 20.696 128.706 20.408C129.474 20.12 130.33 19.976 131.274 19.976C132.218 19.976 133.074 20.128 133.842 20.432C134.61 20.72 135.266 21.136 135.81 21.68C136.37 22.208 136.802 22.856 137.106 23.624C137.41 24.392 137.562 25.24 137.562 26.168ZM129.162 26.168C129.162 27.144 129.346 27.896 129.714 28.424C130.098 28.936 130.626 29.192 131.298 29.192C131.97 29.192 132.482 28.928 132.834 28.4C133.202 27.872 133.386 27.128 133.386 26.168C133.386 25.208 133.202 24.472 132.834 23.96C132.466 23.432 131.946 23.168 131.274 23.168C130.602 23.168 130.082 23.432 129.714 23.96C129.346 24.472 129.162 25.208 129.162 26.168ZM146.06 31.64C145.836 31.832 145.532 31.984 145.148 32.096C144.764 32.224 144.308 32.288 143.78 32.288C143.124 32.288 142.556 32.192 142.076 32C141.596 31.824 141.276 31.568 141.116 31.232C140.94 30.848 140.732 30.24 140.492 29.408C140.268 28.576 140.044 27.664 139.82 26.672C139.596 25.68 139.38 24.672 139.172 23.648C138.98 22.624 138.828 21.72 138.716 20.936C138.94 20.712 139.236 20.52 139.604 20.36C139.988 20.184 140.404 20.096 140.852 20.096C141.412 20.096 141.868 20.224 142.22 20.48C142.588 20.72 142.812 21.144 142.892 21.752C143.052 22.968 143.188 23.976 143.3 24.776C143.412 25.56 143.5 26.208 143.564 26.72C143.644 27.216 143.7 27.6 143.732 27.872C143.78 28.128 143.82 28.336 143.852 28.496H143.948C143.996 28.24 144.076 27.872 144.188 27.392C144.316 26.896 144.46 26.336 144.62 25.712C144.78 25.088 144.948 24.416 145.124 23.696C145.3 22.96 145.476 22.232 145.652 21.512C145.972 21.336 146.284 21.2 146.588 21.104C146.908 21.008 147.3 20.96 147.764 20.96C148.324 20.96 148.804 21.048 149.204 21.224C149.604 21.4 149.86 21.672 149.972 22.04C150.164 22.744 150.348 23.432 150.524 24.104C150.7 24.76 150.86 25.376 151.004 25.952C151.148 26.512 151.276 27.016 151.388 27.464C151.5 27.896 151.58 28.24 151.628 28.496H151.748C151.924 27.264 152.092 25.984 152.252 24.656C152.428 23.328 152.588 21.976 152.732 20.6C153.02 20.424 153.324 20.296 153.644 20.216C153.964 20.136 154.284 20.096 154.604 20.096C155.164 20.096 155.628 20.216 155.996 20.456C156.364 20.696 156.548 21.112 156.548 21.704C156.548 21.96 156.508 22.344 156.428 22.856C156.348 23.368 156.244 23.944 156.116 24.584C155.988 25.224 155.836 25.896 155.66 26.6C155.5 27.304 155.332 27.984 155.156 28.64C154.996 29.296 154.836 29.888 154.676 30.416C154.532 30.944 154.404 31.352 154.292 31.64C154.068 31.832 153.724 31.984 153.26 32.096C152.796 32.224 152.3 32.288 151.772 32.288C150.428 32.288 149.636 31.952 149.396 31.28C149.3 30.992 149.18 30.632 149.036 30.2C148.892 29.752 148.74 29.264 148.58 28.736C148.42 28.208 148.268 27.664 148.124 27.104C147.98 26.528 147.86 25.976 147.764 25.448C147.652 26.008 147.516 26.592 147.356 27.2C147.196 27.792 147.028 28.376 146.852 28.952C146.692 29.512 146.54 30.032 146.396 30.512C146.252 30.976 146.14 31.352 146.06 31.64ZM168.236 28.52C168.236 29.736 167.78 30.688 166.868 31.376C165.956 32.064 164.612 32.408 162.836 32.408C162.164 32.408 161.54 32.36 160.964 32.264C160.388 32.168 159.892 32.024 159.476 31.832C159.076 31.624 158.756 31.368 158.516 31.064C158.292 30.76 158.18 30.4 158.18 29.984C158.18 29.6 158.26 29.28 158.42 29.024C158.58 28.752 158.772 28.528 158.996 28.352C159.46 28.608 159.988 28.84 160.58 29.048C161.188 29.24 161.884 29.336 162.668 29.336C163.164 29.336 163.54 29.264 163.796 29.12C164.068 28.976 164.204 28.784 164.204 28.544C164.204 28.32 164.108 28.144 163.916 28.016C163.724 27.888 163.404 27.784 162.956 27.704L162.236 27.56C160.844 27.288 159.804 26.864 159.116 26.288C158.444 25.696 158.108 24.856 158.108 23.768C158.108 23.176 158.236 22.64 158.492 22.16C158.748 21.68 159.108 21.28 159.572 20.96C160.036 20.64 160.588 20.392 161.228 20.216C161.884 20.04 162.604 19.952 163.388 19.952C163.98 19.952 164.532 20 165.044 20.096C165.572 20.176 166.028 20.304 166.412 20.48C166.796 20.656 167.1 20.888 167.324 21.176C167.548 21.448 167.66 21.776 167.66 22.16C167.66 22.528 167.588 22.848 167.444 23.12C167.316 23.376 167.148 23.592 166.94 23.768C166.812 23.688 166.62 23.608 166.364 23.528C166.108 23.432 165.828 23.352 165.524 23.288C165.22 23.208 164.908 23.144 164.588 23.096C164.284 23.048 164.004 23.024 163.748 23.024C163.22 23.024 162.812 23.088 162.524 23.216C162.236 23.328 162.092 23.512 162.092 23.768C162.092 23.944 162.172 24.088 162.332 24.2C162.492 24.312 162.796 24.416 163.244 24.512L163.988 24.68C165.524 25.032 166.612 25.52 167.252 26.144C167.908 26.752 168.236 27.544 168.236 28.52Z" fill="white"/>
<circle cx="25" cy="25" r="25" fill="white"/>
<path d="M29.2625 30.7375L23.5375 25L29.2625 19.2625L27.5 17.5L20 25L27.5 32.5L29.2625 30.7375Z" fill="black"/>
</svg>
