<svg width="28" height="28" viewBox="0 0 28 28" fill="none" xmlns="http://www.w3.org/2000/svg">
<circle cx="14" cy="14" r="13.5" fill="white" stroke="#F1F1F1"/>
<g clip-path="url(#clip0)">
<path d="M23 8.41887C22.3306 8.7125 21.6174 8.90712 20.8737 9.00162C21.6388 8.54487 22.2226 7.82712 22.4971 6.962C21.7839 7.38725 20.9964 7.68763 20.1571 7.85525C19.4799 7.13413 18.5146 6.6875 17.4616 6.6875C15.4186 6.6875 13.7739 8.34575 13.7739 10.3786C13.7739 10.6711 13.7986 10.9524 13.8594 11.2201C10.7915 11.0705 8.07687 9.60013 6.25325 7.36025C5.93487 7.91263 5.74813 8.54488 5.74813 9.2255C5.74813 10.5035 6.40625 11.6364 7.38725 12.2922C6.79437 12.281 6.21275 12.1089 5.72 11.8377C5.72 11.849 5.72 11.8636 5.72 11.8782C5.72 13.6715 6.99912 15.161 8.6765 15.5041C8.37612 15.5863 8.04875 15.6256 7.709 15.6256C7.47275 15.6256 7.23425 15.6121 7.01038 15.5626C7.4885 17.024 8.84525 18.0984 10.4585 18.1332C9.203 19.1154 7.60888 19.7071 5.88313 19.7071C5.5805 19.7071 5.29025 19.6936 5 19.6565C6.63462 20.7106 8.57188 21.3125 10.661 21.3125C17.4515 21.3125 21.164 15.6875 21.164 10.8117C21.164 10.6486 21.1584 10.4911 21.1505 10.3348C21.8829 9.815 22.4982 9.16587 23 8.41887Z" fill="#03A9F4"/>
</g>
<defs>
<clipPath id="clip0">
<rect width="18" height="18" fill="white" transform="translate(5 5)"/>
</clipPath>
</defs>
</svg>
