<svg width="140" height="44" viewBox="0 0 140 44" fill="none" xmlns="http://www.w3.org/2000/svg">
<path d="M2.58598 39.375C7.41535 46.5021 124.93 44.9964 134.857 37.5681C143.979 30.8425 139.687 8.65818 131.906 3.83986C121.174 -2.68496 17.0741 0.0253507 8.48855 5.14482C0.17129 9.96314 -2.5117 32.0471 2.58598 39.375Z" fill="url(#paint0_radial)"/>
<path d="M2.59835 38.3466C7.43023 45.2728 124.201 42.2172 134.133 34.9854C143.26 28.3647 138.965 8.60464 131.18 3.8174C120.443 -2.59953 16.8256 -0.0531279 8.23554 5.03968C0.182405 9.72506 -2.50197 31.1148 2.59835 38.3466Z" fill="url(#paint1_linear)"/>
<path d="M4.62852 37.6574C9.436 44.3001 122.946 41.2807 132.828 34.336C141.642 27.9952 137.635 9.07347 129.89 4.54433C119.474 -1.59517 18.5168 0.820371 10.2372 5.65145C2.22478 10.0799 -0.178957 30.7127 4.62852 37.6574Z" fill="url(#paint2_linear)"/>
<path d="M118.698 37.3035C117.477 36.2744 129.69 31.9004 132.743 31.9004C135.797 31.9004 133.354 34.8592 130.911 35.5025C128.469 36.1457 119.309 37.8181 118.698 37.3035Z" fill="white"/>
<path d="M9.9898 8.63097C9.9898 8.63097 4.30281 6.78474 14.2915 5.36104C24.6559 3.91372 57.9362 1.02585 59.8621 1.14964C61.4004 1.23659 45.8123 3.19593 37.6425 4.19921C29.4728 5.2025 14.5691 8.71039 9.9898 8.63097Z" fill="white"/>
<path d="M42.52 17.8654C42.6373 17.812 42.8187 17.7534 43.064 17.6894C43.32 17.6147 43.576 17.5774 43.832 17.5774C44.28 17.5774 44.6533 17.6467 44.952 17.7854C45.2507 17.9134 45.432 18.1054 45.496 18.3614C45.6133 18.7987 45.72 19.2094 45.816 19.5934C45.9227 19.9667 46.024 20.3294 46.12 20.6814C46.216 21.0227 46.3067 21.364 46.392 21.7054C46.488 22.0467 46.5787 22.404 46.664 22.7774H46.744C46.84 22.1267 46.9253 21.508 47 20.9214C47.0747 20.324 47.144 19.7427 47.208 19.1774C47.272 18.6014 47.336 18.036 47.4 17.4814C47.464 16.916 47.528 16.3454 47.592 15.7694C47.9867 15.5454 48.408 15.4334 48.856 15.4334C49.2507 15.4334 49.592 15.5187 49.88 15.6894C50.168 15.86 50.312 16.148 50.312 16.5534C50.312 16.788 50.2853 17.124 50.232 17.5614C50.1893 17.988 50.1253 18.468 50.04 19.0014C49.9653 19.5347 49.8747 20.0947 49.768 20.6814C49.6613 21.268 49.5493 21.828 49.432 22.3614C49.3147 22.8947 49.192 23.38 49.064 23.8174C48.9467 24.244 48.8347 24.5747 48.728 24.8094C48.568 24.9587 48.3067 25.0814 47.944 25.1774C47.5813 25.2734 47.208 25.3214 46.824 25.3214C46.3227 25.3214 45.896 25.2574 45.544 25.1294C45.2027 24.9907 44.9947 24.7987 44.92 24.5534C44.7813 24.1267 44.632 23.62 44.472 23.0334C44.312 22.4467 44.1413 21.8014 43.96 21.0974C43.8107 21.7907 43.656 22.468 43.496 23.1294C43.336 23.7907 43.192 24.3507 43.064 24.8094C42.904 24.9587 42.664 25.0814 42.344 25.1774C42.024 25.2734 41.672 25.3214 41.288 25.3214C40.808 25.3214 40.3707 25.2574 39.976 25.1294C39.592 24.9907 39.3413 24.7987 39.224 24.5534C39.128 24.3614 39.0213 24.0787 38.904 23.7054C38.7973 23.3214 38.6853 22.8894 38.568 22.4094C38.4507 21.9187 38.328 21.3907 38.2 20.8254C38.0827 20.26 37.9707 19.6947 37.864 19.1294C37.768 18.564 37.6773 18.0147 37.592 17.4814C37.5067 16.9374 37.4427 16.4414 37.4 15.9934C37.5493 15.8547 37.7573 15.7267 38.024 15.6094C38.2907 15.492 38.5787 15.4334 38.888 15.4334C39.2933 15.4334 39.624 15.524 39.88 15.7054C40.1467 15.876 40.312 16.1694 40.376 16.5854C40.5467 17.6734 40.6853 18.58 40.792 19.3054C40.9093 20.0307 41 20.628 41.064 21.0974C41.1387 21.556 41.192 21.9134 41.224 22.1694C41.256 22.4254 41.288 22.628 41.32 22.7774H41.4C41.496 22.3507 41.5867 21.956 41.672 21.5934C41.7573 21.2307 41.8427 20.868 41.928 20.5054C42.024 20.132 42.12 19.7374 42.216 19.3214C42.312 18.8947 42.4133 18.4094 42.52 17.8654ZM53.6821 15.7854C53.8635 15.6787 54.1355 15.5774 54.4981 15.4814C54.8715 15.3854 55.2448 15.3374 55.6181 15.3374C56.1515 15.3374 56.6208 15.4174 57.0261 15.5774C57.4421 15.7267 57.7088 15.9667 57.8261 16.2974C58.0181 16.852 58.2261 17.4974 58.4501 18.2334C58.6741 18.9694 58.8981 19.732 59.1221 20.5214C59.3461 21.3 59.5648 22.0734 59.7781 22.8414C59.9915 23.5987 60.1781 24.2707 60.3381 24.8574C60.2101 25.0067 60.0181 25.124 59.7621 25.2094C59.5061 25.3054 59.2021 25.3534 58.8501 25.3534C58.5941 25.3534 58.3755 25.332 58.1941 25.2894C58.0235 25.2467 57.8795 25.1827 57.7621 25.0974C57.6555 25.012 57.5648 24.9 57.4901 24.7614C57.4261 24.6227 57.3675 24.4627 57.3141 24.2814L57.0261 23.1774H54.1301C54.0448 23.4974 53.9595 23.828 53.8741 24.1694C53.7888 24.5107 53.7035 24.8414 53.6181 25.1614C53.4688 25.2147 53.3088 25.2574 53.1381 25.2894C52.9781 25.332 52.7808 25.3534 52.5461 25.3534C52.0021 25.3534 51.5968 25.2627 51.3301 25.0814C51.0741 24.8894 50.9461 24.628 50.9461 24.2974C50.9461 24.148 50.9675 23.9987 51.0101 23.8494C51.0528 23.7 51.1008 23.524 51.1541 23.3214C51.2288 23.0334 51.3301 22.676 51.4581 22.2494C51.5968 21.8227 51.7461 21.364 51.9061 20.8734C52.0661 20.372 52.2368 19.86 52.4181 19.3374C52.5995 18.8147 52.7701 18.324 52.9301 17.8654C53.0901 17.396 53.2341 16.98 53.3621 16.6174C53.5008 16.2547 53.6075 15.9774 53.6821 15.7854ZM55.6021 17.8494C55.4528 18.2974 55.2821 18.7987 55.0901 19.3534C54.9088 19.8974 54.7435 20.452 54.5941 21.0174H56.5781C56.4288 20.4414 56.2741 19.8814 56.1141 19.3374C55.9648 18.7827 55.8261 18.2867 55.6981 17.8494H55.6021ZM60.6389 17.7374C60.5642 17.62 60.4949 17.46 60.4309 17.2574C60.3669 17.0547 60.3349 16.8414 60.3349 16.6174C60.3349 16.2014 60.4255 15.9027 60.6069 15.7214C60.7989 15.54 61.0442 15.4494 61.3429 15.4494H68.3189C68.3935 15.5667 68.4629 15.7267 68.5269 15.9294C68.5909 16.132 68.6229 16.3454 68.6229 16.5694C68.6229 16.9854 68.5269 17.284 68.3349 17.4654C68.1535 17.6467 67.9135 17.7374 67.6149 17.7374H65.8389V25.1294C65.7215 25.1614 65.5349 25.1934 65.2789 25.2254C65.0335 25.2574 64.7882 25.2734 64.5429 25.2734C64.2975 25.2734 64.0789 25.252 63.8869 25.2094C63.7055 25.1774 63.5509 25.1134 63.4229 25.0174C63.2949 24.9214 63.1989 24.788 63.1349 24.6174C63.0709 24.4467 63.0389 24.2227 63.0389 23.9454V17.7374H60.6389ZM74.4996 17.4494C73.6783 17.4494 73.049 17.7 72.6116 18.2014C72.1743 18.7027 71.9556 19.412 71.9556 20.3294C71.9556 21.2574 72.1956 21.972 72.6756 22.4734C73.1663 22.9747 73.8223 23.2254 74.6436 23.2254C75.081 23.2254 75.449 23.1667 75.7476 23.0494C76.057 22.932 76.3503 22.7987 76.6276 22.6494C76.809 22.7987 76.9476 22.98 77.0436 23.1934C77.1503 23.396 77.2036 23.636 77.2036 23.9134C77.2036 24.3507 76.9583 24.724 76.4676 25.0334C75.9876 25.332 75.2516 25.4814 74.2596 25.4814C73.545 25.4814 72.873 25.38 72.2436 25.1774C71.6143 24.9747 71.065 24.6654 70.5956 24.2494C70.1263 23.8227 69.753 23.2894 69.4756 22.6494C69.209 21.9987 69.0756 21.2254 69.0756 20.3294C69.0756 19.4974 69.2036 18.7667 69.4596 18.1374C69.7263 17.4974 70.0836 16.9587 70.5316 16.5214C70.9903 16.084 71.5236 15.7534 72.1316 15.5294C72.7396 15.3054 73.3903 15.1934 74.0836 15.1934C75.065 15.1934 75.8223 15.3534 76.3556 15.6734C76.8996 15.9934 77.1716 16.404 77.1716 16.9054C77.1716 17.1827 77.1023 17.4227 76.9636 17.6254C76.825 17.828 76.665 17.988 76.4836 18.1054C76.2063 17.924 75.9076 17.7694 75.5876 17.6414C75.2783 17.5134 74.9156 17.4494 74.4996 17.4494ZM87.3683 25.1294C87.2509 25.1614 87.0643 25.1934 86.8083 25.2254C86.5629 25.2574 86.3176 25.2734 86.0723 25.2734C85.8269 25.2734 85.6083 25.252 85.4163 25.2094C85.2349 25.1774 85.0803 25.1134 84.9523 25.0174C84.8243 24.9214 84.7283 24.788 84.6643 24.6174C84.6003 24.4467 84.5683 24.2227 84.5683 23.9454V21.4494H81.4963V25.1294C81.3789 25.1614 81.1923 25.1934 80.9363 25.2254C80.6909 25.2574 80.4456 25.2734 80.2003 25.2734C79.9549 25.2734 79.7363 25.252 79.5443 25.2094C79.3629 25.1774 79.2083 25.1134 79.0803 25.0174C78.9523 24.9214 78.8563 24.788 78.7923 24.6174C78.7283 24.4467 78.6963 24.2227 78.6963 23.9454V15.4974C78.8136 15.476 79.0003 15.4494 79.2563 15.4174C79.5123 15.3747 79.7576 15.3534 79.9923 15.3534C80.2376 15.3534 80.4509 15.3747 80.6323 15.4174C80.8243 15.4494 80.9843 15.5134 81.1123 15.6094C81.2403 15.7054 81.3363 15.8387 81.4003 16.0094C81.4643 16.18 81.4963 16.404 81.4963 16.6814V19.2414H84.5683V15.4974C84.6856 15.476 84.8723 15.4494 85.1283 15.4174C85.3843 15.3747 85.6296 15.3534 85.8643 15.3534C86.1096 15.3534 86.3229 15.3747 86.5043 15.4174C86.6963 15.4494 86.8563 15.5134 86.9843 15.6094C87.1123 15.7054 87.2083 15.8387 87.2723 16.0094C87.3363 16.18 87.3683 16.404 87.3683 16.6814V25.1294ZM101.433 24.8574C101.284 25.0067 101.065 25.1187 100.777 25.1934C100.5 25.2787 100.164 25.3214 99.7694 25.3214C99.3747 25.3214 99.0014 25.2627 98.6494 25.1454C98.2974 25.028 98.0094 24.7454 97.7854 24.2974L96.2014 21.0654C96.0414 20.7347 95.8974 20.4254 95.7694 20.1374C95.6414 19.8387 95.5027 19.4974 95.3534 19.1134L95.2574 19.1294C95.3 19.7054 95.3214 20.292 95.3214 20.8894C95.332 21.4867 95.3374 22.0734 95.3374 22.6494V25.1294C95.22 25.1614 95.0387 25.1934 94.7934 25.2254C94.5587 25.2574 94.324 25.2734 94.0894 25.2734C93.8547 25.2734 93.6467 25.2574 93.4654 25.2254C93.284 25.1934 93.1347 25.1294 93.0174 25.0334C92.9 24.9374 92.8094 24.8094 92.7454 24.6494C92.6814 24.4787 92.6494 24.26 92.6494 23.9934V15.9934C92.7987 15.78 93.028 15.62 93.3374 15.5134C93.6467 15.4067 93.9774 15.3534 94.3294 15.3534C94.724 15.3534 95.0974 15.4174 95.4494 15.5454C95.812 15.6627 96.1 15.94 96.3134 16.3774L97.9134 19.6094C98.0734 19.94 98.2174 20.2547 98.3454 20.5534C98.4734 20.8414 98.612 21.1774 98.7614 21.5614L98.8414 21.5454C98.7987 20.9694 98.772 20.3934 98.7614 19.8174C98.7507 19.2414 98.7454 18.6654 98.7454 18.0894V15.4974C98.8627 15.4654 99.0387 15.4334 99.2734 15.4014C99.5187 15.3694 99.7587 15.3534 99.9934 15.3534C100.463 15.3534 100.82 15.4387 101.065 15.6094C101.311 15.7694 101.433 16.1107 101.433 16.6334V24.8574ZM103.029 20.3294C103.029 19.4974 103.157 18.7614 103.413 18.1214C103.679 17.4814 104.037 16.948 104.485 16.5214C104.943 16.084 105.477 15.7534 106.085 15.5294C106.703 15.3054 107.37 15.1934 108.085 15.1934C108.799 15.1934 109.461 15.3054 110.069 15.5294C110.687 15.7534 111.226 16.084 111.685 16.5214C112.143 16.948 112.501 17.4814 112.757 18.1214C113.023 18.7614 113.157 19.4974 113.157 20.3294C113.157 21.1614 113.029 21.9027 112.773 22.5534C112.517 23.1934 112.159 23.732 111.701 24.1694C111.253 24.596 110.719 24.9214 110.101 25.1454C109.482 25.3694 108.81 25.4814 108.085 25.4814C107.359 25.4814 106.687 25.3694 106.069 25.1454C105.45 24.9107 104.917 24.5747 104.469 24.1374C104.021 23.7 103.669 23.1614 103.413 22.5214C103.157 21.8814 103.029 21.1507 103.029 20.3294ZM105.909 20.3294C105.909 21.3 106.106 22.0254 106.501 22.5054C106.895 22.9854 107.423 23.2254 108.085 23.2254C108.757 23.2254 109.29 22.9854 109.685 22.5054C110.079 22.0254 110.277 21.3 110.277 20.3294C110.277 19.3694 110.079 18.6494 109.685 18.1694C109.301 17.6894 108.773 17.4494 108.101 17.4494C107.439 17.4494 106.906 17.6894 106.501 18.1694C106.106 18.6387 105.909 19.3587 105.909 20.3294ZM119.239 17.8654C119.356 17.812 119.537 17.7534 119.783 17.6894C120.039 17.6147 120.295 17.5774 120.551 17.5774C120.999 17.5774 121.372 17.6467 121.671 17.7854C121.969 17.9134 122.151 18.1054 122.215 18.3614C122.332 18.7987 122.439 19.2094 122.535 19.5934C122.641 19.9667 122.743 20.3294 122.839 20.6814C122.935 21.0227 123.025 21.364 123.111 21.7054C123.207 22.0467 123.297 22.404 123.383 22.7774H123.463C123.559 22.1267 123.644 21.508 123.719 20.9214C123.793 20.324 123.863 19.7427 123.927 19.1774C123.991 18.6014 124.055 18.036 124.119 17.4814C124.183 16.916 124.247 16.3454 124.311 15.7694C124.705 15.5454 125.127 15.4334 125.575 15.4334C125.969 15.4334 126.311 15.5187 126.599 15.6894C126.887 15.86 127.031 16.148 127.031 16.5534C127.031 16.788 127.004 17.124 126.951 17.5614C126.908 17.988 126.844 18.468 126.759 19.0014C126.684 19.5347 126.593 20.0947 126.487 20.6814C126.38 21.268 126.268 21.828 126.151 22.3614C126.033 22.8947 125.911 23.38 125.783 23.8174C125.665 24.244 125.553 24.5747 125.447 24.8094C125.287 24.9587 125.025 25.0814 124.663 25.1774C124.3 25.2734 123.927 25.3214 123.543 25.3214C123.041 25.3214 122.615 25.2574 122.263 25.1294C121.921 24.9907 121.713 24.7987 121.639 24.5534C121.5 24.1267 121.351 23.62 121.191 23.0334C121.031 22.4467 120.86 21.8014 120.679 21.0974C120.529 21.7907 120.375 22.468 120.215 23.1294C120.055 23.7907 119.911 24.3507 119.783 24.8094C119.623 24.9587 119.383 25.0814 119.063 25.1774C118.743 25.2734 118.391 25.3214 118.007 25.3214C117.527 25.3214 117.089 25.2574 116.695 25.1294C116.311 24.9907 116.06 24.7987 115.943 24.5534C115.847 24.3614 115.74 24.0787 115.623 23.7054C115.516 23.3214 115.404 22.8894 115.287 22.4094C115.169 21.9187 115.047 21.3907 114.919 20.8254C114.801 20.26 114.689 19.6947 114.583 19.1294C114.487 18.564 114.396 18.0147 114.311 17.4814C114.225 16.9374 114.161 16.4414 114.119 15.9934C114.268 15.8547 114.476 15.7267 114.743 15.6094C115.009 15.492 115.297 15.4334 115.607 15.4334C116.012 15.4334 116.343 15.524 116.599 15.7054C116.865 15.876 117.031 16.1694 117.095 16.5854C117.265 17.6734 117.404 18.58 117.511 19.3054C117.628 20.0307 117.719 20.628 117.783 21.0974C117.857 21.556 117.911 21.9134 117.943 22.1694C117.975 22.4254 118.007 22.628 118.039 22.7774H118.119C118.215 22.3507 118.305 21.956 118.391 21.5934C118.476 21.2307 118.561 20.868 118.647 20.5054C118.743 20.132 118.839 19.7374 118.935 19.3214C119.031 18.8947 119.132 18.4094 119.239 17.8654Z" fill="white"/>
<path d="M15.8741 16.2077C15.8741 14.1703 17.9675 12.8408 19.5716 13.8595L29.0014 19.8483C30.55 20.8318 30.4804 23.2839 28.8748 24.3036L19.445 30.2923C17.8395 31.312 15.8741 30.1523 15.8741 28.1852L15.8741 16.2077Z" fill="url(#paint3_linear)" stroke="white"/>
<defs>
<radialGradient id="paint0_radial" cx="0" cy="0" r="1" gradientUnits="userSpaceOnUse" gradientTransform="translate(72.1446 40.9175) scale(54.0743 37.9364)">
<stop stop-color="#FA6B90"/>
<stop offset="1" stop-color="#F9265D"/>
</radialGradient>
<linearGradient id="paint1_linear" x1="69.6563" y1="42.2475" x2="69.6563" y2="0.0469967" gradientUnits="userSpaceOnUse">
<stop stop-color="#FA6B90"/>
<stop offset="1" stop-color="#F9265D"/>
</linearGradient>
<linearGradient id="paint2_linear" x1="70.0123" y1="41.3568" x2="70.0123" y2="0.855901" gradientUnits="userSpaceOnUse">
<stop stop-color="#F55982"/>
<stop offset="1" stop-color="#F9265D"/>
</linearGradient>
<linearGradient id="paint3_linear" x1="15.3923" y1="10.5934" x2="29.188" y2="32.316" gradientUnits="userSpaceOnUse">
<stop offset="0.0572917" stop-color="white"/>
<stop offset="0.510417" stop-color="white"/>
</linearGradient>
</defs>
</svg>
