<svg width="53" height="45" viewBox="0 0 53 45" fill="none" xmlns="http://www.w3.org/2000/svg">
<g clip-path="url(#clip0)">
<path d="M0.998999 39.6256C2.799 46.7256 46.599 45.2256 50.299 37.8256C53.699 31.1256 52.099 9.02565 49.199 4.22564C45.199 -2.27436 6.399 0.425645 3.199 5.52564C0.0989993 10.3256 -0.901001 32.3256 0.998999 39.6256Z" fill="url(#paint0_radial)"/>
<path d="M1.10076 38.4257C2.90076 45.2257 46.4008 42.2257 50.1008 35.1257C53.5008 28.6257 51.9008 9.22567 49.0008 4.52567C45.0008 -1.77433 6.40076 0.725672 3.20076 5.72567C0.200763 10.3257 -0.799237 31.3257 1.10076 38.4257Z" fill="url(#paint1_linear)"/>
<path d="M1.59934 37.8255C3.39934 44.4255 45.8993 41.4255 49.5993 34.5255C52.8993 28.2255 51.3993 9.42555 48.4993 4.92555C44.5993 -1.17445 6.79934 1.22555 3.69934 6.02555C0.699338 10.4255 -0.200662 30.9255 1.59934 37.8255Z" fill="url(#paint2_linear)"/>
<path d="M47.5999 35.9256C47.3999 35.1256 49.3999 31.7256 49.8999 31.7256C50.3999 31.7256 49.9999 34.0256 49.5999 34.5256C49.1999 35.0256 47.6999 36.3256 47.5999 35.9256Z" fill="white"/>
<path d="M3.49956 9.92559C3.49956 9.92559 2.09956 6.32559 4.79956 5.02559C7.59956 3.72559 16.4996 2.42559 16.9996 2.82559C17.3996 3.12559 13.1996 4.72559 10.9996 5.52559C8.79956 6.32559 4.69956 10.5256 3.49956 9.92559Z" fill="white"/>
<path d="M19.9016 9.42578C19.9016 9.42578 25.8016 11.7258 34.1016 21.6258C34.1016 21.6258 29.1016 29.0258 19.9016 33.2258L18.0016 30.2258C18.0016 30.2258 23.7016 26.2258 27.2016 21.3258C27.2016 21.3258 24.8016 16.1258 18.7016 12.4258L19.9016 9.42578Z" fill="#931B1D"/>
</g>
<defs>
<radialGradient id="paint0_radial" cx="0" cy="0" r="1" gradientUnits="userSpaceOnUse" gradientTransform="translate(26.9248 41.1622) scale(20.1545 37.7921)">
<stop stop-color="#FFBD00"/>
<stop offset="1" stop-color="#FF772C"/>
</radialGradient>
<linearGradient id="paint1_linear" x1="26.0816" y1="42.2555" x2="26.0816" y2="0.823972" gradientUnits="userSpaceOnUse">
<stop stop-color="#FFF300"/>
<stop offset="1" stop-color="#FF9700"/>
</linearGradient>
<linearGradient id="paint2_linear" x1="26.0801" y1="41.5011" x2="26.0801" y2="1.26085" gradientUnits="userSpaceOnUse">
<stop stop-color="#FFCC00"/>
<stop offset="1" stop-color="#FF9700"/>
</linearGradient>
<clipPath id="clip0">
<rect width="52.2" height="43.8" fill="white" transform="translate(0 0.425781)"/>
</clipPath>
</defs>
</svg>
