<svg width="53" height="45" viewBox="0 0 53 45" fill="none" xmlns="http://www.w3.org/2000/svg">
<g clip-path="url(#clip0)">
<path d="M51.2002 39.6256C49.4002 46.7256 5.60022 45.2256 1.90022 37.8256C-1.49978 31.1256 0.100216 9.02565 3.00022 4.22564C7.00022 -2.27436 45.8002 0.425645 49.0002 5.52564C52.1002 10.3256 53.1002 32.3256 51.2002 39.6256Z" fill="url(#paint0_radial)"/>
<path d="M51.0985 38.4257C49.2985 45.2257 5.79846 42.2257 2.09846 35.1257C-1.30154 28.6257 0.298454 9.22567 3.19846 4.52567C7.19846 -1.77433 45.7985 0.725672 48.9985 5.72567C51.9985 10.3257 52.9985 31.3257 51.0985 38.4257Z" fill="url(#paint1_linear)"/>
<path d="M50.5999 37.8255C48.7999 44.4255 6.29988 41.4255 2.59988 34.5255C-0.700119 28.2255 0.799877 9.42555 3.69988 4.92555C7.59988 -1.17445 45.3999 1.22555 48.4999 6.02555C51.4999 10.4255 52.3999 30.9255 50.5999 37.8255Z" fill="url(#paint2_linear)"/>
<path d="M4.59928 35.9256C4.79928 35.1256 2.79927 31.7256 2.29927 31.7256C1.79927 31.7256 2.19928 34.0256 2.59928 34.5256C2.99928 35.0256 4.49928 36.3256 4.59928 35.9256Z" fill="white"/>
<path d="M48.6997 9.92559C48.6997 9.92559 50.0997 6.32559 47.3997 5.02559C44.5997 3.72559 35.6997 2.42559 35.1997 2.82559C34.7997 3.12559 38.9997 4.72559 41.1997 5.52559C43.3997 6.32559 47.4997 10.5256 48.6997 9.92559Z" fill="white"/>
<path d="M32.2977 9.42578C32.2977 9.42578 26.3977 11.7258 18.0977 21.6258C18.0977 21.6258 23.0977 29.0258 32.2977 33.2258L34.1977 30.2258C34.1977 30.2258 28.4977 26.2258 24.9977 21.3258C24.9977 21.3258 27.3977 16.1258 33.4977 12.4258L32.2977 9.42578Z" fill="#931B1D"/>
</g>
<defs>
<radialGradient id="paint0_radial" cx="0" cy="0" r="1" gradientUnits="userSpaceOnUse" gradientTransform="translate(25.2744 41.1622) rotate(180) scale(20.1545 37.7921)">
<stop stop-color="#FFBD00"/>
<stop offset="1" stop-color="#FF772C"/>
</radialGradient>
<linearGradient id="paint1_linear" x1="26.1177" y1="42.2555" x2="26.1177" y2="0.823972" gradientUnits="userSpaceOnUse">
<stop stop-color="#FFF300"/>
<stop offset="1" stop-color="#FF9700"/>
</linearGradient>
<linearGradient id="paint2_linear" x1="26.1191" y1="41.5011" x2="26.1191" y2="1.26085" gradientUnits="userSpaceOnUse">
<stop stop-color="#FFCC00"/>
<stop offset="1" stop-color="#FF9700"/>
</linearGradient>
<clipPath id="clip0">
<rect width="52.2" height="43.8" fill="white" transform="matrix(-1 0 0 1 52.1992 0.425781)"/>
</clipPath>
</defs>
</svg>
