<svg width="28" height="28" viewBox="0 0 28 28" fill="none" xmlns="http://www.w3.org/2000/svg">
<circle cx="14" cy="14" r="13.5" fill="white" stroke="#F1F1F1"/>
<g clip-path="url(#clip0)">
<path d="M22.6291 9.67895C22.4216 8.90785 21.8137 8.30003 21.0427 8.09239C19.6341 7.70691 13.9998 7.70691 13.9998 7.70691C13.9998 7.70691 8.36565 7.70691 6.95707 8.0777C6.20094 8.2852 5.57815 8.90798 5.37065 9.67895C5 11.0874 5 14.0084 5 14.0084C5 14.0084 5 16.944 5.37065 18.3378C5.57829 19.1087 6.18611 19.7167 6.95721 19.9243C8.38048 20.3098 14 20.3098 14 20.3098C14 20.3098 19.6341 20.3098 21.0427 19.939C21.8138 19.7315 22.4216 19.1236 22.6293 18.3526C22.9999 16.944 22.9999 14.0232 22.9999 14.0232C22.9999 14.0232 23.0148 11.0874 22.6291 9.67895Z" fill="#FF0000"/>
<path d="M12.207 16.7056L16.8923 14.0071L12.207 11.3086V16.7056Z" fill="white"/>
</g>
<defs>
<clipPath id="clip0">
<rect width="18" height="18" fill="white" transform="translate(5 5)"/>
</clipPath>
</defs>
</svg>
