<svg width="40" height="40" viewBox="0 0 40 40" fill="none" xmlns="http://www.w3.org/2000/svg">
<path d="M28 25.334V18.6673C28 14.574 25.8134 11.1473 22 10.2407V9.33398C22 8.22732 21.0934 7.33398 19.9867 7.33398C18.88 7.33398 18.0001 8.22732 18.0001 9.33398V10.2407C14.1734 11.1473 12.0001 14.5607 12.0001 18.6673V25.334L10.2667 27.054C9.42672 27.894 10.0134 29.334 11.2001 29.334H28.76C29.9467 29.334 30.5467 27.894 29.7067 27.054L28 25.334ZM19.9867 33.334C21.4534 33.334 22.6534 32.134 22.6534 30.6673H17.3201C17.3201 32.134 18.5067 33.334 19.9867 33.334ZM13.0267 10.3073C13.5867 9.80065 13.6001 8.93398 13.0667 8.40065C12.5601 7.89398 11.7334 7.88065 11.2134 8.37398C8.93338 10.454 7.36005 13.2807 6.85338 16.454C6.73338 17.2673 7.36005 18.0007 8.18672 18.0007C8.82672 18.0007 9.38672 17.534 9.49338 16.894C9.89338 14.3073 11.1734 12.0007 13.0267 10.3073ZM28.8001 8.37398C28.2667 7.88065 27.4401 7.89398 26.9334 8.40065C26.4001 8.93398 26.4267 9.78732 26.9734 10.294C28.8134 11.9873 30.1067 14.294 30.5067 16.8807C30.6 17.5207 31.16 17.9873 31.8134 17.9873C32.6267 17.9873 33.2667 17.254 33.1334 16.4407C32.6267 13.2807 31.0667 10.4673 28.8001 8.37398Z" fill="#64599C"/>
</svg>
