<svg width="40" height="40" viewBox="0 0 40 40" fill="none" xmlns="http://www.w3.org/2000/svg">
<path d="M26.3333 20.3333C28.1733 20.3333 29.6533 18.84 29.6533 17C29.6533 15.16 28.1733 13.6667 26.3333 13.6667C24.4933 13.6667 23 15.16 23 17C23 18.84 24.4933 20.3333 26.3333 20.3333ZM16.3333 19C18.5467 19 20.32 17.2133 20.32 15C20.32 12.7867 18.5467 11 16.3333 11C14.12 11 12.3333 12.7867 12.3333 15C12.3333 17.2133 14.12 19 16.3333 19ZM26.3333 23C23.8933 23 19 24.2267 19 26.6667V28.3333C19 29.0667 19.6 29.6667 20.3333 29.6667H32.3333C33.0667 29.6667 33.6667 29.0667 33.6667 28.3333V26.6667C33.6667 24.2267 28.7733 23 26.3333 23ZM16.3333 21.6667C13.2267 21.6667 7 23.2267 7 26.3333V28.3333C7 29.0667 7.6 29.6667 8.33333 29.6667H16.3333V26.6667C16.3333 25.5333 16.7733 23.5467 19.4933 22.04C18.3333 21.8 17.2133 21.6667 16.3333 21.6667Z" fill="#64599C"/>
</svg>
