<svg width="40" height="40" viewBox="0 0 40 40" fill="none" xmlns="http://www.w3.org/2000/svg">
<path d="M14.6667 27.9993C15.4 27.9993 16 27.3993 16 26.666V13.3327C16 12.5993 15.4 11.9993 14.6667 11.9993C13.9333 11.9993 13.3333 12.5993 13.3333 13.3327V26.666C13.3333 27.3993 13.9333 27.9993 14.6667 27.9993ZM20 33.3327C20.7333 33.3327 21.3333 32.7327 21.3333 31.9993V7.99935C21.3333 7.26602 20.7333 6.66602 20 6.66602C19.2667 6.66602 18.6667 7.26602 18.6667 7.99935V31.9993C18.6667 32.7327 19.2667 33.3327 20 33.3327ZM9.33333 22.666C10.0667 22.666 10.6667 22.066 10.6667 21.3327V18.666C10.6667 17.9327 10.0667 17.3327 9.33333 17.3327C8.6 17.3327 8 17.9327 8 18.666V21.3327C8 22.066 8.6 22.666 9.33333 22.666ZM25.3333 27.9993C26.0667 27.9993 26.6667 27.3993 26.6667 26.666V13.3327C26.6667 12.5993 26.0667 11.9993 25.3333 11.9993C24.6 11.9993 24 12.5993 24 13.3327V26.666C24 27.3993 24.6 27.9993 25.3333 27.9993ZM29.3333 18.666V21.3327C29.3333 22.066 29.9333 22.666 30.6667 22.666C31.4 22.666 32 22.066 32 21.3327V18.666C32 17.9327 31.4 17.3327 30.6667 17.3327C29.9333 17.3327 29.3333 17.9327 29.3333 18.666Z" fill="#64599C"/>
</svg>
