<svg width="40" height="40" viewBox="0 0 40 40" fill="none" xmlns="http://www.w3.org/2000/svg">
<path d="M23.3333 20.7873L24.1733 24.4273C24.3067 25.0006 23.68 25.454 23.1733 25.1473L20 23.2273L16.8133 25.1473C16.3067 25.454 15.68 25.0006 15.8133 24.4273L16.6667 20.8006L13.8667 18.3873C13.4133 18.0006 13.6533 17.2673 14.24 17.214L17.9467 16.894L19.3867 13.4806C19.6133 12.934 20.3867 12.934 20.6133 13.4806L22.0533 16.8806L25.76 17.2006C26.3467 17.254 26.5867 17.9873 26.1333 18.374L23.3333 20.7873ZM9.58667 9.96065C8.62667 10.3873 8 11.3473 8 12.4007V18.6673C8 26.0673 13.12 32.9873 20 34.6673C26.88 32.9873 32 26.0673 32 18.6673V12.4007C32 11.3473 31.3733 10.3873 30.4133 9.96065L21.08 5.81398C20.3867 5.50732 19.6 5.50732 18.92 5.81398L9.58667 9.96065Z" fill="#64599C"/>
</svg>
