<svg width="286" height="285" viewBox="0 0 286 285" fill="none" xmlns="http://www.w3.org/2000/svg">
<g opacity="0.1">
<path d="M93.7037 209.913C91.9528 208.009 89.661 207.749 87.2722 207.554C87.8735 212.267 83.5432 217.407 77.4208 218.327C79.6361 216.061 81.2399 214.272 83.0183 212.673C84.3271 211.47 85.0378 210.575 84.2785 208.58C83.0761 205.447 80.4164 204.511 77.7942 203.879C75.8696 203.414 77.0875 206.026 76.062 206.776C75.7179 207.032 75.3595 207.325 74.8392 207.731C74.4186 204.41 73.718 201.613 70.8336 199.434C68.1935 197.43 66.268 196.386 63.0867 198.285C60.4526 199.886 57.6776 198.549 55.1527 197.248C58.2941 193.9 58.4134 187.909 64.7987 187.171C58.6251 184.213 61.6342 178.922 60.4699 174.582C59.6576 176.247 55.5034 175.091 57.1149 177.921C60.5135 183.889 58.0421 188.661 55.0114 193.416C53.9943 195.016 53.9909 195.997 55.2176 197.2C50.0323 194.529 45.0585 191.615 42.5553 185.898L43.2435 184.19C45.4291 182.181 45.4186 178.833 48.1642 176.973C46.1476 176.303 44.4441 175.816 43.618 174.064L43.6148 174.139L43.6675 172.883C44.0894 172.529 44.3987 172.059 44.5572 171.532C44.7157 171.004 44.7165 170.442 44.5597 169.914C48.1143 166.766 48.8419 169.068 48.9772 172.59C52.1462 170.087 50.1777 167.67 48.8428 166.048C47.2091 164.048 45.8718 166.231 44.6606 167.357L44.0589 166.703C45.3997 163.538 46.9517 162.835 50.8299 163.822C54.9446 164.869 59.469 164.55 63.705 166.004C66.2355 166.8 68.4252 168.423 69.9226 170.613C74.1235 176.653 74.1562 176.623 80.7133 173.89C81.2361 174.026 81.4652 173.815 81.3677 173.289L81.4952 173.099L81.9994 171.428C82.446 169.241 82.0735 166.966 80.9527 165.036L81.0054 163.78L81.0581 162.524L81.1108 161.268L81.1635 160.011L81.2162 158.755L81.2689 157.499L81.3216 156.243C81.9144 155.859 82.3734 155.3 82.6354 154.644C82.8973 153.988 82.9492 153.267 82.7839 152.58C84.7681 145.925 86.6474 139.222 90.7774 133.456C92.3735 131.252 94.0455 129.34 96.8778 128.861C101.894 130.022 103.349 133.719 103.805 138.312C104.602 146.141 103.033 152.945 96.8612 158.499C93.311 161.691 90.3846 161.411 88.4905 156.921C87.7649 155.173 88.4344 153.012 86.867 151.531L87.4925 149.519C89.388 146.327 91.4288 143.122 91.0087 139.04C88.8816 142.203 86.5681 145.309 86.8831 149.499L86.2662 151.455C84.5475 154.183 84.545 157.24 84.5496 160.279C83.9265 161.31 83.6247 162.502 83.683 163.705C83.7412 164.908 84.1568 166.066 84.8766 167.031L84.4869 168.223C84.6311 168.235 84.8802 168.296 84.9009 168.253C85.0614 167.876 85.1847 167.485 85.3147 167.087C86.9838 164.792 85.1441 162.305 85.7025 159.944C88.8559 158.711 88.565 161.744 89.2573 163.088C92.0552 168.679 93.4463 168.813 98.3321 164.827C105.42 159.035 107.999 151.109 109.773 142.702C110.152 140.869 112.41 138.189 107.947 138.09C107.464 138.076 106.749 137.114 106.587 136.479C105.417 131.975 103.342 127.604 104.319 122.744C104.659 122.897 105.039 122.94 105.404 122.866C105.77 122.792 106.103 122.606 106.356 122.332C107.539 123.829 105.199 126.209 107.622 127.399L110.314 128.777L111.488 131.827C111.358 132.224 110.595 132.721 111.282 132.982C111.79 133.18 111.979 132.427 111.97 131.879C113.02 130.394 113.257 128.655 113.538 126.899C114.885 118.5 116.075 110.075 117.733 101.739C119.034 95.1815 119.688 88.4457 122.259 82.1804L122.906 82.2138C120.625 101.942 116.932 121.423 112.89 140.839C112.527 142.291 112.415 143.795 112.559 145.285C121.532 131.166 128.449 115.955 136.601 101.442C136.872 101.737 137.194 101.996 137.491 102.279C134.207 109.307 130.948 116.361 127.652 123.402C119.415 140.829 110.743 157.981 96.309 171.361L95.9235 171.402L96.3056 171.292C102.411 171.837 105.037 167.116 107.857 163.195C111.779 157.729 114.932 151.702 118.836 146.241C122.298 141.391 125.343 136.152 130.934 133.052C131.992 132.412 133.21 132.088 134.446 132.118C135.682 132.147 136.884 132.529 137.91 133.219C140.138 134.552 140.451 137.295 139.681 139.61C136.76 148.478 132.455 156.325 123.019 159.893C119.071 159.224 117.055 157.189 117.667 152.653L113.519 160.041C109.671 164.787 106.593 170.214 101.452 173.842C100.408 174.585 99.7722 175.64 100.736 176.819C100.917 177.059 101.155 177.251 101.428 177.378C101.701 177.504 102.002 177.561 102.302 177.544C102.603 177.527 102.894 177.436 103.151 177.279C103.408 177.122 103.623 176.904 103.775 176.645C106.318 173.172 110.5 171.126 112.275 167.042C113.14 165.04 113.633 162.884 114.299 160.798C114.976 159.945 114.894 158.306 116.559 158.527C116.753 158.594 116.932 158.699 117.085 158.836C117.238 158.973 117.362 159.14 117.45 159.326C115.538 163.196 119.814 164.917 120.084 168.666L126.105 163.13C132.365 160.26 136.585 154.919 141.486 150.4C142.874 149.124 144.72 148.164 141.95 146.254C140.678 145.383 141.577 144.181 142.666 143.434C143.706 142.921 144.659 142.245 145.487 141.432C150.293 135.572 154.782 129.458 158.932 123.116L162.828 125.934C159.207 133.37 152.481 138.322 146.985 145.899C151.421 143.263 155.484 140.044 159.064 136.327C166.827 128.348 173.51 119.385 178.943 109.668L180.278 109.648C175.414 120.92 167.831 130.259 159.224 138.8C143.785 154.108 126.753 167.316 107.614 177.68C104.493 179.342 104.3 180.643 106.723 183.016C108.349 184.718 109.787 186.59 111.012 188.6C116.671 197.381 125.123 201.228 135.072 202.356C154.346 204.549 173.624 204.502 192.607 200.272C201.302 198.315 209.822 195.143 216.802 189.075C217.692 188.257 218.634 187.39 219.894 188.248C221.154 189.107 221.732 190.641 220.993 191.742C219.604 193.817 220.129 195.846 220.214 198.014C220.349 201.391 218.43 203.362 215.263 204.45C207.984 206.84 200.485 208.504 192.878 209.418C177.261 211.544 161.593 213.56 145.76 212.89C134.455 212.415 123.521 210.321 113.158 205.683C109.416 204.004 106.747 206.591 103.675 207.676C103.547 207.721 103.365 207.864 103.361 207.965C103.276 209.553 105.361 211.742 102.49 212.389C102.058 212.484 100.461 209.75 98.5836 209.218C97.9021 208.957 97.246 208.635 96.6233 208.255C95.5602 207.952 95.1102 208.33 95.3146 209.458L95.3446 209.491L93.7037 209.913ZM96.54 197.644C95.3905 197.3 95.0287 197.826 95.1658 198.907C93.5913 203.145 94.09 204.304 97.9774 205.223C97.1147 203.142 96.2279 201.035 95.3472 198.934L96.5643 197.815L98.2218 198.948C98.2401 198.81 98.3229 198.637 98.2768 198.535C98.1536 198.188 97.9055 197.9 97.5811 197.727C97.2567 197.554 96.8794 197.509 96.523 197.599L96.54 197.644ZM91.3429 184.308C90.1699 186.634 89.5175 189.187 89.4309 191.79C91.1961 190.27 93.1229 188.947 95.1769 187.848C93.7806 186.487 92.6622 185.402 91.5313 184.316L91.4506 183.69L91.3429 184.308ZM97.8283 154.193C99.1948 152.541 100.175 150.604 100.696 148.525C101.63 144.814 101.809 140.953 101.223 137.172C100.949 135.443 100.888 133.157 98.9071 132.828C96.9265 132.5 97.508 134.984 96.708 136.058C94.978 138.451 93.7896 141.192 93.2253 144.091C92.9071 145.066 92.9093 146.118 93.2315 147.092C94.6002 150.157 94.5785 150.225 91.5183 150.587C90.9051 150.656 90.7242 150.919 90.6898 151.289C90.5283 153.188 90.0334 155.237 91.472 156.789C93.277 158.752 94.1832 156.349 95.4196 155.671C96.1877 155.206 96.9167 154.777 97.8163 154.18L97.8283 154.193ZM128.85 141.477C125.716 144.95 122.68 148.491 121.167 153.045C120.757 154.28 119.999 156.004 121.589 156.486C124.204 157.294 126.313 155.451 128.25 153.984C129.615 152.947 130.862 151.716 129.341 149.576C128.01 147.695 128.219 146.175 131.16 145.802C133.93 145.452 133.808 142.666 134.526 140.702C134.59 140.526 134.617 140.339 134.606 140.153C134.595 139.966 134.545 139.784 134.461 139.617C134.377 139.45 134.259 139.303 134.115 139.183C133.972 139.063 133.805 138.974 133.626 138.922C131.595 138.446 130.458 140.034 129.147 141.156C129.038 141.252 128.935 141.355 128.838 141.464L128.85 141.477ZM49.2077 179.841C46.3774 182.371 45.6417 188.059 47.7227 190.493C49.5516 192.64 51.2996 192.663 53.3112 190.753C56.2728 187.946 57.1866 182.359 54.9719 179.964C53.0936 177.947 51.1502 178.08 49.1957 179.828L49.2077 179.841ZM136.874 206.194C130.163 203.912 123.922 202.259 118.185 199.225C116.149 198.139 114.856 199.702 114.292 201.006C113.421 203.014 115.699 202.864 116.7 203.139C118.093 203.53 119.369 204.256 120.418 205.252C123.874 208.354 132.359 208.993 136.874 206.194ZM81.9481 196.195C82.9313 195.691 83.7941 194.98 84.4776 194.112C85.1612 193.244 85.6493 192.238 85.9088 191.164C86.7483 188.4 88.2709 185.249 84.2778 183.704C80.6371 182.305 78.5193 184.796 76.7956 187.492C75.9053 188.859 75.5207 190.494 75.7083 192.114C75.8801 193.418 75.4639 195.539 77.6234 195.353C78.3715 195.291 79.0653 194.938 79.5544 194.368C80.0434 193.799 80.2884 193.059 80.2362 192.311C80.1384 191.193 79.2098 189.631 81.1617 189.745C83.1136 189.858 83.3165 191.471 82.953 193.085C82.8112 193.916 82.47 194.701 81.9481 196.195ZM101.186 205.074C106.393 201.989 104.05 198.601 102.413 195.625C101.092 193.217 99.8136 189.948 96.147 190.518C92.7412 191.017 88.2486 198.227 88.137 202.387C88.0452 205.624 90.7365 204.61 92.3351 205.495C91.5425 201.744 90.8854 198.061 94.122 195.145C95.7776 193.623 97.6262 194.399 99.0023 195.489C101.915 197.737 102.543 200.928 101.2 205.037L101.186 205.074ZM74.4945 185.055C81.4785 179.346 82.8849 179.115 88.3434 182.622C88.7663 180.776 89.3175 178.962 89.9931 177.193C91.2319 174.508 89.8498 173.858 87.7499 174.425C84.0938 175.492 80.6435 177.203 76.9705 178.225C73.0093 179.368 71.8293 181.25 74.4945 185.055ZM193.622 203.529C187.731 204.031 182.67 206.196 177.29 206.203C174.95 206.206 172.616 206.636 170.278 206.746C169.98 206.75 169.687 206.815 169.416 206.937C169.145 207.058 168.901 207.234 168.7 207.453C168.499 207.672 168.344 207.929 168.246 208.21C168.148 208.49 168.108 208.788 168.129 209.084C168.116 210.883 169.64 209.94 170.449 209.861C176.304 209.308 182.134 208.779 187.929 207.858C189.186 207.737 190.385 207.268 191.391 206.503C192.397 205.739 193.169 204.709 193.622 203.529ZM108.63 189.897C105.24 193.92 106.163 198.457 107.102 202.919C110.243 203.183 110.343 199.444 112.741 198.676C113.424 198.459 114.459 197.918 113.575 197.258C111.012 195.206 111.396 191.145 108.63 189.897ZM209.17 197.324C205.906 198.948 203.162 200.18 200.533 201.642C199.624 202.164 198.488 203.148 199.18 204.517C199.871 205.886 201.117 205.429 202.262 205.137C206.006 204.218 208.352 201.976 209.182 197.337L209.17 197.324ZM106.69 187.091C101.871 180.654 101.877 180.648 99.0711 185.752C98.6425 186.521 97.7797 187.29 99.0208 187.852C99.9104 188.241 101.313 190.055 101.908 188.47C102.891 185.875 104.688 187.278 106.703 187.104L106.69 187.091ZM161.586 207.262C160.798 206.405 152.674 207.354 152.183 208.409C151.851 209.112 151.207 210.513 152.441 210.502C155.251 210.406 158.308 211.629 160.844 209.37C161.477 208.824 162.378 208.333 161.598 207.275L161.586 207.262ZM148.575 207.282C146.331 206.773 143.898 206.136 141.523 207.1C140.64 207.453 140.003 209.307 140.712 209.658C141.799 210.261 143.001 210.629 144.239 210.738C145.477 210.847 146.725 210.696 147.901 210.293C148.951 209.871 149.075 208.706 148.587 207.296L148.575 207.282ZM97.1828 177.526C96.03 176.81 94.9491 175.582 93.3478 176.56C93.0183 176.766 92.1568 177.655 92.7592 177.692C97.4656 177.833 93.5481 180.783 94.2558 182.21C94.6973 183.084 94.508 184.296 95.8449 184.371C96.2905 184.398 96.731 184.265 97.0887 183.998C97.4464 183.731 97.6983 183.347 97.7999 182.912C98.3973 181.119 98.6582 179.249 97.1948 177.539L97.1828 177.526ZM65.3841 175.317C61.5721 179.052 62.0152 182.436 66.8845 184.094C64.4375 181.235 63.8495 178.455 65.3841 175.317ZM56.895 168.015C55.4723 167.886 55.4992 169.045 55.0015 169.66C54.0727 170.803 54.3899 171.792 55.4162 172.672C56.0899 173.26 56.8651 173.827 57.6666 173.018C58.7762 171.913 57.2801 171.284 57.0838 170.414C56.9572 169.616 56.8901 168.81 56.883 168.002L56.895 168.015ZM115.805 165.101L112.792 172.135C116.09 170.285 118.275 169.194 115.786 165.094L115.805 165.101ZM86.5019 198.022C82.5318 200.875 82.5318 200.875 85.6275 204.019L86.5019 198.022ZM213.434 202.605C216.224 201.948 217.469 201.227 218.188 198.923C215.947 199.401 215.037 200.407 213.434 202.605ZM94.9358 133.461C93.0867 134.497 91.855 135.363 92.1323 137.451C93.8371 136.705 94.0472 135.147 94.9358 133.461ZM212.076 202.152C211.769 202.107 211.461 201.956 211.281 202.049C211.101 202.142 211.048 202.492 210.938 202.727L212.007 202.879L212.076 202.152ZM88.137 194.139L88.4901 193.972L88.0361 193.846L88.137 194.139ZM98.8121 200.772L98.8518 201.025L99.0089 200.881L98.8121 200.772Z" fill="white"/>
<path d="M141.785 91.2668C150.453 72.2591 162.933 55.9782 177.67 41.365C180.684 38.3646 184.229 34.9838 188.855 36.5998C193.481 38.2157 193.952 43.168 194.476 47.336C196.462 62.9843 195.099 78.2216 188.065 92.6233L186.9 92.4864C186.595 90.1584 187.983 88.2663 188.518 86.1685C190.123 79.8626 192.735 73.6807 191.777 66.9653C193.357 61.7006 193.548 56.1169 192.332 50.7566C192.464 50.5038 192.513 50.2153 192.471 49.9329C192.428 49.6505 192.297 49.389 192.096 49.1865L192.065 49.1537C192.143 47.8436 192.065 46.5288 191.833 45.237C190.031 39.1657 186.299 37.9962 181.145 41.7813C179.463 42.9462 177.862 44.2244 176.354 45.6068C172.536 49.3347 167.92 52.4315 166.077 57.8088C161.301 62.0439 158.401 67.7292 154.789 72.8374C150.402 79.0203 146.658 85.6516 142.631 92.095L141.785 91.2668Z" fill="white"/>
<path d="M121.733 49.9022C124.752 45.4361 120.959 43.0183 118.784 40.1274C120.922 38.8141 122.103 40.7951 123.677 41.5092C126.633 45.8925 126.53 50.9024 126.542 55.8669C126.552 60.9877 125.945 66.091 124.734 71.0666C124.536 71.0375 124.337 71.027 124.137 71.0353C123.885 69.7623 123.625 68.491 123.36 67.2216C123.733 65.6707 124.174 64.1666 122.916 62.799L122.969 61.5429C123.29 61.3697 123.538 61.0867 123.668 60.7456C123.798 60.4045 123.801 60.0281 123.676 59.6851C123.934 58.1541 124.081 56.6064 124.116 55.0542C124.02 53.125 124.974 50.6421 121.909 49.9096L121.733 49.9022Z" fill="white"/>
<path d="M97.4553 68.0096L91.0322 86.2936C90.4466 87.9551 90.0211 89.6989 88.5195 90.8501C88.9618 82.5577 91.9173 75.0942 96.0765 68.0336L97.4553 68.0096Z" fill="white"/>
<path d="M97.4554 68.01L96.0946 68.0536C99.6138 59.6009 103.662 51.4345 109.4 44.2262C109.861 44.2015 110.32 44.1893 110.774 44.1706C105.553 51.6547 101.092 59.6406 97.4554 68.01Z" fill="white"/>
<path d="M85.7076 111.394L83.1444 129.449L81.8884 129.397C81.8913 123.3 82.743 117.233 84.4188 111.371L85.7076 111.394Z" fill="white"/>
<path d="M44.0138 166.758L44.6155 167.412L44.5101 169.924C44.667 170.453 44.6661 171.015 44.5076 171.543C44.3491 172.07 44.0399 172.54 43.618 172.894L43.5653 174.15L43.5684 174.075C41.3635 176.694 43.0635 179.961 42.1329 182.798C41.8746 182.806 41.6163 182.814 41.3635 182.841C39.5609 177.071 40.2413 171.652 44.0138 166.758Z" fill="white"/>
<path d="M93.7048 209.913L95.3928 209.569C98.4221 215.044 95.8903 219.304 88.448 220.193C92.2074 217.413 96.216 215.14 93.7048 209.913Z" fill="white"/>
<path d="M110.762 44.157C110.302 44.1692 109.843 44.1813 109.388 44.2126C110.405 42.7905 111.506 41.4312 112.686 40.142C116.814 36.0685 120.148 36.5292 123.643 41.5517C122.101 40.8076 120.92 38.8265 118.75 40.1699C115.082 39.4121 113.487 42.9313 110.762 44.157Z" fill="white"/>
<path d="M82.0187 171.46L81.5145 173.131C80.626 172.62 79.9199 171.844 79.4953 170.911C79.0707 169.978 78.9489 168.935 79.1469 167.93C79.6322 163.861 79.8488 159.749 80.1779 155.654L80.7431 155.678C80.9477 155.9 81.1523 156.123 81.3448 156.332C81.3269 156.759 81.3029 157.18 81.2921 157.588L81.2394 158.845L81.1867 160.101L81.134 161.357L81.0813 162.613L81.0286 163.869L80.9759 165.125C80.4173 167.341 80.0462 169.591 82.0187 171.46Z" fill="white"/>
<path d="M180.31 109.681L178.975 109.701C180.209 105.789 182.285 102.346 184.238 98.8234L185.714 97.9982C184.454 102.121 182.636 106.052 180.31 109.681Z" fill="white"/>
<path d="M141.785 91.2669C142.044 91.5483 142.303 91.8297 142.561 92.1111C141.636 95.8848 139.551 99.0941 137.519 102.387C137.242 102.086 136.926 101.821 136.629 101.551C137.96 97.942 139.69 94.4927 141.785 91.2669Z" fill="white"/>
<path d="M124.708 71.0909C124.601 74.6338 124.098 78.1537 123.211 81.5852L122.033 81.6176C122.153 77.9925 122.094 74.3157 124.105 71.0657C124.306 71.0521 124.508 71.0605 124.708 71.0909Z" fill="white"/>
<path d="M67.2824 216.914C69.1275 214.302 71.3635 211.99 73.9119 210.058C72.8577 213.889 71.9135 214.951 67.2824 216.914Z" fill="white"/>
<path d="M85.9984 103.881C87.4466 105.653 86.8781 107.057 85.1859 108.251C84.9992 107.507 84.9751 106.731 85.1153 105.977C85.2555 105.223 85.5567 104.508 85.9984 103.881Z" fill="white"/>
<path d="M85.7078 111.393L84.3928 111.395C84.2753 110.844 84.2863 110.273 84.4249 109.727C84.5634 109.18 84.8259 108.673 85.1919 108.245C86.4257 109.127 86.0763 110.257 85.7078 111.393Z" fill="white"/>
<path d="M81.8618 129.421L83.1179 129.473C83.3824 130.667 83.3546 131.78 82.2451 132.582C81.0696 131.659 81.6079 130.524 81.8618 129.421Z" fill="white"/>
<path d="M43.2675 184.254L42.5793 185.962C41.6765 185.138 41.5792 184.007 41.4372 182.894C41.69 182.867 41.9483 182.859 42.2065 182.851C42.5518 183.318 42.9097 183.786 43.2675 184.254Z" fill="white"/>
<path d="M86.8094 99.5235C87.7784 100.42 87.5677 101.241 86.704 102.036C85.7841 101.167 86.2465 100.343 86.8094 99.5235Z" fill="white"/>
<path d="M82.1813 135.033C82.4863 135.549 82.5776 136.163 82.4356 136.745C82.2936 137.327 81.9296 137.83 81.4215 138.147C81.1986 137.011 80.7708 135.811 82.1813 135.033Z" fill="white"/>
<path d="M185.682 97.9658L184.213 98.7975L185.522 96.0842L186.477 96.2689L185.682 97.9658Z" fill="white"/>
<path d="M87.0353 97.155C87.8597 98.0515 87.833 98.8368 86.8216 99.5494C86.4163 98.7145 86.7318 97.9413 87.0353 97.155Z" fill="white"/>
<path d="M88.3961 93.3806C89.2047 94.3519 89.0302 95.2128 88.0625 95.9335C87.9451 95.5072 87.9141 95.0617 87.9714 94.6233C88.0287 94.1849 88.1731 93.7624 88.3961 93.3806Z" fill="white"/>
<path d="M80.6839 145.383C80.8989 145.611 81.0216 145.91 81.0282 146.223C81.0349 146.536 80.925 146.84 80.7198 147.077C80.7124 146.504 80.7044 145.944 80.6839 145.383Z" fill="white"/>
<path d="M188.041 92.5972L187.292 94.4092L186.262 94.2213L186.897 92.4297L188.041 92.5972Z" fill="white"/>
<path d="M187.266 94.4333L186.478 96.2688L185.535 96.0846L186.242 94.2268L187.266 94.4333Z" fill="white"/>
<path d="M86.7047 102.023C87.1035 102.864 86.6703 103.444 85.9976 103.881C85.9085 103.715 85.856 103.532 85.8439 103.343C85.8317 103.155 85.8602 102.967 85.9272 102.791C85.9943 102.615 86.0984 102.455 86.2325 102.322C86.3666 102.19 86.5277 102.088 86.7047 102.023Z" fill="white"/>
<path d="M95.3771 209.487C95.1657 208.377 95.6157 207.999 96.6859 208.283L95.3771 209.487Z" fill="white"/>
<path d="M81.3888 139.385L81.3361 140.641L81.3888 139.385Z" fill="white"/>
<path d="M81.4415 138.129C81.6011 138.302 81.6852 138.532 81.6753 138.768C81.6654 139.003 81.5624 139.225 81.3888 139.385L81.4415 138.129Z" fill="white"/>
<path d="M82.2268 133.796L82.1741 135.052C81.5126 134.621 81.5557 134.195 82.2268 133.796Z" fill="white"/>
<path d="M82.286 132.546L82.2333 133.803C81.5785 133.366 81.6592 132.942 82.286 132.546Z" fill="white"/>
<path d="M122.031 81.6175L123.209 81.5851C123.226 81.709 123.216 81.8351 123.181 81.955C123.145 82.0749 123.085 82.186 123.004 82.2811L122.364 82.2417C122.212 82.058 122.099 81.8457 122.031 81.6175Z" fill="white"/>
<path d="M80.8445 151.901C81.049 152.124 81.2536 152.346 81.4462 152.556C81.2368 152.748 81.0339 152.935 80.7918 153.157L80.3024 153.124L80.8445 151.901Z" fill="white"/>
<path d="M81.4181 173.291C81.4713 173.822 81.2423 174.032 80.7637 173.893L81.4181 173.291Z" fill="white"/>
<path d="M81.2839 141.885C81.6245 142.465 81.4144 142.972 80.9825 143.369L81.2839 141.885Z" fill="white"/>
<path d="M80.9561 149.396L80.9034 150.652C80.449 150.237 80.4795 149.81 80.9561 149.396Z" fill="white"/>
<path d="M80.8952 147.965L80.9591 149.44C80.7603 149.25 80.6427 148.99 80.6308 148.715C80.6189 148.441 80.7136 148.172 80.8952 147.965Z" fill="white"/>
<path d="M81.336 140.629C81.4853 140.807 81.5626 141.035 81.5528 141.267C81.5431 141.499 81.447 141.72 81.2833 141.885L81.336 140.629Z" fill="white"/>
<path d="M80.916 150.639C80.8976 151.079 80.8731 151.512 80.8633 151.895C80.4083 151.493 80.4454 151.06 80.916 150.639Z" fill="white"/>
<path d="M80.1954 155.661L80.2481 154.405L80.7822 154.421L80.7295 155.677L80.1954 155.661Z" fill="white"/>
<path d="M80.254 154.4L80.3395 153.113L80.8288 153.146L80.7761 154.403L80.254 154.4Z" fill="white"/>
<path d="M158.934 123.116C163.179 114.31 168.705 106.162 172.511 97.1675C174.789 91.7643 176.968 86.3193 177.879 80.4813C178.155 78.7187 178.293 76.4784 176.073 76.2972C174.055 76.1244 173.345 77.8877 173.351 80.0082C173.346 82.3673 172.782 84.5645 170.298 85.8822C168.201 86.9895 167.915 89.4501 167.181 91.5017C164.441 99.2134 163.215 107.454 158.726 114.576C155.318 120.064 151.032 124.956 146.039 129.055C145.607 129.453 145.123 130.03 144.625 130.066C142.972 130.185 141.003 131.814 139.745 130.169C138.712 128.836 140.418 127.473 141.251 126.369C147.127 119.038 151.931 110.908 155.52 102.224C155.891 101.315 156.143 100.274 156.421 99.3299C160.373 94.0661 165.087 88.7778 167.459 83.0829C170.446 75.9039 175.064 69.9068 178.382 63.1003C180.832 60.0385 183.3 57.0089 185.725 53.9334C187.387 51.8012 188.712 49.1829 191.986 49.1189L192.022 49.1582L192.252 50.7218C188.417 55.4557 189.098 61.4108 187.762 66.8535C185.747 79.7994 181.676 92.3403 175.703 104.002C171.836 111.616 167.938 119.197 162.801 126.009L158.934 123.116ZM179.356 87.7344C177.792 89.0026 177.464 90.6812 177.58 92.7119C179.863 91.5305 179.765 89.6767 179.506 87.7532L180.255 85.9413C181.627 83.4726 182.402 80.717 182.518 77.8951L186.588 58.2604L185.36 57.844C182.28 62.5592 179.17 67.2543 176.152 72.0098C175.95 72.3285 175.074 73.7136 176.31 73.4949C180.043 72.8399 178.879 76.8931 180.817 77.8049C180.922 80.546 178.918 83.0289 179.898 85.8949L179.356 87.7344ZM147.477 122.214C146.273 123.032 145.302 123.985 145.545 125.681C146.727 125.15 147.705 124.251 148.333 123.118C155.675 116.657 159.665 108.4 162.291 98.5821C159.136 99.5507 158.693 101.709 157.796 103.439C154.535 109.808 152.22 116.682 147.495 122.234L147.477 122.214Z" fill="white"/>
<path d="M114.013 95.0655C113.337 100.976 111.394 106.664 111.348 112.708C111.299 118.079 111.648 123.542 110.407 128.838L107.721 127.467C108.9 123.8 109.116 119.892 108.348 116.118C108.832 115.226 109.286 114.314 108.673 113.319C108.629 113.221 108.558 113.137 108.469 113.076C108.379 113.016 108.275 112.982 108.167 112.978C108.059 112.974 107.952 113.001 107.858 113.054C107.765 113.108 107.688 113.187 107.637 113.282C106.943 114.222 107.35 115.176 107.713 116.11C106.585 118 106.141 120.221 106.455 122.399C106.202 122.673 105.869 122.86 105.503 122.934C105.138 123.007 104.758 122.965 104.419 122.811C103.557 118.446 104.872 114.11 104.72 109.769C105.316 108.907 105.837 108.041 104.664 107.212C106.358 106.428 106.098 104.831 106.446 103.436C107.205 100.323 107.3 97.011 109.259 94.2683L109.874 94.3067C110.245 94.8948 110.652 96.0066 111.005 95.9837C112.307 95.9942 112.234 94.5882 112.734 93.7661L114.013 95.0655Z" fill="white"/>
<path d="M88.1144 194.114L88.0135 193.82L88.4675 193.946L88.1144 194.114Z" fill="white"/>
<path d="M95.124 198.862C94.9869 197.781 95.3608 197.268 96.4982 197.599L96.505 197.737L95.2813 198.862L95.124 198.862Z" fill="white"/>
<path d="M85.4265 167.143C85.2966 167.54 85.1733 167.931 85.0128 168.308C84.98 168.338 84.7429 168.291 84.5988 168.278L84.9885 167.087C85.1191 167.124 85.2633 167.136 85.4265 167.143Z" fill="white"/>
<path d="M96.3743 171.326L95.9922 171.436L96.3777 171.396L96.3743 171.326Z" fill="white"/>
<path d="M43.6251 174.215L43.6778 172.959L43.6251 174.215Z" fill="white"/>
<path d="M81.2443 158.838L81.297 157.582L81.2443 158.838Z" fill="white"/>
<path d="M81.1466 161.345L81.1993 160.089L81.1466 161.345Z" fill="white"/>
<path d="M81.0939 162.588L81.1466 161.332L81.0939 162.588Z" fill="white"/>
<path d="M81.0353 163.837L81.088 162.581L81.0353 163.837Z" fill="white"/>
<path d="M98.7883 200.746L99.0031 200.875L98.828 200.999L98.7883 200.746Z" fill="white"/>
<path d="M80.9884 165.1L81.0411 163.844L80.9884 165.1Z" fill="white"/>
<path d="M81.3048 157.576C81.3162 157.155 81.3401 156.735 81.3575 156.32C81.3401 156.735 81.3162 157.155 81.3048 157.576Z" fill="white"/>
<path d="M81.1993 160.089L81.252 158.833L81.1993 160.089Z" fill="white"/>
<path d="M91.3369 184.302L91.4446 183.684C91.4798 183.893 91.5026 184.101 91.5318 184.304L91.3369 184.302Z" fill="white"/>
<path d="M114.012 95.0655C113.597 94.6139 113.188 94.169 112.773 93.7174L112.38 91.8324C113.127 90.5174 114.192 89.2849 113.513 87.3124C111.911 88.6167 111.101 89.9416 112.072 91.8258L109.919 94.2646L109.298 94.2197C108.003 90.8938 110.392 88.3831 111.296 85.571C113.273 79.3939 116.455 73.582 117.079 66.9707C118.258 62.2638 119.659 57.4971 115.873 52.2107C115.137 55.0613 112.707 57.9604 113.912 58.7722C117.145 60.8959 115.816 63.6147 116.163 66.1459C114.776 67.8681 113.454 69.8448 111.128 67.2369L110.124 68.5223C109.124 69.8254 108.456 71.3518 108.176 72.9704L101.104 91.1265L102.386 91.6018C104.453 85.5355 108.172 80.1236 108.783 73.4992L111.333 69.8502C112.936 69.886 113.016 70.9715 112.447 71.9417C110.283 75.6949 109.844 79.9988 108.587 84.0166C106.13 91.4716 104.827 99.2587 104.724 107.108L103.542 108.448C102.41 112.931 101.203 117.397 100.185 121.872C99.9832 123.09 99.5392 124.256 98.8795 125.3C98.2198 126.345 97.3577 127.246 96.3441 127.952C94.1074 124.429 94.8486 120.56 95.6601 116.964C97.2358 109.996 99.3481 103.139 101.254 96.2415C101.552 95.1467 102.365 94.0735 100.764 92.6348C97.8908 96.4841 96.7608 101.074 95.0995 105.282C92.4125 111.93 90.6523 118.917 89.8684 126.044C89.7333 127.316 89.9118 129.06 87.9882 128.872C86.3464 128.715 86.1807 127.117 86.2125 125.759C86.3918 119.387 87.6569 113.224 89.0729 107.068C90.1013 102.499 91.197 97.9775 92.2429 93.4412C95.8563 82.5953 99.5128 71.7702 105.228 61.8053C108.283 56.4725 111.572 51.2627 114.923 46.0807C115.656 44.935 116.91 43.2386 118.436 44.0576C120.474 45.1309 118.487 46.6078 118.005 47.7389C117.378 49.1973 116.375 50.5898 119.058 50.394C119.928 50.3299 120.695 49.1541 121.838 49.806L121.928 49.9042C122.718 53.1271 121.124 56.7784 123.682 59.6917C123.348 59.8512 123.088 60.1331 122.956 60.479C122.825 60.825 122.831 61.2083 122.975 61.5495L122.922 62.8056C121.58 64.039 121.867 65.5988 121.889 67.1725C120.433 75.1897 118.023 82.8396 115.631 90.5343C115.188 92.0886 115.174 93.7804 114.012 95.0655ZM109.05 60.9841C108.05 61.7851 107.38 62.9259 107.167 64.1893C102.331 73.1404 98.2806 82.3951 96.3721 92.4946C101.802 83.9964 105.669 74.5963 107.792 64.7377C108.885 63.7329 109.705 62.6285 109.206 61.0221C109.68 60.2241 110.829 59.9641 110.769 58.7158C110.255 58.824 109.798 59.1164 109.485 59.5378C109.172 59.9592 109.024 60.4806 109.068 61.0038L109.05 60.9841ZM95.9998 92.9697C94.5647 95.835 93.6303 97.5637 94.0983 99.7539C95.2481 98.1412 96.5983 96.5494 96.0179 92.9893L95.9998 92.9697Z" fill="white"/>
<path d="M192.269 50.7412L192.039 49.1776C192.239 49.3797 192.369 49.6404 192.411 49.9217C192.452 50.203 192.403 50.4901 192.269 50.7412Z" fill="white"/>
<path d="M122.85 62.859L122.902 61.6029L122.85 62.859Z" fill="white"/>
<path d="M169.504 58.6195C174.645 53.7957 178.729 47.6378 186.028 45.503C186.805 45.2714 187.425 44.3034 188.289 45.1512C188.533 45.4279 188.685 45.7736 188.723 46.1405C188.762 46.5074 188.686 46.8772 188.505 47.1987C188.045 48.2615 187.786 49.6473 186.966 50.2799C182.909 53.4064 179.976 57.4923 176.873 61.4326C168.285 72.8184 161.834 85.4767 155.186 98.0135C149.978 105.483 146.827 114.153 141.672 121.706C139.602 124.709 136.78 126.748 134.243 129.177C134.046 129.402 133.803 129.582 133.53 129.704C133.257 129.827 132.961 129.889 132.662 129.886C132.363 129.884 132.068 129.817 131.797 129.69C131.526 129.564 131.286 129.38 131.092 129.152C130.918 129.01 130.774 128.833 130.67 128.633C130.567 128.433 130.505 128.213 130.49 127.989C130.475 127.764 130.506 127.538 130.581 127.326C130.657 127.114 130.775 126.919 130.929 126.754C135.696 122.745 136.879 116.743 138.792 111.481C143.869 97.8948 150.561 84.9675 158.722 72.9772C162.079 67.9464 166.003 63.4806 169.504 58.6195ZM171.172 61.7471C169.804 62.8907 168.539 64.1512 167.39 65.5143C159.358 76.7032 151.466 88.005 145.913 100.707C143.435 106.379 141.291 112.203 138.986 117.945L140.293 118.591L171.88 62.4122L180.823 52.5953C177.267 55.3339 173.125 57.4754 171.152 61.7651L171.172 61.7471Z" fill="white"/>
</g>
</svg>
