<svg width="145" height="143" viewBox="0 0 145 143" fill="none" xmlns="http://www.w3.org/2000/svg">
<g opacity="0.1">
<path d="M35.6691 51.6846C36.5053 50.6894 36.4871 49.5307 36.4302 48.3277C34.1207 48.9309 31.28 47.1042 30.4274 44.1125C31.6994 45.0704 32.6941 45.7545 33.6054 46.5377C34.2893 47.1123 34.7811 47.4089 35.7262 46.902C37.2101 46.101 37.5051 44.7154 37.6513 43.368C37.7588 42.379 36.5358 43.1541 36.0962 42.6914C35.9464 42.5364 35.7772 42.3767 35.5413 42.1435C37.169 41.7201 38.518 41.1908 39.4177 39.6131C40.2465 38.1684 40.6424 37.1417 39.4914 35.6787C38.524 34.4692 39.0115 33.0002 39.4973 31.6582C41.3677 33.0081 44.3607 32.6816 45.1401 35.8159C46.2165 32.549 49.0467 33.7077 51.1343 32.848C50.2524 32.5505 50.5608 30.4059 49.2546 31.3912C46.4993 33.4692 43.9621 32.545 41.3974 31.3411C40.5348 30.9372 40.0456 30.9987 39.5252 31.6875C40.5224 28.9315 41.6541 26.2653 44.3417 24.6497L45.237 24.8826C46.3792 25.8423 48.0466 25.6215 49.1505 26.8698C49.3543 25.8218 49.4871 24.9416 50.3071 24.417L50.2693 24.4203L50.8987 24.3657C51.1024 24.5531 51.3564 24.6769 51.6295 24.7219C51.9027 24.7669 52.183 24.7312 52.4361 24.619C54.2335 26.1876 53.1334 26.6984 51.3867 26.9927C52.8382 28.4106 53.9157 27.274 54.6383 26.5043C55.5297 25.5614 54.3554 25.0357 53.7165 24.5046L54.0038 24.1626C55.6673 24.6269 56.1173 25.355 55.8753 27.3512C55.6185 29.469 56.0693 31.703 55.6171 33.9076C55.3836 35.2199 54.7159 36.4156 53.7213 37.3028C50.9821 39.7852 50.9992 39.7996 52.783 42.8911C52.7493 43.1603 52.869 43.2609 53.125 43.1784L53.2277 43.2297L54.093 43.3733C55.2115 43.455 56.3211 43.1229 57.2108 42.44L57.8401 42.3854L58.4694 42.3307L59.0988 42.2761L59.7281 42.2215L60.3574 42.1668L60.9867 42.1122L61.616 42.0575C61.8457 42.3282 62.1537 42.521 62.4975 42.6092C62.8413 42.6975 63.204 42.6769 63.5356 42.5503C66.9797 43.1104 70.4411 43.6151 73.5803 45.3018C74.7816 45.9552 75.8419 46.6652 76.2629 48.0458C76.0077 50.6201 74.2589 51.5835 71.9995 52.1062C68.1498 53.008 64.658 52.6644 61.4926 49.9465C59.6734 48.383 59.6245 46.9067 61.7398 45.6736C62.5641 45.1994 63.6843 45.3938 64.3215 44.5174L65.3645 44.6995C67.0772 45.4385 68.8057 46.249 70.8127 45.7767C69.0993 44.9205 67.4029 43.9677 65.3348 44.3945L64.3204 44.2131C62.8505 43.5323 61.3267 43.7281 59.8127 43.9261C59.2591 43.6819 58.6453 43.6084 58.0497 43.7149C57.4541 43.8214 56.9038 44.1031 56.4692 44.5239L55.8503 44.4065C55.8534 44.4791 55.8392 44.6072 55.862 44.6147C56.0603 44.6704 56.2631 44.7067 56.4694 44.7458C57.7209 45.4297 58.8416 44.3528 60.0541 44.479C60.8716 45.9709 59.3415 46.0214 58.7164 46.4529C56.1106 48.2073 56.1335 48.9091 58.434 51.0871C61.7771 54.2461 65.8929 55.0205 70.1962 55.3634C71.1344 55.4341 72.6153 56.3866 72.3772 54.1563C72.353 53.9143 72.786 53.4963 73.0924 53.3746C75.2612 52.5015 77.3059 51.1858 79.7907 51.36C79.736 51.5392 79.7391 51.7311 79.7994 51.9085C79.8598 52.0858 79.9744 52.2398 80.127 52.3485C79.4574 53.0343 78.1204 52.0218 77.6834 53.3057L77.1703 54.7356L75.7259 55.5173C75.5196 55.4781 75.2231 55.1298 75.137 55.4892C75.0713 55.7549 75.4589 55.8005 75.7312 55.761C76.5388 56.1886 77.4206 56.1944 78.3138 56.2215C82.586 56.3515 86.8608 56.4019 91.1215 56.6914C94.4731 56.9172 97.8718 56.8091 101.16 57.6871L101.185 58.0115C91.2065 58.1456 81.2612 57.5603 71.3257 56.7966C70.5785 56.709 69.8218 56.75 69.0884 56.9179C76.7021 60.4797 84.728 62.9468 92.4847 66.0745C92.3554 66.2284 92.2471 66.4058 92.1252 66.5717C88.4115 65.3883 84.6862 64.2185 80.9656 63.0294C71.7506 60.0473 62.6451 56.8306 55.0478 50.4997L55.0028 50.3103L55.0822 50.4936C55.2035 53.5709 57.7256 54.5757 59.861 55.7281C62.8376 57.3307 66.044 58.5138 69.0166 60.1071C71.6565 61.5201 74.4633 62.6999 76.3681 65.2863C76.755 65.7724 76.995 66.3588 77.0599 66.9766C77.1247 67.5943 77.0118 68.2178 76.7343 68.7736C76.2136 69.9696 74.8666 70.3022 73.6636 70.0674C69.0565 69.1834 64.8688 67.5434 62.4832 63.0712C62.5622 61.0607 63.4464 59.925 65.746 59.9378L61.7971 58.3467C59.1843 56.7348 56.2821 55.5507 54.1429 53.2223C53.7056 52.7499 53.1387 52.5011 52.6132 53.0572C52.5051 53.163 52.4248 53.2939 52.3794 53.4382C52.334 53.5825 52.3248 53.7358 52.3528 53.8845C52.3808 54.0331 52.4449 54.1726 52.5397 54.2906C52.6344 54.4085 52.7568 54.5013 52.8959 54.5607C54.7904 55.6041 56.079 57.5561 58.2286 58.1779C59.2819 58.4795 60.3881 58.5864 61.4705 58.7841C61.9389 59.0668 62.7505 58.9202 62.7476 59.7638C62.7269 59.8649 62.686 59.9609 62.6275 60.0461C62.569 60.1312 62.4941 60.2037 62.4071 60.2594C60.355 59.5562 59.7729 61.7974 57.9224 62.1737L61.0686 64.8172C62.9023 67.7522 65.8353 69.5107 68.4031 71.6623C69.1281 72.2715 69.7257 73.1295 70.4987 71.6262C70.8509 70.9362 71.5077 71.3071 71.95 71.8013C72.2728 72.2868 72.6709 72.7178 73.1293 73.078C76.3591 75.0959 79.6951 76.9387 83.1227 78.5985L81.9692 80.7213C78.0307 79.3957 75.1297 76.3632 70.9999 74.1126C72.5993 76.1534 74.4652 77.9704 76.5478 79.515C81.0242 82.8694 85.9211 85.6226 91.1131 87.7042L91.2088 88.368C85.2787 86.67 80.1364 83.4928 75.3258 79.7542C66.7035 73.0463 59.0245 65.41 52.6271 56.5401C51.5978 55.0919 50.9373 55.0795 49.9109 56.4399C49.1676 57.36 48.3273 58.1972 47.4044 58.937C43.3931 62.3225 42.0208 66.7818 42.0993 71.8126C42.248 81.5579 43.5131 91.1619 46.8438 100.349C48.379 104.556 50.5084 108.597 53.9817 111.684C54.4468 112.075 54.9392 112.489 54.5927 113.172C54.2463 113.855 53.5189 114.242 52.9225 113.945C51.7992 113.386 50.822 113.778 49.7472 113.96C48.0727 114.245 46.9671 113.416 46.2211 111.908C44.5612 108.434 43.2489 104.805 42.3034 101.073C40.2383 93.4277 38.2243 85.7497 37.5387 77.8169C37.0469 72.153 37.3863 66.5691 39.0298 61.1067C39.6257 59.1337 38.1646 57.9702 37.4259 56.5095C37.3953 56.4487 37.3121 56.3672 37.2618 56.3715C36.4649 56.4312 35.5084 57.6112 35.0011 56.2223C34.9258 56.0132 36.1857 55.0415 36.3297 54.0716C36.4156 53.7152 36.534 53.3674 36.6834 53.0327C36.7657 52.4834 36.5486 52.2835 35.9994 52.458L35.985 52.4751L35.6691 51.6846ZM41.9656 52.3077C42.0629 51.7128 41.7776 51.5664 41.2474 51.7043C39.0345 51.1927 38.4887 51.5159 38.2816 53.5121C39.263 52.9482 40.2559 52.3706 41.2459 51.7964L41.882 52.3308L41.4243 53.2298C41.494 53.23 41.5854 53.2601 41.6336 53.2306C41.7982 53.1469 41.9257 53.0047 41.9911 52.8319C42.0564 52.6591 42.0549 52.4681 41.9868 52.2964L41.9656 52.3077ZM48.2762 48.859C47.0418 48.4243 45.7275 48.2636 44.4246 48.3881C45.2961 49.1698 46.0791 50.0448 46.7595 50.9975C47.3477 50.2141 47.8163 49.5868 48.2844 48.9534L48.5913 48.8728L48.2762 48.859ZM63.701 50.151C64.6122 50.7256 65.6403 51.0891 66.7101 51.2149C68.6194 51.4414 70.5548 51.282 72.4013 50.7461C73.2453 50.4985 74.3807 50.3207 74.4168 49.3125C74.4529 48.3044 73.2524 48.7542 72.6658 48.4247C71.3618 47.7167 69.9194 47.3011 68.4386 47.2066C67.932 47.1109 67.4081 47.1797 66.9434 47.403C65.5044 48.2825 65.469 48.276 65.0913 46.7744C65.0176 46.4733 64.8749 46.4001 64.6884 46.4067C63.7315 46.4486 62.6785 46.334 61.998 47.1508C61.136 48.1767 62.3919 48.4735 62.8093 49.0459C63.0904 49.3988 63.351 49.7344 63.7068 50.1442L63.701 50.151ZM72.0356 64.7907C70.1029 63.4526 68.143 62.1676 65.776 61.7074C65.1343 61.5824 64.2266 61.3156 64.0889 62.1392C63.8546 63.4942 64.9089 64.4267 65.7643 65.2972C66.3692 65.9104 67.063 66.4525 68.0315 65.5568C68.8828 64.7728 69.6537 64.7788 70.0293 66.2203C70.3818 67.5783 71.7622 67.338 72.7873 67.5692C72.879 67.5897 72.9739 67.5911 73.0661 67.5735C73.1584 67.5559 73.2461 67.5196 73.3238 67.4668C73.4015 67.414 73.4675 67.3459 73.5179 67.2666C73.5682 67.1873 73.6018 67.0986 73.6166 67.0058C73.7226 65.9631 72.858 65.4992 72.2147 64.9178C72.1597 64.8697 72.1018 64.8249 72.0414 64.7838L72.0356 64.7907ZM47.7882 27.5746C46.3452 26.3272 43.4634 26.3269 42.3845 27.5207C41.4326 28.5703 41.5337 29.4429 42.6151 30.3223C44.2049 31.6172 47.0474 31.7128 48.0985 30.4549C48.9824 29.389 48.7913 28.4291 47.794 27.5678L47.7882 27.5746ZM40.3029 72.9577C41.0079 69.4662 41.4293 66.2498 42.5717 63.1959C42.9816 62.1109 42.1197 61.5675 41.4336 61.3703C40.3768 61.0658 40.5982 62.191 40.5257 62.7077C40.4205 63.4269 40.1413 64.1096 39.7124 64.6964C38.3893 66.6184 38.6173 70.888 40.3029 72.9577ZM41.7478 44.943C42.0624 45.4005 42.472 45.7847 42.9486 46.0694C43.4253 46.3541 43.9577 46.5326 44.5097 46.5927C45.9413 46.833 47.6096 47.3887 48.1225 45.2994C48.5849 43.3951 47.2074 42.5002 45.7529 41.8149C45.0144 41.4593 44.1748 41.3729 43.3793 41.5708C42.741 41.7403 41.6569 41.6696 41.8888 42.7337C41.9677 43.1026 42.1887 43.4255 42.504 43.6325C42.8192 43.8395 43.2034 43.914 43.5732 43.8397C44.1238 43.719 44.8422 43.1557 44.9114 44.1357C44.9806 45.1156 44.19 45.3206 43.3622 45.2435C42.939 45.2263 42.526 45.1068 41.7478 44.943ZM38.5623 55.1014C40.4347 57.4973 41.9725 56.1115 43.3497 55.1043C44.4648 54.2909 46.0112 53.4433 45.4912 51.6529C45.0232 49.9879 41.1409 48.2136 39.0606 48.4259C37.442 48.5886 38.1202 49.8644 37.7822 50.7181C39.6006 50.0815 41.3935 49.5168 43.0549 50.9419C43.9201 51.6688 43.6525 52.64 43.1982 53.3959C42.2653 54.9923 40.7156 55.5105 38.5817 55.1061L38.5623 55.1014ZM46.8191 40.5112C50.1138 43.6237 50.3192 44.3097 48.9233 47.2557C49.8704 47.3475 50.81 47.5053 51.7351 47.728C53.1528 48.1724 53.3874 47.4419 52.97 46.4319C52.2027 44.6788 51.1277 43.0697 50.3817 41.3052C49.5573 39.4048 48.5434 38.938 46.8191 40.5112ZM45.2859 101.064C44.6566 98.1609 43.2513 95.7784 42.9013 93.0982C42.7493 91.932 42.3845 90.797 42.1793 89.6387C42.1579 89.4908 42.1067 89.3489 42.0287 89.2216C41.9506 89.0942 41.8475 88.9841 41.7255 88.898C41.6035 88.8119 41.4652 88.7515 41.3191 88.7206C41.1729 88.6897 41.0221 88.689 40.8756 88.7183C39.9784 88.8279 40.5464 89.5268 40.638 89.9247C41.2909 92.8068 41.9301 95.6776 42.7622 98.5061C42.9033 99.1251 43.2143 99.6924 43.6601 100.144C44.1059 100.596 44.669 100.915 45.2859 101.064ZM46.6048 57.8334C44.3819 56.4032 42.1804 57.1555 40.0173 57.9108C40.0881 59.493 41.9578 59.3021 42.4948 60.4475C42.6468 60.7736 42.9834 61.2548 43.2553 60.7715C44.1125 59.3623 46.1608 59.2923 46.6048 57.8334ZM49.3796 108.413C48.3598 106.891 47.5695 105.602 46.6714 104.387C46.3528 103.968 45.7892 103.465 45.1515 103.897C44.5138 104.33 44.822 104.922 45.0411 105.473C45.74 107.28 47.0084 108.305 49.3739 108.419L49.3796 108.413ZM47.8779 56.6862C50.7752 53.8698 50.7786 53.8727 48.0544 52.8031C47.6438 52.639 47.205 52.2586 47.0051 52.9132C46.8682 53.3816 46.0545 54.1973 46.883 54.3917C48.2394 54.7146 47.656 55.7005 47.8722 56.693L47.8779 56.6862ZM41.3623 85.3409C41.7387 84.8929 40.7426 80.9055 40.1851 80.7289C39.8133 80.609 39.0736 80.3783 39.1586 80.9923C39.3874 82.3864 38.9749 83.9884 40.264 85.1066C40.5769 85.3869 40.8794 85.8045 41.3565 85.3477L41.3623 85.3409ZM40.5141 78.8583C40.6234 77.7075 40.784 76.454 40.1509 75.3328C39.9181 74.9155 38.953 74.7171 38.8239 75.0929C38.5936 75.6736 38.4877 76.2961 38.5129 76.9203C38.5382 77.5444 38.6941 78.1564 38.9705 78.7165C39.2482 79.2124 39.8367 79.1993 40.5083 78.8652L40.5141 78.8583ZM52.0322 51.3322C52.3144 50.7117 52.8568 50.094 52.2667 49.359C52.1426 49.208 51.6443 48.836 51.6642 49.1386C51.8972 51.493 50.1749 49.7308 49.5096 50.1753C49.1025 50.4516 48.486 50.4354 48.5348 51.1065C48.5504 51.3302 48.6446 51.5412 48.8007 51.7023C48.9568 51.8633 49.1648 51.964 49.3879 51.9866C50.32 52.1689 51.2687 52.1784 52.0265 51.3391L52.0322 51.3322ZM51.0847 35.3442C48.9782 33.6851 47.3202 34.1239 46.8078 36.6571C48.0745 35.2536 49.4221 34.7815 51.0847 35.3442ZM54.1766 30.6436C54.1492 29.9263 53.5735 30.0144 53.2352 29.806C52.6054 29.4168 52.1332 29.6385 51.7609 30.2066C51.5112 30.5802 51.2784 31.003 51.7334 31.3503C52.3554 31.8321 52.5725 31.046 52.9934 30.8922C53.3828 30.7777 53.7802 30.6923 54.1823 30.6368L54.1766 30.6436ZM59.423 59.8115L55.7241 58.7631C56.8583 60.2878 57.5428 61.3063 59.4253 59.8018L59.423 59.8115ZM41.1307 47.3299C39.4532 45.5353 39.4532 45.5353 38.0861 47.2804L41.1307 47.3299ZM47.0225 110.878C47.5295 112.225 47.9693 112.799 49.1637 113.009C48.7809 111.923 48.2209 111.535 47.0225 110.878ZM73.8459 47.3743C73.2105 46.5196 72.6992 45.9616 71.6767 46.2343C72.1584 47.0358 72.9482 47.0401 73.8459 47.3743ZM47.161 110.171C47.1633 110.016 47.2189 109.852 47.1609 109.769C47.1029 109.685 46.925 109.681 46.8011 109.642L46.7943 110.184L47.161 110.171ZM43.1707 47.8946L43.277 48.0598L43.3106 47.8254L43.1707 47.8946ZM40.5533 53.6414L40.4296 53.6775L40.5117 53.7465L40.5533 53.6414Z" fill="white"/>
<path d="M97.8901 68.002C107.92 71.0972 116.837 76.2673 125.068 82.6699C126.758 83.9784 128.671 85.5275 128.163 87.9366C127.656 90.3457 125.219 90.8997 123.175 91.429C115.505 93.4265 107.825 93.7288 100.195 91.1512L100.188 90.5621C101.329 90.2602 102.361 90.83 103.441 90.9613C106.686 91.3548 109.935 92.2584 113.22 91.3487C115.945 91.7966 118.74 91.5321 121.333 90.5809C121.467 90.6307 121.614 90.6364 121.752 90.5971C121.89 90.5577 122.012 90.4754 122.1 90.3621L122.114 90.345C122.772 90.2994 123.422 90.1759 124.051 89.9771C126.96 88.6878 127.303 86.7527 125.085 84.428C124.396 83.6649 123.656 82.9496 122.87 82.287C120.766 80.6245 118.926 78.5239 116.127 77.9521C113.709 75.8445 110.689 74.7657 107.911 73.295C104.548 71.5073 101.002 70.0683 97.5319 68.4769L97.8901 68.002Z" fill="white"/>
<path d="M117.21 55.3458C119.63 56.5624 120.591 54.5165 121.891 53.2464C122.683 54.227 121.772 54.9434 121.518 55.7739C119.524 57.529 117.021 57.8003 114.548 58.126C111.996 58.4608 109.414 58.487 106.857 58.2041C106.859 58.1038 106.851 58.0037 106.834 57.9049C107.452 57.6969 108.069 57.4859 108.684 57.2718C109.481 57.358 110.259 57.4806 110.86 56.7659L111.489 56.7113C111.596 56.8602 111.753 56.9656 111.931 57.0084C112.11 57.0511 112.297 57.0282 112.46 56.944C113.24 56.974 114.021 56.9476 114.796 56.8648C115.752 56.6931 117.05 57.0083 117.218 55.4339L117.21 55.3458Z" fill="white"/>
<path d="M106.623 44.4143L97.0982 42.3912C96.2325 42.2064 95.3362 42.1067 94.6658 41.4326C98.8265 41.1189 102.736 42.1109 106.522 43.7288L106.623 44.4143Z" fill="white"/>
<path d="M106.624 44.4144L106.515 43.7391C110.954 44.9483 115.284 46.4397 119.246 48.8348C119.288 49.0626 119.323 49.291 119.362 49.5159C115.296 47.3962 111.029 45.6873 106.624 44.4144Z" fill="white"/>
<path d="M84.2475 41.3544L75.0849 41.2401L75.0302 40.6108C78.0686 40.2196 81.1467 40.2532 84.1758 40.7107L84.2475 41.3544Z" fill="white"/>
<path d="M53.9734 24.1433L53.686 24.4853L52.4274 24.5946C52.1743 24.7067 51.894 24.7425 51.6209 24.6975C51.3477 24.6525 51.0937 24.5287 50.89 24.3413L50.2607 24.3959L50.2984 24.3926C48.8513 23.4626 47.3326 24.5202 45.8593 24.2391C45.8387 24.1109 45.818 23.9827 45.7882 23.8585C48.5471 22.5886 51.2917 22.5786 53.9734 24.1433Z" fill="white"/>
<path d="M35.6692 51.6848L35.9496 52.5038C33.4165 54.366 31.1306 53.3787 30.208 49.7274C31.8357 51.4217 33.2265 53.2728 35.6692 51.6848Z" fill="white"/>
<path d="M119.367 49.5087C119.332 49.2804 119.296 49.0521 119.251 48.8277C120.025 49.2425 120.774 49.7037 121.492 50.2088C123.788 52.0036 123.773 53.6946 121.495 55.7597C121.767 54.9436 122.678 54.2272 121.869 53.2323C122.01 51.3558 120.154 50.7878 119.367 49.5087Z" fill="white"/>
<path d="M54.0779 43.3843L53.2126 43.2407C53.4101 42.7651 53.7516 42.3632 54.1891 42.0915C54.6266 41.8198 55.1383 41.692 55.6522 41.7259C57.7111 41.7056 59.774 41.5487 61.8356 41.449L61.8602 41.7322C61.7625 41.8484 61.6648 41.9647 61.5729 42.0741C61.3589 42.0927 61.1478 42.1079 60.9435 42.1288L60.3142 42.1834L59.6849 42.2381L59.0556 42.2927L58.4263 42.3474L57.797 42.402L57.1676 42.4566C56.0272 42.3211 54.8824 42.281 54.0779 43.3843Z" fill="white"/>
<path d="M91.1941 88.3854L91.0985 87.7216C93.1273 88.0844 94.9764 88.8971 96.8578 89.6437L97.364 90.3257C95.2284 89.9638 93.1525 89.3109 91.1941 88.3854Z" fill="white"/>
<path d="M97.8899 68.0022C97.7664 68.1492 97.6428 68.2963 97.5193 68.4433C95.5791 68.225 93.8456 67.3927 92.0736 66.5923C92.2058 66.435 92.3174 66.2605 92.4331 66.0951C94.3172 66.5261 96.1475 67.1657 97.8899 68.0022Z" fill="white"/>
<path d="M106.843 58.1925C105.071 58.3673 103.284 58.3438 101.517 58.1223L101.425 57.5374C103.239 57.3641 105.068 57.0975 106.817 57.8904C106.836 57.9898 106.845 58.0911 106.843 58.1925Z" fill="white"/>
<path d="M30.4788 38.969C31.8992 39.7202 33.1956 40.6855 34.3224 41.831C32.3453 41.5524 31.7556 41.1503 30.4788 38.969Z" fill="white"/>
<path d="M88.0105 41.0151C87.2207 41.8509 86.4843 41.658 85.7806 40.8917C86.1393 40.7507 86.5242 40.6887 86.909 40.71C87.2938 40.7313 87.6695 40.8354 88.0105 41.0151Z" fill="white"/>
<path d="M84.249 41.3543L84.1636 40.6991C84.4307 40.605 84.7158 40.5738 84.997 40.6076C85.2781 40.6415 85.5476 40.7396 85.7847 40.8944C85.4246 41.5661 84.8388 41.4648 84.249 41.3543Z" fill="white"/>
<path d="M75.018 40.5991L75.0727 41.2284C74.4948 41.4371 73.9386 41.4949 73.4671 40.9937C73.8518 40.3485 74.4521 40.5436 75.018 40.5991Z" fill="white"/>
<path d="M45.2067 24.8982L44.3115 24.6653C44.6641 24.1623 45.2211 24.041 45.7667 23.8985C45.7965 24.0228 45.8171 24.1509 45.8378 24.2791C45.6271 24.4813 45.4169 24.6898 45.2067 24.8982Z" fill="white"/>
<path d="M90.2332 41.1391C89.849 41.6798 89.426 41.6277 88.9745 41.2484C89.3484 40.7341 89.7886 40.9114 90.2332 41.1391Z" fill="white"/>
<path d="M72.2403 41.1195C72.0031 41.3047 71.7028 41.3898 71.4037 41.3565C71.1046 41.3232 70.8304 41.1743 70.6397 40.9415C71.1912 40.7572 71.762 40.4667 72.2403 41.1195Z" fill="white"/>
<path d="M97.3784 90.3083L96.8693 89.6296L98.3058 90.1073L98.2752 90.595L97.3784 90.3083Z" fill="white"/>
<path d="M91.4281 41.0986C91.0344 41.5671 90.6414 41.6044 90.2212 41.1463C90.6111 40.8905 91.0167 40.998 91.4281 41.0986Z" fill="white"/>
<path d="M93.3979 41.5334C92.9659 41.9989 92.5257 41.9674 92.1042 41.5316C92.3091 41.4456 92.5291 41.4015 92.7512 41.4018C92.9734 41.4021 93.1933 41.4469 93.3979 41.5334Z" fill="white"/>
<path d="M66.9875 41.0398C66.888 41.1616 66.7467 41.242 66.5911 41.2655C66.4356 41.2889 66.2768 41.2538 66.1457 41.1668C66.4307 41.1262 66.7094 41.0861 66.9875 41.0398Z" fill="white"/>
<path d="M100.205 91.1378L99.2537 90.8811L99.281 90.3557L100.215 90.5567L100.205 91.1378Z" fill="white"/>
<path d="M99.2407 90.8698L98.2753 90.5954L98.3064 90.114L99.2777 90.3466L99.2407 90.8698Z" fill="white"/>
<path d="M88.9817 41.248C88.5883 41.5009 88.2716 41.3223 88.0104 41.0153C88.0874 40.9602 88.1754 40.9222 88.2683 40.9041C88.3613 40.8859 88.457 40.8879 88.5491 40.91C88.6412 40.932 88.7275 40.9736 88.8021 41.0319C88.8768 41.0903 88.938 41.1639 88.9817 41.248Z" fill="white"/>
<path d="M35.9892 52.4909C36.5287 52.3141 36.7458 52.514 36.6732 53.0656L35.9892 52.4909Z" fill="white"/>
<path d="M70.0217 41.0046L69.3923 41.0593L70.0217 41.0046Z" fill="white"/>
<path d="M70.6506 40.9499C70.5744 41.0406 70.4652 41.0974 70.3472 41.1076C70.2292 41.1178 70.112 41.0808 70.0213 41.0046L70.6506 40.9499Z" fill="white"/>
<path d="M72.8594 41.0623L72.2301 41.1169C72.402 40.7596 72.6171 40.7536 72.8594 41.0623Z" fill="white"/>
<path d="M73.487 41.0112L72.8577 41.0658C73.033 40.7114 73.2497 40.7243 73.487 41.0112Z" fill="white"/>
<path d="M101.426 57.5374L101.518 58.1223C101.457 58.1386 101.394 58.1419 101.332 58.132C101.27 58.1221 101.21 58.0992 101.158 58.0648L101.136 57.7433C101.218 57.656 101.316 57.586 101.426 57.5374Z" fill="white"/>
<path d="M63.7493 41.5396C63.6516 41.6559 63.5539 41.7721 63.4619 41.8816C63.3525 41.7896 63.2465 41.7006 63.12 41.5942L63.1049 41.3483L63.7493 41.5396Z" fill="white"/>
<path d="M53.1271 43.2038C52.8661 43.2646 52.7464 43.164 52.7852 42.9165L53.1271 43.2038Z" fill="white"/>
<path d="M68.7688 41.1133C68.5015 41.3204 68.2352 41.2484 68.0095 41.0588L68.7688 41.1133Z" fill="white"/>
<path d="M65.0041 41.4336L64.3748 41.4882C64.5526 41.235 64.7671 41.2227 65.0041 41.4336Z" fill="white"/>
<path d="M65.7144 41.3121L64.9836 41.4389C65.0655 41.3276 65.1873 41.2523 65.3235 41.2287C65.4597 41.205 65.5997 41.2349 65.7144 41.3121Z" fill="white"/>
<path d="M69.3986 41.0588C69.3194 41.1447 69.211 41.1979 69.0945 41.208C68.9781 41.2181 68.8622 41.1844 68.7693 41.1135L69.3986 41.0588Z" fill="white"/>
<path d="M64.382 41.494C64.1617 41.5131 63.9443 41.5288 63.7526 41.5486C63.9241 41.296 64.142 41.2866 64.382 41.494Z" fill="white"/>
<path d="M61.8338 41.4587L62.4631 41.404L62.4894 41.6712L61.8601 41.7259L61.8338 41.4587Z" fill="white"/>
<path d="M62.4666 41.4069L63.113 41.3666L63.128 41.6126L62.4987 41.6673L62.4666 41.4069Z" fill="white"/>
<path d="M83.1226 78.5988C87.7843 80.1469 92.2006 82.3758 96.9278 83.6932C99.767 84.4802 102.621 85.2152 105.589 85.2935C106.485 85.3172 107.61 85.2417 107.557 84.124C107.513 83.1069 106.589 82.867 105.533 83.0063C104.357 83.1559 103.226 83.0164 102.409 81.8635C101.722 80.8896 100.478 80.9058 99.4078 80.6721C95.3886 79.8037 91.2031 79.7233 87.3648 77.9451C84.4105 76.6002 81.6969 74.7795 79.3325 72.5555C79.1068 72.3659 78.7879 72.1621 78.738 71.916C78.572 71.0998 77.6336 70.2239 78.3721 69.4908C78.9699 68.8904 79.7589 69.6525 80.3625 69.9964C84.3946 72.4524 88.7553 74.3229 93.3138 75.5517C93.7908 75.6783 94.3253 75.7366 94.8139 75.8146C97.6915 77.4448 100.63 79.4532 103.621 80.2682C107.391 81.2946 110.677 83.2095 114.282 84.4246C115.966 85.4482 117.634 86.4827 119.323 87.4932C120.493 88.1842 121.883 88.6754 122.126 90.3029L122.108 90.3234L121.344 90.5388C118.738 88.9326 115.814 89.6557 113.016 89.3407C106.435 89.1701 99.9236 87.9492 93.7278 85.7242C89.6845 84.2872 85.6556 82.8331 81.9302 80.7123L83.1226 78.5988ZM102.069 86.4963C101.337 85.799 100.479 85.7435 99.4746 85.9322C100.21 86.9938 101.128 86.8253 102.07 86.5724L103.021 86.829C104.339 87.3537 105.762 87.5624 107.176 87.4383L117.223 88.2019L117.351 87.563C114.803 86.3323 112.263 85.0849 109.699 83.8873C109.527 83.8071 108.78 83.4598 108.969 84.0616C109.536 85.8797 107.441 85.5607 107.111 86.5848C105.752 86.8138 104.386 85.975 103.021 86.6483L102.069 86.4963ZM82.8343 72.8316C82.3492 72.2841 81.8116 71.8615 80.982 72.0921C81.3228 72.6467 81.8338 73.0761 82.4389 73.3162C86.1317 76.5589 90.5032 78.015 95.5646 78.6915C94.8788 77.1817 93.7747 77.1 92.8547 76.7646C89.4711 75.5493 85.8967 74.8388 82.8257 72.8419L82.8343 72.8316Z" fill="white"/>
<path d="M94.2073 54.4072C91.2184 54.4512 88.2589 53.849 85.244 54.2154C82.5645 54.5368 79.8647 55.0629 77.1458 54.7854L77.656 53.3588C79.559 53.7099 81.5203 53.5658 83.3516 52.9404C83.8273 53.1242 84.311 53.2914 84.7672 52.9221C84.8134 52.8938 84.8508 52.853 84.8751 52.8045C84.8994 52.756 84.9097 52.7016 84.9046 52.6476C84.8996 52.5936 84.8796 52.542 84.8467 52.4988C84.8139 52.4556 84.7696 52.4225 84.7189 52.4032C84.2059 52.118 83.7565 52.3821 83.3146 52.6234C82.3 52.1831 81.165 52.1048 80.0996 52.4016C79.947 52.293 79.8324 52.139 79.7721 51.9616C79.7117 51.7842 79.7087 51.5924 79.7634 51.4132C81.8829 50.7029 84.1284 51.0785 86.2819 50.7235C86.7499 50.9651 87.2146 51.1688 87.5523 50.5308C88.0524 51.3243 88.8311 51.0919 89.5485 51.1754C91.1491 51.3535 92.8055 51.1875 94.2983 51.9867L94.3188 52.2956C94.0497 52.5187 93.5218 52.7928 93.556 52.9674C93.6346 53.6168 94.3306 53.4898 94.7724 53.6861L94.2073 54.4072Z" fill="white"/>
<path d="M43.1815 47.8809L43.3213 47.8117L43.2878 48.0461L43.1815 47.8809Z" fill="white"/>
<path d="M41.2672 51.6805C41.7974 51.5425 42.077 51.6958 41.9854 52.2839L41.9167 52.2962L41.2772 51.7589L41.2672 51.6805Z" fill="white"/>
<path d="M56.4482 44.8048C56.2419 44.7657 56.039 44.7294 55.8408 44.6737C55.8237 44.6593 55.8322 44.5381 55.8291 44.4655L56.448 44.5829C56.438 44.6504 56.4411 44.723 56.4482 44.8048Z" fill="white"/>
<path d="M55.0692 50.5286L54.9902 50.3462L55.035 50.5347L55.0692 50.5286Z" fill="white"/>
<path d="M50.2322 24.4299L50.8615 24.3752L50.2322 24.4299Z" fill="white"/>
<path d="M60.3181 42.1862L60.9474 42.1316L60.3181 42.1862Z" fill="white"/>
<path d="M59.0623 42.2985L59.6916 42.2439L59.0623 42.2985Z" fill="white"/>
<path d="M58.4392 42.3527L59.0685 42.2981L58.4392 42.3527Z" fill="white"/>
<path d="M57.8123 42.404L58.4416 42.3493L57.8123 42.404Z" fill="white"/>
<path d="M40.5642 53.6278L40.5142 53.7425L40.4411 53.6637L40.5642 53.6278Z" fill="white"/>
<path d="M57.1814 42.4621L57.8107 42.4075L57.1814 42.4621Z" fill="white"/>
<path d="M60.9509 42.1345C61.1615 42.113 61.3726 42.0979 61.5803 42.0798C61.3726 42.0979 61.1615 42.113 60.9509 42.1345Z" fill="white"/>
<path d="M59.6912 42.2438L60.3205 42.1892L59.6912 42.2438Z" fill="white"/>
<path d="M48.2788 48.8556L48.5939 48.8694C48.4919 48.9004 48.3895 48.9252 48.2904 48.9528L48.2788 48.8556Z" fill="white"/>
<path d="M94.2076 54.4076C94.4058 54.1716 94.6012 53.9391 94.7995 53.7031L95.7135 53.386C96.417 53.6736 97.0997 54.1247 98.0389 53.6596C97.2858 52.9451 96.5733 52.6265 95.697 53.232L94.343 52.3161L94.3254 52.0038C95.8993 51.1443 97.3043 52.1731 98.7639 52.4427C101.969 53.0298 105.07 54.2411 108.405 54.1259C110.827 54.4103 113.292 54.8017 115.683 52.5746C114.215 52.3914 112.614 51.3669 112.287 52.0199C111.437 53.7676 109.996 53.2808 108.757 53.6166C107.81 53.0363 106.739 52.5047 107.889 51.1779L107.184 50.7605C106.47 50.3461 105.667 50.1112 104.842 50.0761L95.339 47.7214L95.1847 48.3911C98.3408 49.0301 101.277 50.5347 104.618 50.4126L106.6 51.4484C106.686 52.2494 106.15 52.3593 105.63 52.1382C103.62 51.3014 101.447 51.36 99.364 50.9924C95.4907 50.248 91.5264 50.1004 87.6085 50.5548L86.8642 50.0519C84.5577 49.7767 82.2542 49.4631 79.9589 49.2439C79.3386 49.2217 78.7292 49.0755 78.1663 48.814C77.6035 48.5525 77.0987 48.181 76.6817 47.7214C78.293 46.3799 80.2691 46.5 82.1133 46.6728C85.687 47.0092 89.24 47.6201 92.7998 48.1258C93.3645 48.2035 93.9517 48.5394 94.5655 47.6491C92.4622 46.4653 90.1025 46.1978 87.8983 45.641C84.4123 44.7302 80.8175 44.3031 77.2151 44.3716C76.5728 44.3861 75.7153 44.5874 75.6849 43.6168C75.6574 42.7885 76.4433 42.603 77.1219 42.5314C80.3087 42.2103 83.4613 42.4438 86.6204 42.7529C88.9632 42.9711 91.2869 43.2258 93.6148 43.4549C99.2522 44.5569 104.882 45.6818 110.216 47.888C113.07 49.0669 115.878 50.3702 118.676 51.706C119.294 51.9979 120.22 52.5135 119.911 53.3267C119.507 54.4111 118.643 53.516 118.048 53.3489C117.281 53.1302 116.523 52.7205 116.793 54.0444C116.881 54.4742 117.516 54.7805 117.265 55.392L117.222 55.4433C115.667 56.0443 113.745 55.4852 112.458 56.9475C112.357 56.7914 112.199 56.6801 112.019 56.6367C111.838 56.5934 111.647 56.6214 111.486 56.7148L110.857 56.7695C110.156 56.1804 109.397 56.4239 108.614 56.5362C104.526 56.3269 100.558 55.6188 96.5698 54.9221C95.7667 54.8016 94.9227 54.9035 94.2076 54.4076ZM110.871 49.7397C110.408 49.2929 109.796 49.0323 109.153 49.0075C104.381 47.1741 99.5082 45.7521 94.3525 45.4515C98.937 47.6098 103.87 48.9315 108.92 49.3543C109.491 49.8342 110.094 50.1717 110.862 49.8197C111.291 50.0044 111.494 50.5606 112.112 50.4499C112.025 50.2008 111.85 49.9921 111.62 49.8632C111.39 49.7343 111.12 49.694 110.863 49.7499L110.871 49.7397ZM94.0918 45.2966C92.5715 44.766 91.6499 44.4117 90.5886 44.786C91.4663 45.2551 92.3465 45.8254 94.0831 45.3069L94.0918 45.2966Z" fill="white"/>
<path d="M121.335 90.5491L122.1 90.3337C122.012 90.4464 121.89 90.5281 121.753 90.5669C121.615 90.6056 121.469 90.5994 121.335 90.5491Z" fill="white"/>
<path d="M110.826 56.737L111.455 56.6824L110.826 56.737Z" fill="white"/>
<path d="M115.944 79.7117C118.679 81.9629 122.011 83.6012 123.545 87.1012C123.71 87.4736 124.232 87.7199 123.866 88.2051C123.743 88.3445 123.581 88.4425 123.401 88.4854C123.22 88.5283 123.031 88.5141 122.859 88.4446C122.3 88.284 121.593 88.2439 121.225 87.8764C119.405 86.0561 117.18 84.8575 115.017 83.5648C108.79 80.019 102.067 77.6195 95.3913 75.1144C91.3336 73.0002 86.8105 71.9885 82.7143 69.9062C81.0849 69.068 79.8868 67.793 78.513 66.6853C78.3882 66.6016 78.2829 66.492 78.2044 66.3639C78.1258 66.2358 78.0758 66.0922 78.0577 65.9431C78.0396 65.7939 78.0539 65.6425 78.0996 65.4994C78.1454 65.3562 78.2214 65.2246 78.3226 65.1135C78.3823 65.0173 78.4611 64.9343 78.5541 64.8698C78.6471 64.8053 78.7525 64.7606 78.8635 64.7385C78.9745 64.7163 79.089 64.7173 79.1996 64.7412C79.3103 64.7651 79.4149 64.8115 79.5068 64.8776C81.8116 66.9949 84.8791 67.1978 87.624 67.8123C94.7215 69.4673 101.594 71.969 108.095 75.2636C110.818 76.6123 113.296 78.2803 115.944 79.7117ZM114.493 80.7444C113.835 80.1366 113.125 79.5872 112.372 79.1024C106.279 75.8207 100.139 72.6161 93.4517 70.6668C90.4658 69.7974 87.4255 69.104 84.4159 68.3254L84.178 69.0182L114.207 81.1401L119.675 84.9643C118.081 83.3685 116.748 81.4426 114.483 80.7357L114.493 80.7444Z" fill="white"/>
</g>
</svg>
