<svg width="303" height="249" viewBox="0 0 303 249" fill="none" xmlns="http://www.w3.org/2000/svg">
<g opacity="0.1">
<path d="M217.445 257.347C218.538 253.266 221.658 251.156 224.969 249.067C227.664 256.342 237.82 260.507 247.377 257.206C242.456 255.602 238.782 254.226 234.998 253.258C232.193 252.506 230.488 251.748 230.078 248.287C229.447 242.842 232.589 239.476 235.906 236.577C238.34 234.449 238.553 239.15 240.604 239.459C241.296 239.569 242.037 239.723 243.097 239.917C241.193 234.792 240.091 230.213 242.617 224.878C244.922 219.98 246.919 217.013 252.96 217.354C257.983 217.678 260.988 213.644 263.658 209.85C256.579 207.382 251.874 198.802 242.074 202.564C248.771 193.612 240.413 188.231 238.815 181.069C241.25 182.864 246.388 178.048 246.196 183.363C245.793 194.572 252.98 199.609 260.964 204.198C263.646 205.744 264.394 207.161 263.528 209.83C269.012 202.041 274.006 194.061 273.304 183.893L271.016 181.942C266.332 180.687 263.815 175.834 258.434 175.219C260.846 172.724 262.943 170.731 262.813 167.57L262.874 167.677L261.848 165.898C260.969 165.705 260.166 165.259 259.538 164.615C258.909 163.971 258.482 163.158 258.31 162.275C250.784 160.409 251.472 164.291 253.941 169.491C247.461 168.266 248.482 163.279 249.186 159.921C250.037 155.79 253.625 157.939 256.23 158.652L256.605 157.249C252.27 153.683 249.493 153.84 244.626 158.203C239.463 162.831 232.673 165.792 227.643 171.102C224.583 174.168 222.641 178.174 222.131 182.476C220.62 194.395 220.55 194.377 208.993 195.383C208.338 195.974 207.848 195.843 207.59 195.007L207.262 194.829L205.268 192.792C202.967 189.964 201.786 186.39 201.947 182.749L200.921 180.971L199.894 179.193L198.868 177.415L197.841 175.636L196.815 173.858L195.788 172.08L194.761 170.302C193.613 170.195 192.526 169.733 191.65 168.982C190.775 168.231 190.154 167.226 189.874 166.107C181.967 157.976 174.176 149.696 163.836 144.476C159.858 142.493 155.992 140.991 151.531 142.441C145.149 147.916 145.84 154.368 148.656 161.36C153.424 173.294 160.843 181.955 173.978 185.324C181.531 187.258 185.554 184.639 184.899 176.708C184.627 173.629 182.023 171.007 183.17 167.677L180.743 165.238C175.584 162.053 170.206 158.958 167.726 152.733C173.198 155.702 178.895 158.446 181.61 164.749L183.983 167.114C188.534 169.761 190.851 174.184 193.143 178.586C194.824 179.606 196.163 181.104 196.989 182.889C197.815 184.673 198.089 186.664 197.778 188.605L199.243 190.035C199.044 190.162 198.73 190.439 198.667 190.392C198.149 189.968 197.675 189.495 197.186 189.018C193.034 186.959 193.815 181.967 191.221 178.973C185.724 179.574 188.439 183.743 188.454 186.212C188.635 196.421 186.723 197.667 176.636 195.596C161.995 192.574 152.267 183.054 143.338 172.23C141.403 169.862 136.107 167.692 142.491 164.172C143.181 163.786 143.488 161.854 143.242 160.811C141.528 153.408 141.224 145.511 136.132 139.217C135.757 139.696 135.24 140.046 134.655 140.215C134.07 140.385 133.447 140.366 132.873 140.162C132.293 143.223 137.48 144.899 134.875 148.454L132.021 152.484L132.629 157.787C133.118 158.264 134.598 158.405 133.801 159.304C133.216 159.973 132.372 159.026 131.97 158.227C129.327 156.872 127.669 154.534 125.933 152.206C117.63 141.068 109.534 129.775 100.827 118.966C93.9836 110.458 87.9413 101.204 79.479 94.082L78.5684 94.6196C96.7956 121.447 116.878 146.848 137.417 171.891C139.042 173.718 140.342 175.81 141.261 178.076C117.593 164.43 96.0732 147.646 73.2951 132.811C73.126 133.442 72.855 134.06 72.64 134.694C82.7092 142.382 92.7634 150.126 102.861 157.822C127.967 176.813 153.494 195.076 184.508 203.521L185.096 203.288L184.46 203.419C176.037 208.827 168.663 203.98 161.616 200.439C151.804 195.495 142.68 189.158 132.9 184.207C124.219 179.807 115.849 174.528 105.412 174.272C103.397 174.146 101.388 174.599 99.6212 175.577C97.8548 176.555 96.4044 178.017 95.4408 179.791C93.2248 183.406 94.8479 187.613 97.7137 190.38C108.649 201.006 120.817 209.106 137.173 207.131C142.381 203.176 143.759 198.705 139.442 192.604L151.035 200.159C160.195 204.116 168.755 209.641 178.941 211.003C181.014 211.288 182.732 212.334 182.23 214.77C182.149 215.255 181.95 215.713 181.65 216.102C181.351 216.492 180.959 216.802 180.511 217.004C180.063 217.207 179.572 217.296 179.082 217.263C178.591 217.23 178.116 217.077 177.699 216.817C171.391 213.714 163.791 213.917 158.131 209.35C155.366 207.106 153.021 204.358 150.479 201.843C148.853 201.122 147.732 198.688 145.49 200.266C145.26 200.51 145.08 200.798 144.962 201.112C144.844 201.426 144.791 201.761 144.805 202.096C150.499 206.253 145.614 211.978 148.058 217.607L135.157 214.151C123.924 214.733 113.777 210.195 103.263 207.363C100.29 206.567 96.892 206.573 99.4564 201.714C100.638 199.491 98.427 198.432 96.2867 198.174C94.3923 198.219 92.5029 197.961 90.6896 197.411C79.2991 192.566 68.1772 187.113 57.372 181.074L53.866 188.1C64.7325 196.122 78.2134 198.201 91.9 205.01C83.4851 204.551 75.1699 202.965 67.1768 200.294C49.9042 194.618 33.4503 186.702 18.2354 176.749L16.289 177.731C31.8567 190.364 49.8973 198.144 68.8154 203.995C102.742 214.468 137.385 220.699 172.927 221.22C178.701 221.264 179.965 223 178.253 228.268C177.186 231.962 176.521 235.759 176.269 239.595C174.723 256.586 165.401 268.547 151.854 277.707C125.619 295.462 97.6809 309.98 67.0066 318.219C52.9417 321.965 38.2114 323.82 23.5184 320.318C21.6113 319.807 19.5919 319.266 18.4175 321.462C17.2431 323.657 17.5682 326.314 19.47 327.35C23.0503 329.301 23.8253 332.635 25.3421 335.837C27.7021 340.828 31.9714 342.228 37.3768 341.406C49.7213 339.358 61.8329 336.094 73.5349 331.661C97.7449 322.923 121.948 313.987 144.355 301.039C160.358 291.799 174.599 280.495 186.088 265.944C190.234 260.682 196.054 262.407 201.321 261.654C201.54 261.622 201.912 261.692 201.994 261.834C203.319 264.068 201.957 268.813 206.602 267.578C207.299 267.389 207.541 262.223 209.856 260.033C210.645 259.14 211.351 258.177 211.965 257.156C213.275 255.914 214.211 256.12 214.769 257.907L214.751 257.977L217.445 257.347ZM204.058 241.736C205.461 240.368 206.383 240.856 207.002 242.525C212.487 247.466 212.643 249.522 207.711 253.792C207.385 250.127 207.074 246.407 206.76 242.7L204.152 242.001L202.61 244.895C202.479 244.71 202.229 244.522 202.218 244.339C202.134 243.744 202.275 243.14 202.614 242.644C202.953 242.148 203.464 241.797 204.048 241.658L204.058 241.736ZM201.49 218.503C204.947 220.981 207.823 224.183 209.918 227.885C206.213 227.02 202.424 226.564 198.619 226.526C199.61 223.5 200.408 221.084 201.224 218.657L200.867 217.689L201.49 218.503ZM169.32 179.823C166.092 178.466 163.209 176.405 160.881 173.789C156.722 169.125 153.542 163.673 151.53 157.757C150.618 155.047 148.977 151.692 151.595 149.718C154.213 147.744 155.251 151.78 157.221 152.728C161.536 154.883 165.329 157.951 168.339 161.719C169.537 162.891 170.33 164.414 170.601 166.068C170.938 171.539 171.021 171.621 175.725 169.831C176.664 169.466 177.125 169.71 177.454 170.219C179.125 172.846 181.392 175.437 180.483 178.771C179.356 182.978 176.227 180.186 173.924 180.14C172.461 180.048 171.081 179.979 169.327 179.795L169.32 179.823ZM114.801 184.889C121.965 187.545 129.038 190.372 134.673 195.82C136.201 197.296 138.602 199.217 136.665 201.118C133.492 204.266 129.045 203.194 125.133 202.537C122.372 202.068 119.636 201.229 120.218 196.982C120.721 193.254 119.269 191.211 114.73 192.896C110.456 194.486 108.525 190.361 106 188.062C105.775 187.856 105.594 187.606 105.469 187.327C105.344 187.048 105.278 186.747 105.274 186.442C105.27 186.137 105.328 185.834 105.446 185.552C105.563 185.27 105.737 185.015 105.957 184.803C108.537 182.579 111.382 184.018 114.129 184.649C114.36 184.705 114.587 184.776 114.809 184.861L114.801 184.889ZM259.093 180.16C265.104 181.681 270.472 189.356 269.302 194.454C268.279 198.944 265.766 200.3 261.41 199.057C254.999 197.235 249.451 189.841 250.844 184.698C252.036 180.359 254.949 179.08 259.101 180.132L259.093 180.16ZM152.15 284.625C160.137 276.244 167.919 269.131 173.926 260.4C176.053 257.288 179.106 258.572 180.909 260.032C183.688 262.28 180.279 263.786 179.037 264.941C177.318 266.561 176.019 268.576 175.255 270.811C172.6 277.916 160.802 285.26 152.15 284.625ZM224.08 228.599C222.276 228.613 220.49 228.237 218.844 227.498C217.197 226.759 215.73 225.673 214.542 224.315C211.236 220.949 206.648 217.54 211.258 212.282C215.469 207.504 220.419 209.507 224.953 212.104C227.276 213.409 229.07 215.485 230.024 217.972C230.761 219.988 232.969 222.744 229.703 224.108C228.573 224.585 227.301 224.598 226.163 224.144C225.024 223.69 224.11 222.805 223.619 221.682C222.915 219.99 223.078 217.028 220.339 218.668C217.599 220.309 218.526 222.797 220.273 224.858C221.107 225.953 222.194 226.831 224.08 228.599ZM202.955 256.004C193.086 255.479 193.913 248.802 194.031 243.257C194.12 238.772 193.498 233.075 199.235 231.125C204.542 229.27 216.499 236.307 219.808 242.244C222.389 246.858 217.728 247.428 216.083 249.918C214.392 243.889 212.557 238.061 205.667 236.29C202.119 235.34 200.031 237.861 198.863 240.479C196.349 245.938 197.855 251.03 202.906 255.961L202.955 256.004ZM226.44 206.836C212.013 203.857 209.803 204.588 204.556 213.793C202.547 211.441 200.377 209.233 198.06 207.183C194.236 204.235 195.745 202.249 199.213 201.48C205.312 200.258 211.6 200.125 217.69 198.826C224.287 197.482 227.419 199.313 226.44 206.836ZM68.0025 323.701C76.908 319.97 85.8716 319.276 93.6627 315.216C97.052 313.449 100.755 312.307 104.223 310.696C104.656 310.477 105.129 310.35 105.614 310.32C106.099 310.291 106.584 310.361 107.041 310.525C107.497 310.69 107.916 310.946 108.27 311.277C108.624 311.609 108.908 312.009 109.102 312.454C110.481 315.048 107.562 314.837 106.331 315.334C97.4382 318.963 88.6011 322.607 79.5169 325.659C77.6055 326.436 75.5152 326.664 73.4811 326.318C71.447 325.972 69.5498 325.066 68.0025 323.701ZM180.698 239.67C188.648 242.927 190.745 250.192 192.762 257.361C188.415 260.119 185.441 254.783 181.39 255.486C180.239 255.689 178.33 255.689 179.111 254.064C181.268 249.156 177.639 243.57 180.698 239.67ZM40.8043 326.483C46.7578 326.365 51.6612 326.071 56.5717 326.199C58.282 326.267 60.6707 326.832 60.7061 329.336C60.7414 331.84 58.5921 332.121 56.7146 332.565C50.6005 334.068 45.5084 332.598 40.7968 326.511L40.8043 326.483ZM181.383 234.142C183.489 221.179 183.475 221.175 191.398 226.44C192.599 227.228 194.43 227.688 193.059 229.44C192.066 230.677 191.409 234.363 189.348 232.519C185.962 229.507 184.422 232.897 181.376 234.17L181.383 234.142ZM117.192 304.867C117.684 303.03 130.161 298.257 131.669 299.413C132.681 300.18 134.673 301.721 132.879 302.638C128.74 304.625 125.241 308.708 119.862 307.356C118.532 307.045 116.857 307.017 117.184 304.895L117.192 304.867ZM136.039 295.053C138.901 292.618 141.941 289.856 146.106 289.454C147.652 289.297 149.978 291.498 149.217 292.542C148.099 294.237 146.638 295.678 144.929 296.774C143.219 297.869 141.299 298.593 139.292 298.9C137.454 299.084 136.393 297.492 136.032 295.081L136.039 295.053ZM187.907 213.105C189.034 211.197 189.669 208.602 192.726 208.805C193.359 208.854 195.278 209.489 194.435 209.999C187.73 213.764 195.632 215.069 195.687 217.669C195.709 219.268 196.9 220.88 195.022 222C194.397 222.375 193.66 222.517 192.94 222.401C192.22 222.286 191.564 221.919 191.089 221.367C188.867 219.224 187.075 216.714 187.899 213.133L187.907 213.105ZM232.258 185.851C240.601 188.371 242.52 193.605 236.727 199.688C238.106 193.7 236.853 189.231 232.258 185.851ZM239.02 168.86C240.982 167.597 241.82 169.294 243.005 169.807C245.215 170.76 245.503 172.431 244.684 174.481C244.154 175.842 243.461 177.249 241.688 176.684C239.247 175.925 240.936 173.882 240.562 172.474C240.142 171.224 239.629 170.006 239.028 168.832L239.02 168.86ZM151.555 209.211L161.237 217.111C155.063 216.929 151.076 217.003 151.577 209.187L151.555 209.211ZM218.872 234.688C226.776 235.814 226.776 235.814 224.674 242.706L218.872 234.688ZM38.6282 337.353C34.094 338.513 31.7468 338.41 28.9624 335.62C32.5678 334.617 34.6467 335.384 38.6282 337.353ZM157.821 147.629C161.281 147.729 163.72 148.052 164.898 151.283C161.866 151.493 160.383 149.397 157.821 147.629ZM40.2518 335.669C40.6618 335.373 40.9934 334.921 41.3244 334.919C41.6555 334.918 41.9963 335.385 42.3336 335.64L40.9006 336.669L40.2518 335.669ZM213.568 230.306L212.93 230.331L213.492 229.805L213.568 230.306ZM203.135 247.982L203.27 248.378L202.933 248.288L203.135 247.982Z" fill="white"/>
<path d="M58.0948 122.004C31.169 101.052 0.789898 86.9303 -31.5954 76.9301C-38.2271 74.8675 -45.9163 72.6569 -51.3885 78.4952C-56.8607 84.3335 -53.7966 91.8579 -51.4009 98.2864C-42.4362 122.437 -28.936 143.459 -7.85978 158.981L-6.27802 157.902C-7.59792 154.302 -11.0383 152.613 -13.3992 149.982C-20.4924 142.069 -28.9503 135.098 -32.6448 124.655C-38.9137 118.23 -43.4145 110.293 -45.7097 101.615C-46.0932 101.349 -46.3819 100.969 -46.5341 100.528C-46.6863 100.087 -46.6939 99.6092 -46.5559 99.1637L-46.5371 99.0936C-47.6411 97.2563 -48.523 95.2945 -49.1645 93.2494C-51.149 83.0985 -46.6323 78.5823 -36.3089 80.1611C-32.9932 80.5746 -29.7095 81.2134 -26.4806 82.0731C-18.1343 84.58 -9.11106 85.5699 -2.37608 91.9587C7.74139 94.4743 16.2396 100.509 25.3314 105.169C36.3579 110.799 46.7948 117.564 57.4969 123.843L58.0948 122.004Z" fill="white"/>
<path d="M55.8216 46.9665C48.074 42.7864 51.7344 36.4175 52.6953 30.5878C48.608 30.3043 48.3968 34.0653 46.6585 36.2899C45.6971 44.8699 49.6368 52.0427 53.3755 59.2369C57.2353 66.6558 61.9747 73.5827 67.4916 79.8678C67.7551 79.6763 68.0362 79.5101 68.331 79.3714C67.7337 77.3376 67.147 75.3016 66.5709 73.2635C64.8572 71.3013 63.0816 69.4578 63.8669 66.527L62.8403 64.7489C62.2444 64.7413 61.671 64.5195 61.2251 64.124C60.7791 63.7286 60.4903 63.1859 60.4115 62.5951C58.8795 60.5746 57.4959 58.4458 56.2716 56.2253C54.9498 53.3612 51.6914 50.4891 55.5727 47.1103L55.8216 46.9665Z" fill="white"/>
<path d="M104.657 54.8068L127.786 76.4099C129.891 78.3717 131.826 80.5735 134.87 81.1037C127.956 69.4366 118.032 60.8706 106.671 53.7983L104.657 54.8068Z" fill="white"/>
<path d="M104.657 54.8066L106.659 53.8402C95.171 44.2689 83.1336 35.5125 69.3751 29.4211C68.6902 29.7335 68.0155 30.0638 67.3446 30.38C80.563 37.2618 93.0623 45.4445 104.657 54.8066Z" fill="white"/>
<path d="M154.483 108.708L171.853 132.902L173.631 131.875C169.014 123.053 163.191 114.917 156.331 107.701L154.483 108.708Z" fill="white"/>
<path d="M256.714 157.293L256.339 158.696L258.392 162.252C258.564 163.135 258.991 163.948 259.62 164.592C260.248 165.236 261.051 165.682 261.93 165.875L262.956 167.653L262.895 167.547C268.068 169.669 268.079 175.684 271.572 179.085C271.952 178.901 272.331 178.717 272.718 178.565C270.962 168.851 265.877 161.522 256.714 157.293Z" fill="white"/>
<path d="M67.3526 30.352C68.0273 30.0217 68.7019 29.6915 69.3831 29.3931C66.8364 28.1037 64.2142 26.9694 61.5307 25.9964C52.4741 23.224 47.9973 26.4132 46.7388 36.3265C48.4071 34.0831 48.6182 30.3221 52.7757 30.6244C57.5104 26.7529 62.4809 30.6398 67.3526 30.352Z" fill="white"/>
<path d="M205.268 192.852L207.262 194.889C208.161 193.477 208.596 191.819 208.505 190.148C208.413 188.476 207.801 186.875 206.753 185.569C202.973 180.047 199.548 174.26 195.974 168.583L195.174 169.045C195.046 169.522 194.919 169.999 194.798 170.447C195.147 171.052 195.5 171.642 195.825 172.225L196.852 174.004L197.878 175.782L198.905 177.56L199.931 179.338L200.958 181.116L201.984 182.894C204.47 185.679 206.709 188.654 205.268 192.852Z" fill="white"/>
<path d="M16.2706 177.801L18.217 176.82C13.4719 172.091 7.8631 168.68 2.37046 165.059L-0.389159 164.981C4.55251 169.995 10.1579 174.309 16.2706 177.801Z" fill="white"/>
<path d="M58.0945 122.004C57.9329 122.607 57.7713 123.21 57.6098 123.813C61.8049 128.574 67.2505 131.642 72.6828 134.871C72.8556 134.226 73.1126 133.603 73.3378 132.987C68.6806 128.771 63.5679 125.088 58.0945 122.004Z" fill="white"/>
<path d="M67.5472 79.8829C70.3826 84.9295 73.7724 89.6439 77.6537 93.9386L79.3829 93.0943C76.4657 87.9389 73.7704 82.5724 68.4007 79.3902C68.0991 79.5228 67.8128 79.688 67.5472 79.8829Z" fill="white"/>
<path d="M260.982 247.49C256.336 245.105 251.35 243.45 246.2 242.582C250.625 247.329 252.794 248.151 260.982 247.49Z" fill="white"/>
<path d="M148.379 98.0551C147.624 101.715 149.509 103.318 152.861 103.765C152.568 102.547 152.017 101.406 151.243 100.421C150.47 99.4356 149.493 98.6286 148.379 98.0551Z" fill="white"/>
<path d="M154.483 108.709L156.387 107.716C156.14 106.829 155.693 106.011 155.079 105.326C154.465 104.64 153.702 104.105 152.848 103.761C151.729 105.972 153.09 107.343 154.483 108.709Z" fill="white"/>
<path d="M173.687 131.89L171.909 132.917C172.429 134.845 173.311 136.434 175.524 136.756C176.527 134.53 174.889 133.294 173.687 131.89Z" fill="white"/>
<path d="M271.032 182.052L273.32 184.002C274.003 182.126 273.288 180.417 272.652 178.698C272.265 178.85 271.885 179.034 271.505 179.218C271.359 180.155 271.196 181.104 271.032 182.052Z" fill="white"/>
<path d="M143.907 92.3626C143.183 94.393 144.11 95.4228 145.961 95.9188C146.634 93.965 145.342 93.1228 143.907 92.3626Z" fill="white"/>
<path d="M177.473 140.254C177.421 141.231 177.754 142.189 178.4 142.924C179.045 143.659 179.953 144.112 180.928 144.186C180.392 142.374 180.102 140.313 177.473 140.254Z" fill="white"/>
<path d="M-0.37009 164.91L2.38578 165.002L-1.56181 162.066L-2.80402 163.056L-0.37009 164.91Z" fill="white"/>
<path d="M141.789 89.1049C141.274 91.0261 141.907 92.1425 143.91 92.4086C143.865 90.8936 142.823 90.0133 141.789 89.1049Z" fill="white"/>
<path d="M136.966 84.6712C136.531 86.6888 137.434 87.8027 139.38 88.1137C139.228 87.4079 138.935 86.7397 138.521 86.1485C138.106 85.5573 137.578 85.0551 136.966 84.6712Z" fill="white"/>
<path d="M187.47 154.1C187.331 154.592 187.38 155.119 187.608 155.577C187.835 156.035 188.224 156.392 188.7 156.579C188.277 155.744 187.865 154.927 187.47 154.1Z" fill="white"/>
<path d="M145.951 95.9011C146.01 97.4199 147.075 97.9309 148.38 98.0549C148.383 97.7471 148.32 97.4422 148.196 97.1607C148.071 96.8793 147.887 96.628 147.657 96.4238C147.427 96.2195 147.155 96.0671 146.861 95.977C146.566 95.8868 146.256 95.8609 145.951 95.9011Z" fill="white"/>
<path d="M181.912 145.953L182.939 147.731L181.912 145.953Z" fill="white"/>
<path d="M180.886 144.175C180.786 144.546 180.838 144.943 181.031 145.276C181.223 145.61 181.54 145.853 181.912 145.953L180.886 144.175Z" fill="white"/>
<path d="M176.47 138.497L177.497 140.276C178.129 139.152 177.744 138.568 176.47 138.497Z" fill="white"/>
<path d="M175.44 136.734L176.467 138.512C177.085 137.385 176.647 136.831 175.44 136.734Z" fill="white"/>
<path d="M79.3836 93.0943L77.6544 93.9385C77.7241 94.1305 77.8334 94.3056 77.9754 94.4524C78.1174 94.5992 78.2887 94.7144 78.4782 94.7905L79.3747 94.2492C79.455 93.8687 79.458 93.476 79.3836 93.0943Z" fill="white"/>
<path d="M192.169 163.656C192.042 164.133 191.914 164.609 191.794 165.058C192.242 165.178 192.677 165.295 193.196 165.434L193.879 165.016L192.169 163.656Z" fill="white"/>
<path d="M207.52 195.049C207.844 195.857 208.335 195.988 208.922 195.424L207.52 195.049Z" fill="white"/>
<path d="M183.955 149.491C183.902 150.589 184.589 151.164 185.515 151.412L183.955 149.491Z" fill="white"/>
<path d="M190.113 160.114L191.139 161.892C191.482 160.947 191.116 160.352 190.113 160.114Z" fill="white"/>
<path d="M189.116 157.998L190.139 160.181C190.283 159.755 190.257 159.291 190.066 158.884C189.876 158.477 189.535 158.16 189.116 157.998Z" fill="white"/>
<path d="M182.929 147.713C182.848 148.084 182.908 148.472 183.098 148.801C183.288 149.13 183.593 149.376 183.955 149.491L182.929 147.713Z" fill="white"/>
<path d="M191.111 161.884C191.47 162.506 191.833 163.115 192.138 163.662C192.491 162.735 192.11 162.137 191.111 161.884Z" fill="white"/>
<path d="M195.952 168.607L194.926 166.829L194.165 167.257L195.192 169.035L195.952 168.607Z" fill="white"/>
<path d="M194.911 166.826L193.815 165.029L193.131 165.447L194.158 167.225L194.911 166.826Z" fill="white"/>
<path d="M57.3727 181.074C44.5666 171.54 30.404 163.928 18.0905 153.79C10.7062 147.693 3.43331 141.461 -2.30312 133.701C-4.03507 131.358 -5.92973 128.22 -2.85441 126.279C-0.0635874 124.502 2.29721 126.517 3.89362 129.59C5.68508 133.001 8.16373 135.754 12.7554 135.782C16.6289 135.798 18.9039 139.143 21.5186 141.557C31.3177 150.646 39.3274 161.645 51.2127 168.557C60.2975 173.921 70.2013 177.758 80.5291 179.914C81.4546 180.162 82.5912 180.632 83.3397 180.306C85.823 179.228 89.904 180.096 90.4812 176.764C90.967 174.054 87.4675 173.371 85.4272 172.404C71.3754 166.238 58.2712 158.106 46.5078 148.253C45.2821 147.218 44.1315 145.903 43.0135 144.747C33.3119 140.118 22.4884 136.03 14.7473 129.583C4.99191 121.453 -6.22869 116.267 -16.1805 108.926C-22.0428 106.348 -27.9061 103.83 -33.7432 101.214C-37.7623 99.3855 -41.6596 96.5977 -46.4468 98.9823L-46.4693 99.0665L-45.6194 101.504C-36.4874 105.454 -32.9681 114.588 -26.9173 121.455C-14.2057 138.667 1.17411 153.737 18.6407 166.096C29.999 174.19 41.3761 182.213 53.9639 188.186L57.3727 181.074ZM1.04776 145.315C4.2696 145.968 6.01481 148.149 7.38309 151.176C3.18506 151.194 1.92494 148.436 0.844635 145.456L-1.61055 143.401C-5.46395 140.866 -8.67029 137.464 -10.9729 133.467L-31.7184 108.129L-30.2558 106.597C-22.2318 111.092 -14.1787 115.534 -6.21274 120.134C-5.67913 120.442 -3.36337 121.784 -5.31769 122.403C-11.2162 124.279 -6.46496 129.264 -8.579 132.05C-6.65737 136.097 -1.87829 138.174 -1.12945 143.064L1.04776 145.315ZM73.2714 171.101C75.6334 171.373 77.7601 172.018 78.6912 174.657C76.5793 174.782 74.4836 174.221 72.7173 173.056C57.2017 169.26 45.1813 160.327 33.9523 148.105C39.2513 147.12 41.5251 149.909 44.1321 151.735C53.6712 158.484 62.2211 166.682 73.2602 171.143L73.2714 171.101Z" fill="white"/>
<path d="M101.164 106.491C106.614 114.534 113.73 121.296 118.37 130.009C122.504 137.745 126.131 145.916 131.934 152.641L134.784 148.625C130.305 144.21 127.035 138.717 125.291 132.675C123.915 131.75 122.569 130.773 122.703 128.87C122.692 128.694 122.731 128.519 122.815 128.363C122.899 128.208 123.025 128.08 123.178 127.993C123.331 127.905 123.506 127.863 123.682 127.87C123.858 127.877 124.029 127.933 124.175 128.032C125.89 128.867 126.023 130.556 126.204 132.183C129.266 134.065 131.589 136.943 132.782 140.333C133.356 140.538 133.98 140.556 134.565 140.387C135.15 140.217 135.666 139.868 136.042 139.388C133.986 132.42 128.803 127.138 125.738 120.741C124.223 119.944 122.815 119.086 123.885 116.998C120.84 117.144 120.009 114.636 118.45 112.881C114.995 108.949 112.352 104.228 107.442 101.74L106.581 102.261C106.488 103.393 106.741 105.31 106.213 105.544C104.336 106.544 103.379 104.454 102.033 103.642L101.164 106.491Z" fill="white"/>
<path d="M213.583 230.25L213.507 229.749L212.945 230.275L213.583 230.25Z" fill="white"/>
<path d="M207.029 242.427C206.409 240.758 205.48 240.298 204.084 241.638L204.179 241.844L206.802 242.546L207.029 242.427Z" fill="white"/>
<path d="M197.067 189.182C197.556 189.659 198.03 190.131 198.548 190.556C198.618 190.574 198.925 190.326 199.125 190.199L197.659 188.769C197.498 188.922 197.299 189.048 197.067 189.182Z" fill="white"/>
<path d="M184.388 203.519L185.024 203.389L184.436 203.622L184.388 203.519Z" fill="white"/>
<path d="M262.918 167.793L261.892 166.015L262.918 167.793Z" fill="white"/>
<path d="M196.837 174L195.811 172.222L196.837 174Z" fill="white"/>
<path d="M198.876 177.552L197.85 175.774L198.876 177.552Z" fill="white"/>
<path d="M199.893 179.312L198.866 177.534L199.893 179.312Z" fill="white"/>
<path d="M200.923 181.077L199.897 179.299L200.923 181.077Z" fill="white"/>
<path d="M203.151 247.926L202.937 248.274L203.285 248.322L203.151 247.926Z" fill="white"/>
<path d="M201.946 182.869L200.919 181.091L201.946 182.869Z" fill="white"/>
<path d="M195.796 172.218C195.461 171.617 195.108 171.026 194.77 170.44C195.108 171.026 195.461 171.617 195.796 172.218Z" fill="white"/>
<path d="M197.85 175.774L196.823 173.996L197.85 175.774Z" fill="white"/>
<path d="M201.495 218.489L200.871 217.675C200.978 218.005 201.103 218.324 201.214 218.639L201.495 218.489Z" fill="white"/>
<path d="M101.165 106.491C101.424 105.523 101.68 104.57 101.939 103.602L101.081 100.577C99.0047 99.2388 96.5315 98.2604 96.0211 94.8923C99.3271 95.5677 101.503 96.8721 101.522 100.334L106.483 102.235L107.348 101.7C106.706 95.9066 101.349 94.0804 97.9124 90.6947C90.3782 83.2501 81.3758 77.2457 75.4717 68.1488C70.2044 62.2284 64.5695 56.3899 66.0494 45.8746C69.2715 49.4434 74.9826 51.8003 73.8523 53.8872C70.7802 59.4067 74.7596 62.3367 76.1726 66.2624C79.4833 67.7056 82.8926 69.566 84.2851 64.0323L86.7106 65.1332C89.1437 66.2626 91.2662 67.966 92.8955 70.097L116.867 91.0241L115.371 92.6822C107.79 85.4658 98.3137 80.4466 92.4171 71.3215L85.9656 67.9696C83.6729 69.234 84.3779 70.8658 85.9357 71.8393C91.9079 75.6339 95.7986 81.5311 100.658 86.3952C109.854 95.3258 117.631 105.611 123.718 116.893L126.444 117.939C131.473 123.57 136.599 129.122 141.457 134.827C142.672 136.438 144.196 137.789 145.941 138.801C147.686 139.813 149.616 140.466 151.617 140.721C152.189 133.93 148.189 128.89 144.293 124.3C136.741 115.407 128.496 107.081 120.519 98.5407C119.26 97.1813 117.272 96.2429 118.5 92.9497C125.571 96.3472 130.679 102.135 136.267 106.969C145.186 114.558 153.019 123.338 159.546 133.061C160.703 134.799 161.765 137.458 164.407 135.731C166.664 134.262 165.694 131.823 164.621 129.882C159.541 120.795 153.047 112.833 146.34 104.993C141.395 99.1595 136.389 93.4443 131.443 87.6702C118.008 74.7066 104.526 61.8056 88.7148 51.7073C80.2589 46.3003 71.5575 41.2484 62.7878 36.2833C60.8589 35.1803 57.7606 33.6738 56.1717 36.0136C54.0349 39.1083 58.0282 39.7425 59.581 41.0152C61.5924 42.6514 64.0963 43.9085 60.0664 45.6543C58.7574 46.2204 56.7584 45.0985 55.5976 46.9067L55.5412 47.1171C56.8367 52.379 61.9061 56.4578 60.408 62.6095C61.0121 62.5875 61.6014 62.799 62.0537 63.2001C62.5059 63.6011 62.7864 64.1609 62.8369 64.7633L63.8635 66.5413C66.7382 67.3116 67.503 69.7861 68.6618 72.0805C76.8348 82.582 86.1101 91.8308 95.3945 101.157C97.2112 103.072 98.5119 105.51 101.165 106.491ZM82.5621 53.4104C84.6154 53.813 86.4488 54.957 87.713 56.6243C101.485 65.9205 114.348 76.2509 124.751 89.4241C110.463 81.2324 97.7542 70.5534 87.2233 57.8908C84.8814 57.2633 82.8589 56.2855 82.3656 53.5832C81.076 52.7868 79.2153 53.2802 78.359 51.4275C79.1845 51.1953 80.0664 51.2731 80.8385 51.6461C81.6106 52.0191 82.2196 52.6616 82.5509 53.4525L82.5621 53.4104ZM125.649 89.8301C129.894 92.8913 132.554 94.6863 133.534 98.2103C130.649 96.7461 127.491 95.4639 125.638 89.8722L125.649 89.8301Z" fill="white"/>
<path d="M64.0071 66.5649L62.9805 64.7868L64.0071 66.5649Z" fill="white"/>
<path d="M-6.72119 95.7238C-17.8115 92.632 -28.3804 86.809 -40.5603 89.2418C-41.8605 89.4946 -43.4894 88.5622 -44.0985 90.443C-44.2423 91.0281 -44.2006 91.6434 -43.9791 92.2036C-43.7575 92.7639 -43.3672 93.2413 -42.8622 93.5698C-41.3926 94.7602 -39.9687 96.5696 -38.3044 96.8653C-30.0672 98.3209 -22.7305 102.015 -15.2578 105.37C5.78484 115.352 24.6986 128.792 43.8045 141.907C56.9934 148.778 68.1127 158.942 81.2884 165.974C86.5557 168.753 92.1835 169.57 97.6926 171.166C98.1481 171.343 98.6362 171.419 99.1237 171.389C99.6113 171.36 100.087 171.226 100.518 170.996C100.949 170.767 101.325 170.447 101.621 170.058C101.918 169.67 102.126 169.222 102.234 168.746C102.379 168.407 102.453 168.043 102.452 167.675C102.451 167.307 102.374 166.943 102.226 166.606C102.078 166.269 101.862 165.966 101.592 165.716C101.322 165.466 101.004 165.274 100.657 165.152C90.7242 162.956 84.4706 155.163 77.7213 148.996C60.0938 133.174 40.6292 119.526 19.746 108.347C11.0817 103.605 2.02307 100.111 -6.72119 95.7238ZM-6.76925 101.512C-3.92479 102.133 -1.13971 103 1.55446 104.104C21.644 114.221 41.6162 124.608 59.2638 138.79C67.1407 145.124 74.6505 151.931 82.3298 158.498L80.9275 160.421L-7.29099 103.011L-27.6614 95.5687C-20.4425 96.8417 -12.8283 96.8078 -6.72719 101.524L-6.76925 101.512Z" fill="white"/>
</g>
</svg>
