<svg width="1367" height="1072" viewBox="0 0 1367 1072" fill="none" xmlns="http://www.w3.org/2000/svg">
<g opacity="0.2">
<path d="M267.094 942.262C265.36 943.378 263.322 943.928 261.262 943.835C259.202 943.743 257.221 943.014 255.594 941.747C247.353 935.715 238.17 936.777 229.185 938.029C219.317 939.409 210.001 939.074 201.442 933.431C200.506 932.811 199.018 932.167 199.19 931.013C199.404 929.635 201.137 930.021 202.166 929.81C221.335 926.139 240.103 921.067 258.213 913.705C274.014 907.285 288.501 898.69 300.915 886.796C302.015 885.742 302.126 884.838 301.875 883.47C300.144 874.282 294.507 867.698 287.772 861.745C279.65 854.562 269.768 851.381 259.506 849.099C249.478 846.861 239.376 845.768 229.208 848.374C224.282 849.64 220.145 852.408 216.053 855.294C214.296 856.535 215.449 857.459 216.19 858.359C219.229 862.106 223.485 864.043 227.785 865.729C230.71 866.855 233.751 867.624 237.438 868.769C233.297 871.068 229.418 871.698 225.478 872.039C216.713 872.801 208.457 870.288 200.229 867.846C199.199 867.502 198.103 867.408 197.029 867.572C195.956 867.737 194.938 868.154 194.058 868.791C179.559 878.032 163.619 884.789 146.896 888.781C129.398 892.963 112.339 890.369 95.3655 885.867C93.9168 885.485 92.4652 885.113 91.0103 884.734C87.3031 881.045 82.7117 878.849 77.7486 876.247C78.1107 879.385 81.7265 879.821 81.1838 882.645C78.6374 882.834 76.0912 882.275 73.8588 881.036C64.6871 876.481 55.6482 871.741 48.7577 863.884C41.7569 855.903 37.1985 846.841 37.0032 835.977C36.967 833.77 35.8447 832.015 34.9587 830.139C28.2877 816.089 23.4173 801.544 23.3081 785.777C23.0938 766.209 28.7325 748.867 42.9201 734.705C45.3115 732.31 47.6577 731.701 50.9397 732.559C65.1392 736.446 74.304 745.659 79.6309 759.102C82.9831 767.765 84.7767 776.953 84.9288 786.242C85.0043 789.079 85.9093 789.409 88.5403 789.282C114.567 788.071 138.249 795.17 159.546 810.194C160.744 811.104 161.875 812.099 162.929 813.171C163.414 813.775 163.843 814.422 164.212 815.103C159.858 814.463 156.034 813.788 152.234 813.375C136.653 811.39 120.826 812.899 105.901 817.794C103.522 818.584 101.787 818.395 99.9229 816.752C96.9518 814.127 93.7962 811.719 90.4804 809.546C91.5808 812.472 93.6418 814.885 94.6484 817.796C96.2465 822.467 98.7701 826.908 102.298 830.077C117.411 843.671 134.082 853.295 155.732 849.34C167.099 847.258 177.853 843.545 188.491 839.202C190.336 838.441 191.216 837.169 191.9 835.222C197.043 820.719 206.223 810.215 221.555 806.041C224.627 805.211 227.716 805.062 231 806.937C228.505 808.852 226.096 810.535 223.881 812.433C218.659 816.914 214.661 822.181 213.32 829.158C212.789 831.912 213.363 832.991 216.435 832.514C227.78 830.757 239.122 829.518 250.694 830.098C265.784 830.859 278.289 836.833 289.658 846.434C300.87 855.912 310.656 866.681 320.219 877.705C321.923 879.728 324.178 881.214 326.71 881.981C345.967 888.163 362.504 898.31 373.782 915.693C381.053 926.839 385.037 939.807 385.278 953.112C384.135 953.068 383.745 952.288 383.35 951.698C377.381 942.759 368.374 937.698 359.213 932.903C356.037 931.285 352.699 931.577 349.346 931.994C344.517 932.682 339.617 932.71 334.781 932.078C331.061 931.546 326.503 932.272 326.702 926.3C328.893 925.865 328.577 929.623 331.081 928.848C332.747 928.335 334.301 929.016 335.593 930.105C336.473 930.816 337.324 931.118 338.444 930.532C340.969 929.244 343.506 927.95 346.844 927.949C345.476 926.295 343.94 925.958 342.607 925.556C333.349 922.77 323.11 922.96 315.268 916.035C314.457 915.32 313.461 915.702 312.755 916.407C312.048 917.112 311.167 917.828 311.185 918.524C311.221 919.838 312.621 919.187 313.422 919.452C315.407 920.117 317.895 920.909 317.938 923.145C318.008 926.863 319.936 926.648 322.442 926.153C323.448 925.859 324.519 925.875 325.515 926.201C323.627 927.109 321.783 928.104 319.882 928.877C317.547 929.801 316.001 929.289 315.404 926.459C314.363 921.606 313.558 921.303 308.899 923.201C303.061 925.582 298.38 929.772 293.082 932.999C290.217 934.742 287.333 936.432 284.329 937.917C283.085 938.551 281.604 939.196 280.345 938.726C275.701 936.995 272.082 939.288 268.386 941.399C268.419 939.697 271.198 940.028 270.895 938.082C263.45 940.233 256.825 938.306 250.669 934.103C249.131 933.053 247.752 932.009 245.646 932.213C234.627 933.287 223.627 934.445 212.638 931.475C211.337 931.152 209.985 931.09 208.659 931.291C207.333 931.492 206.061 931.953 204.914 932.648C210.481 935.051 215.685 936.559 221.055 936.454C228.921 936.298 236.786 935.539 244.637 934.906C246.847 934.802 249.031 935.418 250.861 936.661C253.907 938.485 256.85 940.323 260.547 940.687C262.74 940.885 264.901 941.711 267.094 942.262ZM138.982 810.054L139.177 809.116C135.875 808.449 133.099 804.881 129.133 808.244C127.396 809.709 125.405 809.047 123.705 807.728C122.486 806.782 121.826 805.426 120.992 804.174C119.393 801.792 117.827 799.182 114.35 799.294C112.811 799.35 111.112 799.307 112.969 801.565C114.246 803.1 113.931 804.773 113.17 806.431C111.485 810.104 107.904 812.118 104.153 811.507C99.9415 810.826 95.8211 806.603 95.6285 802.783C95.3924 798.201 94.8697 798.037 90.8346 800.251C88.531 801.512 85.9779 802.406 83.1947 801.851C82.2659 801.658 81.195 801.664 80.9169 802.824C80.6389 803.985 81.5512 804.068 82.43 804.255C83.5806 804.452 84.5438 805.05 83.6267 806.34C82.9259 807.332 82.0517 808.523 80.5006 807.417C79.747 806.877 78.8905 806.365 78.6551 805.412C77.639 801.299 74.4487 801.773 71.739 802.607C69.7083 803.235 66.5249 803.4 66.0522 805.608C65.7481 807.025 69.0967 807.23 70.4651 808.515C70.5437 808.592 70.6874 808.597 70.7816 808.659C78.43 813.269 78.7581 820.782 71.5714 825.99C70.6214 826.678 69.8283 827.459 68.5158 827.313C66.2189 827.051 62.6025 823.785 62.2346 821.481C61.7316 818.297 62.0256 815.6 65.6928 814.232C67.2742 813.645 68.1253 813.885 68.7854 815.225C69.6131 816.848 68.5195 817.132 67.2294 817.445C64.6989 818.046 64.3011 819.463 65.9561 821.464C66.9459 822.652 67.9981 823.839 69.7421 823.279C70.5189 823.054 71.2153 822.612 71.7497 822.005C72.2841 821.398 72.6343 820.651 72.7592 819.852C73.8909 814.526 70.0429 810.407 65.0183 809.498C61.6165 808.881 57.5492 808.604 54.9375 811.566C52.7168 814.241 51.4386 817.572 51.3002 821.046C51.0637 825.485 51.3825 829.859 50.3221 834.342C49.1166 839.431 51.145 844.423 53.5314 848.888C55.297 852.441 58.0841 855.387 61.5351 857.345C61.4256 856.649 61.2454 855.967 60.9975 855.307C57.5605 849.858 57.9182 843.767 62.3315 839.236C66.4877 834.969 71.504 833.25 77.4546 835.176C81.2109 836.395 88.4669 833.244 88.6633 830.048C89.0091 824.425 89.0918 818.702 85.7709 813.726C84.5229 811.863 81.1855 811.112 85.154 807.983C87.6922 805.983 88.8628 804.376 91.7644 806.485C94.5655 808.52 97.3117 810.709 99.1773 813.676C101.116 816.755 103.897 817.045 106.707 815.565C112.537 812.49 118.716 811.252 125.214 810.994C129.783 810.795 134.385 810.369 138.982 810.054ZM363.779 907.895C363.278 905.651 361.308 904.586 359.945 903.173C354.791 897.675 348.906 893.082 341.634 890.639C335.029 888.443 328.135 887.218 322.447 882.642C320.15 880.909 317.997 878.993 316.007 876.914C315.365 876.191 314.571 875.295 313.721 875.658C312.42 876.18 313.408 877.456 313.281 878.39C313.037 880.262 314.941 881.015 315.366 882.632C316.409 886.599 318.522 889.714 322.788 891.041C324.626 891.735 326.346 892.709 327.888 893.926C332.934 897.52 333.086 904.12 328.461 907.544C326.322 909.128 324.717 907.886 323.117 906.852C322.208 906.317 321.505 905.49 321.123 904.507C320.741 903.523 320.701 902.439 321.01 901.43C321.575 899.112 323.539 899.459 325.272 899.523C326.062 899.536 326.938 900.147 327.395 899.075C327.852 898.004 327.225 897.391 326.508 896.675C324.286 894.454 321.139 894.076 318.573 892.548C318.043 892.231 317.372 891.546 316.693 892.073C316.013 892.6 316.433 893.561 316.43 894.338C316.389 899.422 317.909 904.555 315.707 909.596C315.498 910.143 315.453 910.74 315.579 911.312C315.705 911.885 315.996 912.408 316.417 912.816C319.319 916.202 323.221 918.092 327.409 919.005C334.972 920.681 342.551 922.051 349.726 925.21C351.866 926.148 353.974 928.607 357.218 927.086C355.617 925.113 353.514 924.093 351.881 922.551C345.634 916.647 341.612 909.191 337.088 902.087C336.206 900.71 335.801 898.825 336.949 897.511C338.097 896.196 339.728 896.814 341.111 897.465C341.695 897.827 342.334 898.094 343.003 898.256C350.207 898.829 356.007 902.243 361.175 907.013C361.488 907.383 361.896 907.66 362.355 907.816C362.813 907.971 363.306 907.998 363.779 907.895ZM40.2066 754.371C37.5626 755.681 35.2975 757.646 33.6264 760.078C32.0093 762.47 32.7784 767.328 34.8364 767.783C39.3136 768.738 43.7205 769.996 48.0264 771.55C59.3997 775.766 70.5781 780.214 78.5765 789.967C79.3583 790.916 80.3668 790.927 81.431 790.862C82.3576 790.774 82.4333 790.077 82.4431 789.343C82.5264 782.13 81.2295 775.268 77.0166 769.235C75.6555 767.288 74.2504 766.884 72.3473 769.038C65.6353 776.622 58.0678 774.752 51.9262 770.776C49.3245 769.086 48.9746 766.31 49.5267 763.474C49.9134 761.451 51.4843 760.32 53.3109 759.938C55.466 759.487 57.6644 759.278 59.8657 759.314C62.5013 759.365 64.8929 762.119 64.5199 764.307C64.2172 765.669 63.4043 766.862 62.2484 767.643C61.0925 768.423 59.6815 768.731 58.3056 768.503C58.0174 768.451 57.7423 768.343 57.4962 768.185C57.2501 768.026 57.0379 767.82 56.8719 767.579C56.7059 767.338 56.5894 767.066 56.5292 766.78C56.469 766.493 56.4662 766.197 56.521 765.91C56.6303 764.342 57.74 764.505 58.7935 765.065C59.847 765.624 60.7252 765.333 61.0766 764.363C61.5224 763.101 60.5294 762.291 59.4885 762.14C57.6627 761.833 55.8049 761.832 54.1214 762.925C52.4378 764.019 51.7873 765.064 53.3518 767.071C57.0958 771.863 65.0979 772.633 69.0262 767.965C70.7211 765.941 72.7953 763.308 71.2443 760.251C69.6078 757.042 67.2137 754.76 63.1574 754.689C60.094 754.629 57.2029 755.429 54.2236 755.734C51.9931 755.97 49.8062 756.184 47.9483 754.585C45.4862 752.4 42.9621 752.614 40.219 754.365L40.2066 754.371ZM284.991 918.716C288.836 918.479 292.263 918.699 295.473 917.955C298.683 917.212 301.763 915.383 304.969 914.249C309.914 912.511 314.052 906.796 313.855 901.584C313.656 895.047 312.996 888.59 310.917 882.33C310.047 879.702 307.764 880.02 306.054 880.108C304.181 880.186 305.005 882.015 305.107 883.185C305.276 885.176 305.513 887.053 303.313 888.348C302.093 889.222 300.988 890.246 300.024 891.396C291.967 899.478 281.87 904.619 272.398 910.679C270.314 912.016 267.346 912.221 265.93 915.161C268.968 915.524 271.767 914.575 274.594 915.86C277.191 917.036 280.137 915.973 283.291 915.657C282.129 914.071 280.506 914.468 279.404 913.721C278.302 912.974 277.272 912.23 277.638 910.703C277.864 909.486 278.489 908.378 279.414 907.555C280.339 906.732 281.512 906.239 282.747 906.154C285.221 905.935 287.828 906.361 289.344 908.84C290.859 911.32 289.924 913.544 288.081 915.401C287.124 916.336 285.912 917.032 285.01 918.722L284.991 918.716ZM86.8813 840C83.7757 841.344 81.2085 843.688 79.5874 846.658C78.3124 848.876 78.5984 851.081 80.6387 852.854C81.2549 853.386 81.9152 853.974 82.8018 853.561C83.6884 853.148 83.5313 852.241 83.3813 851.44C82.9705 849.235 83.4059 847.446 85.8585 846.862C87.5631 846.455 89.6329 846.026 90.5839 847.845C91.5639 849.767 92.3365 852.312 90.6049 854.033C88.7089 855.909 86.461 858.293 83.4605 857.496C80.46 856.699 77.3062 855.862 76.1978 852.321C76.0087 851.704 76.1855 850.76 75.1742 850.805C74.3313 850.812 74.1659 851.609 73.8178 852.202C71.5973 856.07 72.4383 860.162 73.8534 863.798C74.4652 865.351 74.0213 868.046 76.4056 868.695C80.2695 869.784 84.0198 871.241 87.6051 873.046C88.2727 873.372 89.1056 874.068 89.8243 873.357C90.5431 872.645 89.8932 871.801 89.5632 871.139C88.006 868.085 89.1012 865.622 91.7017 864.006C93.7646 862.719 95.83 861.345 98.2876 860.601C101.851 859.505 105.411 858.05 108.215 855.311C110.83 852.755 111.883 848.597 110.385 846.243C105.965 839.312 93.7273 836.321 86.8813 840ZM75.1833 791.627C69.8688 784.478 62.5005 780.556 54.9746 777.231C46.4711 773.464 41.7287 777.042 38.4745 782.847C36.6542 786.297 35.1154 789.889 33.8731 793.587C33.1702 795.512 33.544 797.767 34.2401 799.716C35.1852 802.368 38.0686 802.951 40.1513 801.012C42.1042 799.232 43.8144 797.161 45.6979 795.291C48.3033 792.717 51.1811 791.03 55.1022 790.974C61.8048 790.871 68.5265 789.238 75.1833 791.627ZM260.189 935.392C257.132 929.396 258.894 925.935 265.103 925.049C266.135 924.916 267.175 924.865 268.215 924.897C274.548 925.021 281.007 927.315 287.126 923.732C287.776 923.346 288.938 923.474 288.849 922.407C288.759 921.34 287.64 921.574 286.896 921.498C282.124 920.94 277.384 920.126 272.699 919.06C268.834 918.273 264.923 917.258 260.734 917.85C257.993 918.237 255.993 920.369 253.216 920.226C248.384 919.971 244.27 922.539 239.838 923.835C236.119 924.948 232.392 926.323 228.568 926.815C225.421 927.221 222.881 928.893 219.899 929.669C222.038 930.145 224.201 930.085 226.32 930.352C232.744 931.198 239.27 930.834 245.56 929.279C247.645 928.756 249.084 928.735 250.531 930.113C253.262 932.647 256.582 934.461 260.189 935.392ZM48.2057 847.403C48.5724 845.47 48.2237 843.47 47.2244 841.775C46.0193 839.412 45.3955 836.744 46.3665 834.376C48.3578 829.552 48.566 824.705 48.4036 819.576C48.2594 815.16 50.1552 809.718 53.6843 808.263C60.2849 805.532 65.4315 799.381 73.2794 799.603C74.0694 799.616 75.0515 799.436 74.8424 798.258C74.6627 797.26 73.8094 797.139 72.9449 797.18C71.216 797.278 69.4808 797.379 67.7359 797.43C54.6544 797.902 45.5027 804.544 39.3222 815.767C37.2568 819.509 36.9682 823.676 37.1378 827.743C37.2163 829.772 38.7152 831.774 39.7016 833.724C42.2094 838.479 45.0512 843.05 48.2057 847.403ZM63.6507 792.923C59.1666 793.642 55.5657 793.128 51.8394 794.902C48.4145 796.5 46.374 799.045 44.2781 801.697C40.7819 806.121 32.5385 806.814 30.3376 799.363C29.523 796.643 30.2862 793.653 31.2824 791.319C34.1243 784.705 35.6687 777.068 44.2874 773.3C40.8831 772.772 39.0638 771.325 36.6112 771.51C34.5549 771.657 32.4593 771.19 30.4131 771.833C27.3173 772.801 28.6638 775.672 28.3412 777.514C27.3755 782.92 26.1806 788.552 26.7944 793.905C27.6693 801.476 28.8633 809.134 31.4813 816.435C31.9825 817.818 32.3985 819.494 33.7696 819.555C35.1407 819.616 35.1756 817.702 35.6353 816.621C40.2171 805.766 47.9121 798.512 59.5011 795.666C60.3496 795.535 61.1598 795.222 61.876 794.749C62.5922 794.275 63.1976 793.652 63.6507 792.923ZM215.702 835.811C215.085 835.506 214.411 835.336 213.723 835.312C213.035 835.288 212.35 835.412 211.714 835.674C207.466 837.056 203.164 838.639 198.861 839.422C193.131 840.479 187.851 842.835 182.722 844.824C173.748 848.31 164.519 850.297 155.307 852.534C152.098 853.325 148.614 853.024 145.259 853.238C144.61 853.271 143.69 853.051 143.586 853.998C143.582 854.175 143.614 854.351 143.679 854.516C143.744 854.682 143.842 854.832 143.966 854.959C144.09 855.086 144.237 855.187 144.401 855.257C144.564 855.326 144.74 855.363 144.917 855.364C147.86 855.603 150.074 857.193 152.19 859.037C153.117 859.842 153.804 859.836 154.725 858.677C158.311 854.184 162.722 851.308 168.801 850.935C173.021 850.68 176.43 852.217 179.915 853.966C181.282 854.648 182.448 855.551 184.008 854.308C187.797 851.287 192.192 849.226 196.344 846.795C202.526 843.196 208.833 839.706 215.702 835.811ZM135.512 858.021C129.461 856.773 124.706 859.174 120.282 862.7C117.216 865.14 117.848 868.47 118.77 871.307C119.611 873.895 122.201 875.192 125.038 875.485C125.96 875.471 126.88 875.567 127.778 875.772C133.293 877.78 138.34 877.259 142.817 873.237C143.462 872.657 144.286 872.66 145.068 872.457C150.683 870.973 153.497 867.21 151.912 863.38C150.575 860.143 144.169 857.14 140.183 858.037C141.76 858.957 143.28 859.972 144.734 861.076C145.315 861.518 145.793 862.082 146.135 862.727C146.478 863.371 146.676 864.083 146.717 864.812C146.758 865.541 146.641 866.27 146.373 866.949C146.106 867.629 145.694 868.242 145.167 868.747C139.563 874.371 128.936 872.525 123.96 869.099C122.934 868.392 121.937 867.083 123.439 865.94C127.281 863.072 129.048 857.116 135.512 858.021ZM222.134 810.189C210.275 810.829 198.326 822.635 195.354 835.772C199.737 835.845 204.086 835.009 208.13 833.317C209.76 832.626 210.14 832.065 210.255 830.478C210.585 825.976 211.54 821.61 214.65 818.104C216.928 815.532 219.36 813.108 222.134 810.189ZM96.5934 864.701C94.9022 865.611 92.5447 865.982 92.5017 868.433C92.4376 871.381 93.142 874.376 95.8269 875.938C99.4091 878.03 105.091 877.922 106.88 875.622C110.561 870.901 112.82 865.541 112.603 859.382C112.545 857.625 111.465 856.828 110.144 857.972C106.174 861.391 101.217 862.688 96.5934 864.701ZM101.404 804.258C100.64 802.484 100.621 800.879 101.976 799.616C103.335 798.283 104.973 797.269 106.772 796.645C108.571 796.022 110.486 795.806 112.379 796.012C118.767 796.814 125.141 798.556 130.594 801.981C135.285 804.926 140.179 806.27 145.495 806.921C146.323 807.008 147.269 807.326 147.504 806.25C147.672 805.38 146.687 805.295 146.11 804.977C140.953 802.169 135.576 799.781 130.034 797.839C126.233 796.533 122.497 795.123 118.648 794.03C114.445 792.842 109.966 793.309 105.735 792.097C103.466 791.443 101.668 791.882 100.89 794.567C100.336 796.417 99.3604 798.16 98.6285 799.968C97.7803 802.069 97.8945 803.876 99.741 805.607C101.326 806.967 103.161 808.004 105.145 808.658C106.898 809.331 108.407 808.186 109.229 806.787C110.052 805.388 110.708 803.815 109.671 802.181C109.51 801.87 109.25 801.62 108.933 801.47C108.616 801.32 108.259 801.279 107.916 801.352C107.043 801.546 106.882 802.169 107.166 802.957C107.856 804.815 106.999 805.918 105.289 806.344C103.382 806.799 102.343 805.424 101.401 804.251L101.404 804.258ZM184.53 857.898C185.699 858.085 186.371 858.127 187.065 858.259C196.892 860.457 200.138 859.045 205.096 850.388C205.479 849.613 206.083 848.969 206.832 848.537C207.581 848.105 208.441 847.904 209.304 847.96C212.426 847.935 215.526 847.468 218.639 847.44C219.605 847.46 220.56 847.235 221.415 846.784C222.269 846.333 222.995 845.672 223.523 844.863C220.651 844.149 218.072 843.254 216.342 840.892C215.31 839.483 214.118 839.942 212.993 840.656C205.674 845.282 198.126 849.491 190.497 853.57C188.276 854.661 186.257 856.123 184.527 857.892L184.53 857.898ZM156.872 882.558C154.916 880.828 152.923 879.086 152.272 876.165C151.89 874.464 150.613 874.08 148.767 875.147C146.395 876.508 143.873 877.592 141.253 878.376C135.767 880.116 130.053 881.03 124.299 881.089C123.681 881.091 119.906 887.443 120.241 887.946C120.361 888.134 120.517 888.297 120.7 888.424C120.884 888.551 121.09 888.641 121.308 888.687C123.82 888.895 126.378 889.315 128.377 887.089C132.988 881.947 139.168 881.664 144.975 883.217C149.246 884.354 152.918 885.499 156.869 882.551L156.872 882.558ZM64.1052 855.039C65.1674 856.308 66.4788 857.896 67.8213 859.468C68.2815 860.017 68.8573 860.578 69.567 860.294C70.4135 859.957 70.0663 859.091 69.9303 858.471C68.8312 853.335 71.2201 849.444 74.3728 845.807C75.8054 844.159 77.2724 842.533 78.6735 840.855C79.3539 840.038 80.0709 838.708 78.5481 838.427C74.2365 837.656 69.8779 837.269 66.0153 839.975C62.2177 842.609 60.2987 847.882 64.1052 855.039ZM170.206 864.724L170.308 864.923C167.696 866.255 165.045 867.512 162.497 868.953C161.434 869.558 160.704 870.816 161.889 871.818C163.787 873.42 163.929 875.62 164.389 877.721C164.652 878.927 164.962 879.78 166.408 879.129C170.633 877.178 174.344 874.713 177.362 870.949C178.297 869.88 178.984 868.616 179.371 867.249C179.758 865.882 179.836 864.446 179.6 863.045C179.337 860.992 178.539 860.38 176.615 861.432C174.511 862.592 172.346 863.633 170.206 864.724ZM346.862 912.11C351.549 917.674 355.661 923.217 362.41 925.849C365.483 927.049 368.793 924.765 368.468 921.561C368.027 917.178 361.379 909.612 356.764 908.306C356.825 908.902 356.91 909.47 356.934 910.038C356.996 911.573 357.807 913.456 355.988 914.438C354.443 915.265 352.941 914.519 351.421 913.734C350.173 913.086 349.258 911.522 346.862 912.11ZM55.7349 740.764C52.3643 736.997 47.9271 735.749 45.1958 737.8C40.2906 741.494 36.5326 746.502 34.3574 752.245C34.2087 752.494 34.1388 752.783 34.1567 753.073C34.1745 753.363 34.2795 753.641 34.4577 753.871C35.21 754.639 35.6314 753.836 36.1465 753.433C38.2377 751.618 40.8843 750.57 43.6506 750.46C46.1823 750.399 48.3734 750.317 50.2758 752.403C51.6207 753.888 53.5229 753.192 55.1713 752.782C55.2867 752.76 55.3957 752.712 55.4904 752.642C55.5851 752.573 55.6633 752.483 55.7192 752.38C55.7751 752.276 55.8074 752.162 55.8137 752.044C55.8201 751.927 55.8003 751.809 55.7559 751.7C55.0423 750.301 53.4921 750.888 52.3644 750.413C50.162 749.475 48.5819 747.867 48.3296 745.574C48.1101 743.484 50.1104 742.566 51.5755 741.474C52.7238 740.606 54.0725 740.592 55.7225 740.77L55.7349 740.764ZM248.062 835.508C249.155 835.146 250.502 835.329 250.185 833.939C249.868 832.549 248.65 832.912 247.585 832.914C239.525 832.96 231.508 834.096 223.752 836.29C222.132 836.772 218.75 837.485 219.154 839.231C219.588 841.141 222.513 841.945 224.94 842.017C233.45 842.277 241.428 840.74 248.062 835.508ZM179.518 874.011C183.55 871.297 188.182 869.992 192.03 867.395C198.598 862.957 205.376 858.897 212.232 854.946C213.222 854.359 214.135 853.649 214.947 852.833C215.573 852.232 215.647 851.732 214.766 851.248C214.102 850.847 213.359 850.591 212.588 850.5C211.817 850.408 211.035 850.482 210.295 850.717C209.555 850.952 208.873 851.343 208.296 851.862C207.719 852.382 207.26 853.018 206.949 853.73C204.75 858.3 201.298 860.906 196.291 861.414C193.876 861.658 191.445 861.793 189.017 861.871C185.671 862.01 183.942 862.892 183.176 865.954C182.4 868.82 181.165 871.54 179.518 874.011ZM40.4846 841.513C40.0501 853.278 59.4142 873.394 70.9851 876.537C60.1156 865.764 49.2059 855.035 40.4846 841.513ZM163.373 855.873C157.978 856.619 157.541 861.34 156.292 865.253C155.764 866.877 156.154 867.595 158.425 866.962C164.737 865.217 169.802 861.027 175.775 858.663C176.662 858.313 177.441 857.735 177.248 856.603C177.055 855.472 176.125 855.107 175.24 854.924C171.199 854.101 167.124 852.456 163.373 855.873ZM275.024 935.099C280.078 938.603 283.524 935.709 287.664 933.301C294.517 929.312 298.645 922.301 306.59 918.642C304.205 917.883 303.376 918.886 302.437 919.365C295.372 922.967 288.848 927.909 280.446 928.228C280.091 928.215 279.741 928.31 279.442 928.502C279.143 928.693 278.91 928.972 278.775 929.3C277.994 931.626 276.112 933.283 275.024 935.099ZM227.453 868.32C222.542 866.84 218.163 863.973 214.842 860.065C213.758 858.815 212.468 857.961 210.955 858.912C208.125 860.646 205.414 862.584 202.691 864.498C201.26 865.502 201.564 866.037 203.097 866.83C205.514 868.05 208.175 868.245 210.668 868.737C216.177 869.783 221.795 869.074 227.453 868.32ZM138.577 854.765C134.37 852.553 129.689 852.088 125.649 849.728C123.676 848.579 121.389 847.982 119.314 846.987C117.926 846.323 117.479 846.246 116.703 848.013C115.025 851.776 115.803 855.47 116.036 859.214C116.158 861.268 116.686 861.626 118.501 860.238C122.445 857.215 126.663 854.728 131.948 855.073C134.162 855.099 136.375 854.996 138.577 854.765ZM140.102 868.297C141.968 867.345 144.404 866.714 142.996 864.306C141.356 861.49 138.145 860.941 135.182 860.83C132.218 860.719 130.336 862.792 128.874 865.026C128.679 865.29 128.553 865.598 128.506 865.923C128.46 866.247 128.494 866.578 128.606 866.886C128.718 867.195 128.905 867.47 129.149 867.689C129.393 867.907 129.688 868.062 130.007 868.14C133.425 868.881 136.919 870.523 140.102 868.297ZM257.903 844.956C257.796 842.581 257.821 840.507 257.57 838.464C257.32 836.421 255.637 835.226 253.896 836.223C249.045 839.003 243.946 841.298 238.976 844.138C245.349 843.129 251.55 844.653 257.903 844.956ZM106.716 837.988C101.916 833.477 97.7856 828.358 93.0163 823.416C91.9724 827.224 91.9152 830.647 90.5349 833.764C90.0625 834.836 90.6467 835.275 91.701 835.144C96.926 834.541 101.71 835.886 106.716 837.988ZM366.807 929.108C369.542 930.214 371.647 931.115 373.789 931.919C375.229 932.454 376.638 934.541 378.001 933.463C379.598 932.185 377.507 930.619 377.136 929.154C377.031 928.471 376.847 927.802 376.589 927.161C374.905 923.858 374.564 919.777 370.963 917.326C372.98 922.372 371.335 926.078 366.807 929.108ZM90.6414 797.152C92.2188 796.05 93.8465 795.001 95.3576 793.815C95.9162 793.373 96.9301 792.887 96.3666 791.905C95.9836 791.246 95.1762 791.4 94.4746 791.514C90.5017 792.13 86.5155 792.626 82.5686 793.37C80.6637 793.722 80.255 795.333 80.3096 797.1C80.3817 799.116 81.7218 799.193 83.1918 799.125C85.8136 799.011 88.4289 798.868 90.6414 797.152ZM296.133 854.66C293.467 852.704 290.932 850.823 288.373 848.97C287.849 848.587 287.134 848.599 286.939 849.231C285.235 854.128 282.708 854.766 279.112 850.91C278.867 850.644 278.245 850.624 277.808 850.659C277.517 850.679 277.241 850.798 277.026 850.996C276.811 851.194 276.669 851.459 276.624 851.748C276.57 851.883 276.545 852.028 276.552 852.174C276.558 852.319 276.596 852.461 276.662 852.591C276.728 852.721 276.821 852.834 276.935 852.925C277.049 853.016 277.181 853.081 277.322 853.116C280.961 854.105 283.791 856.581 286.906 858.526C287.515 858.905 288.365 859.389 288.491 858.33C289.055 853.442 291.791 853.645 295.242 855.263C295.311 855.322 295.559 855.055 296.133 854.66ZM268.144 845.337C268.741 843.865 271.837 843.759 271.017 841.152C270.415 839.265 263.876 836.706 262.26 837.656C260.644 838.605 259.784 840.07 260.755 842.02C262.078 844.676 265.783 846.454 268.144 845.337ZM380.215 941.847C376.829 934.515 369.642 933.791 363.588 931.079L362.997 932.117L380.215 941.847ZM58.1355 751.357C61.0165 751.259 63.6239 750.517 66.1519 751.971C67.5038 752.747 68.1509 751.281 67.5651 750.239C66.0851 747.616 64.0216 745.367 61.534 743.668C60.9625 743.254 59.7155 743.498 60.1557 744.285C61.7932 747.219 59.5025 748.936 58.1355 751.357ZM120.241 877.328C117.994 875.441 116.148 873.757 115.267 871.307C115.062 870.737 114.423 869.652 113.861 870.394C112.553 872.246 111.402 874.203 110.42 876.247C110.124 876.821 110.662 877.322 111.359 877.335C114.097 877.357 116.873 878.606 120.241 877.328ZM306.506 869.33C307.353 869.055 308.026 868.469 307.228 867.873C305.535 866.596 305.003 862.895 302.462 864.12C301.218 864.754 297.643 865.104 298.489 868.285C299.004 870.232 303.479 870.693 306.506 869.33ZM116.63 885.783C117.532 885.261 118.458 884.757 118.354 883.478C118.303 883.067 118.103 882.688 117.793 882.414C117.483 882.139 117.083 881.987 116.669 881.986C114.054 881.613 111.398 881.631 108.789 882.039C107.554 882.277 106.783 883.438 108.172 884.148C110.749 885.514 113.447 887.116 116.612 885.793L116.63 885.783ZM277.684 848.002C277.639 846.254 281.703 846.909 280.158 844.202C279.113 842.384 276.751 840.595 274.876 841.527C273.813 842.07 273.012 845.111 273.565 847.039C274.035 848.806 275.819 848.601 277.666 848.012L277.684 848.002ZM160.79 875.857C159.639 874.43 158.942 871.91 156.474 872.957C154.94 873.606 154.937 875.535 155.835 876.927C157.023 878.782 158.682 880.867 161.025 879.883C162.457 879.263 161.391 877.236 160.79 875.857ZM353.522 908.988C351.512 905.906 348.373 904.623 345.399 903.185C344.615 902.801 343.949 903.877 344.587 904.344C347.269 906.315 349.122 909.272 352.231 910.696C352.754 910.939 353.498 911.077 353.749 910.463C353.927 910.043 353.6 909.418 353.522 908.988ZM131.297 888.358C135.301 888.095 138.35 887.896 141.423 887.685C142.228 887.619 143.11 887.365 143.073 886.31C143.037 885.255 142.167 885.072 141.331 885.06C137.989 885.008 134.754 885.318 131.297 888.358ZM267.134 930.369C265.863 929.905 265.715 927.018 263.481 928.431C262.456 929.079 260.814 929.948 261.946 931.706C262.847 933.119 263.959 934.394 265.895 933.148C266.839 932.541 268.012 932.014 267.115 930.379L267.134 930.369ZM269.968 934.543C271.556 934.477 272.235 933.057 273.303 932.293C274.204 931.646 275.175 930.555 274.551 929.361C273.847 927.98 272.046 928.06 270.876 928.148C269.109 928.265 270 929.919 270.173 930.857C270.414 932.145 269.208 933.269 269.949 934.552L269.968 934.543ZM298.709 859.435C297.727 858.846 297.117 857.112 295.426 857.975C293.865 858.771 293.611 860.318 294.46 861.782C294.802 862.457 295.384 862.98 296.092 863.248C296.8 863.517 297.583 863.511 298.287 863.232C299.948 862.51 299.036 860.922 298.709 859.435ZM90.0478 879.496C88.0193 876.072 84.8069 874.536 80.9996 873.97C83.4598 876.597 86.5871 878.507 90.0478 879.496ZM305.611 876.15C306.354 877.424 307.357 877.916 308.503 877.026C309.471 876.297 310.763 875.403 309.811 873.922C309.078 872.775 307.736 872.158 306.512 872.846C305.287 873.533 305.142 874.877 305.601 876.131L305.611 876.15ZM77.8191 764.908C77.3137 762.595 77.139 760.639 76.0112 758.98C75.7969 758.601 75.463 758.303 75.0616 758.132C74.5205 758.009 74.2282 758.557 74.2692 759.007C74.4499 761.313 74.2579 763.887 77.8191 764.908ZM281.395 911.264C282.499 911.892 283.893 910.46 285.21 911.183C285.73 911.467 286.547 912.069 286.888 911.002C287.15 910.194 286.488 909.74 285.78 909.521C284.428 909.098 283.053 908.89 281.728 909.597C281.156 909.904 280.879 910.359 281.395 911.264ZM327.153 904.825C327.704 904.599 328.247 904.22 327.898 903.827C326.978 902.791 325.574 902.543 324.298 902.3C323.726 902.192 323.531 903.162 323.896 903.618C324.295 904.075 324.802 904.425 325.371 904.636C325.94 904.847 326.553 904.912 327.153 904.825ZM126.822 805.496C126.074 804.028 126.224 802.54 124.611 802.297C124.46 802.341 124.323 802.422 124.211 802.533C124.099 802.643 124.016 802.78 123.97 802.93C123.926 804.426 124.849 805.115 126.822 805.496ZM55.9185 745.811C55.6332 745.545 55.2757 745.371 54.8912 745.309C54.5067 745.247 54.1124 745.3 53.7583 745.463C53.1696 745.645 53.2394 746.182 53.5264 746.545C53.7515 746.874 54.0955 747.104 54.4862 747.185C54.8769 747.266 55.2839 747.193 55.6218 746.981C56.1005 746.721 56.119 746.296 55.9185 745.811Z" fill="white"/>
</g>
<g opacity="0.2">
<path d="M1332.53 160.962C1332.74 158.911 1332.3 156.845 1331.28 155.052C1330.27 153.259 1328.72 151.826 1326.85 150.951C1317.73 146.351 1314.51 137.687 1311.54 129.114C1308.29 119.696 1303.75 111.549 1294.84 106.487C1293.86 105.936 1292.61 104.903 1291.66 105.58C1290.53 106.397 1291.66 107.765 1291.94 108.777C1297.38 127.522 1301.39 146.546 1303.06 166.024C1304.52 183.016 1303.44 199.827 1298.48 216.289C1298.04 217.748 1297.29 218.258 1295.96 218.656C1286.99 221.288 1278.56 219.256 1270.2 215.961C1260.11 211.989 1252.78 204.63 1246.09 196.525C1239.54 188.608 1233.98 180.105 1231.68 169.864C1230.57 164.9 1231.16 159.957 1231.87 155C1232.18 152.871 1233.52 153.478 1234.66 153.73C1239.38 154.735 1243.04 157.646 1246.49 160.711C1248.83 162.805 1250.89 165.165 1253.59 167.93C1253.75 163.196 1252.55 159.454 1251.07 155.789C1247.76 147.635 1241.77 141.422 1235.86 135.201C1235.09 134.44 1234.51 133.506 1234.16 132.475C1233.82 131.444 1233.73 130.347 1233.9 129.274C1235.55 112.16 1234.32 94.8904 1230.28 78.1784C1226.06 60.6903 1216 46.6719 1204.28 33.5959C1203.28 32.4789 1202.29 31.3549 1201.29 30.2309C1196.32 28.6043 1192.28 25.5116 1187.7 22.2723C1190.66 21.1693 1192.7 24.1921 1194.97 22.4259C1193.98 20.0714 1192.32 18.0572 1190.2 16.6314C1181.98 10.5298 1173.65 4.63062 1163.52 2.06149C1153.23 -0.5495 1143.09 -0.493652 1133.32 4.26758C1131.34 5.23798 1129.26 5.03552 1127.19 5.09833C1111.64 5.53818 1096.47 7.80707 1082.38 14.8721C1064.85 23.5708 1051.96 36.4722 1045.79 55.5451C1044.74 58.7634 1045.27 61.1301 1047.52 63.6643C1057.43 74.5481 1069.8 78.5274 1084.2 77.1661C1093.44 76.2167 1102.44 73.6405 1110.78 69.5565C1113.35 68.3348 1114.05 68.991 1115.13 71.3926C1125.88 95.1289 1142.96 113.001 1166.02 125.148C1167.38 125.803 1168.78 126.358 1170.21 126.81C1170.97 126.967 1171.74 127.056 1172.51 127.075C1169.97 123.487 1167.63 120.387 1165.53 117.19C1156.69 104.211 1150.84 89.4252 1148.42 73.9058C1148.04 71.4275 1147.09 69.9684 1144.78 69.0538C1141.09 67.5994 1137.51 65.8822 1134.07 63.9156C1137.17 63.5666 1140.26 64.3066 1143.31 63.8807C1148.2 63.1826 1153.3 63.413 1157.73 65.1164C1176.7 72.4048 1192.85 82.8838 1199.16 103.967C1202.47 115.04 1204.05 126.307 1205.01 137.757C1205.17 139.746 1204.44 141.108 1203.01 142.602C1192.43 153.772 1187.24 166.722 1190.49 182.276C1191.15 185.39 1192.42 188.21 1195.58 190.284C1196.15 187.191 1196.56 184.28 1197.24 181.445C1198.86 174.757 1201.74 168.802 1207.34 164.439C1209.56 162.715 1210.78 162.736 1211.75 165.689C1215.34 176.593 1219.39 187.261 1225.16 197.307C1232.69 210.404 1243.69 218.83 1257.41 224.597C1270.95 230.28 1284.99 234.105 1299.15 237.617C1301.73 238.215 1304.08 239.549 1305.91 241.457C1320.17 255.803 1336.72 265.926 1357.33 268.076C1370.56 269.49 1383.92 267.148 1395.89 261.318C1395.33 260.32 1394.46 260.327 1393.75 260.243C1383.08 258.987 1374.47 253.262 1366.04 247.279C1363.16 245.185 1361.9 242.078 1360.75 238.901C1359.17 234.287 1356.97 229.91 1354.21 225.888C1352.04 222.817 1350.62 218.425 1345.39 221.316C1346 223.466 1349.2 221.476 1349.65 224.059C1349.95 225.777 1351.26 226.852 1352.82 227.508C1353.85 227.969 1354.51 228.59 1354.49 229.854C1354.49 232.688 1354.49 235.536 1356.01 238.51C1353.92 238.043 1352.92 236.828 1351.95 235.823C1345.27 228.841 1340.78 219.633 1331.05 215.793C1330.05 215.395 1329.93 214.334 1330.24 213.385C1330.55 212.435 1330.79 211.325 1331.41 211.025C1332.6 210.46 1332.66 212.003 1333.26 212.596C1334.75 214.062 1336.59 215.919 1338.6 214.942C1341.94 213.315 1342.63 215.13 1343.32 217.588C1343.52 218.617 1344.02 219.564 1344.76 220.303C1344.71 218.209 1344.76 216.114 1344.59 214.069C1344.35 211.57 1343.19 210.425 1340.4 211.179C1335.6 212.456 1334.97 211.877 1334.54 206.864C1334.01 200.581 1335.62 194.507 1336.08 188.322C1336.34 184.978 1336.53 181.641 1336.49 178.29C1336.49 176.894 1336.39 175.281 1335.4 174.373C1331.75 171.022 1332.15 166.757 1332.35 162.505C1330.85 163.308 1332.41 165.633 1330.53 166.247C1329.07 158.638 1324.34 153.611 1317.8 150.037C1316.17 149.143 1314.61 148.389 1313.84 146.42C1309.79 136.116 1305.82 125.791 1298.18 117.35C1297.3 116.338 1296.63 115.161 1296.21 113.889C1295.79 112.617 1295.62 111.273 1295.72 109.936C1300.39 113.804 1304.1 117.755 1306.44 122.586C1309.88 129.665 1312.77 137.017 1315.78 144.298C1316.69 146.314 1318.23 147.979 1320.17 149.045C1323.18 150.93 1326.15 152.717 1328.15 155.845C1329.33 157.709 1331.04 159.259 1332.53 160.962ZM1156.55 106.892L1155.81 107.493C1153.71 104.854 1149.27 104.002 1150.47 98.9407C1150.98 96.7276 1149.49 95.2546 1147.54 94.3401C1146.15 93.6838 1144.64 93.7117 1143.14 93.5372C1140.29 93.1951 1137.26 92.9857 1135.78 89.8371C1135.13 88.4409 1134.32 86.9469 1137.17 87.5752C1139.12 88.015 1140.47 86.9748 1141.6 85.5436C1144.11 82.3741 1144.27 78.2691 1142.03 75.2043C1139.51 71.7626 1133.87 70.0103 1130.38 71.5741C1126.19 73.4451 1125.81 73.0541 1125.95 68.4534C1126.03 65.8285 1125.66 63.1477 1123.9 60.9207C1123.31 60.1806 1122.83 59.2242 1123.74 58.4493C1124.64 57.6744 1125.13 58.4493 1125.7 59.1474C1126.4 60.0829 1127.37 60.6693 1128.1 59.2661C1128.66 58.191 1129.33 56.8715 1127.64 55.9919C1126.81 55.566 1125.97 55.0354 1125.01 55.2588C1120.89 56.2222 1119.86 53.1644 1119.37 50.3719C1119.01 48.2776 1117.71 45.3664 1119.46 43.9422C1120.59 43.0276 1122.29 45.9179 1124.06 46.5532C1124.16 46.5881 1124.23 46.7137 1124.33 46.7696C1131.91 51.4889 1138.75 48.3683 1140.13 39.5998C1140.31 38.4409 1140.64 37.3798 1139.92 36.2767C1138.64 34.3499 1134.09 32.6116 1131.87 33.3306C1128.8 34.329 1126.53 35.816 1126.98 39.7045C1127.18 41.3801 1127.78 42.0293 1129.27 42.0084C1131.09 42.0084 1130.85 40.9053 1130.54 39.6138C1129.93 37.0866 1131.01 36.0882 1133.54 36.6537C1135.05 36.9958 1136.59 37.3937 1136.88 39.2019C1137.03 39.9962 1136.96 40.8174 1136.66 41.5692C1136.36 42.321 1135.85 42.9723 1135.2 43.4465C1130.97 46.8743 1125.55 45.3175 1122.46 41.2544C1120.36 38.5038 1118.27 35.0061 1119.72 31.334C1121.1 28.1407 1123.48 25.4885 1126.51 23.7872C1130.36 21.5602 1134.4 19.8568 1137.91 16.8758C1141.9 13.4898 1147.27 13.0291 1152.33 13.1268C1156.3 13.0853 1160.19 14.2304 1163.5 16.415C1162.83 16.6335 1162.14 16.7832 1161.44 16.8618C1155.03 16.2754 1149.76 19.3611 1147.73 25.351C1145.82 30.9919 1146.56 36.2418 1150.98 40.668C1153.78 43.4605 1154.26 51.3563 1151.51 52.9829C1146.65 55.8453 1141.59 58.5191 1135.65 57.821C1133.43 57.5557 1131.24 54.9237 1130.26 59.8804C1129.63 63.0499 1128.73 64.8232 1131.92 66.4498C1135.01 68.0206 1138.21 69.4727 1141.7 69.7869C1145.32 70.115 1146.84 72.4607 1146.8 75.6372C1146.71 82.2275 1148.41 88.2943 1151.14 94.2004C1153.04 98.3613 1154.75 102.655 1156.55 106.892ZM1345.84 262.708C1343.61 263.28 1341.77 262.009 1339.89 261.437C1332.65 259.343 1325.89 256.187 1320.4 250.818C1315.45 245.932 1311.22 240.347 1304.56 237.359C1301.98 236.1 1299.29 235.051 1296.54 234.224C1295.6 233.98 1294.44 233.679 1294.38 232.758C1294.25 231.362 1295.84 231.662 1296.61 231.124C1298.17 230.056 1299.71 231.41 1301.34 231.054C1305.35 230.182 1309.08 230.65 1312.2 233.847C1313.66 235.169 1315.3 236.259 1317.09 237.079C1322.58 239.942 1328.53 237.079 1329.48 231.403C1329.92 228.779 1328.08 227.913 1326.44 226.956C1325.55 226.39 1324.49 226.14 1323.44 226.246C1322.39 226.353 1321.41 226.809 1320.65 227.543C1318.84 229.1 1320.04 230.691 1320.89 232.206C1321.26 232.904 1322.2 233.407 1321.45 234.301C1320.71 235.194 1319.87 234.915 1318.91 234.601C1315.92 233.631 1314.16 230.999 1311.63 229.407C1311.11 229.079 1310.19 228.792 1310.35 227.948C1310.51 227.103 1311.56 227.04 1312.25 226.684C1316.76 224.338 1322.02 223.361 1325.52 219.109C1325.91 218.674 1326.42 218.363 1326.99 218.216C1327.55 218.068 1328.15 218.09 1328.71 218.279C1333.04 219.326 1336.5 221.944 1339.21 225.26C1344.14 231.236 1348.8 237.365 1354.88 242.322C1356.69 243.802 1359.84 244.563 1359.95 248.145C1357.47 247.614 1355.6 246.204 1353.49 245.45C1345.39 242.567 1336.92 242.371 1328.54 241.568C1326.91 241.408 1325.05 241.903 1324.4 243.523C1323.75 245.143 1325.04 246.315 1326.25 247.251C1326.84 247.608 1327.36 248.055 1327.81 248.577C1331.6 254.735 1337.27 258.351 1343.87 260.788C1344.34 260.899 1344.77 261.136 1345.12 261.474C1345.47 261.813 1345.71 262.239 1345.84 262.708ZM1062.08 44.1935C1062.04 41.2429 1062.76 38.3327 1064.17 35.7392C1065.57 33.212 1070.24 31.69 1071.59 33.3167C1074.47 36.8716 1077.59 40.2257 1080.93 43.3558C1089.86 51.5727 1098.9 59.5104 1111.22 62.2052C1112.42 62.4705 1112.89 63.3641 1113.31 64.3415C1113.65 65.2072 1113.07 65.5911 1112.42 65.9332C1106.03 69.2842 1099.33 71.246 1092.04 70.2337C1089.69 69.9056 1088.69 68.8374 1089.74 66.1636C1093.45 56.7389 1088.35 50.8467 1082.02 47.1815C1079.33 45.6317 1076.7 46.5811 1074.42 48.3613C1072.79 49.6249 1072.5 51.5378 1072.99 53.339C1073.57 55.4634 1074.38 57.5169 1075.41 59.4616C1076.65 61.7863 1080.19 62.666 1081.97 61.3395C1083.05 60.4514 1083.74 59.1849 1083.91 57.8007C1084.08 56.4164 1083.72 55.0196 1082.89 53.8975C1082.71 53.6642 1082.49 53.4682 1082.24 53.321C1081.98 53.1738 1081.7 53.0783 1081.41 53.04C1081.12 53.0016 1080.83 53.0213 1080.55 53.0978C1080.26 53.1743 1080 53.3061 1079.77 53.4856C1078.42 54.2954 1079.07 55.21 1080.05 55.8941C1081.02 56.5783 1081.16 57.4928 1080.46 58.2468C1079.54 59.2172 1078.36 58.7006 1077.76 57.8419C1076.65 56.3549 1075.81 54.7003 1076.02 52.7037C1076.23 50.707 1076.86 49.6529 1079.36 50.1346C1085.33 51.2935 1089.65 58.0723 1087.28 63.6922C1086.25 66.1217 1084.84 69.1655 1081.41 69.1725C1077.81 69.1725 1074.69 68.0765 1072.79 64.4951C1071.34 61.7933 1070.74 58.8542 1069.66 56.0617C1068.86 53.9673 1068.05 51.9218 1065.78 50.9933C1062.72 49.7925 1061.76 47.4468 1062.08 44.2075V44.1935ZM1319.69 187.603C1321.22 191.135 1322.97 194.089 1323.77 197.286C1324.57 200.483 1324.34 204.058 1324.78 207.43C1325.48 212.624 1322.27 218.907 1317.54 221.099C1311.62 223.892 1305.57 226.237 1299.05 227.229C1296.31 227.648 1295.56 225.469 1294.86 223.906C1294.08 222.202 1296.08 222.104 1297.17 221.665C1299.02 220.911 1300.8 220.268 1300.96 217.72C1301.18 216.236 1301.59 214.787 1302.18 213.406C1305.72 202.557 1305.71 191.226 1306.81 180.035C1307.05 177.571 1305.88 174.834 1307.86 172.237C1309.56 174.778 1309.99 177.703 1312.42 179.637C1314.65 181.418 1315.04 184.524 1316.19 187.477C1314.25 187.163 1313.86 185.536 1312.7 184.894C1311.53 184.252 1310.4 183.672 1309.21 184.692C1308.23 185.447 1307.52 186.507 1307.21 187.705C1306.9 188.903 1306.99 190.171 1307.48 191.31C1308.4 193.614 1309.97 195.743 1312.87 195.967C1315.76 196.19 1317.32 194.347 1318.14 191.862C1318.53 190.584 1318.6 189.188 1319.7 187.617L1319.69 187.603ZM1159.56 46.8743C1159.35 43.4971 1160.27 40.1454 1162.18 37.3519C1163.58 35.2086 1165.67 34.4616 1168.18 35.4739C1168.93 35.7811 1169.76 36.1022 1169.79 37.0796C1169.83 38.057 1168.95 38.3292 1168.16 38.5596C1166.01 39.1949 1164.62 40.3957 1165.21 42.8461C1165.62 44.5496 1166.18 46.5881 1168.23 46.609C1170.39 46.609 1173.01 46.1413 1173.76 43.8165C1174.57 41.2753 1175.67 38.1896 1173.6 35.8788C1171.52 33.568 1169.34 31.1385 1165.69 31.7598C1165.05 31.8716 1164.29 32.458 1163.87 31.5364C1163.49 30.7825 1164.13 30.2728 1164.5 29.6934C1166.94 25.9584 1170.96 24.8484 1174.85 24.4574C1176.51 24.2969 1178.71 22.6772 1180.37 24.5063C1183.09 27.454 1186.09 30.1331 1189.33 32.5069C1189.92 32.9536 1190.92 33.3795 1190.62 34.3429C1190.31 35.3064 1189.26 35.1109 1188.52 35.1178C1185.09 35.1178 1183.4 37.2122 1183.14 40.263C1182.93 42.6855 1182.64 45.1499 1183.1 47.6772C1183.74 51.3493 1184.06 55.182 1182.89 58.924C1181.81 62.4146 1178.58 65.2421 1175.8 64.9768C1167.62 64.1879 1159.4 54.6445 1159.56 46.8743ZM1111.15 58.4283C1102.37 56.9413 1095.53 52.1591 1089.15 46.9651C1081.93 41.1008 1082.96 35.2505 1086.66 29.7143C1088.9 26.5254 1091.4 23.523 1094.13 20.7364C1095.53 19.2354 1097.71 18.5443 1099.76 18.279C1102.55 17.916 1104.38 20.2198 1103.6 22.9565C1102.9 25.5046 1101.83 27.969 1101.03 30.4962C1099.92 33.9869 1099.72 37.3169 1101.45 40.8355C1104.4 46.8534 1106 53.5833 1111.15 58.4283ZM1323.27 157.933C1316.54 157.933 1314.26 161.074 1316.29 167.008C1316.64 167.988 1317.07 168.938 1317.57 169.85C1320.56 175.435 1325.54 180.147 1325.12 187.226C1325.08 187.98 1325.72 188.957 1324.73 189.362C1323.73 189.767 1323.43 188.664 1323.03 188.036C1320.36 184.038 1317.49 180.185 1314.41 176.496C1311.95 173.41 1309.27 170.387 1307.89 166.387C1306.99 163.769 1307.99 161.018 1306.6 158.61C1304.17 154.421 1304.59 149.59 1303.73 145.052C1303.04 141.233 1302.57 137.289 1301.27 133.659C1300.2 130.671 1300.54 127.648 1299.87 124.639C1301.27 126.328 1302.2 128.283 1303.4 130.049C1307.07 135.388 1309.71 141.367 1311.18 147.677C1311.66 149.771 1312.3 151.063 1314.18 151.726C1317.68 153.008 1320.81 155.141 1323.27 157.933ZM1148.59 9.05673C1147.03 10.2615 1145.09 10.8596 1143.13 10.7392C1140.48 10.7392 1137.82 11.3955 1136.15 13.3363C1132.76 17.3016 1128.53 19.6892 1123.89 21.8744C1119.89 23.7523 1115.9 27.9132 1116.21 31.718C1116.77 38.8389 1113.63 46.2181 1117.4 53.1086C1117.77 53.8067 1118.05 54.7632 1116.91 55.1122C1115.94 55.4054 1115.44 54.7003 1115.09 53.9115C1114.39 52.3267 1113.69 50.735 1112.94 49.1572C1107.42 37.289 1109.18 26.119 1116.37 15.5144C1118.76 11.9749 1122.35 9.82468 1126.05 8.1282C1127.89 7.27649 1130.35 7.70236 1132.54 7.69537C1137.91 7.7692 1143.28 8.22412 1148.59 9.05673ZM1107.07 47.5655C1105.67 43.2441 1103.58 40.27 1103.47 36.1441C1103.34 32.3672 1104.68 29.3932 1106.09 26.3214C1108.44 21.1972 1105.31 13.5387 1097.67 14.9629C1094.88 15.4725 1092.56 17.5111 1090.94 19.4588C1086.34 24.995 1080.23 29.84 1080.79 39.2298C1078.78 36.4373 1076.66 35.4739 1075.71 33.205C1074.91 31.3061 1073.54 29.6515 1073.18 27.5362C1072.64 24.3388 1075.81 24.234 1077.3 23.1101C1081.68 19.7939 1086.16 16.1707 1091.2 14.2857C1098.34 11.6259 1105.71 9.21033 1113.4 8.22595C1114.86 8.04446 1116.54 7.65347 1117.22 8.84729C1117.9 10.0411 1116.21 10.9417 1115.46 11.8423C1107.87 20.8551 1104.9 31.0059 1107.63 42.6227C1107.9 43.4382 1107.99 44.302 1107.89 45.1552C1107.79 46.0083 1107.51 46.8306 1107.07 47.5655ZM1214.35 163.538C1213.8 163.128 1213.34 162.604 1213.01 162.002C1212.68 161.4 1212.47 160.734 1212.42 160.048C1211.72 155.636 1211.18 151.084 1209.92 146.895C1208.26 141.31 1207.96 135.537 1207.4 130.063C1206.43 120.485 1204.01 111.36 1201.81 102.138C1201.06 98.9198 1199.21 95.9527 1197.88 92.867C1197.61 92.2736 1197 91.5545 1197.79 91.0309C1197.95 90.9473 1198.12 90.8955 1198.3 90.8786C1198.47 90.8618 1198.65 90.8802 1198.82 90.9328C1198.99 90.9854 1199.15 91.0712 1199.28 91.1851C1199.42 91.299 1199.53 91.4388 1199.61 91.5964C1201.16 94.1097 1203.59 95.3593 1206.19 96.4065C1207.33 96.8673 1207.64 97.4816 1207.02 98.829C1204.65 104.065 1204.09 109.301 1206.52 114.886C1208.21 118.761 1211.13 121.099 1214.27 123.41C1215.5 124.318 1216.83 124.946 1216.43 126.901C1215.46 131.648 1215.62 136.5 1215.34 141.303C1214.95 148.445 1214.7 155.65 1214.35 163.538ZM1197.71 82.0111C1193.85 77.187 1193.83 71.8603 1194.96 66.3172C1195.74 62.4775 1198.99 61.528 1201.94 61.0603C1204.63 60.6344 1206.96 62.3518 1208.51 64.7464C1208.92 65.5738 1209.42 66.3496 1210.01 67.0572C1214.3 71.0575 1216.13 75.7908 1214.58 81.6062C1214.36 82.4439 1214.74 83.177 1214.91 83.9659C1216.14 89.6416 1214.07 93.8583 1209.93 94.1865C1206.44 94.4657 1200.86 90.1233 1199.85 86.1649C1201.38 87.1514 1202.98 88.0443 1204.62 88.8388C1205.28 89.1551 1206 89.3251 1206.73 89.3371C1207.46 89.3491 1208.18 89.2028 1208.85 88.9082C1209.52 88.6136 1210.11 88.1778 1210.6 87.6307C1211.08 87.0837 1211.44 86.4383 1211.65 85.7391C1214.11 78.1923 1207.64 69.5635 1202.33 66.6872C1201.23 66.0938 1199.61 65.8006 1199.28 67.6576C1198.47 72.3839 1193.97 76.6634 1197.71 82.0111ZM1194.45 180.908C1189.63 170.052 1194.72 154.044 1205.07 145.429C1207.13 149.3 1208.36 153.555 1208.69 157.926C1208.82 159.692 1208.49 160.285 1207.13 161.109C1203.27 163.448 1199.81 166.282 1198.1 170.645C1196.84 173.843 1195.79 177.11 1194.45 180.908ZM1185.98 44.3052C1186.02 42.3854 1185.28 40.1164 1187.45 38.9645C1190.04 37.5683 1193.03 36.8352 1195.64 38.5177C1199.13 40.7587 1201.62 45.869 1200.38 48.5079C1197.85 53.9324 1194.1 58.3795 1188.51 60.9835C1186.92 61.7305 1185.72 61.1301 1186.14 59.4336C1187.38 54.3443 1186.29 49.3387 1185.98 44.3052ZM1134.32 76.0491C1132.39 76.1747 1130.95 76.8868 1130.44 78.6671C1129.87 80.4836 1129.71 82.4039 1129.98 84.2897C1130.24 86.1754 1130.92 87.9795 1131.96 89.5718C1135.58 94.8985 1140.02 99.7854 1145.55 103.088C1150.31 105.929 1153.73 109.678 1156.72 114.118C1157.18 114.816 1157.89 115.514 1157.04 116.212C1156.34 116.757 1155.81 115.919 1155.27 115.549C1150.42 112.23 1145.86 108.525 1141.61 104.47C1138.72 101.677 1135.76 98.9896 1133.04 96.0574C1130.07 92.853 1128.45 88.6503 1125.45 85.4319C1123.84 83.7076 1123.41 81.9064 1125.45 79.9935C1126.85 78.6601 1127.96 76.9985 1129.24 75.5255C1130.72 73.8151 1132.39 73.096 1134.77 73.9547C1136.7 74.7483 1138.46 75.9128 1139.94 77.3825C1141.34 78.6391 1141 80.5031 1140.13 81.8715C1139.25 83.2398 1138.15 84.5383 1136.22 84.3568C1135.87 84.3549 1135.53 84.2376 1135.26 84.0232C1134.98 83.8087 1134.78 83.5089 1134.69 83.17C1134.47 82.3043 1134.95 81.8785 1135.78 81.7737C1137.75 81.5434 1138.34 80.2797 1137.94 78.5623C1137.48 76.6565 1135.78 76.3563 1134.31 76.0491H1134.32ZM1219.87 125.735C1220.57 126.691 1220.91 127.271 1221.34 127.829C1227.76 135.585 1227.98 139.118 1222.52 147.468C1222 148.161 1221.7 148.992 1221.66 149.855C1221.62 150.719 1221.83 151.576 1222.27 152.32C1223.67 155.112 1224.66 158.086 1226.05 160.872C1226.5 161.723 1226.74 162.677 1226.72 163.643C1226.71 164.609 1226.45 165.556 1225.97 166.394C1224.03 164.16 1222.06 162.268 1219.17 161.8C1217.44 161.521 1217.31 160.25 1217.44 158.924C1218.23 150.302 1218.56 141.666 1218.72 133.016C1218.69 130.542 1219.07 128.08 1219.86 125.735H1219.87ZM1229.27 89.893C1226.84 88.9365 1224.38 87.9522 1221.49 88.6992C1219.8 89.132 1218.88 88.1686 1218.99 86.0393C1219.12 83.3073 1218.94 80.5689 1218.45 77.8782C1217.51 72.2009 1215.73 66.6953 1213.17 61.542C1212.89 60.9905 1216.83 54.7422 1217.43 54.812C1217.65 54.8334 1217.87 54.8988 1218.07 55.0042C1218.26 55.1097 1218.44 55.2532 1218.58 55.4264C1219.9 57.5696 1221.44 59.6571 1220.36 62.4496C1217.88 68.8933 1220.43 74.5272 1224.45 78.9952C1227.41 82.2834 1230.1 85.034 1229.26 89.893H1229.27ZM1162.61 19.7521C1164.23 20.1221 1166.24 20.5689 1168.25 21.0506C1168.95 21.2111 1169.71 21.4695 1169.78 22.2304C1169.86 23.138 1168.93 23.2217 1168.32 23.3823C1163.24 24.7367 1160.86 28.6322 1159.05 33.0933C1158.24 35.1178 1157.45 37.1634 1156.6 39.174C1156.18 40.1513 1155.32 41.394 1154.38 40.1653C1151.73 36.6747 1149.41 32.9676 1150.06 28.2971C1150.68 23.7174 1154.51 19.6124 1162.61 19.7521ZM1219.44 109.873H1219.67C1219.67 106.941 1219.58 104.009 1219.71 101.084C1219.76 99.8622 1220.55 98.6405 1221.98 99.2409C1224.27 100.204 1226.3 99.3317 1228.38 98.7871C1229.57 98.473 1230.47 98.3613 1230.55 99.946C1230.73 104.596 1230.22 109.022 1228.24 113.42C1227.71 114.739 1226.9 115.925 1225.85 116.891C1224.81 117.857 1223.57 118.579 1222.21 119.005C1220.27 119.703 1219.36 119.27 1219.42 117.078C1219.5 114.677 1219.44 112.275 1219.44 109.873ZM1341.91 245.722C1348.99 247.37 1355.8 248.515 1361.21 253.332C1363.67 255.524 1363.14 259.51 1360.14 260.676C1356.04 262.275 1346.28 259.789 1343.02 256.271C1343.58 256.054 1344.12 255.873 1344.64 255.636C1346.03 254.993 1348.08 254.861 1348.13 252.794C1348.16 251.042 1346.82 250.044 1345.43 249.045C1344.28 248.228 1342.47 248.124 1341.91 245.722ZM1057.01 64.2088C1052.12 62.9173 1048.99 59.5314 1049.58 56.1664C1050.64 50.1184 1053.4 44.4954 1057.52 39.9489C1057.68 39.703 1057.91 39.5095 1058.17 39.3937C1058.44 39.2779 1058.73 39.2451 1059.02 39.2996C1060.05 39.6208 1059.52 40.3608 1059.4 41.0031C1058.73 43.6902 1059 46.5242 1060.16 49.0385C1061.25 51.3214 1062.17 53.3111 1064.9 54.0581C1066.83 54.5816 1067.08 56.5923 1067.46 58.2468C1067.49 58.3598 1067.5 58.4787 1067.48 58.5947C1067.46 58.7107 1067.42 58.8211 1067.35 58.9179C1067.28 59.0147 1067.2 59.0955 1067.09 59.1545C1066.99 59.2135 1066.88 59.2492 1066.76 59.2591C1065.19 59.2591 1065.01 57.6115 1064.07 56.8226C1062.24 55.2868 1060.09 54.6096 1057.93 55.4264C1055.97 56.1804 1056.06 58.3795 1055.75 60.1806C1055.5 61.5979 1056.1 62.8056 1057.01 64.1949V64.2088ZM1228.78 192.504C1228.96 193.642 1229.73 194.759 1228.35 195.108C1226.97 195.457 1226.74 194.207 1226.26 193.258C1222.63 186.056 1220 178.398 1218.44 170.492C1218.13 168.83 1217.23 165.493 1218.97 165.06C1220.87 164.579 1222.91 166.82 1224.08 168.949C1228.18 176.412 1230.43 184.217 1228.78 192.504ZM1231.95 113.95C1231.36 118.775 1232.3 123.494 1231.74 128.102C1230.77 135.969 1230.23 143.851 1229.82 151.754C1229.75 152.903 1229.53 154.039 1229.17 155.133C1228.92 155.964 1228.51 156.257 1227.68 155.692C1227.02 155.282 1226.46 154.736 1226.02 154.091C1225.59 153.446 1225.3 152.716 1225.18 151.95C1225.05 151.184 1225.09 150.399 1225.29 149.649C1225.49 148.899 1225.85 148.201 1226.34 147.6C1229.41 143.565 1230.16 139.306 1228.34 134.615C1227.46 132.353 1226.48 130.126 1225.45 127.927C1224.05 124.883 1224.05 122.942 1226.43 120.869C1228.63 118.876 1230.49 116.539 1231.95 113.95ZM1139.83 4.854C1150.12 -0.877625 1176.83 7.23462 1184.89 16.1148C1170.36 11.3257 1155.84 6.48065 1139.83 4.854ZM1208.45 107.807C1206.67 102.662 1210.67 100.128 1213.59 97.2373C1214.8 96.0295 1215.62 96.0505 1216.08 98.3613C1217.4 104.777 1215.96 111.193 1216.57 117.588C1216.66 118.537 1216.5 119.494 1215.41 119.836C1214.31 120.178 1213.56 119.515 1213 118.809C1210.43 115.584 1207.11 112.701 1208.45 107.807ZM1329.75 171.281C1335.17 174.192 1334.16 178.576 1333.89 183.358C1333.45 191.275 1329.08 198.138 1329.43 206.878C1327.67 205.098 1328.19 203.904 1328.19 202.85C1328.19 194.919 1329.63 186.863 1326.09 179.232C1325.92 178.923 1325.85 178.567 1325.88 178.214C1325.92 177.861 1326.06 177.527 1326.29 177.257C1328.01 175.504 1328.63 173.075 1329.75 171.281ZM1248.65 159.238C1245.1 155.536 1240.56 152.937 1235.57 151.754C1233.96 151.356 1232.62 150.595 1232.78 148.815C1233.03 145.506 1233.53 142.211 1234 138.916C1234.24 137.184 1234.86 137.212 1236.26 138.217C1238.44 139.816 1239.83 142.099 1241.4 144.096C1244.83 148.529 1246.75 153.855 1248.65 159.238ZM1196.2 86.2208C1192.32 83.4772 1189.78 79.5188 1185.84 76.9916C1183.92 75.7559 1182.35 73.9896 1180.52 72.5934C1179.3 71.6579 1179.03 71.2948 1180.25 69.8008C1182.84 66.5964 1186.48 65.6121 1189.92 64.1181C1191.81 63.2943 1192.37 63.6015 1191.96 65.8494C1191.06 70.7363 1190.76 75.6232 1193.46 80.175C1194.49 82.1357 1195.41 84.1543 1196.2 86.2208ZM1208.95 81.4316C1208.95 83.526 1209.49 85.9834 1206.71 85.8229C1203.45 85.6414 1201.51 83.0304 1200.06 80.4403C1198.62 77.8503 1199.61 75.2323 1200.93 72.9145C1201.08 72.6214 1201.3 72.3691 1201.57 72.1801C1201.83 71.9911 1202.14 71.8712 1202.47 71.8312C1202.8 71.7911 1203.13 71.8321 1203.43 71.9504C1203.74 72.0688 1204.01 72.2608 1204.22 72.5096C1206.44 75.2183 1209.49 77.585 1208.95 81.4316ZM1241.67 196.979C1239.51 197.963 1237.67 198.927 1235.74 199.632C1233.8 200.337 1231.97 199.38 1232.07 197.377C1232.34 191.792 1232.07 186.207 1232.34 180.489C1234.34 186.626 1238.51 191.457 1241.67 196.979ZM1166.78 65.4585C1160.58 63.2315 1154.15 61.8771 1147.58 59.8735C1150.49 57.2136 1153.52 55.6079 1155.67 52.962C1156.41 52.0544 1157.06 52.3756 1157.43 53.3739C1159.26 58.3027 1162.63 61.9539 1166.78 65.4585ZM1366.11 255.768C1368.34 257.702 1370.1 259.168 1371.79 260.711C1372.92 261.751 1375.42 262.058 1375.08 263.762C1374.66 265.765 1372.32 264.613 1370.84 264.949C1370.19 265.165 1369.51 265.306 1368.82 265.367C1365.11 265.367 1361.32 266.917 1357.5 264.823C1362.91 264.327 1365.47 261.179 1366.11 255.768ZM1123.1 69.6891C1122.83 71.595 1122.64 73.5219 1122.27 75.4068C1122.13 76.1049 1122.16 77.2289 1121.03 77.1731C1120.27 77.1312 1120.04 76.3423 1119.82 75.6651C1118.56 71.8464 1117.19 68.0695 1116.06 64.2158C1115.51 62.3588 1116.76 61.2627 1118.36 60.5087C1120.19 59.657 1120.87 60.8159 1121.47 62.1563C1122.56 64.5439 1123.62 66.9385 1123.1 69.6891ZM1267.68 226.628C1264.73 225.141 1261.9 223.738 1259.09 222.3C1258.51 222.007 1258.19 221.364 1258.67 220.904C1262.26 217.162 1261.68 214.62 1256.61 213.168C1256.26 213.071 1255.96 212.526 1255.79 212.121C1255.68 211.852 1255.66 211.552 1255.74 211.271C1255.82 210.989 1255.99 210.743 1256.23 210.571C1256.32 210.462 1256.44 210.374 1256.57 210.314C1256.7 210.253 1256.85 210.222 1256.99 210.222C1257.14 210.222 1257.28 210.253 1257.42 210.314C1257.55 210.374 1257.67 210.462 1257.76 210.571C1260.3 213.364 1263.79 214.76 1266.94 216.652C1267.55 217.022 1268.37 217.56 1267.48 218.153C1263.38 220.876 1264.81 223.221 1267.81 225.56C1267.9 225.595 1267.77 225.937 1267.68 226.628ZM1246.66 205.929C1245.62 207.13 1246.93 209.936 1244.24 210.39C1242.28 210.711 1237.03 206.047 1237.15 204.177C1237.26 202.306 1238.17 200.874 1240.35 200.853C1243.32 200.825 1246.58 203.318 1246.66 205.929ZM1383.55 261.926C1375.48 262.24 1371.57 256.166 1366.4 252.005L1367.06 251.007L1383.55 261.926ZM1067.54 61.535C1068.76 64.146 1069.28 66.8059 1071.72 68.3976C1073.03 69.2493 1072.02 70.492 1070.82 70.4431C1067.81 70.3167 1064.87 69.4998 1062.23 68.0555C1061.6 67.7344 1061.25 66.5127 1062.15 66.5476C1065.51 66.6732 1066 63.8528 1067.54 61.535ZM1207.97 59.6361C1205.27 58.4912 1202.93 57.6115 1200.35 57.9396C1199.75 58.0164 1198.49 57.9397 1198.9 57.1019C1199.95 55.0954 1201.17 53.1805 1202.55 51.3772C1202.92 50.8537 1203.62 51.105 1203.94 51.7193C1205.21 54.1488 1207.58 56.0547 1207.97 59.6361ZM1285.46 229.204C1285.6 230.084 1285.39 230.95 1284.49 230.51C1282.59 229.581 1279.05 230.789 1278.98 227.969C1278.98 226.572 1277.67 223.228 1280.89 222.537C1282.86 222.111 1285.3 225.888 1285.46 229.204ZM1213.86 52.578C1213.81 53.6182 1213.78 54.6724 1212.59 55.1611C1212.2 55.3019 1211.78 55.296 1211.39 55.1443C1211 54.9927 1210.69 54.7058 1210.5 54.3373C1208.98 52.1772 1207.79 49.8032 1206.97 47.2932C1206.62 46.0854 1207.3 44.8707 1208.56 45.7852C1210.95 47.4607 1213.61 49.1363 1213.86 52.5571V52.578ZM1253.37 213.217C1251.79 213.971 1254.22 217.294 1251.11 217.148C1249.01 217.043 1246.35 215.751 1246.33 213.657C1246.33 212.463 1248.67 210.369 1250.64 209.985C1252.43 209.601 1253.06 211.283 1253.37 213.196V213.217ZM1225.08 96.4274C1223.29 96.0505 1220.73 96.5741 1220.54 93.9002C1220.42 92.2387 1222.14 91.359 1223.78 91.5266C1225.98 91.743 1228.59 92.2736 1228.78 94.8078C1228.87 96.3646 1226.58 96.3367 1225.08 96.4274ZM1342.15 253.073C1338.49 252.682 1335.92 250.469 1333.29 248.473C1332.59 247.949 1333.25 246.867 1333.96 247.223C1336.93 248.717 1340.41 249.024 1343.09 251.147C1343.54 251.503 1344 252.103 1343.57 252.606C1343.28 252.955 1342.57 252.948 1342.15 253.073ZM1222.82 64.4741C1224.41 68.1602 1225.61 70.9667 1226.82 73.8011C1227.13 74.5481 1227.3 75.4487 1226.35 75.8955C1225.39 76.3423 1224.83 75.6511 1224.44 74.9111C1222.88 71.9581 1221.68 68.9352 1222.82 64.4741ZM1321.95 166.401C1320.96 165.479 1318.32 166.659 1318.57 164.027C1318.68 162.819 1318.71 160.962 1320.79 161.172C1322.46 161.332 1324.1 161.744 1323.87 164.034C1323.76 165.151 1323.82 166.436 1321.95 166.38V166.401ZM1326.96 167.029C1327.62 168.474 1326.67 169.724 1326.47 171.022C1326.3 172.118 1325.77 173.48 1324.43 173.466C1322.88 173.466 1322.13 171.825 1321.68 170.743C1320.98 169.117 1322.86 169.158 1323.77 168.886C1325.03 168.516 1325.48 166.931 1326.96 167.008V167.029ZM1273.11 226.754C1272.14 226.147 1270.31 226.391 1270.31 224.492C1270.31 222.74 1271.58 221.811 1273.27 221.902C1274.02 221.9 1274.75 222.181 1275.32 222.69C1275.88 223.199 1276.23 223.899 1276.3 224.653C1276.41 226.461 1274.58 226.37 1273.11 226.754ZM1196.19 31.7529C1192.21 31.5016 1189.39 29.3374 1187.15 26.2028C1190.61 27.201 1193.73 29.1193 1196.19 31.7529ZM1291.13 225.309C1292.61 225.393 1293.5 226.063 1293.23 227.487C1293.02 228.681 1292.81 230.238 1291.06 230.063C1289.7 229.93 1288.54 229.016 1288.6 227.613C1288.65 226.209 1289.79 225.469 1291.11 225.309H1291.13ZM1088.55 72.9145C1086.26 73.5149 1084.44 74.2479 1082.45 73.9966C1082.01 73.9781 1081.6 73.8161 1081.26 73.5358C1080.91 73.11 1081.26 72.6003 1081.68 72.4328C1083.82 71.5462 1086.02 70.2058 1088.55 72.9145ZM1311.41 187.784C1312.47 188.483 1311.83 190.375 1313.07 191.219C1313.56 191.554 1314.47 192.008 1313.67 192.797C1313.07 193.397 1312.37 193.013 1311.85 192.483C1310.86 191.471 1310.05 190.34 1310.08 188.839C1310.09 188.189 1310.37 187.736 1311.41 187.784ZM1326.46 231.473C1326.51 232.067 1326.42 232.723 1325.91 232.59C1324.57 232.241 1323.71 231.103 1322.92 230.077C1322.56 229.616 1323.34 229.002 1323.91 229.121C1324.5 229.268 1325.04 229.561 1325.49 229.972C1325.93 230.383 1326.27 230.899 1326.46 231.473ZM1146.97 98.1309C1145.32 98.1309 1144.06 98.9407 1143.12 97.6143C1143.09 97.4598 1143.1 97.3004 1143.14 97.1506C1143.19 97.0007 1143.27 96.865 1143.39 96.7556C1144.7 96.0365 1145.73 96.5461 1146.97 98.1309ZM1061.59 62.0795C1061.22 61.9459 1060.9 61.7068 1060.67 61.3924C1060.44 61.078 1060.31 60.7024 1060.3 60.3133C1060.19 59.7059 1060.7 59.5244 1061.16 59.6151C1061.55 59.6659 1061.91 59.8681 1062.16 60.1792C1062.41 60.4903 1062.53 60.8862 1062.5 61.2837C1062.48 61.8282 1062.11 62.0376 1061.59 62.0795Z" fill="white"/>
</g>
<g opacity="0.2">
<path d="M1056.75 757.983C1057.68 758.746 1058.35 759.78 1058.67 760.943C1059 762.105 1058.95 763.339 1058.54 764.473C1056.67 770.145 1058.92 775.062 1061.24 779.834C1063.78 785.074 1065.28 790.316 1063.69 796.096C1063.51 796.728 1063.42 797.672 1062.75 797.785C1061.94 797.914 1061.84 796.881 1061.54 796.347C1056.04 786.347 1049.83 776.823 1042.47 768.078C1036.04 760.448 1028.65 753.941 1019.79 749.184C1019 748.762 1018.48 748.863 1017.76 749.25C1012.97 751.871 1010.32 756.196 1008.23 761.017C1005.7 766.831 1005.71 772.902 1006.3 779.023C1006.86 785.004 1008.08 790.821 1011.36 796.006C1012.96 798.518 1015.24 800.319 1017.59 802.074C1018.59 802.828 1018.9 802.02 1019.27 801.445C1020.8 799.078 1021.11 796.361 1021.27 793.665C1021.37 791.835 1021.25 790.004 1021.22 787.747C1023.25 789.635 1024.3 791.679 1025.2 793.809C1027.21 798.547 1027.3 803.593 1027.42 808.61C1027.42 809.245 1027.56 809.872 1027.85 810.44C1028.14 811.007 1028.55 811.498 1029.06 811.873C1036.82 818.269 1043.46 825.915 1048.7 834.497C1054.18 843.475 1055.82 853.432 1056.38 863.686C1056.43 864.561 1056.48 865.436 1056.54 866.314C1055.15 869.042 1054.76 871.992 1054.21 875.222C1055.89 874.455 1055.48 872.364 1057.15 872.157C1057.71 873.539 1057.86 875.056 1057.58 876.522C1056.7 882.445 1055.69 888.329 1052.57 893.58C1049.39 898.915 1045.17 903.087 1039.17 905.157C1037.94 905.575 1037.17 906.516 1036.29 907.348C1029.68 913.595 1022.46 918.93 1013.71 921.837C1002.87 925.489 992.204 925.483 981.765 920.148C980.002 919.25 979.239 918.055 979.124 916.075C978.723 907.475 982.193 900.714 988.708 895.324C992.922 891.895 997.709 889.239 1002.85 887.477C1004.41 886.923 1004.43 886.36 1003.89 884.92C998.515 870.661 998.189 856.207 1002.7 841.648C1002.99 840.817 1003.34 840.009 1003.75 839.229C1003.99 838.85 1004.28 838.494 1004.59 838.166C1005.02 840.704 1005.33 842.953 1005.79 845.141C1007.5 854.166 1011.2 862.698 1016.61 870.116C1017.48 871.296 1017.69 872.295 1017.11 873.629C1016.19 875.755 1015.42 877.945 1014.81 880.182C1016.24 879.042 1017.21 877.46 1018.65 876.374C1020.95 874.642 1022.97 872.437 1024.1 869.902C1028.93 859.041 1031.27 848.031 1025.16 836.703C1021.95 830.756 1017.95 825.444 1013.61 820.311C1012.85 819.422 1011.99 819.162 1010.78 819.133C1001.79 818.891 994.286 815.68 989.196 807.906C988.18 806.347 987.539 804.655 987.99 802.49C989.505 803.532 990.876 804.569 992.331 805.458C995.767 807.554 999.419 808.827 1003.54 808.313C1005.17 808.111 1005.67 807.597 1004.85 805.975C1001.82 799.981 999.084 793.896 997.317 787.354C995.016 778.823 996.082 770.789 999.37 762.732C1002.62 754.784 1006.84 747.397 1011.25 740.087C1012.06 738.774 1012.48 737.252 1012.45 735.705C1012.42 723.877 1015.07 712.847 1022.71 703.435C1027.59 697.379 1034.09 692.822 1041.45 690.285C1041.63 690.929 1041.26 691.287 1041.01 691.613C1037.11 696.547 1035.92 702.471 1034.91 708.432C1034.58 710.491 1035.35 712.295 1036.19 714.085C1037.44 716.647 1038.34 719.367 1038.86 722.171C1039.24 724.336 1040.46 726.741 1037.11 727.708C1036.47 726.568 1038.62 726.066 1037.73 724.813C1037.15 723.978 1037.25 722.991 1037.62 722.076C1037.85 721.458 1037.87 720.93 1037.34 720.413C1036.17 719.241 1034.99 718.063 1034.39 716.207C1033.72 717.266 1033.8 718.181 1033.82 718.996C1033.94 724.648 1035.9 730.309 1033.46 735.921C1033.21 736.502 1033.6 736.987 1034.12 737.252C1034.64 737.518 1035.2 737.879 1035.58 737.743C1036.31 737.486 1035.69 736.825 1035.7 736.331C1035.71 735.107 1035.7 733.58 1036.93 733.153C1038.99 732.443 1038.52 731.409 1037.79 730.104C1037.45 729.598 1037.26 728.999 1037.27 728.387C1038.11 729.273 1039 730.119 1039.77 731.037C1040.71 732.168 1040.7 733.121 1039.23 733.964C1036.72 735.419 1036.7 735.921 1038.6 738.17C1040.98 740.988 1044.15 742.836 1046.9 745.2C1048.39 746.479 1049.85 747.778 1051.22 749.181C1051.8 749.758 1052.42 750.466 1052.39 751.251C1052.26 754.146 1054.19 755.746 1056.03 757.42C1055.08 757.709 1054.76 756.104 1053.74 756.623C1056.28 760.376 1056.4 764.409 1055.17 768.592C1054.87 769.637 1054.54 770.593 1055.03 771.727C1057.62 777.663 1060.25 783.572 1060.58 790.221C1060.63 791.003 1060.84 791.767 1061.19 792.468C1061.54 793.169 1062.03 793.793 1062.62 794.306C1062.96 790.775 1062.86 787.608 1061.83 784.641C1060.32 780.293 1058.48 776.055 1056.71 771.803C1056.25 770.592 1056.2 769.266 1056.56 768.024C1057.03 766 1057.52 764.031 1057.05 761.909C1056.77 760.653 1056.84 759.302 1056.75 757.983ZM1006.34 853.112L1005.78 853.172C1006 855.13 1004.52 857.318 1007.11 858.917C1008.24 859.619 1008.23 860.846 1007.8 862.029C1007.49 862.878 1006.86 863.49 1006.31 864.18C1005.28 865.499 1004.11 866.842 1004.8 868.756C1005.11 869.602 1005.39 870.554 1006.31 869.114C1006.93 868.126 1007.92 867.999 1008.98 868.124C1011.33 868.398 1013.09 870.026 1013.43 872.223C1013.81 874.688 1012.21 877.743 1010.12 878.54C1007.61 879.498 1007.61 879.818 1009.57 881.663C1010.69 882.717 1011.65 883.976 1011.84 885.624C1011.9 886.175 1012.1 886.77 1012.8 886.715C1013.49 886.66 1013.37 886.138 1013.32 885.615C1013.22 884.94 1013.38 884.296 1014.26 884.573C1014.94 884.784 1015.76 885.055 1015.43 886.118C1015.26 886.634 1015.13 887.203 1014.64 887.506C1012.54 888.814 1013.38 890.503 1014.33 891.86C1015.05 892.876 1015.72 894.617 1017.03 894.481C1017.87 894.394 1017.38 892.495 1017.85 891.502C1017.88 891.444 1017.85 891.363 1017.87 891.3C1019.06 886.213 1023.18 884.674 1027.37 887.731C1027.92 888.136 1028.5 888.436 1028.66 889.192C1028.93 890.517 1027.76 893.118 1026.55 893.739C1024.87 894.593 1023.31 894.917 1021.89 893.124C1021.28 892.35 1021.26 891.834 1021.88 891.225C1022.64 890.471 1022.99 891.028 1023.4 891.689C1024.19 892.988 1025.05 892.954 1025.87 891.672C1026.35 890.907 1026.82 890.107 1026.19 889.238C1025.93 888.847 1025.55 888.539 1025.12 888.352C1024.69 888.164 1024.21 888.104 1023.74 888.179C1020.57 888.511 1018.98 891.395 1019.38 894.354C1019.65 896.357 1020.23 898.67 1022.35 899.588C1024.24 900.34 1026.32 900.45 1028.28 899.9C1030.79 899.23 1033.17 898.263 1035.85 898.043C1038.9 897.795 1041.31 895.766 1043.36 893.632C1045.02 892.009 1046.16 889.927 1046.62 887.653C1046.26 887.84 1045.91 888.063 1045.59 888.32C1043.18 891.216 1039.72 892.117 1036.41 890.48C1033.28 888.938 1031.42 886.458 1031.42 882.801C1031.42 880.491 1028.35 877.024 1026.54 877.492C1023.35 878.314 1020.15 879.302 1017.98 882.047C1017.17 883.078 1017.36 885.07 1014.9 883.427C1013.33 882.376 1012.23 882.015 1012.87 880.02C1013.5 878.095 1014.22 876.172 1015.54 874.599C1016.9 872.965 1016.56 871.366 1015.23 870.069C1012.46 867.382 1010.66 864.169 1009.34 860.6C1008.41 858.095 1007.34 855.612 1006.34 853.112ZM1020.18 710.407C1019.02 711.091 1018.78 712.379 1018.24 713.392C1016.11 717.252 1014.62 721.354 1014.57 725.84C1014.55 729.911 1015.11 733.967 1013.59 737.957C1013.04 739.547 1012.36 741.091 1011.57 742.573C1011.28 743.061 1010.93 743.664 1011.28 744.071C1011.81 744.7 1012.34 743.921 1012.88 743.823C1013.97 743.621 1014.04 742.426 1014.86 741.897C1016.88 740.601 1018.23 738.863 1018.2 736.251C1018.26 735.103 1018.49 733.971 1018.89 732.893C1019.97 729.437 1023.62 728.161 1026.36 730.116C1027.62 731.019 1027.22 732.137 1026.94 733.214C1026.8 733.816 1026.47 734.356 1025.99 734.746C1025.51 735.136 1024.92 735.354 1024.3 735.364C1022.91 735.468 1022.75 734.313 1022.47 733.338C1022.33 732.896 1022.52 732.298 1021.84 732.238C1021.16 732.177 1020.93 732.636 1020.66 733.164C1019.83 734.801 1020.19 736.62 1019.8 738.323C1019.72 738.676 1019.46 739.172 1019.88 739.455C1020.29 739.738 1020.75 739.331 1021.18 739.192C1024.02 738.297 1026.6 736.525 1029.8 736.839C1030.14 736.857 1030.48 736.774 1030.78 736.601C1031.07 736.428 1031.31 736.171 1031.46 735.864C1032.82 733.638 1033.17 731.126 1032.92 728.632C1032.49 724.123 1031.88 719.66 1032.34 715.098C1032.48 713.739 1033.47 712.122 1032.03 710.592C1031.23 711.839 1031.04 713.193 1030.48 714.379C1028.32 718.921 1024.9 722.503 1021.76 726.302C1021.16 727.041 1020.18 727.607 1019.24 727.206C1018.3 726.805 1018.35 725.786 1018.47 724.899C1018.56 724.509 1018.6 724.105 1018.56 723.704C1017.58 719.593 1018.43 715.751 1020.16 712.015C1020.3 711.774 1020.39 711.497 1020.39 711.214C1020.39 710.931 1020.32 710.652 1020.18 710.407ZM993.195 918.107C994.401 919.341 995.902 920.247 997.557 920.737C999.179 921.205 1001.74 919.9 1001.62 918.673C1001.35 916.01 1001.25 913.332 1001.34 910.656C1001.63 903.569 1002.09 896.548 1006.07 890.338C1006.45 889.732 1006.28 889.169 1006.05 888.589C1005.83 888.089 1005.43 888.173 1005.02 888.3C1001 889.556 997.412 891.516 994.817 894.949C993.98 896.057 994.009 896.912 995.55 897.581C1000.98 899.946 1001.31 904.493 1000.2 908.627C999.733 910.379 998.252 911.075 996.575 911.28C995.38 911.43 994.468 910.76 993.925 909.813C993.285 908.696 992.772 907.511 992.395 906.28C991.948 904.804 993.047 902.977 994.332 902.789C995.144 902.712 995.955 902.949 996.598 903.451C997.24 903.953 997.666 904.682 997.788 905.489C997.811 905.658 997.801 905.831 997.757 905.996C997.713 906.162 997.637 906.317 997.533 906.453C997.428 906.589 997.298 906.703 997.15 906.788C997.001 906.873 996.837 906.928 996.668 906.949C995.776 907.172 995.666 906.525 995.787 905.838C995.908 905.151 995.588 904.715 994.985 904.695C994.202 904.675 993.931 905.373 994.035 905.979C994.194 907.05 994.528 908.084 995.441 908.823C996.353 909.562 997.052 909.735 997.886 908.503C999.875 905.555 998.859 900.965 995.553 899.622C994.121 899.045 992.282 898.367 990.862 899.781C989.372 901.271 988.535 903.015 989.228 905.284C989.748 906.998 990.715 908.462 991.422 910.064C991.956 911.262 992.47 912.44 991.916 913.762C991.145 915.526 991.719 916.892 993.189 918.101L993.195 918.107ZM1040.42 752.279C1039.59 750.183 1039.1 748.237 1038.1 746.586C1037.11 744.934 1035.54 743.551 1034.33 741.972C1032.47 739.536 1028.54 738.266 1025.68 739.316C1022.08 740.607 1018.61 742.14 1015.5 744.426C1014.19 745.385 1014.78 746.597 1015.14 747.532C1015.52 748.56 1016.39 747.772 1017.02 747.504C1018.1 747.05 1019.1 746.58 1020.22 747.57C1020.93 748.091 1021.69 748.52 1022.51 748.849C1028.46 751.871 1033.14 756.56 1038.22 760.734C1039.34 761.652 1039.99 763.266 1041.88 763.523C1041.54 761.768 1040.5 760.382 1040.71 758.578C1040.89 756.921 1039.77 755.474 1039.02 753.777C1038.35 754.709 1038.87 755.541 1038.65 756.288C1038.43 757.036 1038.2 757.743 1037.29 757.816C1036.57 757.909 1035.84 757.761 1035.22 757.396C1034.59 757.03 1034.11 756.467 1033.84 755.795C1033.27 754.458 1033.03 752.931 1034.14 751.641C1035.25 750.35 1036.65 750.468 1038.02 751.158C1038.71 751.522 1039.32 752.071 1040.42 752.267L1040.42 752.279ZM1032.4 876.686C1033.71 878.171 1035.47 879.176 1037.42 879.541C1038.88 879.85 1040.06 879.293 1040.68 877.838C1040.86 877.399 1041.07 876.926 1040.68 876.507C1040.29 876.089 1039.81 876.34 1039.39 876.568C1038.24 877.194 1037.17 877.275 1036.4 876.016C1035.87 875.142 1035.25 874.068 1036.09 873.21C1036.99 872.318 1038.26 871.429 1039.53 872.082C1040.92 872.797 1042.65 873.617 1042.75 875.43C1042.85 877.243 1042.95 879.149 1041.18 880.404C1040.87 880.621 1040.31 880.693 1040.52 881.247C1040.68 881.715 1041.15 881.663 1041.54 881.75C1044.1 882.287 1046.22 881.08 1047.99 879.637C1048.74 879.016 1050.32 878.776 1050.25 877.333C1050.16 874.987 1050.29 872.638 1050.65 870.318C1050.71 869.888 1050.95 869.299 1050.42 869.027C1049.9 868.756 1049.54 869.27 1049.23 869.573C1047.82 870.99 1046.25 870.826 1044.88 869.671C1043.79 868.756 1042.66 867.855 1041.8 866.622C1040.55 864.838 1039.09 863.121 1037.06 862.055C1035.17 861.062 1032.67 861.227 1031.63 862.486C1028.57 866.195 1029.12 873.542 1032.4 876.686ZM1007.6 891.926C1004.59 896.173 1003.73 900.979 1003.24 905.766C1002.68 911.176 1005.53 913.168 1009.35 913.93C1011.59 914.32 1013.87 914.527 1016.15 914.551C1017.35 914.594 1018.54 913.979 1019.49 913.24C1020.8 912.235 1020.6 910.526 1019.15 909.718C1017.81 908.953 1016.34 908.376 1014.96 907.665C1013.06 906.681 1011.6 905.385 1010.87 903.214C1009.6 899.504 1007.48 896.06 1007.6 891.926ZM1054.17 763.064C1051.39 765.847 1049.15 765.492 1047.53 762.198C1047.27 761.648 1047.05 761.079 1046.89 760.495C1045.81 756.95 1045.92 752.943 1042.82 750.186C1042.49 749.894 1042.35 749.224 1041.78 749.467C1041.2 749.709 1041.53 750.289 1041.62 750.717C1042.17 753.472 1042.58 756.255 1042.83 759.054C1043.09 761.346 1043.23 763.705 1044.32 765.928C1045.03 767.383 1046.57 768.11 1046.99 769.681C1047.73 772.415 1049.9 774.239 1051.42 776.471C1052.71 778.338 1054.15 780.163 1055.11 782.201C1055.9 783.878 1057.29 784.99 1058.26 786.508C1058.14 785.232 1057.72 784.04 1057.48 782.813C1056.79 779.087 1055.41 775.523 1053.41 772.305C1052.75 771.24 1052.47 770.443 1052.98 769.389C1053.9 767.412 1054.31 765.239 1054.17 763.064ZM1043.5 896.863C1042.36 897.008 1041.31 897.563 1040.55 898.424C1039.45 899.521 1038.08 900.35 1036.58 900.237C1033.54 900.001 1030.81 900.76 1027.98 901.776C1025.55 902.654 1022.18 902.582 1020.74 900.881C1018.03 897.703 1013.68 895.95 1012.38 891.545C1012.25 891.103 1011.97 890.589 1011.35 890.918C1010.83 891.199 1010.92 891.695 1011.1 892.169C1011.46 893.113 1011.83 894.059 1012.18 895.021C1014.8 902.212 1020.15 906.104 1027.51 907.515C1029.96 907.989 1032.33 907.397 1034.56 906.568C1035.68 906.158 1036.52 904.963 1037.42 904.062C1039.62 901.809 1041.65 899.403 1043.5 896.863ZM1010.41 898.107C1011.62 900.471 1011.98 902.567 1013.64 904.319C1015.15 905.936 1016.93 906.612 1018.78 907.299C1021.88 908.445 1023.75 912.905 1020 915.474C1018.64 916.418 1016.84 916.534 1015.36 916.401C1011.17 916.014 1006.64 916.534 1002.99 912.42C1003.31 914.409 1002.83 915.682 1003.38 917.013C1003.83 918.13 1003.95 919.38 1004.68 920.402C1005.77 921.95 1007.13 920.682 1008.21 920.529C1011.39 920.091 1014.74 919.738 1017.61 918.431C1021.66 916.577 1025.7 914.53 1029.29 911.756C1029.97 911.228 1030.83 910.694 1030.61 909.92C1030.4 909.146 1029.33 909.473 1028.65 909.412C1021.78 908.823 1016.36 905.852 1012.68 899.92C1012.46 899.471 1012.13 899.077 1011.74 898.764C1011.35 898.452 1010.89 898.227 1010.41 898.107ZM1006.81 805.787C1006.75 806.185 1006.78 806.591 1006.89 806.978C1007 807.365 1007.2 807.724 1007.46 808.03C1008.99 810.143 1010.65 812.251 1011.86 814.503C1013.48 817.499 1015.75 820.011 1017.78 822.505C1021.34 826.867 1024.11 831.642 1027.02 836.362C1028.04 838.005 1028.5 839.997 1029.22 841.824C1029.36 842.179 1029.4 842.731 1029.95 842.618C1030.05 842.588 1030.14 842.538 1030.22 842.472C1030.3 842.406 1030.37 842.325 1030.41 842.233C1030.46 842.141 1030.49 842.041 1030.5 841.937C1030.51 841.834 1030.5 841.73 1030.47 841.631C1030.07 839.95 1030.55 838.432 1031.2 836.922C1031.48 836.261 1031.35 835.88 1030.54 835.577C1027.39 834.393 1025 832.459 1023.69 829.145C1022.79 826.844 1023.03 824.67 1023.37 822.415C1023.5 821.532 1023.8 820.721 1022.82 820.077C1020.46 818.515 1018.52 816.443 1016.42 814.572C1013.3 811.783 1010.22 808.905 1006.81 805.787ZM1033.64 846.382C1034.04 849.974 1036.24 852.185 1039 854.01C1040.91 855.274 1042.64 854.321 1044.06 853.297C1045.34 852.361 1045.6 850.687 1045.25 849.056C1045.07 848.546 1044.96 848.016 1044.91 847.479C1045.03 844.05 1043.83 841.336 1040.79 839.572C1040.35 839.318 1040.2 838.859 1039.95 838.461C1038.11 835.606 1035.51 834.719 1033.66 836.293C1032.1 837.621 1031.59 841.726 1032.81 843.781C1033.04 842.738 1033.33 841.709 1033.68 840.701C1033.82 840.298 1034.05 839.931 1034.34 839.624C1034.64 839.317 1035 839.078 1035.4 838.924C1035.8 838.769 1036.22 838.703 1036.65 838.729C1037.07 838.755 1037.49 838.874 1037.87 839.076C1042.01 841.177 1042.9 847.422 1041.89 850.808C1041.68 851.507 1041.13 852.298 1040.23 851.668C1037.94 850.049 1034.31 850.141 1033.64 846.382ZM991.399 806.835C993.896 813.316 1002.62 817.831 1010.46 817.112C1009.71 814.662 1008.46 812.393 1006.79 810.449C1006.11 809.667 1005.73 809.557 1004.83 809.78C1002.27 810.409 999.664 810.666 997.153 809.569C995.311 808.766 993.524 807.851 991.399 806.835ZM1044.38 866.825C1045.2 867.601 1045.83 868.845 1047.2 868.427C1048.85 867.93 1050.39 866.998 1050.77 865.222C1051.29 862.852 1050.2 859.711 1048.6 859.131C1045.31 857.936 1041.92 857.647 1038.54 858.88C1037.57 859.229 1037.32 859.974 1038.2 860.502C1040.81 862.093 1042.43 864.616 1044.38 866.825ZM1009.9 875.061C1009.05 875.806 1008.16 876.106 1007.21 875.58C1006.22 875.065 1005.36 874.337 1004.69 873.449C1004.02 872.561 1003.55 871.535 1003.33 870.445C1002.62 866.747 1002.44 862.887 1003.36 859.235C1004.15 856.094 1004.01 853.129 1003.42 850.055C1003.32 849.578 1003.32 848.995 1002.68 849.059C1002.17 849.122 1002.3 849.685 1002.22 850.063C1001.59 853.439 1001.24 856.861 1001.16 860.294C1001.12 862.644 1001.01 864.977 1001.09 867.315C1001.19 869.867 1002.26 872.275 1002.35 874.847C1002.4 876.227 1002.96 877.148 1004.6 877.096C1005.73 877.07 1006.87 877.298 1008.01 877.379C1009.33 877.471 1010.32 877.082 1010.95 875.742C1011.42 874.615 1011.66 873.407 1011.67 872.185C1011.73 871.088 1010.82 870.456 1009.89 870.251C1008.96 870.046 1007.97 869.965 1007.25 870.837C1007.1 870.983 1007.01 871.172 1006.99 871.376C1006.96 871.579 1007 871.786 1007.1 871.963C1007.37 872.414 1007.74 872.39 1008.13 872.09C1009.04 871.371 1009.81 871.649 1010.35 872.523C1010.95 873.502 1010.37 874.328 1009.89 875.064L1009.9 875.061ZM1024.73 819.139C1024.62 818.455 1024.52 818.074 1024.47 817.664C1023.92 811.8 1022.55 810.25 1016.84 809.055C1016.34 808.982 1015.87 808.762 1015.49 808.423C1015.12 808.085 1014.85 807.643 1014.73 807.153C1014.15 805.42 1013.33 803.781 1012.75 802.054C1012.59 801.513 1012.29 801.023 1011.88 800.629C1011.48 800.235 1010.98 799.95 1010.44 799.803C1010.56 801.529 1010.52 803.125 1009.52 804.514C1008.93 805.342 1009.4 805.923 1010 806.419C1013.89 809.655 1017.59 813.094 1021.24 816.601C1022.25 817.639 1023.43 818.499 1024.72 819.142L1024.73 819.139ZM1043.44 830.072C1042.83 831.472 1042.22 832.895 1040.71 833.784C1039.83 834.304 1039.85 835.083 1040.78 835.917C1041.96 836.991 1043.02 838.198 1043.93 839.515C1045.89 842.252 1047.43 845.265 1048.5 848.455C1048.61 848.799 1052.83 849.751 1053.05 849.474C1053.13 849.374 1053.19 849.257 1053.23 849.133C1053.27 849.008 1053.28 848.877 1053.27 848.747C1052.93 847.312 1052.7 845.814 1051.1 845.104C1047.41 843.467 1046.13 840.08 1045.95 836.57C1045.81 833.989 1045.79 831.74 1043.43 830.074L1043.44 830.072ZM1044.88 886.64C1045.39 885.82 1046.04 884.804 1046.67 883.773C1046.89 883.418 1047.1 882.997 1046.81 882.653C1046.47 882.243 1046.05 882.593 1045.73 882.78C1043.07 884.319 1040.48 883.693 1037.89 882.596C1036.71 882.096 1035.54 881.574 1034.36 881.097C1033.78 880.866 1032.91 880.708 1033.03 881.605C1033.38 884.143 1033.95 886.637 1036.15 888.297C1038.3 889.934 1041.58 890.05 1044.88 886.64ZM1031.11 825.874L1031.2 825.782C1032.41 826.994 1033.59 828.241 1034.85 829.399C1035.38 829.881 1036.21 830.06 1036.56 829.22C1037.1 827.875 1038.3 827.398 1039.39 826.763C1040.01 826.399 1040.43 826.073 1039.81 825.386C1037.96 823.388 1035.92 821.769 1033.28 820.77C1032.52 820.443 1031.69 820.289 1030.86 820.32C1030.03 820.352 1029.21 820.568 1028.48 820.952C1027.38 821.469 1027.19 822.023 1028.12 822.903C1029.15 823.865 1030.12 824.881 1031.11 825.874ZM1025.57 719.056C1027.82 715.445 1030.16 712.157 1030.41 707.927C1030.52 706.002 1028.65 704.573 1026.93 705.332C1024.57 706.368 1021.56 711.432 1021.67 714.235C1021.99 714.094 1022.29 713.944 1022.6 713.828C1023.45 713.516 1024.35 712.725 1025.22 713.56C1025.96 714.27 1025.82 715.24 1025.65 716.227C1025.52 717.038 1024.81 717.829 1025.57 719.056ZM982.822 911.926C981.335 914.481 981.442 917.175 983.076 918.324C986.016 920.385 989.481 921.571 993.068 921.745C993.233 921.782 993.407 921.769 993.565 921.707C993.723 921.644 993.858 921.536 993.954 921.395C994.245 920.838 993.723 920.749 993.405 920.535C992.019 919.699 990.958 918.417 990.397 916.898C989.906 915.5 989.465 914.297 990.282 912.862C990.865 911.846 990.135 910.913 989.609 910.07C989.576 910.01 989.53 909.958 989.474 909.918C989.418 909.878 989.354 909.85 989.286 909.838C989.219 909.826 989.149 909.828 989.083 909.846C989.016 909.864 988.954 909.896 988.902 909.94C988.252 910.59 988.859 911.346 988.798 912.059C988.674 913.454 988.065 914.623 986.835 915.177C985.712 915.676 984.84 914.73 983.968 914.112C983.278 913.63 983.027 912.882 982.828 911.932L982.822 911.926ZM1000.8 787.842C1000.4 787.299 1000.26 786.517 999.546 786.944C998.83 787.372 999.251 787.984 999.445 788.575C1000.93 793.051 1003 797.305 1005.63 801.223C1006.19 802.037 1007.19 803.789 1008.09 803.249C1009.08 802.663 1008.99 800.891 1008.6 799.528C1007.2 794.748 1004.91 790.588 1000.8 787.842ZM1034.59 819.018C1032.36 817.265 1030.79 814.924 1028.65 813.253C1025 810.4 1021.52 807.363 1018.08 804.263C1017.58 803.818 1017.02 803.439 1016.42 803.134C1015.97 802.894 1015.68 802.943 1015.57 803.521C1015.46 803.963 1015.46 804.422 1015.54 804.868C1015.63 805.313 1015.82 805.734 1016.08 806.104C1016.34 806.473 1016.68 806.781 1017.08 807.009C1017.47 807.236 1017.91 807.376 1018.36 807.421C1021.3 807.819 1023.37 809.269 1024.56 811.962C1025.13 813.261 1025.64 814.589 1026.13 815.926C1026.81 817.762 1027.61 818.564 1029.45 818.437C1031.19 818.352 1032.92 818.548 1034.59 819.018ZM1041.62 902.221C1048.24 900.338 1055.93 885.936 1055.59 878.932C1051.56 886.923 1047.56 894.928 1041.62 902.221ZM1027.42 831.272C1028.81 834.139 1031.51 833.53 1033.91 833.518C1034.91 833.518 1035.24 833.172 1034.48 832.023C1032.37 828.827 1029.12 826.766 1026.73 823.87C1026.38 823.44 1025.91 823.111 1025.32 823.423C1024.73 823.735 1024.69 824.318 1024.75 824.843C1025.02 827.239 1024.84 829.803 1027.42 831.272ZM1051.33 754.865C1052.37 751.421 1050.14 750.027 1048.05 748.159C1044.59 745.067 1039.95 744.036 1036.48 740.278C1036.49 741.741 1037.19 742.021 1037.63 742.457C1040.91 745.737 1044.84 748.474 1046.53 753.09C1046.59 753.289 1046.7 753.467 1046.86 753.599C1047.02 753.73 1047.22 753.81 1047.43 753.826C1048.86 753.84 1050.12 754.588 1051.33 754.865ZM1022.77 793.382C1022.84 796.381 1022.03 799.334 1020.46 801.887C1019.96 802.715 1019.72 803.587 1020.52 804.257C1021.99 805.519 1023.56 806.676 1025.12 807.845C1025.93 808.46 1026.18 808.195 1026.34 807.199C1026.58 805.634 1026.21 804.118 1026.04 802.643C1025.62 799.39 1024.21 796.393 1022.77 793.382ZM1031.28 845.265C1030.81 848.005 1031.39 850.693 1030.81 853.366C1030.53 854.671 1030.61 856.051 1030.43 857.384C1030.31 858.276 1030.35 858.539 1031.47 858.652C1033.87 858.906 1035.78 857.806 1037.82 857C1038.94 856.562 1039.05 856.204 1037.95 855.444C1035.55 853.796 1033.41 851.899 1032.65 848.897C1032.26 847.661 1031.8 846.448 1031.28 845.265ZM1038.53 841.974C1037.66 841.108 1036.87 839.867 1035.79 841.085C1034.52 842.505 1034.79 844.39 1035.27 846.059C1035.74 847.728 1037.23 848.4 1038.74 848.81C1038.92 848.871 1039.11 848.885 1039.3 848.853C1039.49 848.82 1039.67 848.741 1039.82 848.623C1039.97 848.505 1040.09 848.352 1040.17 848.176C1040.25 848.001 1040.28 847.809 1040.27 847.618C1040.06 845.583 1040.34 843.343 1038.53 841.974ZM1004.28 780.662C1002.98 781.15 1001.82 781.511 1000.73 782.019C999.638 782.527 999.277 783.679 1000.15 784.467C1002.57 786.664 1004.77 789.086 1007.24 791.338C1005.53 787.975 1005.26 784.251 1004.28 780.662ZM1027.7 866.016C1026.06 869.501 1023.95 872.722 1022.07 876.268C1024.37 876.161 1026.29 875.575 1028.27 875.78C1028.95 875.849 1029.09 875.445 1028.83 874.882C1027.55 872.084 1027.43 869.18 1027.7 866.016ZM1031.43 704.893C1031.55 703.173 1031.67 701.839 1031.73 700.502C1031.77 699.604 1032.68 698.444 1031.83 697.881C1030.83 697.223 1030.34 698.669 1029.59 699.14C1029.23 699.321 1028.89 699.544 1028.58 699.804C1027.05 701.337 1024.84 702.263 1024.12 704.708C1026.57 702.676 1028.93 702.921 1031.43 704.893ZM1007.89 882.33C1006.99 881.652 1006.11 880.936 1005.18 880.309C1004.83 880.078 1004.38 879.602 1003.93 880.093C1003.64 880.425 1003.87 880.846 1004.06 881.216C1005.12 883.314 1006.11 885.442 1007.24 887.503C1007.78 888.499 1008.75 888.436 1009.72 888.086C1010.83 887.682 1010.63 886.923 1010.33 886.118C1009.79 884.68 1009.24 883.251 1007.89 882.33ZM1002.78 757.645C1002.17 759.481 1001.58 761.231 1001.01 762.989C1000.89 763.35 1001.03 763.745 1001.42 763.739C1004.45 763.803 1005.26 765.093 1003.76 767.79C1003.66 767.975 1003.76 768.324 1003.86 768.561C1003.92 768.719 1004.04 768.851 1004.19 768.935C1004.34 769.019 1004.51 769.05 1004.68 769.022C1004.76 769.028 1004.85 769.016 1004.93 768.986C1005.01 768.956 1005.08 768.909 1005.14 768.849C1005.2 768.789 1005.25 768.717 1005.28 768.637C1005.31 768.557 1005.32 768.472 1005.31 768.387C1005.21 766.185 1006.07 764.164 1006.59 762.08C1006.69 761.672 1006.81 761.112 1006.2 761.234C1003.38 761.802 1003 760.243 1003.27 758.032C1003.29 757.983 1003.1 757.894 1002.78 757.645ZM1002.64 774.897C1001.72 774.831 1001.1 773.128 999.797 774.054C998.856 774.73 998.613 778.829 999.433 779.557C1000.25 780.284 1001.22 780.498 1002.13 779.606C1003.37 778.39 1003.69 776.009 1002.64 774.897ZM1036.09 695.135C1032.63 698.343 1033.52 702.471 1033.11 706.328L1033.79 706.469L1036.09 695.135ZM988.281 908.679C987.707 907.094 986.823 905.777 987.175 904.109C987.363 903.217 986.431 903.121 985.957 903.635C984.765 904.932 983.887 906.486 983.391 908.176C983.264 908.569 983.625 909.218 983.983 908.832C985.319 907.391 986.688 908.355 988.281 908.679ZM1047.14 851.391C1046.5 852.982 1045.89 854.313 1044.69 855.245C1044.41 855.462 1043.92 856.013 1044.43 856.192C1045.7 856.585 1047 856.872 1048.31 857.05C1048.68 857.11 1048.87 856.72 1048.75 856.331C1048.26 854.804 1048.46 853.034 1047.14 851.391ZM1009.06 749.227C1008.76 748.806 1008.31 748.537 1008.12 749.089C1007.72 750.261 1005.76 751.225 1006.9 752.417C1007.47 752.994 1008.31 754.92 1009.93 753.875C1010.92 753.237 1010.37 750.665 1009.06 749.227ZM1052.49 851.873C1052.04 851.466 1051.59 851.042 1050.9 851.331C1050.68 851.433 1050.51 851.613 1050.41 851.835C1050.31 852.057 1050.3 852.307 1050.38 852.537C1050.64 854.059 1051.13 855.533 1051.83 856.911C1052.18 857.555 1052.97 857.774 1053.11 856.873C1053.41 855.193 1053.81 853.403 1052.5 851.882L1052.49 851.873ZM1002.4 769.109C1001.44 769.45 1001.07 767.071 999.843 768.419C999.02 769.329 998.452 770.965 999.309 771.84C999.803 772.334 1001.64 772.23 1002.61 771.575C1003.51 770.994 1003.07 770.039 1002.41 769.118L1002.4 769.109ZM1039 829.102C1038.41 829.999 1037.14 830.842 1038.17 832.026C1038.8 832.762 1039.88 832.416 1040.49 831.665C1041.31 830.669 1042.17 829.37 1041.2 828.244C1040.59 827.56 1039.66 828.518 1039 829.102ZM1022.64 715.915C1021.28 717.59 1021.14 719.567 1020.87 721.481C1020.8 721.986 1021.52 722.163 1021.67 721.724C1022.28 719.876 1023.59 718.311 1023.82 716.325C1023.86 715.99 1023.8 715.552 1023.41 715.523C1023.15 715.5 1022.86 715.794 1022.64 715.915ZM1051.28 843.25C1050.41 841.071 1049.75 839.411 1049.08 837.739C1048.89 837.303 1048.59 836.859 1048.01 837.069C1047.43 837.28 1047.49 837.797 1047.63 838.265C1048.21 840.132 1048.96 841.876 1051.28 843.25ZM1050.12 760.108C1050.1 760.899 1048.52 761.502 1049.71 762.489C1050.25 762.943 1051.03 763.699 1051.8 762.752C1052.43 761.996 1052.94 761.147 1051.89 760.295C1051.39 759.88 1050.88 759.323 1050.13 760.116L1050.12 760.108ZM1051.93 757.778C1051.61 756.906 1050.7 756.785 1050.08 756.329C1049.56 755.945 1048.78 755.601 1048.22 756.164C1047.58 756.805 1047.95 757.792 1048.21 758.428C1048.6 759.389 1049.36 758.595 1049.85 758.329C1050.52 757.963 1051.36 758.43 1051.94 757.787L1051.93 757.778ZM1004.97 755.35C1004.82 756.003 1003.96 756.655 1004.75 757.44C1005.47 758.165 1006.38 758.026 1007.04 757.29C1007.35 756.978 1007.54 756.56 1007.56 756.117C1007.58 755.675 1007.44 755.241 1007.16 754.9C1006.45 754.106 1005.74 754.9 1004.97 755.35ZM1053.8 867.794C1052.26 869.541 1051.98 871.605 1052.36 873.825C1053.37 871.982 1053.87 869.898 1053.8 867.794ZM1013.02 748.494C1013.59 747.85 1013.69 747.203 1012.98 746.727C1012.4 746.32 1011.67 745.763 1011.02 746.56C1010.52 747.175 1010.41 748.032 1011.02 748.589C1011.62 749.146 1012.4 748.985 1013.01 748.502L1013.02 748.494ZM992.265 895.283C991.07 895.982 990.013 896.432 989.294 897.359C989.122 897.547 989.016 897.786 988.994 898.04C989.023 898.364 989.381 898.427 989.624 898.323C990.874 897.807 992.34 897.449 992.265 895.283ZM1036.92 755.624C1037.07 754.897 1036.02 754.38 1036.19 753.517C1036.25 753.176 1036.44 752.613 1035.78 752.616C1035.29 752.616 1035.16 753.067 1035.16 753.5C1035.17 754.328 1035.3 755.131 1035.94 755.74C1036.21 756.003 1036.51 756.075 1036.92 755.624ZM1025.08 731.334C1024.86 731.069 1024.55 730.835 1024.39 731.1C1023.98 731.799 1024.1 732.625 1024.19 733.378C1024.23 733.716 1024.81 733.649 1025 733.364C1025.18 733.059 1025.28 732.714 1025.3 732.36C1025.31 732.005 1025.24 731.652 1025.08 731.334ZM1006 860.699C1005.31 861.38 1004.46 861.565 1004.62 862.506C1004.67 862.582 1004.74 862.644 1004.82 862.686C1004.9 862.728 1004.99 862.75 1005.08 862.748C1005.92 862.503 1006.14 861.865 1006 860.699ZM985.596 910.913C985.5 911.12 985.468 911.35 985.503 911.575C985.538 911.8 985.639 912.01 985.793 912.178C986.001 912.472 986.286 912.336 986.436 912.111C986.579 911.926 986.645 911.694 986.619 911.462C986.594 911.23 986.48 911.016 986.301 910.867C986.07 910.647 985.83 910.714 985.596 910.913Z" fill="white"/>
</g>
</svg>
