<svg width="1367" height="13" viewBox="0 0 1367 13" fill="none" xmlns="http://www.w3.org/2000/svg">
<path d="M338.091 1.1007e-06L327.187 9.3533L348.995 9.3533L338.091 1.1007e-06Z" fill="#3160E2"/>
<path d="M159.749 1.1007e-06L148.846 9.3533L170.653 9.3533L159.749 1.1007e-06Z" fill="#3160E2"/>
<path d="M516.363 1.1007e-06L505.459 9.3533L527.266 9.3533L516.363 1.1007e-06Z" fill="#3160E2"/>
<path d="M70.3744 1.1007e-06L59.4707 9.3533L81.278 9.3533L70.3744 1.1007e-06Z" fill="#3160E2"/>
<path d="M426.988 1.1007e-06L416.084 9.3533L437.891 9.3533L426.988 1.1007e-06Z" fill="#3160E2"/>
<path d="M248.646 1.1007e-06L237.742 9.3533L259.55 9.3533L248.646 1.1007e-06Z" fill="#3160E2"/>
<path d="M605.259 1.1007e-06L594.355 9.3533L616.163 9.3533L605.259 1.1007e-06Z" fill="#3160E2"/>
<path d="M26.0697 1.1007e-06L15.166 9.3533L36.9734 9.3533L26.0697 1.1007e-06Z" fill="#3160E2"/>
<path d="M382.683 1.1007e-06L371.779 9.3533L393.587 9.3533L382.683 1.1007e-06Z" fill="#3160E2"/>
<path d="M204.341 1.1007e-06L193.437 9.3533L215.245 9.3533L204.341 1.1007e-06Z" fill="#3160E2"/>
<path d="M560.956 1.1007e-06L550.053 9.3533L571.86 9.3533L560.956 1.1007e-06Z" fill="#3160E2"/>
<path d="M114.968 1.1007e-06L104.064 9.3533L125.872 9.3533L114.968 1.1007e-06Z" fill="#3160E2"/>
<path d="M471.581 1.1007e-06L460.678 9.3533L482.485 9.3533L471.581 1.1007e-06Z" fill="#3160E2"/>
<path d="M293.24 1.1007e-06L282.336 9.3533L304.143 9.3533L293.24 1.1007e-06Z" fill="#3160E2"/>
<path d="M649.853 1.1007e-06L638.949 9.3533L660.757 9.3533L649.853 1.1007e-06Z" fill="#3160E2"/>
<path d="M3.81186 1.1007e-06L-7.09182 9.3533L14.7155 9.3533L3.81186 1.1007e-06Z" fill="#3160E2"/>
<path d="M360.425 1.1007e-06L349.521 9.3533L371.329 9.3533L360.425 1.1007e-06Z" fill="#3160E2"/>
<path d="M182.083 1.1007e-06L171.18 9.3533L192.987 9.3533L182.083 1.1007e-06Z" fill="#3160E2"/>
<path d="M538.697 1.1007e-06L527.793 9.3533L549.6 9.3533L538.697 1.1007e-06Z" fill="#3160E2"/>
<path d="M92.7083 1.1007e-06L81.8047 9.3533L103.612 9.3533L92.7083 1.1007e-06Z" fill="#3160E2"/>
<path d="M449.322 1.1007e-06L438.418 9.3533L460.225 9.3533L449.322 1.1007e-06Z" fill="#3160E2"/>
<path d="M270.98 1.1007e-06L260.076 9.3533L281.884 9.3533L270.98 1.1007e-06Z" fill="#3160E2"/>
<path d="M627.595 1.1007e-06L616.691 9.3533L638.499 9.3533L627.595 1.1007e-06Z" fill="#3160E2"/>
<path d="M48.4037 1.1007e-06L37.5 9.3533L59.3073 9.3533L48.4037 1.1007e-06Z" fill="#3160E2"/>
<path d="M405.017 1.1007e-06L394.113 9.3533L415.921 9.3533L405.017 1.1007e-06Z" fill="#3160E2"/>
<path d="M226.677 1.1007e-06L215.773 9.3533L237.581 9.3533L226.677 1.1007e-06Z" fill="#3160E2"/>
<path d="M583.29 1.1007e-06L572.387 9.3533L594.194 9.3533L583.29 1.1007e-06Z" fill="#3160E2"/>
<path d="M137.302 1.1007e-06L126.398 9.3533L148.206 9.3533L137.302 1.1007e-06Z" fill="#3160E2"/>
<path d="M493.915 1.1007e-06L483.012 9.3533L504.819 9.3533L493.915 1.1007e-06Z" fill="#3160E2"/>
<path d="M315.574 1.1007e-06L304.67 9.3533L326.477 9.3533L315.574 1.1007e-06Z" fill="#3160E2"/>
<path d="M672.187 1.1007e-06L661.283 9.3533L683.091 9.3533L672.187 1.1007e-06Z" fill="#3160E2"/>
<path d="M694.812 1.1007e-06L683.908 9.3533L705.716 9.3533L694.812 1.1007e-06Z" fill="#3160E2"/>
<path d="M1051.43 1.1007e-06L1040.52 9.3533L1062.33 9.3533L1051.43 1.1007e-06Z" fill="#3160E2"/>
<path d="M873.083 1.1007e-06L862.18 9.3533L883.987 9.3533L873.083 1.1007e-06Z" fill="#3160E2"/>
<path d="M1229.7 1.1007e-06L1218.79 9.3533L1240.6 9.3533L1229.7 1.1007e-06Z" fill="#3160E2"/>
<path d="M783.708 1.1007e-06L772.805 9.3533L794.612 9.3533L783.708 1.1007e-06Z" fill="#3160E2"/>
<path d="M1140.32 1.1007e-06L1129.42 9.3533L1151.23 9.3533L1140.32 1.1007e-06Z" fill="#3160E2"/>
<path d="M961.98 1.1007e-06L951.076 9.3533L972.884 9.3533L961.98 1.1007e-06Z" fill="#3160E2"/>
<path d="M1318.59 1.1007e-06L1307.69 9.3533L1329.5 9.3533L1318.59 1.1007e-06Z" fill="#3160E2"/>
<path d="M739.404 1.1007e-06L728.5 9.3533L750.307 9.3533L739.404 1.1007e-06Z" fill="#3160E2"/>
<path d="M1096.02 1.1007e-06L1085.11 9.3533L1106.92 9.3533L1096.02 1.1007e-06Z" fill="#3160E2"/>
<path d="M917.675 1.1007e-06L906.771 9.3533L928.579 9.3533L917.675 1.1007e-06Z" fill="#3160E2"/>
<path d="M1274.29 1.1007e-06L1263.39 9.3533L1285.19 9.3533L1274.29 1.1007e-06Z" fill="#3160E2"/>
<path d="M828.302 1.1007e-06L817.398 9.3533L839.206 9.3533L828.302 1.1007e-06Z" fill="#3160E2"/>
<path d="M1184.92 1.1007e-06L1174.01 9.3533L1195.82 9.3533L1184.92 1.1007e-06Z" fill="#3160E2"/>
<path d="M1006.57 1.1007e-06L995.67 9.3533L1017.48 9.3533L1006.57 1.1007e-06Z" fill="#3160E2"/>
<path d="M1363.19 1.1007e-06L1352.28 9.3533L1374.09 9.3533L1363.19 1.1007e-06Z" fill="#3160E2"/>
<path d="M717.146 1.1007e-06L706.242 9.3533L728.05 9.3533L717.146 1.1007e-06Z" fill="#3160E2"/>
<path d="M1073.76 1.1007e-06L1062.86 9.3533L1084.66 9.3533L1073.76 1.1007e-06Z" fill="#3160E2"/>
<path d="M895.417 1.1007e-06L884.514 9.3533L906.321 9.3533L895.417 1.1007e-06Z" fill="#3160E2"/>
<path d="M1252.03 1.1007e-06L1241.13 9.3533L1262.93 9.3533L1252.03 1.1007e-06Z" fill="#3160E2"/>
<path d="M806.042 1.1007e-06L795.139 9.3533L816.946 9.3533L806.042 1.1007e-06Z" fill="#3160E2"/>
<path d="M1162.66 1.1007e-06L1151.75 9.3533L1173.56 9.3533L1162.66 1.1007e-06Z" fill="#3160E2"/>
<path d="M984.316 1.1007e-06L973.412 9.3533L995.219 9.3533L984.316 1.1007e-06Z" fill="#3160E2"/>
<path d="M1340.93 1.1007e-06L1330.03 9.3533L1351.83 9.3533L1340.93 1.1007e-06Z" fill="#3160E2"/>
<path d="M761.738 1.1007e-06L750.834 9.3533L772.641 9.3533L761.738 1.1007e-06Z" fill="#3160E2"/>
<path d="M1118.35 1.1007e-06L1107.45 9.3533L1129.25 9.3533L1118.35 1.1007e-06Z" fill="#3160E2"/>
<path d="M940.011 1.1007e-06L929.107 9.3533L950.915 9.3533L940.011 1.1007e-06Z" fill="#3160E2"/>
<path d="M1296.62 1.1007e-06L1285.72 9.3533L1307.53 9.3533L1296.62 1.1007e-06Z" fill="#3160E2"/>
<path d="M850.636 1.1007e-06L839.732 9.3533L861.54 9.3533L850.636 1.1007e-06Z" fill="#3160E2"/>
<path d="M1207.25 1.1007e-06L1196.35 9.3533L1218.15 9.3533L1207.25 1.1007e-06Z" fill="#3160E2"/>
<path d="M1028.91 1.1007e-06L1018 9.3533L1039.81 9.3533L1028.91 1.1007e-06Z" fill="#3160E2"/>
</svg>
