<svg width="1318" height="1275" viewBox="0 0 1318 1275" fill="none" xmlns="http://www.w3.org/2000/svg">
<path d="M14.3865 478.325C14.1151 478.323 13.8916 478.111 13.8752 477.84C13.1617 466.124 12.6794 465.634 0.976857 464.731C0.705958 464.71 0.49786 464.483 0.500017 464.212C0.502173 463.94 0.714037 463.717 0.985207 463.7C12.701 462.987 13.1911 462.505 14.0943 450.802C14.1151 450.531 14.342 450.323 14.6135 450.325C14.8849 450.327 15.1084 450.539 15.1248 450.81C15.8383 462.526 16.3205 463.016 28.0231 463.92C28.294 463.94 28.5021 464.167 28.5 464.439C28.4978 464.71 28.286 464.934 28.0148 464.95C16.299 465.664 15.8089 466.146 14.9057 477.848C14.8849 478.119 14.658 478.327 14.3865 478.325Z" fill="white"/>
<path d="M90.1228 1274.33C89.8514 1274.32 89.6279 1274.11 89.6115 1273.84C88.898 1262.12 88.4158 1261.63 76.7132 1260.73C76.4423 1260.71 76.2342 1260.48 76.2363 1260.21C76.2385 1259.94 76.4504 1259.72 76.7215 1259.7C88.4373 1258.99 88.9274 1258.5 89.8307 1246.8C89.8514 1246.53 90.0784 1246.32 90.3498 1246.33C90.6212 1246.33 90.8447 1246.54 90.8612 1246.81C91.5747 1258.53 92.0569 1259.02 103.759 1259.92C104.03 1259.94 104.238 1260.17 104.236 1260.44C104.234 1260.71 104.022 1260.93 103.751 1260.95C92.0353 1261.66 91.5453 1262.15 90.642 1273.85C90.6212 1274.12 90.3943 1274.33 90.1228 1274.33Z" fill="white"/>
<path d="M1059.39 937.457C1059.12 937.455 1058.89 937.243 1058.88 936.972C1058.16 925.256 1057.68 924.766 1045.98 923.863C1045.71 923.842 1045.5 923.615 1045.5 923.344C1045.5 923.072 1045.71 922.849 1045.99 922.832C1057.7 922.119 1058.19 921.636 1059.09 909.934C1059.12 909.663 1059.34 909.455 1059.61 909.457C1059.88 909.459 1060.11 909.671 1060.12 909.942C1060.84 921.658 1061.32 922.148 1073.02 923.051C1073.29 923.072 1073.5 923.299 1073.5 923.571C1073.5 923.842 1073.29 924.065 1073.01 924.082C1061.3 924.795 1060.81 925.278 1059.91 936.98C1059.88 937.251 1059.66 937.459 1059.39 937.457Z" fill="white"/>
<path d="M1238.39 1204.33C1238.12 1204.32 1237.89 1204.11 1237.88 1203.84C1237.16 1192.12 1236.68 1191.63 1224.98 1190.73C1224.71 1190.71 1224.5 1190.48 1224.5 1190.21C1224.5 1189.94 1224.71 1189.72 1224.99 1189.7C1236.7 1188.99 1237.19 1188.5 1238.09 1176.8C1238.12 1176.53 1238.34 1176.32 1238.61 1176.33C1238.88 1176.33 1239.11 1176.54 1239.12 1176.81C1239.84 1188.53 1240.32 1189.02 1252.02 1189.92C1252.29 1189.94 1252.5 1190.17 1252.5 1190.44C1252.5 1190.71 1252.29 1190.93 1252.01 1190.95C1240.3 1191.66 1239.81 1192.15 1238.91 1203.85C1238.88 1204.12 1238.66 1204.33 1238.39 1204.33Z" fill="white"/>
<path d="M897.387 95.3252C897.115 95.323 896.892 95.1112 896.875 94.84C896.162 83.1242 895.679 82.6341 883.977 81.7309C883.706 81.7101 883.498 81.4832 883.5 81.2117C883.502 80.9403 883.714 80.7168 883.985 80.7004C895.701 79.9869 896.191 79.5046 897.094 67.8021C897.115 67.5312 897.342 67.3231 897.613 67.3252C897.885 67.3274 898.108 67.5392 898.125 67.8104C898.838 79.5262 899.321 80.0163 911.023 80.9195C911.294 80.9403 911.502 81.1672 911.5 81.4387C911.498 81.7101 911.286 81.9336 911.015 81.95C899.299 82.6635 898.809 83.1457 897.906 94.8483C897.885 95.119 897.658 95.3273 897.387 95.3252Z" fill="white"/>
<path d="M100.387 28.3252C100.115 28.323 99.8916 28.1112 99.8752 27.84C99.1617 16.1242 98.6794 15.6341 86.9769 14.7309C86.706 14.7101 86.4979 14.4832 86.5 14.2117C86.5022 13.9403 86.714 13.7168 86.9852 13.7004C98.701 12.9869 99.1911 12.5046 100.094 0.802052C100.115 0.531153 100.342 0.323056 100.613 0.325212C100.885 0.327368 101.108 0.539241 101.125 0.81041C101.838 12.5262 102.321 13.0163 114.023 13.9195C114.294 13.9403 114.502 14.1672 114.5 14.4387C114.498 14.7101 114.286 14.9336 114.015 14.95C102.299 15.6635 101.809 16.1457 100.906 27.8483C100.885 28.119 100.658 28.3273 100.387 28.3252Z" fill="white"/>
<path d="M1307.42 350.325C1307.23 350.324 1307.07 350.172 1307.05 349.979C1306.54 341.61 1306.2 341.26 1297.84 340.615C1297.65 340.6 1297.5 340.438 1297.5 340.244C1297.5 340.05 1297.65 339.891 1297.85 339.879C1306.22 339.369 1306.57 339.025 1307.21 330.666C1307.23 330.472 1307.39 330.324 1307.58 330.325C1307.77 330.327 1307.93 330.478 1307.95 330.672C1308.46 339.04 1308.8 339.39 1317.16 340.035C1317.35 340.05 1317.5 340.212 1317.5 340.406C1317.5 340.6 1317.35 340.76 1317.15 340.771C1308.78 341.281 1308.43 341.626 1307.79 349.985C1307.77 350.178 1307.61 350.327 1307.42 350.325Z" fill="white"/>
</svg>
