<svg width="29" height="29" viewBox="0 0 29 29" fill="none" xmlns="http://www.w3.org/2000/svg">
<circle cx="14.7246" cy="14.2363" r="13.5" fill="white" stroke="#F1F1F1"/>
<g clip-path="url(#clip0)">
<path d="M9.71379 16.1123L9.08723 18.4514L6.79719 18.4998C6.1128 17.2304 5.72461 15.7781 5.72461 14.2347C5.72461 12.7423 6.08756 11.3349 6.73092 10.0957H6.73141L8.7702 10.4695L9.66331 12.496C9.47638 13.041 9.3745 13.626 9.3745 14.2347C9.37457 14.8954 9.49424 15.5284 9.71379 16.1123Z" fill="#FBBB00"/>
<path d="M23.5687 12.5566C23.6721 13.1011 23.726 13.6633 23.726 14.238C23.726 14.8823 23.6582 15.5108 23.5292 16.1171C23.091 18.1802 21.9463 19.9816 20.3604 21.2565L20.3599 21.256L17.7919 21.125L17.4285 18.8562C18.4808 18.239 19.3032 17.2732 19.7364 16.1171H14.9238V12.5566H19.8066H23.5687Z" fill="#518EF8"/>
<path d="M20.3601 21.2556L20.3606 21.2561C18.8183 22.4958 16.859 23.2376 14.7262 23.2376C11.2988 23.2376 8.31895 21.3219 6.79883 18.5027L9.71543 16.1152C10.4755 18.1437 12.4322 19.5877 14.7262 19.5877C15.7123 19.5877 16.636 19.3211 17.4287 18.8558L20.3601 21.2556Z" fill="#28B446"/>
<path d="M20.4708 7.3083L17.5552 9.69527C16.7348 9.18248 15.765 8.88625 14.7261 8.88625C12.3802 8.88625 10.3868 10.3965 9.66484 12.4976L6.73291 10.0973H6.73242C8.23029 7.2094 11.2478 5.23633 14.7261 5.23633C16.9098 5.23633 18.9121 6.0142 20.4708 7.3083Z" fill="#F14336"/>
</g>
<defs>
<clipPath id="clip0">
<rect width="18" height="18" fill="white" transform="translate(5.72461 5.23633)"/>
</clipPath>
</defs>
</svg>
