<svg width="53" height="45" viewBox="0 0 53 45" fill="none" xmlns="http://www.w3.org/2000/svg">
<g clip-path="url(#clip0)">
<path d="M51.2002 39.5251C49.4002 46.6251 5.60022 45.1251 1.90022 37.7251C-1.49978 31.0251 0.100216 8.92506 3.00022 4.12506C7.00022 -2.37494 45.8002 0.325059 49.0002 5.42506C52.1002 10.2251 53.1002 32.2251 51.2002 39.5251Z" fill="url(#paint0_radial)"/>
<path d="M51.0985 38.3251C49.2985 45.1251 5.79846 42.1251 2.09846 35.0251C-1.30154 28.5251 0.298454 9.12509 3.19846 4.42509C7.19846 -1.87491 45.7985 0.625086 48.9985 5.62509C51.9985 10.2251 52.9985 31.2251 51.0985 38.3251Z" fill="url(#paint1_linear)"/>
<path d="M50.5999 37.725C48.7999 44.325 6.29988 41.325 2.59988 34.425C-0.700119 28.125 0.799877 9.32496 3.69988 4.82496C7.59988 -1.27504 45.3999 1.12496 48.4999 5.92496C51.4999 10.325 52.3999 30.825 50.5999 37.725Z" fill="url(#paint2_linear)"/>
<path d="M4.59928 35.825C4.79928 35.025 2.79927 31.625 2.29927 31.625C1.79927 31.625 2.19928 33.925 2.59928 34.425C2.99928 34.925 4.49928 36.225 4.59928 35.825Z" fill="white"/>
<path d="M48.6997 9.825C48.6997 9.825 50.0997 6.225 47.3997 4.925C44.5997 3.625 35.6997 2.325 35.1997 2.725C34.7997 3.025 38.9997 4.625 41.1997 5.425C43.3997 6.225 47.4997 10.425 48.6997 9.825Z" fill="white"/>
<path d="M32.2977 9.3252C32.2977 9.3252 26.3977 11.6252 18.0977 21.5252C18.0977 21.5252 23.0977 28.9252 32.2977 33.1252L34.1977 30.1252C34.1977 30.1252 28.4977 26.1252 24.9977 21.2252C24.9977 21.2252 27.3977 16.0252 33.4977 12.3252L32.2977 9.3252Z" fill="#931B1D"/>
</g>
<defs>
<radialGradient id="paint0_radial" cx="0" cy="0" r="1" gradientUnits="userSpaceOnUse" gradientTransform="translate(25.2744 41.0617) rotate(180) scale(20.1545 37.7921)">
<stop stop-color="#FFBD00"/>
<stop offset="1" stop-color="#FF772C"/>
</radialGradient>
<linearGradient id="paint1_linear" x1="26.1177" y1="42.1549" x2="26.1177" y2="0.723386" gradientUnits="userSpaceOnUse">
<stop stop-color="#FFF300"/>
<stop offset="1" stop-color="#FF9700"/>
</linearGradient>
<linearGradient id="paint2_linear" x1="26.1191" y1="41.4006" x2="26.1191" y2="1.16026" gradientUnits="userSpaceOnUse">
<stop stop-color="#FFCC00"/>
<stop offset="1" stop-color="#FF9700"/>
</linearGradient>
<clipPath id="clip0">
<rect width="52.2" height="43.8" fill="white" transform="matrix(-1 0 0 1 52.1992 0.325195)"/>
</clipPath>
</defs>
</svg>
