<svg width="97" height="41" viewBox="0 0 97 41" fill="none" xmlns="http://www.w3.org/2000/svg">
<path d="M2.27324 36.1206C5.58481 42.5998 86.1664 41.231 92.9735 34.478C99.2287 28.3639 96.2851 8.19627 90.9498 3.81597C83.5907 -2.11567 12.208 0.348241 6.32072 5.0023C0.617456 9.3826 -1.22231 29.4589 2.27324 36.1206Z" fill="url(#paint0_radial)"/>
<path d="M2.28172 35.1858C5.59501 41.4823 85.6662 38.7044 92.4768 32.1301C98.7353 26.1113 95.7901 8.1476 90.4521 3.79556C83.0892 -2.03801 12.0375 0.276897 6.14723 4.90672C0.625078 9.16616 -1.21564 28.6114 2.28172 35.1858Z" fill="url(#paint1_linear)"/>
<path d="M3.67384 34.5592C6.9704 40.598 84.8057 37.8531 91.582 31.5397C97.6257 25.7754 94.8785 8.5738 89.5674 4.4564C82.4249 -1.12496 13.1972 1.07099 7.51982 5.46288C2.02556 9.48878 0.377287 28.2458 3.67384 34.5592Z" fill="url(#paint2_linear)"/>
<path d="M81.8926 34.2371C81.0552 33.3015 89.4299 29.3252 91.5236 29.3252C93.6173 29.3252 91.9423 32.0151 90.2674 32.5998C88.5924 33.1846 82.3114 34.7049 81.8926 34.2371Z" fill="white"/>
<path d="M7.35098 8.17118C7.35098 8.17118 3.45134 6.49279 10.3007 5.19851C17.4078 3.88277 40.2285 1.25743 41.5491 1.36997C42.604 1.44901 31.915 3.23023 26.3129 4.14231C20.7107 5.05438 10.4911 8.24338 7.35098 8.17118Z" fill="white"/>
<path d="M25.344 25.3792C24.828 25.3792 24.42 25.2292 24.12 24.9292C23.82 24.6292 23.67 24.2212 23.67 23.7052V14.3992C23.802 14.3752 24.012 14.3452 24.3 14.3092C24.588 14.2612 24.864 14.2372 25.128 14.2372C25.404 14.2372 25.644 14.2612 25.848 14.3092C26.064 14.3452 26.244 14.4172 26.388 14.5252C26.532 14.6332 26.64 14.7832 26.712 14.9752C26.784 15.1672 26.82 15.4192 26.82 15.7312V22.8412H30.942C31.026 22.9732 31.104 23.1532 31.176 23.3812C31.248 23.5972 31.284 23.8252 31.284 24.0652C31.284 24.5452 31.182 24.8872 30.978 25.0912C30.774 25.2832 30.504 25.3792 30.168 25.3792H25.344ZM31.8136 19.8532C31.8136 18.9172 31.9576 18.0892 32.2456 17.3692C32.5456 16.6492 32.9476 16.0492 33.4516 15.5692C33.9676 15.0772 34.5676 14.7052 35.2516 14.4532C35.9476 14.2012 36.6976 14.0752 37.5016 14.0752C38.3056 14.0752 39.0496 14.2012 39.7336 14.4532C40.4296 14.7052 41.0356 15.0772 41.5516 15.5692C42.0676 16.0492 42.4696 16.6492 42.7576 17.3692C43.0576 18.0892 43.2076 18.9172 43.2076 19.8532C43.2076 20.7892 43.0636 21.6232 42.7756 22.3552C42.4876 23.0752 42.0856 23.6812 41.5696 24.1732C41.0656 24.6532 40.4656 25.0192 39.7696 25.2712C39.0736 25.5232 38.3176 25.6492 37.5016 25.6492C36.6856 25.6492 35.9296 25.5232 35.2336 25.2712C34.5376 25.0072 33.9376 24.6292 33.4336 24.1372C32.9296 23.6452 32.5336 23.0392 32.2456 22.3192C31.9576 21.5992 31.8136 20.7772 31.8136 19.8532ZM35.0536 19.8532C35.0536 20.9452 35.2756 21.7612 35.7196 22.3012C36.1636 22.8412 36.7576 23.1112 37.5016 23.1112C38.2576 23.1112 38.8576 22.8412 39.3016 22.3012C39.7456 21.7612 39.9676 20.9452 39.9676 19.8532C39.9676 18.7732 39.7456 17.9632 39.3016 17.4232C38.8696 16.8832 38.2756 16.6132 37.5196 16.6132C36.7756 16.6132 36.1756 16.8832 35.7196 17.4232C35.2756 17.9512 35.0536 18.7612 35.0536 19.8532ZM54.8918 23.5432C54.8918 23.9152 54.8258 24.1912 54.6938 24.3712C54.5618 24.5512 54.3518 24.7252 54.0638 24.8932C53.8958 24.9892 53.6858 25.0852 53.4338 25.1812C53.1818 25.2652 52.9058 25.3372 52.6058 25.3972C52.3058 25.4692 51.9878 25.5232 51.6518 25.5592C51.3278 25.5952 51.0038 25.6132 50.6798 25.6132C49.8158 25.6132 49.0058 25.4992 48.2498 25.2712C47.4938 25.0312 46.8338 24.6772 46.2698 24.2092C45.7178 23.7292 45.2798 23.1352 44.9558 22.4272C44.6318 21.7192 44.4698 20.8972 44.4698 19.9612C44.4698 18.9772 44.6438 18.1192 44.9918 17.3872C45.3518 16.6552 45.8198 16.0492 46.3958 15.5692C46.9838 15.0772 47.6498 14.7112 48.3938 14.4712C49.1498 14.2312 49.9238 14.1112 50.7158 14.1112C51.8558 14.1112 52.7558 14.2972 53.4158 14.6692C54.0878 15.0292 54.4238 15.5032 54.4238 16.0912C54.4238 16.4032 54.3458 16.6732 54.1898 16.9012C54.0338 17.1292 53.8538 17.3092 53.6498 17.4412C53.3498 17.2612 52.9718 17.0872 52.5158 16.9192C52.0718 16.7392 51.5678 16.6492 51.0038 16.6492C49.9958 16.6492 49.1918 16.9372 48.5918 17.5132C48.0038 18.0892 47.7098 18.8872 47.7098 19.9072C47.7098 20.4592 47.7878 20.9392 47.9438 21.3472C48.1118 21.7432 48.3338 22.0732 48.6098 22.3372C48.8858 22.5892 49.2038 22.7812 49.5638 22.9132C49.9238 23.0332 50.3078 23.0932 50.7158 23.0932C50.9798 23.0932 51.2138 23.0692 51.4178 23.0212C51.6218 22.9732 51.7778 22.9192 51.8858 22.8592V21.1672H49.9598C49.8878 21.0352 49.8158 20.8612 49.7438 20.6452C49.6838 20.4292 49.6538 20.2012 49.6538 19.9612C49.6538 19.5292 49.7498 19.2172 49.9418 19.0252C50.1458 18.8332 50.4038 18.7372 50.7158 18.7372H53.7578C54.1178 18.7372 54.3938 18.8392 54.5858 19.0432C54.7898 19.2352 54.8918 19.5112 54.8918 19.8712V23.5432ZM60.113 25.2532C59.981 25.2892 59.771 25.3252 59.483 25.3612C59.207 25.3972 58.931 25.4152 58.655 25.4152C58.379 25.4152 58.133 25.3912 57.917 25.3432C57.713 25.3072 57.539 25.2352 57.395 25.1272C57.251 25.0192 57.143 24.8692 57.071 24.6772C56.999 24.4852 56.963 24.2332 56.963 23.9212V14.4172C57.095 14.3932 57.305 14.3632 57.593 14.3272C57.881 14.2792 58.157 14.2552 58.421 14.2552C58.697 14.2552 58.937 14.2792 59.141 14.3272C59.357 14.3632 59.537 14.4352 59.681 14.5432C59.825 14.6512 59.933 14.8012 60.005 14.9932C60.077 15.1852 60.113 15.4372 60.113 15.7492V25.2532ZM72.3293 24.9472C72.1613 25.1152 71.9153 25.2412 71.5913 25.3252C71.2793 25.4212 70.9013 25.4692 70.4573 25.4692C70.0133 25.4692 69.5933 25.4032 69.1973 25.2712C68.8013 25.1392 68.4773 24.8212 68.2253 24.3172L66.4433 20.6812C66.2633 20.3092 66.1013 19.9612 65.9573 19.6372C65.8133 19.3012 65.6573 18.9172 65.4893 18.4852L65.3813 18.5032C65.4293 19.1512 65.4533 19.8112 65.4533 20.4832C65.4653 21.1552 65.4713 21.8152 65.4713 22.4632V25.2532C65.3393 25.2892 65.1353 25.3252 64.8593 25.3612C64.5953 25.3972 64.3313 25.4152 64.0673 25.4152C63.8033 25.4152 63.5693 25.3972 63.3653 25.3612C63.1613 25.3252 62.9933 25.2532 62.8613 25.1452C62.7293 25.0372 62.6273 24.8932 62.5553 24.7132C62.4833 24.5212 62.4473 24.2752 62.4473 23.9752V14.9752C62.6153 14.7352 62.8733 14.5552 63.2213 14.4352C63.5693 14.3152 63.9413 14.2552 64.3373 14.2552C64.7813 14.2552 65.2013 14.3272 65.5973 14.4712C66.0053 14.6032 66.3293 14.9152 66.5693 15.4072L68.3693 19.0432C68.5493 19.4152 68.7113 19.7692 68.8553 20.1052C68.9993 20.4292 69.1553 20.8072 69.3233 21.2392L69.4133 21.2212C69.3653 20.5732 69.3353 19.9252 69.3233 19.2772C69.3113 18.6292 69.3053 17.9812 69.3053 17.3332V14.4172C69.4373 14.3812 69.6353 14.3452 69.8993 14.3092C70.1753 14.2732 70.4453 14.2552 70.7093 14.2552C71.2373 14.2552 71.6393 14.3512 71.9153 14.5432C72.1913 14.7232 72.3293 15.1072 72.3293 15.6952V24.9472Z" fill="white"/>
<defs>
<radialGradient id="paint0_radial" cx="0" cy="0" r="1" gradientUnits="userSpaceOnUse" gradientTransform="translate(49.9706 37.5229) scale(37.0795 34.4876)">
<stop stop-color="#FA6B90"/>
<stop offset="1" stop-color="#F9265D"/>
</radialGradient>
<linearGradient id="paint1_linear" x1="48.2643" y1="38.732" x2="48.2643" y2="0.36792" gradientUnits="userSpaceOnUse">
<stop stop-color="#FA6B90"/>
<stop offset="1" stop-color="#F9265D"/>
</linearGradient>
<linearGradient id="paint2_linear" x1="48.5085" y1="37.9222" x2="48.5085" y2="1.10329" gradientUnits="userSpaceOnUse">
<stop stop-color="#F55982"/>
<stop offset="1" stop-color="#F9265D"/>
</linearGradient>
</defs>
</svg>
