<svg width="1365" height="893" viewBox="0 0 1365 893" fill="none" xmlns="http://www.w3.org/2000/svg">
<path opacity="0.3" d="M1313.41 668.016L1355.68 645.17L1304 616L1281.77 584.325L1313.41 668.016Z" fill="#F1D1A2" stroke="black"/>
<path opacity="0.3" d="M101.882 479.432L60.9628 454.251L57.3617 512.858L45.2246 548.681L101.882 479.432Z" fill="#F1D1A2" stroke="black"/>
<path opacity="0.3" d="M1048.35 109.329L1035.94 101.694L1034.85 119.464L1031.17 130.325L1048.35 109.329Z" fill="#F1D1A2" stroke="black"/>
<path opacity="0.3" d="M1069.68 139.297L1104.52 120.468L1064.17 93.7485L1043.61 70.3252L1069.68 139.297Z" fill="#F1D1A2" stroke="black"/>
<path opacity="0.3" d="M127.69 24.8372C125.189 17.3369 114.69 23.3372 114.69 23.3372C114.69 23.3372 118.767 15.1315 115.69 11.8372C111.583 7.4415 103.19 20.8372 103.19 20.8372C103.19 20.8372 108.69 0.764031 95.1896 1.33724C78.1477 7.49096 91.1344 21.7126 92.5652 23.2092C90.5001 21.1061 63.2693 -5.73045 52.6896 30.3372C49.1895 66.3369 95.1896 46.3372 95.1896 46.3372C95.1896 46.3372 72.1895 56.3369 77.1896 62.3372C82.1895 67.3369 88.6896 62.3372 88.6896 62.3372C88.6896 62.3372 84.6895 73.8369 106.69 68.3372C120.19 61.3369 108.69 42.8372 108.69 42.8372C108.69 42.8372 130.689 44.8369 127.69 24.8372Z" fill="#FEF7CB" stroke="black"/>
<path opacity="0.3" d="M1266.7 276.987C1271.63 276.691 1269.71 269.382 1269.71 269.382C1269.71 269.382 1274 273.171 1276.49 271.846C1279.81 270.078 1273.08 262.845 1273.08 262.845C1273.08 262.845 1284.3 269.412 1286.14 261.17C1285.18 249.888 1274.5 255.427 1273.36 256.049C1274.97 255.142 1295.57 243.046 1275.51 230.827C1254.35 222.892 1258.98 253.892 1258.98 253.892C1258.98 253.892 1256.66 238.392 1252.23 240.44C1248.41 242.649 1250.37 247.381 1250.37 247.381C1250.37 247.381 1244.08 243.107 1243.84 257.275C1245.88 266.556 1258.91 262.607 1258.91 262.607C1258.91 262.607 1254.14 275.563 1266.7 276.987Z" fill="#FEF7CB" stroke="black"/>
<path opacity="0.3" d="M1327.77 122.698C1324.8 124.663 1328.64 128.536 1328.64 128.536C1328.64 128.536 1324.59 127.718 1323.51 129.443C1322.08 131.745 1328.89 133.838 1328.89 133.838C1328.89 133.838 1319.51 133.785 1321.33 139.598C1326 146.304 1330.68 138.986 1331.17 138.189C1330.49 139.332 1321.98 154.328 1338.92 154.727C1355.01 152.05 1340.93 134.346 1340.93 134.346C1340.93 134.346 1347.97 143.198 1350 140.319C1351.6 137.558 1348.66 135.31 1348.66 135.31C1348.66 135.31 1354.14 135.71 1349.17 126.769C1344.55 121.705 1337.83 128.874 1337.83 128.874C1337.83 128.874 1336.14 119.057 1327.77 122.698Z" fill="#FEF7CB" stroke="black"/>
<path opacity="0.3" d="M45.5267 811.605C47.5901 814.513 51.3324 810.546 51.3324 810.546C51.3324 810.546 50.6505 814.621 52.4107 815.639C54.7593 816.996 56.6221 810.115 56.6221 810.115C56.6221 810.115 56.8845 819.497 62.6336 817.477C69.1787 812.585 61.7072 808.154 60.8943 807.696C62.0602 808.332 77.3331 816.337 77.1625 799.386C73.9465 783.395 56.7259 798.063 56.7259 798.063C56.7259 798.063 65.3362 790.729 62.3913 788.797C59.5777 787.296 57.4297 790.306 57.4297 790.306C57.4297 790.306 57.6458 784.82 48.8761 790.081C43.9708 794.873 51.361 801.345 51.361 801.345C51.361 801.345 41.6069 803.37 45.5267 811.605Z" fill="#FEF7CB" stroke="black"/>
<path opacity="0.3" d="M1327.05 448.272C1333.13 447.907 1330.76 438.894 1330.76 438.894C1330.76 438.894 1336.05 443.565 1339.12 441.932C1343.21 439.752 1334.91 430.831 1334.91 430.831C1334.91 430.831 1348.76 438.93 1351.02 428.766C1349.84 414.852 1336.66 421.683 1335.27 422.449C1337.24 421.332 1362.65 406.413 1337.91 391.343C1311.81 381.557 1317.53 419.79 1317.53 419.79C1317.53 419.79 1314.67 400.673 1309.2 403.199C1304.49 405.924 1306.91 411.76 1306.91 411.76C1306.91 411.76 1299.15 406.488 1298.85 423.962C1301.37 435.408 1317.44 430.537 1317.44 430.537C1317.44 430.537 1311.56 446.516 1327.05 448.272Z" fill="#FEF7CB" stroke="black"/>
<path opacity="0.3" d="M28.0474 745.272C34.1295 744.907 31.7571 735.894 31.7571 735.894C31.7571 735.894 37.0523 740.565 40.1185 738.932C44.2098 736.752 35.912 727.831 35.912 727.831C35.912 727.831 49.7578 735.93 52.0239 725.766C50.8422 711.852 37.6649 718.683 36.2655 719.449C38.243 718.332 63.6522 703.413 38.9131 688.343C12.8125 678.557 18.5251 716.79 18.5251 716.79C18.5251 716.79 15.6689 697.673 10.2048 700.199C5.48568 702.924 7.91098 708.76 7.91098 708.76C7.91098 708.76 0.148303 703.488 -0.145911 720.962C2.37248 732.408 18.4378 727.537 18.4378 727.537C18.4378 727.537 12.561 743.516 28.0474 745.272Z" fill="#FEF7CB" stroke="black"/>
<path opacity="0.3" d="M1280.97 684.69C1283.85 682.788 1280.13 679.038 1280.13 679.038C1280.13 679.038 1284.05 679.83 1285.1 678.16C1286.49 675.932 1279.89 673.906 1279.89 673.906C1279.89 673.906 1288.97 673.957 1287.21 668.329C1282.69 661.837 1278.16 668.922 1277.69 669.694C1278.34 668.586 1286.58 654.069 1270.18 653.683C1254.6 656.275 1268.23 673.414 1268.23 673.414C1268.23 673.414 1261.41 664.844 1259.45 667.631C1257.91 670.304 1260.75 672.48 1260.75 672.48C1260.75 672.48 1255.45 672.093 1260.25 680.749C1264.73 685.651 1271.23 678.711 1271.23 678.711C1271.23 678.711 1272.87 688.215 1280.97 684.69Z" fill="#FEF7CB" stroke="black"/>
<path opacity="0.3" d="M1293.21 867.299C1290.66 874.963 1279.95 868.832 1279.95 868.832C1279.95 868.832 1284.11 877.217 1280.97 880.583C1276.78 885.075 1268.22 871.386 1268.22 871.386C1268.22 871.386 1273.83 891.899 1260.05 891.313C1242.67 885.025 1255.92 870.492 1257.38 868.963C1255.27 871.112 1227.49 898.535 1216.69 861.679C1213.12 824.891 1260.05 845.329 1260.05 845.329C1260.05 845.329 1236.59 835.11 1241.69 828.979C1246.79 823.87 1253.42 828.979 1253.42 828.979C1253.42 828.979 1249.34 817.227 1271.79 822.847C1285.56 830.001 1273.83 848.905 1273.83 848.905C1273.83 848.905 1296.27 846.862 1293.21 867.299Z" fill="#FEF7CB" stroke="black"/>
<path opacity="0.3" d="M62.9986 194.596C59.9584 192.589 63.8814 188.631 63.8814 188.631C63.8814 188.631 59.7428 189.467 58.6435 187.704C57.1767 185.353 64.1402 183.214 64.1402 183.214C64.1402 183.214 54.5497 183.268 56.4149 177.328C61.1867 170.476 65.9682 177.954 66.4631 178.768C65.774 177.6 57.0753 162.277 74.3914 161.87C90.8321 164.605 76.4442 182.695 76.4442 182.695C76.4442 182.695 83.6381 173.65 85.7125 176.591C87.3415 179.413 84.341 181.71 84.341 181.71C84.341 181.71 89.9365 181.301 84.8648 190.437C80.139 195.611 73.2764 188.286 73.2764 188.286C73.2764 188.286 71.5426 198.316 62.9986 194.596Z" fill="#FEF7CB" stroke="black"/>
<path d="M1011.38 892.114C1011.09 892.112 1010.85 891.885 1010.83 891.594C1010.07 879.042 1009.55 878.517 997.011 877.549C996.721 877.527 996.498 877.283 996.5 876.993C996.502 876.702 996.729 876.462 997.02 876.445C1009.57 875.68 1010.1 875.164 1011.07 862.625C1011.09 862.335 1011.33 862.112 1011.62 862.114C1011.91 862.117 1012.15 862.344 1012.17 862.634C1012.93 875.187 1013.45 875.712 1025.99 876.68C1026.28 876.702 1026.5 876.945 1026.5 877.236C1026.5 877.527 1026.27 877.766 1025.98 877.784C1013.43 878.548 1012.9 879.065 1011.93 891.603C1011.91 891.893 1011.67 892.117 1011.38 892.114Z" fill="#FFE500"/>
</svg>
