<svg width="1357" height="679" viewBox="0 0 1357 679" fill="none" xmlns="http://www.w3.org/2000/svg">
<g opacity="0.3">
<path d="M615.659 509.549C631.068 543.294 668.068 560.913 703.064 547.678C734.43 535.821 754.988 502.208 748.686 469.021C746.734 458.733 741.937 449.293 736.048 440.734C713.927 410.709 677.372 403.31 645.201 422.066C614.723 439.826 600.853 477.126 615.659 509.549ZM616.07 470.769C619.751 478.592 626.961 485.792 634.629 488.29C632.943 491.527 632.51 495.274 632.955 499.026C628.956 501.755 622.624 503.168 618.35 500.407C618.105 500.249 617.853 500.183 617.596 500.11C614.596 490.42 614.165 480.405 616.07 470.769ZM694.248 418.396C703.99 420.635 713.253 425.308 721.293 432.259C712.246 458.004 689.357 478.159 663.062 485.178C660.282 482.798 657.135 481.016 653.799 480.168C648.598 453.401 668.712 425.381 694.248 418.396ZM663.877 514.914C656.949 521.248 647.798 515.942 642.873 509.967C637.524 503.474 635.067 493.203 642.339 487.145C649.724 480.986 658.867 486.876 663.602 493.196C667.966 499.649 670.43 508.917 663.877 514.914ZM628.545 520.777C624.942 516.184 622.086 511.36 619.935 506.413C624.647 507.561 629.859 506.695 634.138 504.339C635.006 506.96 636.243 509.452 637.712 511.63C642.417 518.597 650.411 523.55 658.355 522.647C659.963 532.157 667.041 541.093 675.326 546.77C657.711 545.438 640.756 536.345 628.545 520.777ZM686.004 546.623C685.967 546.608 685.938 546.588 685.899 546.569C675.822 542.809 664.931 532.473 663.348 521.221C664.277 520.795 665.199 520.307 666.104 519.688C670.659 516.548 672.632 512.016 672.899 507.195C695.564 517.264 720.809 512.436 741.554 499.886C737.81 512.244 730.146 523.688 718.758 532.82C708.623 540.952 697.347 545.434 686.004 546.623ZM743.255 492.744C743.208 492.772 743.164 492.767 743.116 492.801C722.338 506.951 695.937 513.016 672.58 501.435C672.541 501.417 672.51 501.423 672.474 501.408C671.688 497.387 669.964 493.456 667.779 490.222C667.552 489.918 667.308 489.632 667.071 489.335C693.038 481.633 715.772 461.419 725.343 436.049C727.65 438.398 729.832 440.953 731.866 443.717C742.5 459.154 746.137 476.481 743.255 492.744ZM683.512 416.915C660.695 427.778 644.053 454.334 648.471 479.657C645.714 479.824 642.912 480.668 640.149 482.394C639.412 482.853 638.755 483.361 638.137 483.888C628.761 482.074 619.453 470.698 618.704 461.381C622.909 449.923 630.526 439.382 641.11 431.053C654.127 420.802 669.032 416.249 683.512 416.915Z" fill="white"/>
</g>
<g opacity="0.3">
<path d="M1312.44 592.959C1313.38 591.719 1312.84 589.552 1311.17 589.106C1310.68 588.903 1310.17 588.888 1309.68 589.084C1296.5 590.591 1283.15 591.538 1269.71 592.034C1257.6 575.246 1246.8 557.557 1234.8 540.689C1233.94 539.484 1231.81 539.394 1230.97 540.687C1219.77 557.958 1208.02 574.802 1195.03 590.785C1195.03 590.79 1195.03 590.795 1195.02 590.801C1181.54 589.97 1168.13 588.885 1154.92 587.63C1154.14 587.556 1153.52 587.804 1153.08 588.218C1152.21 588.763 1151.73 589.78 1152.41 590.964C1152.46 591.063 1152.52 591.164 1152.59 591.265C1152.65 591.378 1152.7 591.49 1152.78 591.595C1158.73 601.93 1165.3 611.841 1172.07 621.651C1177.75 629.892 1182.74 638.396 1191.43 643.591C1191.65 643.824 1191.95 644.025 1192.33 644.163C1203.12 648.092 1218.13 646.182 1229.38 646.336C1240.72 646.493 1255.32 648.418 1266.54 645.264C1266.87 645.269 1267.21 645.202 1267.58 645.034C1288.12 635.616 1301.09 611.577 1312.44 592.959ZM1306.01 594.324C1296.02 610.968 1283.85 631.589 1266.76 640.037C1256.94 625.609 1246.55 611.584 1236.65 597.211C1259.96 597.514 1283.24 596.719 1306.01 594.324ZM1235.25 592.379C1233.84 578.005 1233.43 562.974 1234.32 548.499C1244.35 562.97 1253.76 577.864 1263.95 592.223C1254.41 592.482 1244.83 592.522 1235.25 592.379ZM1231.94 547.997C1231.02 562.606 1231.42 577.835 1232.82 592.352C1222.17 592.158 1211.52 591.734 1200.92 591.147C1212.01 577.292 1222.21 562.82 1231.94 547.997ZM1159.1 592.861C1181.81 594.94 1205.03 596.508 1228.29 597.058C1216.78 611.273 1204.47 624.793 1192.53 638.644C1185.24 633.846 1180.8 625.752 1175.9 618.709C1170.03 610.266 1164.34 601.704 1159.1 592.861ZM1229.95 641.547C1220.33 641.443 1207.19 643.032 1197.23 640.601C1209.01 626.97 1221.13 613.633 1232.44 599.609C1242.11 613.675 1252.26 627.405 1261.91 641.487C1251.87 643.392 1239.57 641.649 1229.95 641.547Z" fill="white"/>
</g>
<g opacity="0.3">
<path d="M1336.7 136.193C1325.44 119.186 1310.18 103.745 1295.48 89.7128C1284.89 79.6024 1273.79 81.7342 1260.92 86.4468C1260.83 86.482 1260.73 86.5172 1260.64 86.5567C1244.05 70.3907 1226.13 56.351 1204.46 47.7587C1194.8 43.9292 1180.41 38.9268 1171.32 46.5822C1162.16 54.2899 1166.2 71.7429 1168.18 81.4056C1172.61 103.096 1183.66 122.608 1195.97 140.763C1195.95 140.796 1195.93 140.829 1195.91 140.859C1190.35 150.438 1184.26 162.065 1191.07 172.647C1202.9 191.011 1216.47 208.583 1231.59 224.367C1235.54 228.491 1243.52 234.684 1246.41 226.332C1248.54 220.158 1247.13 212.158 1247.51 205.758C1248.12 195.701 1249.68 185.705 1251.95 175.898C1257.96 172.577 1263.3 167.872 1268.52 163.561C1274.3 158.796 1280.69 153.811 1285.46 147.832C1295.48 147.306 1305.44 147.69 1315.42 148.67C1322.42 149.36 1329.83 151.9 1336.88 151.1C1345.39 150.142 1338.97 139.619 1336.7 136.193ZM1295.8 95.6786C1306.93 106.295 1316.98 118.023 1326.66 129.952C1329.46 133.408 1332.39 136.867 1334.71 140.675C1319.9 138.702 1304.76 137.026 1289.83 138.439C1290.32 134.452 1289.2 130.471 1286.36 126.416C1279.24 116.235 1270.62 106.941 1262.6 97.4708C1262.41 97.2518 1262.23 97.0285 1262.04 96.8064C1262.08 94.6621 1262.12 92.5178 1262.16 90.3722C1262.27 90.3306 1262.38 90.2903 1262.49 90.2487C1267.5 88.4163 1272.45 86.8559 1277.76 86.2603C1285.65 85.3839 1290.62 90.7343 1295.8 95.6786ZM1212.2 55.509C1211.11 70.7069 1189.13 91.697 1173.61 87.037C1173.28 85.9 1172.92 84.6779 1172.57 83.3839C1188.64 85.0927 1207.09 70.3566 1209.35 54.2011C1210.15 54.5648 1210.9 54.9099 1211.58 55.2079C1211.79 55.3012 1211.99 55.4144 1212.2 55.509ZM1174.85 48.99C1182.07 42.9117 1195.81 48.1485 1205.4 52.4104C1203.95 67.4639 1186.25 81.6675 1171.48 79.0753C1168.96 68.3493 1167.57 55.1092 1174.85 48.99ZM1175.03 91.4909C1192.37 93.9099 1213.98 74.2653 1216.16 57.4363C1231.86 65.3889 1245.62 77.5917 1258.09 89.7766C1258.06 91.1438 1258.03 92.5154 1258.01 93.8838C1257.99 94.8572 1257.97 95.8275 1257.95 96.7978C1257.93 98.201 1258.45 98.933 1259.35 99.9967C1264.96 106.62 1270.57 113.249 1276.07 119.96C1281.6 126.699 1288.81 133.802 1284.2 142.591C1280.07 148.716 1274.03 153.53 1268.42 158.279C1259.53 147.666 1250.63 137.054 1241.74 126.444C1264.31 103.21 1235.12 65.5358 1206.9 85.0786C1177.03 105.775 1209.97 149.332 1238.62 129.114C1247.51 139.727 1256.4 150.34 1265.29 160.951C1259.72 165.741 1253.77 170.777 1247.13 173.718C1238.41 176.596 1233.15 169.82 1227.64 163.501C1221.47 156.432 1215.51 149.168 1209.53 141.942C1208.76 141.009 1208.17 140.134 1206.91 139.934C1205.94 139.782 1204.97 139.626 1204 139.472C1202.53 139.24 1201.06 139.007 1199.59 138.775C1189.55 124.03 1180.59 108.501 1175.03 91.4909ZM1237.64 124.76C1213.91 143.551 1185.05 109.985 1207.67 89.7205C1231.03 68.7883 1260.13 104.42 1237.64 124.76ZM1203.02 183.041C1198.76 177.131 1193.26 170.71 1192.11 163.369C1191.05 156.634 1195.98 148.869 1199.18 143.35C1199.27 143.206 1199.35 143.067 1199.44 142.923C1201.57 143.263 1203.69 143.596 1205.83 143.932C1205.98 144.112 1206.12 144.29 1206.27 144.471C1213.98 153.779 1221.59 163.217 1229.81 172.092C1233.46 176.042 1237.51 178.331 1241.97 178.61C1238.05 192.835 1237.01 207.754 1236.36 222.462C1232.33 219.174 1227.79 214.087 1227.23 213.456C1218.67 203.714 1210.61 193.555 1203.02 183.041ZM1243.21 208.821C1242.92 213.756 1243.18 218.728 1242.76 223.647C1242.57 225.965 1240.71 225.527 1238.34 223.944C1238.99 208.764 1239.92 193.258 1244.08 178.587C1245.14 178.503 1246.22 178.31 1247.32 178.001C1245.14 188.166 1243.84 198.427 1243.21 208.821ZM1319.6 145.014C1309.25 143.62 1298.75 143.245 1288.32 143.631C1288.34 143.553 1288.36 143.474 1288.37 143.395C1288.81 142.442 1289.16 141.491 1289.42 140.544C1304.89 138.982 1320.62 140.855 1335.97 142.919C1336.24 143.434 1336.51 143.949 1336.75 144.479C1338.65 148.627 1320.19 145.094 1319.6 145.014Z" fill="white"/>
<path d="M1238.85 94.2064C1231.88 84.6856 1219.59 84.3749 1210.59 90.999C1200.95 98.0854 1199.59 110.677 1206.8 119.964C1214.12 129.39 1226.8 129.88 1235.75 122.649C1244.28 115.078 1245.62 103.456 1238.85 94.2064ZM1234.48 121.023C1226.12 127.774 1215.41 126.964 1208.42 118.7C1201.32 110.291 1203.67 99.191 1211.85 92.624C1220 86.0789 1230.79 87.3992 1237.22 95.4716C1243.63 103.504 1241.93 114.421 1234.48 121.023Z" fill="white"/>
</g>
<g opacity="0.3">
<path d="M159.282 93.5212C154.776 79.4744 136.095 71.4243 124.07 65.5029C124.058 65.4967 124.048 65.4998 124.039 65.4935C125.706 48.0873 120.472 31.9243 108.429 19.1711C86.451 -4.10319 49.4784 -2.66523 27.6578 19.5478C24.7128 22.9606 20.6941 28.2855 17.8872 33.9871C4.57197 32.3231 -14.6458 28.948 -25.7037 38.3261C-28.2719 40.505 -29.3551 42.9257 -29.4462 45.3966C-32.2687 53.5974 -35.4806 64.8436 -29.0317 71.6661C-26.1527 74.7115 -22.8655 77.3269 -19.3867 79.6879C-23.0287 89.1037 -18.988 98.3029 -10.0368 102.777C-1.7042 106.94 8.39606 104.749 13.0396 96.573C21.1085 99.9512 29.3627 102.94 37.6765 105.65C36.3892 115.238 41.601 123.003 51.0263 125.857C60.0402 128.588 69.6005 124.422 72.7495 115.618C81.0822 117.612 89.4996 119.307 97.9673 120.61C97.9516 120.701 97.9108 120.77 97.9076 120.868C97.5968 130.987 105.458 137.269 114.965 138.252C125.003 139.291 132.645 132.431 134.375 123.062C137.634 122.805 140.864 122.334 144.017 121.518C153.627 119.037 157.348 107.797 159.184 99.2197C159.85 97.6028 159.988 95.7284 159.282 93.5212ZM104.162 20.4018C115.097 30.2949 120.519 44.731 120.629 59.2487C120.733 72.8843 118.491 79.4807 105.289 80.1306C102.919 80.2468 100.526 80.2499 98.1242 80.1588C96.0081 76.5608 94.5513 74.2657 90.5828 72.2406C85.5279 69.6598 80.2188 66.2596 79.3962 60.1561C85.2862 55.9458 90.0365 48.3887 91.8324 43.0733C95.2891 32.8317 89.7225 22.3767 79.4464 19.4379C68.376 16.27 59.6289 24.7659 57.5128 34.9981C56.5458 40.6871 56.2632 47.6854 58.3637 53.3902C58.1345 53.5409 57.9241 53.7481 57.7577 54.0401C53.2303 61.9865 40.408 54.4357 35.1679 62.2283C30.8132 59.9677 26.6532 57.3524 23.008 54.1939C12.8324 45.3778 23.4853 30.2949 30.3956 22.2825C50.8379 1.47598 82.5829 0.882584 104.162 20.4018ZM66.7999 58.288C59.5128 54.7559 60.103 42.6902 61.2364 36.0279C62.9193 27.8867 68.6146 21.485 77.4936 22.9575C86.137 24.3923 90.184 32.7281 88.4604 40.7625C86.7116 48.8942 76.0682 62.784 66.7999 58.288ZM60.2757 57.2174C61.6572 59.2645 63.5221 60.9787 65.993 62.1781C69.3462 63.8044 72.7276 63.5469 75.908 62.1592C76.9347 66.2251 79.4245 69.4464 82.8373 72.1653C84.6112 73.5781 86.6048 74.5954 88.6299 75.5812C90.9595 76.7147 92.2405 78.0992 93.3991 79.848C77.7259 78.4477 61.767 73.2642 47.5946 67.7509C44.6214 66.5955 41.6168 65.3397 38.6561 63.9519C41.3185 60.8186 47.4659 61.8798 51.1205 61.5909C54.8221 61.299 58.0874 60.0839 60.2757 57.2174ZM-4.1751 36.4109C2.65365 36.2225 9.50752 36.8787 16.2923 37.6793C14.3991 42.7153 13.7837 47.7922 16.0003 51.9114C20.399 60.0808 31.6326 64.9064 39.554 68.5233C60.4578 78.0615 87.5059 86.6956 110.777 83.4806C119.568 82.2655 122.334 77.1385 123.543 69.5343C131.31 73.2642 143.985 78.8496 150.911 86.4444C152.578 89.4711 152.701 92.9027 149.178 95.3611C146.258 97.4018 142.224 98.0298 138.77 98.4756C132.541 99.2762 126.13 98.8649 119.898 98.35C102.171 96.8775 84.5892 93.044 67.4278 88.4852C48.2006 83.3801 29.2371 76.8842 11.2155 68.4322C3.48251 64.8059 -4.33209 60.8217 -11.2456 55.7763C-14.5234 53.387 -17.8106 50.3321 -19.4056 46.53C-21.2988 42.0152 -17.8765 38.9509 -14.1466 36.9792C-10.8877 36.4046 -7.24882 36.4957 -4.1751 36.4109ZM-19.8953 39.1424C-21.8733 41.5097 -22.6739 44.4673 -20.8372 48.0684C-16.9347 55.7261 -8.40737 60.2472 -1.20814 64.2596C18.4021 75.1856 39.9716 82.7365 61.5033 88.8588C81.1795 94.4537 101.487 98.868 121.917 100.441C129.656 101.038 153.834 102.397 154.045 90.7709C154.902 92.3595 155.483 94.0204 155.705 95.7567C155.778 96.3281 155.759 96.8587 155.674 97.3579C155.658 97.4144 155.624 97.4489 155.608 97.5086C155.558 97.7503 155.501 97.9795 155.451 98.2213C152.72 105.625 132.054 104.651 126.73 104.469C105.009 103.738 83.2957 98.7111 62.4232 92.9655C41.4252 87.1854 20.6533 79.8072 1.23452 69.8953C-6.25983 66.0681 -13.5815 61.6757 -19.9833 56.1907C-26.0616 50.9789 -25.9988 43.1423 -19.8953 39.1424ZM-16.0524 81.8417C-13.6506 83.3299 -11.2017 84.7365 -8.759 86.0928C-4.72455 88.3376 -0.586487 90.4004 3.60181 92.3689C0.132496 96.416 -6.03063 98.5101 -11.2016 97.6436C-16.1874 93.9827 -17.9456 87.9358 -16.0524 81.8417ZM-7.42465 99.7063C-2.53621 99.3201 2.42444 96.9874 5.40711 93.2324C6.75402 93.8509 8.1135 94.4443 9.47611 95.0377C5.79016 100.968 -1.05743 102.202 -7.42465 99.7063ZM41.397 106.836C45.7799 108.221 50.1723 109.555 54.5584 110.821C57.3464 111.624 60.147 112.403 62.957 113.153C61.3746 117.728 56.2381 121.094 51.5349 121.756C45.5759 119.587 40.6749 114.127 41.397 106.836ZM55.5003 122.682C59.6823 121.05 63.3965 117.775 64.8 113.628C66.194 113.995 67.5911 114.353 68.9914 114.704C66.6524 120.977 61.0606 123.285 55.5003 122.682ZM101.782 121.175C107.976 122.036 114.193 122.701 120.419 123.072C121.402 123.131 122.384 123.182 123.37 123.219C122.466 128.5 118.187 133.376 112.786 133.991C106.812 132.936 101.694 128.638 101.782 121.175ZM118.246 134.064C121.976 131.753 124.639 127.646 125.314 123.276C127.028 123.32 128.748 123.32 130.466 123.273C129.056 129.671 123.851 133.247 118.246 134.064ZM134.88 119.147C128.048 119.753 121.122 119.339 114.306 118.767C95.286 117.179 76.4386 112.849 58.0748 107.794C39.1553 102.585 20.5026 96.0204 2.74784 87.6375C-3.98672 84.457 -10.5266 80.859 -16.7526 76.768C-21.349 73.7477 -26.0742 70.4856 -28.184 65.1011C-29.7036 61.2173 -28.9501 56.5141 -27.6346 52.0401C-25.148 56.602 -20.6143 60.7621 -17.2486 63.2612C5.32235 80.0019 34.7001 89.1665 61.3934 96.6923C86.5766 103.791 114.46 110.378 140.82 108.042C144.261 107.738 149.533 106.745 153.646 104.607C150.644 112.855 145.363 118.218 134.88 119.147Z" fill="white"/>
<path d="M84.6748 36.1824C82.1411 33.6392 77.3468 38.8228 75.733 40.3141C73.7142 42.3424 73.463 45.6987 74.9387 48.113C76.8288 51.2087 80.2824 49.6483 82.2666 47.6013C84.6716 45.1304 87.7642 39.2812 84.6748 36.1824ZM76.339 46.6625C75.5195 45.1021 75.8806 42.9044 77.0988 41.6799C78.116 40.738 79.1395 39.8024 80.2384 38.9578C80.8664 38.4774 82.4111 37.1714 83.2933 37.5544C84.3608 38.0191 83.8396 40.7317 83.6575 41.5135C83.2399 43.3062 82.1065 44.8918 80.904 46.2355C79.5571 47.7363 77.5069 48.8854 76.339 46.6625Z" fill="white"/>
<path d="M67.3803 31.2468C65.7257 31.5514 64.4447 33.7962 63.9424 35.2059C63.0853 37.6172 63.1135 40.1477 63.619 42.6343C64.181 45.4067 66.5169 47.8933 69.4619 46.4584C72.0145 45.2151 73.5372 42.223 72.9312 39.4445C72.2719 36.9108 71.195 30.5467 67.3803 31.2468ZM69.1731 44.3988C67.3772 45.7049 66.1307 44.3423 65.5907 42.5684C64.7148 39.6862 64.9251 35.253 67.5499 33.2845C69.217 32.0349 70.8214 39.0112 71.0694 39.9594C71.4336 41.6453 70.5357 43.4098 69.1731 44.3988Z" fill="white"/>
</g>
<g opacity="0.3">
<path d="M54.0707 561.196C57.3165 566.383 62.5432 571.256 68.7561 572.268C75.3947 573.349 83.1968 566.962 84.361 560.651C86.0399 560.734 87.7512 560.497 89.4593 559.813C93.2201 558.306 96.7836 555.12 100.136 552.881C106.082 548.91 112.028 544.939 117.972 540.963C127.575 534.545 137.845 528.563 146.88 521.357C154.154 515.557 156.328 501.903 157.455 493.303C157.47 493.197 157.439 493.111 157.437 493.012C157.522 492.312 157.219 491.578 156.331 491.356C147.458 489.121 137.703 487.451 128.644 489.365C127.453 489.616 126.314 490.084 125.208 490.657C125.145 490.685 125.088 490.716 125.03 490.753C122.416 492.145 120.008 494.172 117.693 495.774C111.973 499.739 106.269 503.729 100.564 507.719C90.5799 514.7 80.6088 521.704 70.6224 528.685C68.385 530.246 67.0411 532.227 66.3551 534.408C60.2676 533.317 52.9504 537.554 50.4545 543.185C47.8494 549.054 50.9419 556.201 54.0707 561.196ZM123.257 533.608C114.563 539.431 105.859 545.239 97.1573 551.05C94.0557 553.121 90.8655 555.843 87.3836 557.237C84.5428 558.375 81.6503 557.48 79.094 555.789C97.4553 542.72 116.052 529.911 134.825 517.442C134.857 517.421 134.868 517.392 134.897 517.37C137.308 518.998 140.053 520.103 143.064 520.495C140.772 522.251 137.979 523.72 135.815 525.178C131.636 527.996 127.446 530.803 123.257 533.608ZM132.311 515.313C113.517 527.812 94.8937 540.64 76.5162 553.739C75.0245 552.358 73.731 550.826 72.7594 549.491C71.612 547.913 70.6616 546.139 69.9866 544.275C88.8831 531.884 107.609 519.153 126.093 506.152C127.51 509.64 129.626 512.823 132.311 515.313ZM151.966 495.917C151.994 495.935 152.003 495.961 152.032 495.98C152.012 495.966 152 495.952 151.98 495.936C151.973 495.932 151.97 495.923 151.966 495.917ZM148.365 492.705C148.366 492.713 148.359 492.717 148.36 492.725C147.835 496.139 149.819 499.677 153.126 500.055C151.831 506.305 149.745 512.591 146.074 517.498C146.027 517.496 145.992 517.473 145.942 517.473C133.793 517.757 125.764 504.296 127.421 493.101C132.926 490.127 141.255 491.166 148.365 492.705ZM78.508 527.028C87.514 520.721 96.5157 514.41 105.527 508.112C111.659 503.828 117.706 499.111 124.071 495.1C123.985 497.749 124.316 500.438 125.028 503.028C106.616 515.99 87.9555 528.677 69.1299 541.034C68.8474 539.273 68.8475 537.475 69.2256 535.715C70.0932 531.678 75.3831 529.217 78.508 527.028ZM65.8054 537.537C65.5848 541.675 67.1221 546.15 69.1615 549.77C71.7121 554.298 76.1693 558.598 81.2307 560.104C79.9819 565.713 73.2071 570.232 67.5764 568.774C63.0191 567.593 59.3532 563.304 56.8213 559.606C54.4803 556.183 52.9204 552.152 52.7415 547.998C52.4827 541.955 60.1145 536.454 65.8054 537.537Z" fill="white"/>
</g>
</svg>
