<svg width="32" height="32" viewBox="0 0 32 32" fill="none" xmlns="http://www.w3.org/2000/svg">
<path d="M15.4759 13.9647C16.2726 13.9647 16.9562 14.4492 17.2481 15.1392L31.057 9.02916C31.057 9.02916 26.7195 6.22139 20.0694 6.09033L12.8203 9.29737L14.9252 14.0542C15.101 14.0016 15.2829 13.9647 15.4759 13.9647Z" fill="#3160E2"/>
<path d="M22.2306 13.292L17.3713 15.4423C17.4057 15.5859 17.4282 15.7338 17.4282 15.8881C17.4282 16.6491 16.9828 17.3008 16.3418 17.613L22.4988 31.5276C22.4988 31.5276 25.3065 27.1908 25.4383 20.5408L22.2306 13.292Z" fill="#FF85A5"/>
<path d="M16.0509 17.7637C15.8859 17.8099 15.715 17.8425 15.5356 17.8425C14.8091 17.8425 14.1839 17.4346 13.8566 16.8398L0 22.971C0 22.971 4.33752 25.7792 10.9876 25.9106L18.2367 22.7032L16.0509 17.7637Z" fill="#3160E2"/>
<path d="M13.612 15.8584C13.612 15.1286 14.0231 14.5016 14.6222 14.1757L8.55833 0.47168C8.55833 0.47168 5.75092 4.80884 5.61914 11.4593L8.82653 18.7084L13.7402 16.5337C13.6607 16.3224 13.612 16.0968 13.612 15.8584Z" fill="#FF85A5"/>
</svg>
