<svg width="29" height="29" viewBox="0 0 29 29" fill="none" xmlns="http://www.w3.org/2000/svg">
<circle cx="14.7246" cy="14.2363" r="13.5" fill="white" stroke="#F1F1F1"/>
<g clip-path="url(#clip0)">
<path d="M23.7246 8.6552C23.0552 8.94883 22.342 9.14345 21.5984 9.23795C22.3634 8.7812 22.9472 8.06345 23.2217 7.19833C22.5085 7.62358 21.721 7.92395 20.8817 8.09158C20.2045 7.37045 19.2392 6.92383 18.1862 6.92383C16.1432 6.92383 14.4985 8.58208 14.4985 10.615C14.4985 10.9075 14.5232 11.1887 14.584 11.4565C11.5161 11.3068 8.80148 9.83645 6.97786 7.59658C6.65948 8.14895 6.47273 8.7812 6.47273 9.46183C6.47273 10.7398 7.13086 11.8727 8.11186 12.5286C7.51898 12.5173 6.93736 12.3452 6.44461 12.0741C6.44461 12.0853 6.44461 12.1 6.44461 12.1146C6.44461 13.9078 7.72373 15.3973 9.40111 15.7405C9.10073 15.8226 8.77336 15.862 8.43361 15.862C8.19736 15.862 7.95886 15.8485 7.73498 15.799C8.21311 17.2603 9.56986 18.3347 11.1831 18.3696C9.92761 19.3517 8.33348 19.9435 6.60773 19.9435C6.30511 19.9435 6.01486 19.93 5.72461 19.8928C7.35923 20.947 9.29648 21.5488 11.3856 21.5488C18.1761 21.5488 21.8886 15.9238 21.8886 11.0481C21.8886 10.885 21.883 10.7275 21.8751 10.5711C22.6075 10.0513 23.2229 9.4022 23.7246 8.6552Z" fill="#03A9F4"/>
</g>
<defs>
<clipPath id="clip0">
<rect width="18" height="18" fill="white" transform="translate(5.72461 5.23633)"/>
</clipPath>
</defs>
</svg>
