<svg width="111" height="51" viewBox="0 0 111 51" fill="none" xmlns="http://www.w3.org/2000/svg">
<path d="M2.53074 45.1029C6.32321 53.2079 98.6065 51.4956 106.402 43.0481C113.566 35.3997 110.195 10.1714 104.085 4.69192C95.6568 -2.72817 13.9081 0.354024 7.16598 6.17594C0.634512 11.6554 -1.47241 36.7695 2.53074 45.1029Z" fill="url(#paint0_radial)"/>
<path d="M2.74057 43.7328C6.53303 51.4954 98.1842 48.0708 105.98 39.9657C113.143 32.5456 109.772 10.3995 103.662 5.03422C95.2346 -2.15757 13.9073 0.696316 7.16511 6.40408C0.844339 11.6552 -1.26259 35.6278 2.74057 43.7328Z" fill="url(#paint1_linear)"/>
<path d="M3.79547 43.0374C7.58794 50.5717 97.1322 47.147 104.928 39.2703C111.881 32.0785 108.72 10.6173 102.61 5.48033C94.3932 -1.48314 14.7515 1.25659 8.22002 6.73604C1.89924 11.7589 0.0030098 35.1607 3.79547 43.0374Z" fill="url(#paint2_linear)"/>
<path d="M100.715 40.879C100.294 39.9658 104.508 36.0845 105.561 36.0845C106.614 36.0845 105.772 38.71 104.929 39.2808C104.086 39.8516 100.926 41.3356 100.715 40.879Z" fill="white"/>
<path d="M7.79769 11.1988C7.79769 11.1988 4.84799 7.08926 10.5367 5.60524C16.4361 4.12122 35.1877 2.6372 36.2412 3.09382C37.0839 3.43629 28.2349 5.26277 23.5996 6.17601C18.9644 7.08926 10.326 11.8838 7.79769 11.1988Z" fill="white"/>
<path d="M28.2894 29.0052C28.1401 29.1332 27.9054 29.2452 27.5854 29.3412C27.2761 29.4372 26.9347 29.4852 26.5614 29.4852C26.1134 29.4852 25.7294 29.4212 25.4094 29.2932C25.0894 29.1545 24.8707 28.9679 24.7534 28.7332C24.6361 28.4879 24.4921 28.1732 24.3214 27.7892C24.1507 27.3945 23.9694 26.9572 23.7774 26.4772C23.5961 25.9972 23.4041 25.4905 23.2014 24.9572C23.0094 24.4132 22.8227 23.8639 22.6414 23.3092C22.4601 22.7545 22.2894 22.2105 22.1294 21.6772C21.9694 21.1439 21.8307 20.6425 21.7134 20.1732C21.8627 20.0239 22.0761 19.8905 22.3534 19.7732C22.6414 19.6452 22.9454 19.5812 23.2654 19.5812C23.6601 19.5812 23.9801 19.6665 24.2254 19.8372C24.4814 19.9972 24.6681 20.3012 24.7854 20.7492C25.0734 21.7945 25.3614 22.7972 25.6494 23.7572C25.9481 24.7065 26.2574 25.6985 26.5774 26.7332H26.6734C26.9614 25.7305 27.2547 24.6372 27.5534 23.4532C27.8627 22.2692 28.1561 21.0905 28.4334 19.9172C28.6254 19.8212 28.8281 19.7412 29.0414 19.6772C29.2654 19.6132 29.5161 19.5812 29.7934 19.5812C30.1881 19.5812 30.5241 19.6719 30.8014 19.8532C31.0787 20.0239 31.2174 20.3119 31.2174 20.7172C31.2174 20.9519 31.1587 21.2932 31.0414 21.7412C30.9347 22.1892 30.7907 22.6959 30.6094 23.2612C30.4387 23.8159 30.2414 24.3972 30.0174 25.0052C29.8041 25.6132 29.5854 26.1892 29.3614 26.7332C29.1481 27.2665 28.9454 27.7412 28.7534 28.1572C28.5614 28.5625 28.4067 28.8452 28.2894 29.0052ZM35.422 29.2612C35.3047 29.2932 35.118 29.3252 34.862 29.3572C34.6167 29.3892 34.3714 29.4052 34.126 29.4052C33.8807 29.4052 33.662 29.3839 33.47 29.3412C33.2887 29.3092 33.134 29.2452 33.006 29.1492C32.878 29.0532 32.782 28.9199 32.718 28.7492C32.654 28.5785 32.622 28.3545 32.622 28.0772V19.6292C32.7394 19.6079 32.926 19.5812 33.182 19.5492C33.438 19.5065 33.6834 19.4852 33.918 19.4852C34.1634 19.4852 34.3767 19.5065 34.558 19.5492C34.75 19.5812 34.91 19.6452 35.038 19.7412C35.166 19.8372 35.262 19.9705 35.326 20.1412C35.39 20.3119 35.422 20.5359 35.422 20.8132V29.2612ZM37.497 21.1172C37.497 20.6585 37.6304 20.2959 37.897 20.0292C38.1637 19.7625 38.5264 19.6292 38.985 19.6292H44.265C44.3397 19.7465 44.4037 19.9012 44.457 20.0932C44.521 20.2852 44.553 20.4879 44.553 20.7012C44.553 21.1065 44.4624 21.3945 44.281 21.5652C44.1104 21.7359 43.881 21.8212 43.593 21.8212H40.217V23.3092H43.817C43.8917 23.4265 43.9557 23.5812 44.009 23.7732C44.073 23.9545 44.105 24.1519 44.105 24.3652C44.105 24.7705 44.0197 25.0585 43.849 25.2292C43.6784 25.3999 43.449 25.4852 43.161 25.4852H40.217V27.1652H44.329C44.4037 27.2825 44.4677 27.4372 44.521 27.6292C44.585 27.8212 44.617 28.0239 44.617 28.2372C44.617 28.6425 44.5264 28.9359 44.345 29.1172C44.1744 29.2879 43.945 29.3732 43.657 29.3732H38.985C38.5264 29.3732 38.1637 29.2399 37.897 28.9732C37.6304 28.7065 37.497 28.3439 37.497 27.8852V21.1172ZM50.7427 21.9972C50.86 21.9439 51.0413 21.8852 51.2867 21.8212C51.5427 21.7465 51.7987 21.7092 52.0547 21.7092C52.5027 21.7092 52.876 21.7785 53.1747 21.9172C53.4733 22.0452 53.6547 22.2372 53.7187 22.4932C53.836 22.9305 53.9427 23.3412 54.0387 23.7252C54.1453 24.0985 54.2467 24.4612 54.3427 24.8132C54.4387 25.1545 54.5293 25.4959 54.6147 25.8372C54.7107 26.1785 54.8013 26.5359 54.8867 26.9092H54.9667C55.0627 26.2585 55.148 25.6399 55.2227 25.0532C55.2973 24.4559 55.3667 23.8745 55.4307 23.3092C55.4947 22.7332 55.5587 22.1679 55.6227 21.6132C55.6867 21.0479 55.7507 20.4772 55.8147 19.9012C56.2093 19.6772 56.6307 19.5652 57.0787 19.5652C57.4733 19.5652 57.8147 19.6505 58.1027 19.8212C58.3907 19.9919 58.5347 20.2799 58.5347 20.6852C58.5347 20.9199 58.508 21.2559 58.4547 21.6932C58.412 22.1199 58.348 22.5999 58.2627 23.1332C58.188 23.6665 58.0973 24.2265 57.9907 24.8132C57.884 25.3999 57.772 25.9599 57.6547 26.4932C57.5373 27.0265 57.4147 27.5119 57.2867 27.9492C57.1693 28.3759 57.0573 28.7065 56.9507 28.9412C56.7907 29.0905 56.5293 29.2132 56.1667 29.3092C55.804 29.4052 55.4307 29.4532 55.0467 29.4532C54.5453 29.4532 54.1187 29.3892 53.7667 29.2612C53.4253 29.1225 53.2173 28.9305 53.1427 28.6852C53.004 28.2585 52.8547 27.7519 52.6947 27.1652C52.5347 26.5785 52.364 25.9332 52.1827 25.2292C52.0333 25.9225 51.8787 26.5999 51.7187 27.2612C51.5587 27.9225 51.4147 28.4825 51.2867 28.9412C51.1267 29.0905 50.8867 29.2132 50.5667 29.3092C50.2467 29.4052 49.8947 29.4532 49.5107 29.4532C49.0307 29.4532 48.5933 29.3892 48.1987 29.2612C47.8147 29.1225 47.564 28.9305 47.4467 28.6852C47.3507 28.4932 47.244 28.2105 47.1267 27.8372C47.02 27.4532 46.908 27.0212 46.7907 26.5412C46.6733 26.0505 46.5507 25.5225 46.4227 24.9572C46.3053 24.3919 46.1933 23.8265 46.0867 23.2612C45.9907 22.6959 45.9 22.1465 45.8147 21.6132C45.7293 21.0692 45.6653 20.5732 45.6227 20.1252C45.772 19.9865 45.98 19.8585 46.2467 19.7412C46.5133 19.6239 46.8013 19.5652 47.1107 19.5652C47.516 19.5652 47.8467 19.6559 48.1027 19.8372C48.3693 20.0079 48.5347 20.3012 48.5987 20.7172C48.7693 21.8052 48.908 22.7119 49.0147 23.4372C49.132 24.1625 49.2227 24.7599 49.2867 25.2292C49.3613 25.6879 49.4147 26.0452 49.4467 26.3012C49.4787 26.5572 49.5107 26.7599 49.5427 26.9092H49.6227C49.7187 26.4825 49.8093 26.0879 49.8947 25.7252C49.98 25.3625 50.0653 24.9999 50.1507 24.6372C50.2467 24.2639 50.3427 23.8692 50.4387 23.4532C50.5347 23.0265 50.636 22.5412 50.7427 21.9972ZM65.3423 19.9172C65.5236 19.8105 65.7956 19.7092 66.1583 19.6132C66.5316 19.5172 66.9049 19.4692 67.2783 19.4692C67.8116 19.4692 68.2809 19.5492 68.6863 19.7092C69.1023 19.8585 69.3689 20.0985 69.4863 20.4292C69.6783 20.9839 69.8863 21.6292 70.1103 22.3652C70.3343 23.1012 70.5583 23.8639 70.7823 24.6532C71.0063 25.4319 71.2249 26.2052 71.4383 26.9732C71.6516 27.7305 71.8383 28.4025 71.9983 28.9892C71.8703 29.1385 71.6783 29.2559 71.4223 29.3412C71.1663 29.4372 70.8623 29.4852 70.5103 29.4852C70.2543 29.4852 70.0356 29.4639 69.8543 29.4212C69.6836 29.3785 69.5396 29.3145 69.4223 29.2292C69.3156 29.1439 69.2249 29.0319 69.1503 28.8932C69.0863 28.7545 69.0276 28.5945 68.9743 28.4132L68.6863 27.3092H65.7903C65.7049 27.6292 65.6196 27.9599 65.5343 28.3012C65.4489 28.6425 65.3636 28.9732 65.2783 29.2932C65.1289 29.3465 64.9689 29.3892 64.7983 29.4212C64.6383 29.4639 64.4409 29.4852 64.2063 29.4852C63.6623 29.4852 63.2569 29.3945 62.9903 29.2132C62.7343 29.0212 62.6063 28.7599 62.6063 28.4292C62.6063 28.2799 62.6276 28.1305 62.6703 27.9812C62.7129 27.8319 62.7609 27.6559 62.8143 27.4532C62.8889 27.1652 62.9903 26.8079 63.1183 26.3812C63.2569 25.9545 63.4063 25.4959 63.5663 25.0052C63.7263 24.5039 63.8969 23.9919 64.0783 23.4692C64.2596 22.9465 64.4303 22.4559 64.5903 21.9972C64.7503 21.5279 64.8943 21.1119 65.0223 20.7492C65.1609 20.3865 65.2676 20.1092 65.3423 19.9172ZM67.2623 21.9812C67.1129 22.4292 66.9423 22.9305 66.7503 23.4852C66.5689 24.0292 66.4036 24.5839 66.2543 25.1492H68.2383C68.0889 24.5732 67.9343 24.0132 67.7743 23.4692C67.6249 22.9145 67.4863 22.4185 67.3583 21.9812H67.2623ZM74.7975 29.3732C74.3389 29.3732 73.9762 29.2399 73.7095 28.9732C73.4429 28.7065 73.3095 28.3439 73.3095 27.8852V19.6132C73.4269 19.5919 73.6135 19.5652 73.8695 19.5332C74.1255 19.4905 74.3709 19.4692 74.6055 19.4692C74.8509 19.4692 75.0642 19.4905 75.2455 19.5332C75.4375 19.5652 75.5975 19.6292 75.7255 19.7252C75.8535 19.8212 75.9495 19.9545 76.0135 20.1252C76.0775 20.2959 76.1095 20.5199 76.1095 20.7972V27.1172H79.7735C79.8482 27.2345 79.9175 27.3945 79.9815 27.5972C80.0455 27.7892 80.0775 27.9919 80.0775 28.2052C80.0775 28.6319 79.9869 28.9359 79.8055 29.1172C79.6242 29.2879 79.3842 29.3732 79.0855 29.3732H74.7975ZM83.0007 29.3732C82.542 29.3732 82.1793 29.2399 81.9127 28.9732C81.646 28.7065 81.5127 28.3439 81.5127 27.8852V19.6132C81.63 19.5919 81.8167 19.5652 82.0727 19.5332C82.3287 19.4905 82.574 19.4692 82.8087 19.4692C83.054 19.4692 83.2673 19.4905 83.4487 19.5332C83.6407 19.5652 83.8007 19.6292 83.9287 19.7252C84.0567 19.8212 84.1527 19.9545 84.2167 20.1252C84.2807 20.2959 84.3127 20.5199 84.3127 20.7972V27.1172H87.9767C88.0513 27.2345 88.1207 27.3945 88.1847 27.5972C88.2487 27.7892 88.2807 27.9919 88.2807 28.2052C88.2807 28.6319 88.19 28.9359 88.0087 29.1172C87.8273 29.2879 87.5873 29.3732 87.2887 29.3732H83.0007Z" fill="#931B1D"/>
<defs>
<radialGradient id="paint0_radial" cx="0" cy="0" r="1" gradientUnits="userSpaceOnUse" gradientTransform="translate(57.1545 46.857) scale(42.4641 43.1417)">
<stop stop-color="#FFBD00"/>
<stop offset="1" stop-color="#FF772C"/>
</radialGradient>
<linearGradient id="paint1_linear" x1="55.3732" y1="48.1048" x2="55.3732" y2="0.808531" gradientUnits="userSpaceOnUse">
<stop stop-color="#FFF300"/>
<stop offset="1" stop-color="#FF9700"/>
</linearGradient>
<linearGradient id="paint2_linear" x1="55.3747" y1="47.2333" x2="55.3747" y2="1.29689" gradientUnits="userSpaceOnUse">
<stop stop-color="#FFCC00"/>
<stop offset="1" stop-color="#FF9700"/>
</linearGradient>
</defs>
</svg>
