<svg width="161" height="51" viewBox="0 0 161 51" fill="none" xmlns="http://www.w3.org/2000/svg">
<g clip-path="url(#clip0)">
<path d="M3.45431 45.1029C8.97155 53.2079 143.224 51.4956 154.565 43.0481C164.987 35.3997 160.083 10.1714 151.194 4.69192C138.933 -2.72817 20.006 0.354024 10.1976 6.17594C0.695687 11.6554 -2.36945 36.7695 3.45431 45.1029Z" fill="url(#paint0_radial)"/>
<path d="M3.75987 43.7328C9.27711 51.4954 142.61 48.0708 153.951 39.9657C164.373 32.5456 159.469 10.3995 150.58 5.03422C138.319 -2.15757 20.0051 0.696316 10.1966 6.40408C1.00125 11.6552 -2.06389 35.6278 3.75987 43.7328Z" fill="url(#paint1_linear)"/>
<path d="M5.29567 43.0374C10.8129 50.5717 141.081 47.147 152.422 39.2703C162.537 32.0785 157.939 10.6173 149.05 5.48033C137.096 -1.48314 21.2344 1.25659 11.7325 6.73604C2.53705 11.7589 -0.221572 35.1607 5.29567 43.0374Z" fill="url(#paint2_linear)"/>
<path d="M21.3923 19.5213C21.3923 17.5968 23.4756 16.394 25.1423 17.3563L34.1423 22.5524C35.809 23.5147 35.809 25.9203 34.1423 26.8826L25.1423 32.0787C23.4756 33.041 21.3923 31.8382 21.3923 29.9137L21.3923 19.5213Z" fill="url(#paint3_linear)" stroke="#FF9917"/>
<path d="M146.293 40.879C145.68 39.9658 151.81 36.0845 153.343 36.0845C154.875 36.0845 153.649 38.71 152.423 39.2808C151.197 39.8516 146.599 41.3356 146.293 40.879Z" fill="white"/>
<path d="M11.1161 11.1988C11.1161 11.1988 6.82488 7.08926 15.1007 5.60524C23.6831 4.12122 50.9628 2.6372 52.4954 3.09382C53.7214 3.43629 40.8479 5.26277 34.1046 6.17601C27.3613 7.08926 14.7942 11.8838 11.1161 11.1988Z" fill="white"/>
<path d="M54.688 21.9972C54.8053 21.9439 54.9866 21.8852 55.232 21.8212C55.488 21.7465 55.744 21.7092 56 21.7092C56.448 21.7092 56.8213 21.7785 57.12 21.9172C57.4186 22.0452 57.6 22.2372 57.664 22.4932C57.7813 22.9305 57.888 23.3412 57.984 23.7252C58.0906 24.0985 58.192 24.4612 58.288 24.8132C58.384 25.1545 58.4746 25.4959 58.56 25.8372C58.656 26.1785 58.7466 26.5359 58.832 26.9092H58.912C59.008 26.2585 59.0933 25.6399 59.168 25.0532C59.2426 24.4559 59.312 23.8745 59.376 23.3092C59.44 22.7332 59.504 22.1679 59.568 21.6132C59.632 21.0479 59.696 20.4772 59.76 19.9012C60.1546 19.6772 60.576 19.5652 61.024 19.5652C61.4186 19.5652 61.76 19.6505 62.048 19.8212C62.336 19.9919 62.48 20.2799 62.48 20.6852C62.48 20.9199 62.4533 21.2559 62.4 21.6932C62.3573 22.1199 62.2933 22.5999 62.208 23.1332C62.1333 23.6665 62.0426 24.2265 61.936 24.8132C61.8293 25.3999 61.7173 25.9599 61.6 26.4932C61.4826 27.0265 61.36 27.5119 61.232 27.9492C61.1146 28.3759 61.0026 28.7065 60.896 28.9412C60.736 29.0905 60.4746 29.2132 60.112 29.3092C59.7493 29.4052 59.376 29.4532 58.992 29.4532C58.4906 29.4532 58.064 29.3892 57.712 29.2612C57.3706 29.1225 57.1626 28.9305 57.088 28.6852C56.9493 28.2585 56.8 27.7519 56.64 27.1652C56.48 26.5785 56.3093 25.9332 56.128 25.2292C55.9786 25.9225 55.824 26.5999 55.664 27.2612C55.504 27.9225 55.36 28.4825 55.232 28.9412C55.072 29.0905 54.832 29.2132 54.512 29.3092C54.192 29.4052 53.84 29.4532 53.456 29.4532C52.976 29.4532 52.5386 29.3892 52.144 29.2612C51.76 29.1225 51.5093 28.9305 51.392 28.6852C51.296 28.4932 51.1893 28.2105 51.072 27.8372C50.9653 27.4532 50.8533 27.0212 50.736 26.5412C50.6186 26.0505 50.496 25.5225 50.368 24.9572C50.2506 24.3919 50.1386 23.8265 50.032 23.2612C49.936 22.6959 49.8453 22.1465 49.76 21.6132C49.6746 21.0692 49.6106 20.5732 49.568 20.1252C49.7173 19.9865 49.9253 19.8585 50.192 19.7412C50.4586 19.6239 50.7466 19.5652 51.056 19.5652C51.4613 19.5652 51.792 19.6559 52.048 19.8372C52.3146 20.0079 52.48 20.3012 52.544 20.7172C52.7146 21.8052 52.8533 22.7119 52.96 23.4372C53.0773 24.1625 53.168 24.7599 53.232 25.2292C53.3066 25.6879 53.36 26.0452 53.392 26.3012C53.424 26.5572 53.456 26.7599 53.488 26.9092H53.568C53.664 26.4825 53.7546 26.0879 53.84 25.7252C53.9253 25.3625 54.0106 24.9999 54.096 24.6372C54.192 24.2639 54.288 23.8692 54.384 23.4532C54.48 23.0265 54.5813 22.5412 54.688 21.9972ZM65.8501 19.9172C66.0314 19.8105 66.3034 19.7092 66.6661 19.6132C67.0394 19.5172 67.4128 19.4692 67.7861 19.4692C68.3194 19.4692 68.7888 19.5492 69.1941 19.7092C69.6101 19.8585 69.8768 20.0985 69.9941 20.4292C70.1861 20.9839 70.3941 21.6292 70.6181 22.3652C70.8421 23.1012 71.0661 23.8639 71.2901 24.6532C71.5141 25.4319 71.7328 26.2052 71.9461 26.9732C72.1594 27.7305 72.3461 28.4025 72.5061 28.9892C72.3781 29.1385 72.1861 29.2559 71.9301 29.3412C71.6741 29.4372 71.3701 29.4852 71.0181 29.4852C70.7621 29.4852 70.5434 29.4639 70.3621 29.4212C70.1914 29.3785 70.0474 29.3145 69.9301 29.2292C69.8234 29.1439 69.7328 29.0319 69.6581 28.8932C69.5941 28.7545 69.5354 28.5945 69.4821 28.4132L69.1941 27.3092H66.2981C66.2128 27.6292 66.1274 27.9599 66.0421 28.3012C65.9568 28.6425 65.8714 28.9732 65.7861 29.2932C65.6368 29.3465 65.4768 29.3892 65.3061 29.4212C65.1461 29.4639 64.9488 29.4852 64.7141 29.4852C64.1701 29.4852 63.7648 29.3945 63.4981 29.2132C63.2421 29.0212 63.1141 28.7599 63.1141 28.4292C63.1141 28.2799 63.1354 28.1305 63.1781 27.9812C63.2208 27.8319 63.2688 27.6559 63.3221 27.4532C63.3968 27.1652 63.4981 26.8079 63.6261 26.3812C63.7648 25.9545 63.9141 25.4959 64.0741 25.0052C64.2341 24.5039 64.4048 23.9919 64.5861 23.4692C64.7674 22.9465 64.9381 22.4559 65.0981 21.9972C65.2581 21.5279 65.4021 21.1119 65.5301 20.7492C65.6688 20.3865 65.7754 20.1092 65.8501 19.9172ZM67.7701 21.9812C67.6208 22.4292 67.4501 22.9305 67.2581 23.4852C67.0768 24.0292 66.9114 24.5839 66.7621 25.1492H68.7461C68.5968 24.5732 68.4421 24.0132 68.2821 23.4692C68.1328 22.9145 67.9941 22.4185 67.8661 21.9812H67.7701ZM72.8068 21.8692C72.7322 21.7519 72.6628 21.5919 72.5988 21.3892C72.5348 21.1865 72.5028 20.9732 72.5028 20.7492C72.5028 20.3332 72.5935 20.0345 72.7748 19.8532C72.9668 19.6719 73.2122 19.5812 73.5108 19.5812H80.4868C80.5615 19.6985 80.6308 19.8585 80.6948 20.0612C80.7588 20.2639 80.7908 20.4772 80.7908 20.7012C80.7908 21.1172 80.6948 21.4159 80.5028 21.5972C80.3215 21.7785 80.0815 21.8692 79.7828 21.8692H78.0068V29.2612C77.8895 29.2932 77.7028 29.3252 77.4468 29.3572C77.2015 29.3892 76.9562 29.4052 76.7108 29.4052C76.4655 29.4052 76.2468 29.3839 76.0548 29.3412C75.8735 29.3092 75.7188 29.2452 75.5908 29.1492C75.4628 29.0532 75.3668 28.9199 75.3028 28.7492C75.2388 28.5785 75.2068 28.3545 75.2068 28.0772V21.8692H72.8068ZM86.6676 21.5812C85.8463 21.5812 85.2169 21.8319 84.7796 22.3332C84.3423 22.8345 84.1236 23.5439 84.1236 24.4612C84.1236 25.3892 84.3636 26.1039 84.8436 26.6052C85.3343 27.1065 85.9903 27.3572 86.8116 27.3572C87.2489 27.3572 87.6169 27.2985 87.9156 27.1812C88.2249 27.0639 88.5183 26.9305 88.7956 26.7812C88.9769 26.9305 89.1156 27.1119 89.2116 27.3252C89.3183 27.5279 89.3716 27.7679 89.3716 28.0452C89.3716 28.4825 89.1263 28.8559 88.6356 29.1652C88.1556 29.4639 87.4196 29.6132 86.4276 29.6132C85.7129 29.6132 85.0409 29.5119 84.4116 29.3092C83.7823 29.1065 83.2329 28.7972 82.7636 28.3812C82.2943 27.9545 81.9209 27.4212 81.6436 26.7812C81.3769 26.1305 81.2436 25.3572 81.2436 24.4612C81.2436 23.6292 81.3716 22.8985 81.6276 22.2692C81.8943 21.6292 82.2516 21.0905 82.6996 20.6532C83.1583 20.2159 83.6916 19.8852 84.2996 19.6612C84.9076 19.4372 85.5583 19.3252 86.2516 19.3252C87.2329 19.3252 87.9903 19.4852 88.5236 19.8052C89.0676 20.1252 89.3396 20.5359 89.3396 21.0372C89.3396 21.3145 89.2703 21.5545 89.1316 21.7572C88.9929 21.9599 88.8329 22.1199 88.6516 22.2372C88.3743 22.0559 88.0756 21.9012 87.7556 21.7732C87.4463 21.6452 87.0836 21.5812 86.6676 21.5812ZM99.5362 29.2612C99.4189 29.2932 99.2322 29.3252 98.9762 29.3572C98.7309 29.3892 98.4856 29.4052 98.2402 29.4052C97.9949 29.4052 97.7762 29.3839 97.5842 29.3412C97.4029 29.3092 97.2482 29.2452 97.1202 29.1492C96.9922 29.0532 96.8962 28.9199 96.8322 28.7492C96.7682 28.5785 96.7362 28.3545 96.7362 28.0772V25.5812H93.6642V29.2612C93.5469 29.2932 93.3602 29.3252 93.1042 29.3572C92.8589 29.3892 92.6136 29.4052 92.3682 29.4052C92.1229 29.4052 91.9042 29.3839 91.7122 29.3412C91.5309 29.3092 91.3762 29.2452 91.2482 29.1492C91.1202 29.0532 91.0242 28.9199 90.9602 28.7492C90.8962 28.5785 90.8642 28.3545 90.8642 28.0772V19.6292C90.9816 19.6079 91.1682 19.5812 91.4242 19.5492C91.6802 19.5065 91.9256 19.4852 92.1602 19.4852C92.4056 19.4852 92.6189 19.5065 92.8002 19.5492C92.9922 19.5812 93.1522 19.6452 93.2802 19.7412C93.4082 19.8372 93.5042 19.9705 93.5682 20.1412C93.6322 20.3119 93.6642 20.5359 93.6642 20.8132V23.3732H96.7362V19.6292C96.8536 19.6079 97.0402 19.5812 97.2962 19.5492C97.5522 19.5065 97.7976 19.4852 98.0322 19.4852C98.2776 19.4852 98.4909 19.5065 98.6722 19.5492C98.8642 19.5812 99.0242 19.6452 99.1522 19.7412C99.2802 19.8372 99.3762 19.9705 99.4402 20.1412C99.5042 20.3119 99.5362 20.5359 99.5362 20.8132V29.2612ZM113.601 28.9892C113.452 29.1385 113.233 29.2505 112.945 29.3252C112.668 29.4105 112.332 29.4532 111.937 29.4532C111.543 29.4532 111.169 29.3945 110.817 29.2772C110.465 29.1599 110.177 28.8772 109.953 28.4292L108.369 25.1972C108.209 24.8665 108.065 24.5572 107.937 24.2692C107.809 23.9705 107.671 23.6292 107.521 23.2452L107.425 23.2612C107.468 23.8372 107.489 24.4239 107.489 25.0212C107.5 25.6185 107.505 26.2052 107.505 26.7812V29.2612C107.388 29.2932 107.207 29.3252 106.961 29.3572C106.727 29.3892 106.492 29.4052 106.257 29.4052C106.023 29.4052 105.815 29.3892 105.633 29.3572C105.452 29.3252 105.303 29.2612 105.185 29.1652C105.068 29.0692 104.977 28.9412 104.913 28.7812C104.849 28.6105 104.817 28.3919 104.817 28.1252V20.1252C104.967 19.9119 105.196 19.7519 105.505 19.6452C105.815 19.5385 106.145 19.4852 106.497 19.4852C106.892 19.4852 107.265 19.5492 107.617 19.6772C107.98 19.7945 108.268 20.0719 108.481 20.5092L110.081 23.7412C110.241 24.0719 110.385 24.3865 110.513 24.6852C110.641 24.9732 110.78 25.3092 110.929 25.6932L111.009 25.6772C110.967 25.1012 110.94 24.5252 110.929 23.9492C110.919 23.3732 110.913 22.7972 110.913 22.2212V19.6292C111.031 19.5972 111.207 19.5652 111.441 19.5332C111.687 19.5012 111.927 19.4852 112.161 19.4852C112.631 19.4852 112.988 19.5705 113.233 19.7412C113.479 19.9012 113.601 20.2425 113.601 20.7652V28.9892ZM115.197 24.4612C115.197 23.6292 115.325 22.8932 115.581 22.2532C115.847 21.6132 116.205 21.0799 116.653 20.6532C117.111 20.2159 117.645 19.8852 118.253 19.6612C118.871 19.4372 119.538 19.3252 120.253 19.3252C120.967 19.3252 121.629 19.4372 122.237 19.6612C122.855 19.8852 123.394 20.2159 123.853 20.6532C124.311 21.0799 124.669 21.6132 124.925 22.2532C125.191 22.8932 125.325 23.6292 125.325 24.4612C125.325 25.2932 125.197 26.0345 124.941 26.6852C124.685 27.3252 124.327 27.8639 123.869 28.3012C123.421 28.7279 122.887 29.0532 122.269 29.2772C121.65 29.5012 120.978 29.6132 120.253 29.6132C119.527 29.6132 118.855 29.5012 118.237 29.2772C117.618 29.0425 117.085 28.7065 116.637 28.2692C116.189 27.8319 115.837 27.2932 115.581 26.6532C115.325 26.0132 115.197 25.2825 115.197 24.4612ZM118.077 24.4612C118.077 25.4319 118.274 26.1572 118.669 26.6372C119.063 27.1172 119.591 27.3572 120.253 27.3572C120.925 27.3572 121.458 27.1172 121.853 26.6372C122.247 26.1572 122.445 25.4319 122.445 24.4612C122.445 23.5012 122.247 22.7812 121.853 22.3012C121.469 21.8212 120.941 21.5812 120.269 21.5812C119.607 21.5812 119.074 21.8212 118.669 22.3012C118.274 22.7705 118.077 23.4905 118.077 24.4612ZM131.407 21.9972C131.524 21.9439 131.705 21.8852 131.951 21.8212C132.207 21.7465 132.463 21.7092 132.719 21.7092C133.167 21.7092 133.54 21.7785 133.839 21.9172C134.137 22.0452 134.319 22.2372 134.383 22.4932C134.5 22.9305 134.607 23.3412 134.703 23.7252C134.809 24.0985 134.911 24.4612 135.007 24.8132C135.103 25.1545 135.193 25.4959 135.279 25.8372C135.375 26.1785 135.465 26.5359 135.551 26.9092H135.631C135.727 26.2585 135.812 25.6399 135.887 25.0532C135.961 24.4559 136.031 23.8745 136.095 23.3092C136.159 22.7332 136.223 22.1679 136.287 21.6132C136.351 21.0479 136.415 20.4772 136.479 19.9012C136.873 19.6772 137.295 19.5652 137.743 19.5652C138.137 19.5652 138.479 19.6505 138.767 19.8212C139.055 19.9919 139.199 20.2799 139.199 20.6852C139.199 20.9199 139.172 21.2559 139.119 21.6932C139.076 22.1199 139.012 22.5999 138.927 23.1332C138.852 23.6665 138.761 24.2265 138.655 24.8132C138.548 25.3999 138.436 25.9599 138.319 26.4932C138.201 27.0265 138.079 27.5119 137.951 27.9492C137.833 28.3759 137.721 28.7065 137.615 28.9412C137.455 29.0905 137.193 29.2132 136.831 29.3092C136.468 29.4052 136.095 29.4532 135.711 29.4532C135.209 29.4532 134.783 29.3892 134.431 29.2612C134.089 29.1225 133.881 28.9305 133.807 28.6852C133.668 28.2585 133.519 27.7519 133.359 27.1652C133.199 26.5785 133.028 25.9332 132.847 25.2292C132.697 25.9225 132.543 26.5999 132.383 27.2612C132.223 27.9225 132.079 28.4825 131.951 28.9412C131.791 29.0905 131.551 29.2132 131.231 29.3092C130.911 29.4052 130.559 29.4532 130.175 29.4532C129.695 29.4532 129.257 29.3892 128.863 29.2612C128.479 29.1225 128.228 28.9305 128.111 28.6852C128.015 28.4932 127.908 28.2105 127.791 27.8372C127.684 27.4532 127.572 27.0212 127.455 26.5412C127.337 26.0505 127.215 25.5225 127.087 24.9572C126.969 24.3919 126.857 23.8265 126.751 23.2612C126.655 22.6959 126.564 22.1465 126.479 21.6132C126.393 21.0692 126.329 20.5732 126.287 20.1252C126.436 19.9865 126.644 19.8585 126.911 19.7412C127.177 19.6239 127.465 19.5652 127.775 19.5652C128.18 19.5652 128.511 19.6559 128.767 19.8372C129.033 20.0079 129.199 20.3012 129.263 20.7172C129.433 21.8052 129.572 22.7119 129.679 23.4372C129.796 24.1625 129.887 24.7599 129.951 25.2292C130.025 25.6879 130.079 26.0452 130.111 26.3012C130.143 26.5572 130.175 26.7599 130.207 26.9092H130.287C130.383 26.4825 130.473 26.0879 130.559 25.7252C130.644 25.3625 130.729 24.9999 130.815 24.6372C130.911 24.2639 131.007 23.8692 131.103 23.4532C131.199 23.0265 131.3 22.5412 131.407 21.9972Z" fill="#931B1D"/>
</g>
<defs>
<radialGradient id="paint0_radial" cx="0" cy="0" r="1" gradientUnits="userSpaceOnUse" gradientTransform="translate(82.9204 46.857) scale(61.7763 43.1417)">
<stop stop-color="#FFBD00"/>
<stop offset="1" stop-color="#FF772C"/>
</radialGradient>
<linearGradient id="paint1_linear" x1="80.3294" y1="48.1048" x2="80.3294" y2="0.808531" gradientUnits="userSpaceOnUse">
<stop stop-color="#FFF300"/>
<stop offset="1" stop-color="#FF9700"/>
</linearGradient>
<linearGradient id="paint2_linear" x1="80.3326" y1="47.2333" x2="80.3326" y2="1.29689" gradientUnits="userSpaceOnUse">
<stop stop-color="#FFCC00"/>
<stop offset="1" stop-color="#FF9700"/>
</linearGradient>
<linearGradient id="paint3_linear" x1="20.8923" y1="14.3252" x2="32.8923" y2="35.1098" gradientUnits="userSpaceOnUse">
<stop offset="0.0572917" stop-color="#FFBE00"/>
<stop offset="0.510417" stop-color="#931B1D"/>
</linearGradient>
<clipPath id="clip0">
<rect width="160" height="50" fill="white" transform="translate(0.5 0.325195)"/>
</clipPath>
</defs>
</svg>
