<svg width="29" height="29" viewBox="0 0 29 29" fill="none" xmlns="http://www.w3.org/2000/svg">
<circle cx="14.7246" cy="14.2363" r="13.5" fill="white" stroke="#F1F1F1"/>
<g clip-path="url(#clip0)">
<path d="M23.3537 9.9154C23.1462 9.1443 22.5383 8.53648 21.7673 8.32884C20.3588 7.94336 14.7244 7.94336 14.7244 7.94336C14.7244 7.94336 9.09026 7.94336 7.68168 8.31415C6.92555 8.52165 6.30276 9.14443 6.09526 9.9154C5.72461 11.3238 5.72461 14.2448 5.72461 14.2448C5.72461 14.2448 5.72461 17.1805 6.09526 18.5742C6.3029 19.3452 6.91072 19.9532 7.68182 20.1608C9.10509 20.5463 14.7246 20.5463 14.7246 20.5463C14.7246 20.5463 20.3588 20.5463 21.7673 20.1755C22.5384 19.968 23.1462 19.36 23.3539 18.5891C23.7245 17.1805 23.7245 14.2596 23.7245 14.2596C23.7245 14.2596 23.7394 11.3238 23.3537 9.9154Z" fill="#FF0000"/>
<path d="M12.9316 16.942L17.6169 14.2434L12.9316 11.5449V16.942Z" fill="white"/>
</g>
<defs>
<clipPath id="clip0">
<rect width="18" height="18" fill="white" transform="translate(5.72461 5.23633)"/>
</clipPath>
</defs>
</svg>
