<svg width="120" height="40" viewBox="0 0 120 40" fill="none" xmlns="http://www.w3.org/2000/svg">
<path d="M2.21655 35.7954C6.35602 42.2746 107.083 40.9058 115.592 34.1528C123.411 28.0387 119.731 7.87107 113.062 3.49078C103.863 -2.44087 14.6349 0.023046 7.2759 4.67711C0.14682 9.0574 -2.15288 29.1337 2.21655 35.7954Z" fill="url(#paint0_radial)"/>
<path d="M2.22715 34.8606C6.36877 41.1571 106.458 38.3792 114.971 31.8049C122.794 25.7861 119.113 7.8224 112.44 3.47037C103.236 -2.36321 14.4219 -0.0482981 7.05904 4.58152C0.156348 8.84096 -2.14455 28.2862 2.22715 34.8606Z" fill="url(#paint1_linear)"/>
<path d="M3.96755 34.234C8.08824 40.2728 105.382 37.5279 113.853 31.2145C121.407 25.4502 117.973 8.2486 111.335 4.13121C102.406 -1.45015 15.8718 0.745792 8.77502 5.13768C1.9072 9.16358 -0.153147 27.9206 3.96755 34.234Z" fill="url(#paint2_linear)"/>
<path d="M101.741 33.9119C100.694 32.9763 111.163 29 113.78 29C116.397 29 114.303 31.6899 112.21 32.2746C110.116 32.8594 102.265 34.3797 101.741 33.9119Z" fill="white"/>
<path d="M8.56275 7.84598C8.56275 7.84598 3.6882 6.16759 12.25 4.87332C21.1337 3.55757 49.6597 0.932236 51.3105 1.04478C52.629 1.12381 39.2677 2.90503 32.2651 3.81711C25.2625 4.72919 12.4879 7.91818 8.56275 7.84598Z" fill="white"/>
<path d="M29.704 24.64C29.536 24.784 29.272 24.91 28.912 25.018C28.564 25.126 28.18 25.18 27.76 25.18C27.256 25.18 26.824 25.108 26.464 24.964C26.104 24.808 25.858 24.598 25.726 24.334C25.594 24.058 25.432 23.704 25.24 23.272C25.048 22.828 24.844 22.336 24.628 21.796C24.424 21.256 24.208 20.686 23.98 20.086C23.764 19.474 23.554 18.856 23.35 18.232C23.146 17.608 22.954 16.996 22.774 16.396C22.594 15.796 22.438 15.232 22.306 14.704C22.474 14.536 22.714 14.386 23.026 14.254C23.35 14.11 23.692 14.038 24.052 14.038C24.496 14.038 24.856 14.134 25.132 14.326C25.42 14.506 25.63 14.848 25.762 15.352C26.086 16.528 26.41 17.656 26.734 18.736C27.07 19.804 27.418 20.92 27.778 22.084H27.886C28.21 20.956 28.54 19.726 28.876 18.394C29.224 17.062 29.554 15.736 29.866 14.416C30.082 14.308 30.31 14.218 30.55 14.146C30.802 14.074 31.084 14.038 31.396 14.038C31.84 14.038 32.218 14.14 32.53 14.344C32.842 14.536 32.998 14.86 32.998 15.316C32.998 15.58 32.932 15.964 32.8 16.468C32.68 16.972 32.518 17.542 32.314 18.178C32.122 18.802 31.9 19.456 31.648 20.14C31.408 20.824 31.162 21.472 30.91 22.084C30.67 22.684 30.442 23.218 30.226 23.686C30.01 24.142 29.836 24.46 29.704 24.64ZM37.7282 24.928C37.5962 24.964 37.3862 25 37.0982 25.036C36.8222 25.072 36.5462 25.09 36.2702 25.09C35.9942 25.09 35.7482 25.066 35.5322 25.018C35.3282 24.982 35.1542 24.91 35.0102 24.802C34.8662 24.694 34.7582 24.544 34.6862 24.352C34.6142 24.16 34.5782 23.908 34.5782 23.596V14.092C34.7102 14.068 34.9202 14.038 35.2082 14.002C35.4962 13.954 35.7722 13.93 36.0362 13.93C36.3122 13.93 36.5522 13.954 36.7562 14.002C36.9722 14.038 37.1522 14.11 37.2962 14.218C37.4402 14.326 37.5482 14.476 37.6202 14.668C37.6922 14.86 37.7282 15.112 37.7282 15.424V24.928ZM40.0626 15.766C40.0626 15.25 40.2126 14.842 40.5126 14.542C40.8126 14.242 41.2206 14.092 41.7366 14.092H47.6766C47.7606 14.224 47.8326 14.398 47.8926 14.614C47.9646 14.83 48.0006 15.058 48.0006 15.298C48.0006 15.754 47.8986 16.078 47.6946 16.27C47.5026 16.462 47.2446 16.558 46.9206 16.558H43.1226V18.232H47.1726C47.2566 18.364 47.3286 18.538 47.3886 18.754C47.4606 18.958 47.4966 19.18 47.4966 19.42C47.4966 19.876 47.4006 20.2 47.2086 20.392C47.0166 20.584 46.7586 20.68 46.4346 20.68H43.1226V22.57H47.7486C47.8326 22.702 47.9046 22.876 47.9646 23.092C48.0366 23.308 48.0726 23.536 48.0726 23.776C48.0726 24.232 47.9706 24.562 47.7666 24.766C47.5746 24.958 47.3166 25.054 46.9926 25.054H41.7366C41.2206 25.054 40.8126 24.904 40.5126 24.604C40.2126 24.304 40.0626 23.896 40.0626 23.38V15.766ZM54.9639 16.756C55.0959 16.696 55.2999 16.63 55.5759 16.558C55.8639 16.474 56.1519 16.432 56.4399 16.432C56.9439 16.432 57.3639 16.51 57.6999 16.666C58.0359 16.81 58.2399 17.026 58.3119 17.314C58.4439 17.806 58.5639 18.268 58.6719 18.7C58.7919 19.12 58.9059 19.528 59.0139 19.924C59.1219 20.308 59.2239 20.692 59.3199 21.076C59.4279 21.46 59.5299 21.862 59.6259 22.282H59.7159C59.8239 21.55 59.9199 20.854 60.0039 20.194C60.0879 19.522 60.1659 18.868 60.2379 18.232C60.3099 17.584 60.3819 16.948 60.4539 16.324C60.5259 15.688 60.5979 15.046 60.6699 14.398C61.1139 14.146 61.5879 14.02 62.0919 14.02C62.5359 14.02 62.9199 14.116 63.2439 14.308C63.5679 14.5 63.7299 14.824 63.7299 15.28C63.7299 15.544 63.6999 15.922 63.6399 16.414C63.5919 16.894 63.5199 17.434 63.4239 18.034C63.3399 18.634 63.2379 19.264 63.1179 19.924C62.9979 20.584 62.8719 21.214 62.7399 21.814C62.6079 22.414 62.4699 22.96 62.3259 23.452C62.1939 23.932 62.0679 24.304 61.9479 24.568C61.7679 24.736 61.4739 24.874 61.0659 24.982C60.6579 25.09 60.2379 25.144 59.8059 25.144C59.2419 25.144 58.7619 25.072 58.3659 24.928C57.9819 24.772 57.7479 24.556 57.6639 24.28C57.5079 23.8 57.3399 23.23 57.1599 22.57C56.9799 21.91 56.7879 21.184 56.5839 20.392C56.4159 21.172 56.2419 21.934 56.0619 22.678C55.8819 23.422 55.7199 24.052 55.5759 24.568C55.3959 24.736 55.1259 24.874 54.7659 24.982C54.4059 25.09 54.0099 25.144 53.5779 25.144C53.0379 25.144 52.5459 25.072 52.1019 24.928C51.6699 24.772 51.3879 24.556 51.2559 24.28C51.1479 24.064 51.0279 23.746 50.8959 23.326C50.7759 22.894 50.6499 22.408 50.5179 21.868C50.3859 21.316 50.2479 20.722 50.1039 20.086C49.9719 19.45 49.8459 18.814 49.7259 18.178C49.6179 17.542 49.5159 16.924 49.4199 16.324C49.3239 15.712 49.2519 15.154 49.2039 14.65C49.3719 14.494 49.6059 14.35 49.9059 14.218C50.2059 14.086 50.5299 14.02 50.8779 14.02C51.3339 14.02 51.7059 14.122 51.9939 14.326C52.2939 14.518 52.4799 14.848 52.5519 15.316C52.7439 16.54 52.8999 17.56 53.0199 18.376C53.1519 19.192 53.2539 19.864 53.3259 20.392C53.4099 20.908 53.4699 21.31 53.5059 21.598C53.5419 21.886 53.5779 22.114 53.6139 22.282H53.7039C53.8119 21.802 53.9139 21.358 54.0099 20.95C54.1059 20.542 54.2019 20.134 54.2979 19.726C54.4059 19.306 54.5139 18.862 54.6219 18.394C54.7299 17.914 54.8439 17.368 54.9639 16.756ZM71.3885 14.416C71.5925 14.296 71.8985 14.182 72.3065 14.074C72.7265 13.966 73.1465 13.912 73.5665 13.912C74.1665 13.912 74.6945 14.002 75.1505 14.182C75.6185 14.35 75.9185 14.62 76.0505 14.992C76.2665 15.616 76.5005 16.342 76.7525 17.17C77.0045 17.998 77.2565 18.856 77.5085 19.744C77.7605 20.62 78.0065 21.49 78.2465 22.354C78.4865 23.206 78.6965 23.962 78.8765 24.622C78.7325 24.79 78.5165 24.922 78.2285 25.018C77.9405 25.126 77.5985 25.18 77.2025 25.18C76.9145 25.18 76.6685 25.156 76.4645 25.108C76.2725 25.06 76.1105 24.988 75.9785 24.892C75.8585 24.796 75.7565 24.67 75.6725 24.514C75.6005 24.358 75.5345 24.178 75.4745 23.974L75.1505 22.732H71.8925C71.7965 23.092 71.7005 23.464 71.6045 23.848C71.5085 24.232 71.4125 24.604 71.3165 24.964C71.1485 25.024 70.9685 25.072 70.7765 25.108C70.5965 25.156 70.3745 25.18 70.1105 25.18C69.4985 25.18 69.0425 25.078 68.7425 24.874C68.4545 24.658 68.3105 24.364 68.3105 23.992C68.3105 23.824 68.3345 23.656 68.3825 23.488C68.4305 23.32 68.4845 23.122 68.5445 22.894C68.6285 22.57 68.7425 22.168 68.8865 21.688C69.0425 21.208 69.2105 20.692 69.3905 20.14C69.5705 19.576 69.7625 19 69.9665 18.412C70.1705 17.824 70.3625 17.272 70.5425 16.756C70.7225 16.228 70.8845 15.76 71.0285 15.352C71.1845 14.944 71.3045 14.632 71.3885 14.416ZM73.5485 16.738C73.3805 17.242 73.1885 17.806 72.9725 18.43C72.7685 19.042 72.5825 19.666 72.4145 20.302H74.6465C74.4785 19.654 74.3045 19.024 74.1245 18.412C73.9565 17.788 73.8005 17.23 73.6565 16.738H73.5485ZM82.0256 25.054C81.5096 25.054 81.1016 24.904 80.8016 24.604C80.5016 24.304 80.3516 23.896 80.3516 23.38V14.074C80.4836 14.05 80.6936 14.02 80.9816 13.984C81.2696 13.936 81.5456 13.912 81.8096 13.912C82.0856 13.912 82.3256 13.936 82.5296 13.984C82.7456 14.02 82.9256 14.092 83.0696 14.2C83.2136 14.308 83.3216 14.458 83.3936 14.65C83.4656 14.842 83.5016 15.094 83.5016 15.406V22.516H87.6236C87.7076 22.648 87.7856 22.828 87.8576 23.056C87.9296 23.272 87.9656 23.5 87.9656 23.74C87.9656 24.22 87.8636 24.562 87.6596 24.766C87.4556 24.958 87.1856 25.054 86.8496 25.054H82.0256ZM91.2542 25.054C90.7382 25.054 90.3302 24.904 90.0302 24.604C89.7302 24.304 89.5802 23.896 89.5802 23.38V14.074C89.7122 14.05 89.9222 14.02 90.2102 13.984C90.4982 13.936 90.7742 13.912 91.0382 13.912C91.3142 13.912 91.5542 13.936 91.7582 13.984C91.9742 14.02 92.1542 14.092 92.2982 14.2C92.4422 14.308 92.5502 14.458 92.6222 14.65C92.6942 14.842 92.7302 15.094 92.7302 15.406V22.516H96.8522C96.9362 22.648 97.0142 22.828 97.0862 23.056C97.1582 23.272 97.1942 23.5 97.1942 23.74C97.1942 24.22 97.0922 24.562 96.8882 24.766C96.6842 24.958 96.4142 25.054 96.0782 25.054H91.2542Z" fill="white"/>
<defs>
<radialGradient id="paint0_radial" cx="0" cy="0" r="1" gradientUnits="userSpaceOnUse" gradientTransform="translate(61.8382 37.1977) scale(46.3494 34.4876)">
<stop stop-color="#FA6B90"/>
<stop offset="1" stop-color="#F9265D"/>
</radialGradient>
<linearGradient id="paint1_linear" x1="59.7054" y1="38.4068" x2="59.7054" y2="0.0427243" gradientUnits="userSpaceOnUse">
<stop stop-color="#FA6B90"/>
<stop offset="1" stop-color="#F9265D"/>
</linearGradient>
<linearGradient id="paint2_linear" x1="60.0108" y1="37.597" x2="60.0108" y2="0.778091" gradientUnits="userSpaceOnUse">
<stop stop-color="#F55982"/>
<stop offset="1" stop-color="#F9265D"/>
</linearGradient>
</defs>
</svg>
