<svg width="40" height="40" viewBox="0 0 40 40" fill="none" xmlns="http://www.w3.org/2000/svg">
<circle cx="20" cy="20" r="20" fill="#B092E7"/>
<circle cx="20.0245" cy="20.0245" r="18.7198" fill="url(#paint0_linear)"/>
<path opacity="0.4" d="M19.4215 35.9102C19.0075 35.9102 18.6719 35.5745 18.6719 35.1605C18.6719 34.7465 19.0075 34.4109 19.4215 34.4109C20.6243 34.4118 21.8228 34.2678 22.9912 33.9821C23.2553 33.9065 23.5396 33.9813 23.7322 34.1772C23.9248 34.3731 23.9948 34.6586 23.9147 34.9214C23.8346 35.1842 23.6172 35.3821 23.348 35.4371C22.063 35.7521 20.7446 35.9109 19.4215 35.9102V35.9102Z" fill="white"/>
<path opacity="0.4" d="M26.9179 34.006C26.5752 34.0061 26.276 33.7738 26.1913 33.4416C26.1066 33.1095 26.2579 32.7623 26.5588 32.5982C27.3118 32.1885 28.0288 31.7158 28.702 31.1852C28.9121 31.019 29.1949 30.9775 29.4439 31.0764C29.6929 31.1752 29.8702 31.3994 29.909 31.6645C29.9479 31.9295 29.8424 32.1951 29.6323 32.3613C28.8922 32.9453 28.104 33.4656 27.2762 33.9168C27.1662 33.9762 27.043 34.0069 26.9179 34.006V34.006Z" fill="white"/>
<path opacity="0.4" d="M32.1638 29.4028C31.8823 29.4023 31.6247 29.2442 31.497 28.9933C31.3693 28.7424 31.3929 28.441 31.5581 28.2131C33.4198 25.6604 34.4197 22.5809 34.4127 19.4215C34.4127 19.0075 34.7483 18.6719 35.1624 18.6719C35.5764 18.6719 35.912 19.0075 35.912 19.4215C35.919 22.8968 34.8186 26.2841 32.7703 29.0917C32.6297 29.2866 32.4042 29.4023 32.1638 29.4028Z" fill="white"/>
<path d="M25.834 22.9141L25.834 19.1641L20.0007 23.3307L14.1673 19.1641L14.1673 22.9141L20.0007 27.0807L25.834 22.9141Z" fill="white"/>
<path d="M25.834 17.082L25.834 13.332L20.0007 17.4987L14.1673 13.332L14.1673 17.082L20.0007 21.2487L25.834 17.082Z" fill="white"/>
<defs>
<linearGradient id="paint0_linear" x1="20.0245" y1="1.30469" x2="20.0245" y2="38.7443" gradientUnits="userSpaceOnUse">
<stop stop-color="#8860D2"/>
<stop offset="1" stop-color="#663AB7"/>
</linearGradient>
</defs>
</svg>
