<svg width="60" height="60" viewBox="0 0 60 60" fill="none" xmlns="http://www.w3.org/2000/svg">
<path d="M30 60C13.4315 60 0 46.5685 0 30C0 13.4315 13.4315 0 30 0C46.5685 0 60 13.4315 60 30C60 46.5685 46.5685 60 30 60Z" fill="white"/>
<path d="M15.4276 27.9191H20.6319V26.741C20.6319 26.3567 20.8433 26.004 21.1819 25.8231C21.5183 25.6432 21.932 25.6625 22.2502 25.8749L26.6189 29.1347C26.9086 29.3278 27.0824 29.6531 27.0824 30.0007C27.0824 30.3483 26.9086 30.6736 26.6189 30.8667L22.2502 34.1265C21.9274 34.3417 21.5156 34.3574 21.1819 34.1783C20.8434 33.9974 20.6319 33.6446 20.6319 33.2604V32.0825H15.4276C14.8524 32.0825 14.3868 31.6169 14.3868 31.0417V28.9599C14.3868 28.3847 14.8524 27.9191 15.4276 27.9191V27.9191ZM27.864 32.5349C28.6446 32.0185 29.1641 31.0468 29.1641 30.0008C29.1641 28.9548 28.6447 27.9831 27.7736 27.4028L23.4953 24.2069C23.2349 24.0314 22.9747 23.9164 22.7136 23.8214V17.5104C22.7136 16.9351 23.1792 16.4695 23.7545 16.4695H31.0405V43.5319H23.7545C23.1792 43.5319 22.7136 43.0663 22.7136 42.491V36.1854C22.9534 36.0999 23.19 36.0022 23.4048 35.8585L27.864 32.5349ZM33.5542 12.5024C33.8276 12.3073 34.1762 12.2503 34.4924 12.3601L44.901 16.5235C45.3259 16.6649 45.6125 17.0623 45.6125 17.5105V42.4911C45.6125 42.9394 45.3259 43.3369 44.901 43.4781L34.4924 47.6415C34.1895 47.7444 33.8363 47.7015 33.5542 47.4992C33.2828 47.3031 33.1222 46.989 33.1222 46.6546V13.3471C33.1222 13.0126 33.2828 12.6985 33.5542 12.5024V12.5024ZM36.2448 31.0417C36.8196 31.0417 37.2857 30.5756 37.2857 30.0008C37.2857 29.4259 36.8196 28.9599 36.2448 28.9599C35.67 28.9599 35.204 29.4259 35.204 30.0008C35.204 30.5756 35.67 31.0417 36.2448 31.0417Z" fill="#FF824B"/>
</svg>
