<svg width="185" height="184" viewBox="0 0 185 184" fill="none" xmlns="http://www.w3.org/2000/svg">
<path d="M119.241 2.17722C119.241 2.17722 118.658 162.445 118.658 170.639C118.658 178.832 115.933 183 121.577 183C126.248 183 125.08 181.563 124.886 176.676C124.886 171.645 128 6.05816 128 3.75834C128 -0.122591 127.027 0.0211478 124.107 0.0211478C121.382 -0.12259 119.241 0.452363 119.241 2.17722Z" fill="#733A11"/>
<path d="M124.388 160.124C123.274 160.124 121.973 160.124 120.672 160.124C120.115 160.124 119.743 160.124 119 160.124C119 161.275 119.186 161.994 119.557 162.138C121.23 163.721 124.76 182.137 119.929 182.137C119.743 182.137 119.557 182.137 119.372 182.137C119.557 182.425 120.858 182.856 122.159 183C122.53 183 122.902 183 123.274 182.856C123.831 182.712 124.388 182.137 124.203 181.274C124.017 178.684 124.388 165.304 124.388 160.124ZM122.159 137.68C121.973 137.68 121.787 137.68 121.416 137.68C121.416 137.824 121.416 137.968 121.416 138.111C122.345 138.255 123.459 138.255 124.76 138.399C124.76 138.111 124.76 137.968 124.76 137.68C123.831 137.68 122.902 137.68 122.159 137.68ZM126.99 1C126.99 1.71937 125.318 2.72648 123.088 2.87036H122.902C122.716 2.87036 122.53 2.87036 122.159 2.87036C123.088 3.30198 122.159 130.486 122.345 131.206C122.53 132.357 122.902 132.5 121.23 132.788C121.044 132.788 121.044 132.788 120.858 132.932C121.044 132.932 121.23 132.932 121.601 132.932C122.53 132.932 123.459 132.932 124.388 132.932C124.574 132.932 124.574 132.932 124.76 132.932C124.76 130.055 127.176 1.57549 126.99 1Z" fill="#632F0D"/>
<path d="M12.0408 4.49543C12.0408 4.49543 32.9249 163.601 33.6708 171.786C34.4166 179.971 31.9926 183.705 37.773 183.992C42.2482 184.135 40.9429 182.412 40.3835 177.386C39.6377 172.504 20.8047 7.94176 20.4317 5.6442C20.0588 1.76708 19.1265 1.91068 16.516 2.05427C13.9055 2.05427 11.6679 2.77226 12.0408 4.49543Z" fill="#733A11"/>
<path d="M19.7895 3C19.7895 3 19.6053 3 19.7895 3C19.6053 3.71974 18.1316 4.87132 16.1053 5.01527C15.9211 5.01527 15.5526 5.01527 15.3684 5.01527C15.1842 5.01527 15 5.01527 15 5.01527C15.7368 5.30316 17.7632 6.0229 17.9474 6.88659C18.1316 8.03817 33.9737 133.848 32.5 134.28C32.1316 134.424 31.9474 134.712 31.9474 135C33.2368 134.856 34.5263 134.712 36 134.712C35.6316 131.689 19.9737 3.57579 19.7895 3Z" fill="#632F0D"/>
<path d="M34.1886 163.013C34.1886 163.158 34.3773 163.158 34.3773 163.303C36.2635 164.75 41.7338 183.276 36.6408 183.276C36.4522 183.276 36.4522 183.276 36.2635 183.276C36.4522 183.566 37.7726 184 38.9044 184C40.0361 184 41.1679 183.566 40.9793 182.118C40.602 180.092 40.0361 171.118 39.4702 164.895C38.7157 163.303 35.8863 163.013 34.1886 163.013ZM39.2816 162C37.584 162.145 35.6977 162.145 34 162.289V162.434L39.2816 162C39.2816 162 39.2816 162.145 39.2816 162Z" fill="#632F0D"/>
<path d="M114.209 137.378C116.068 136.23 133.167 137.234 134.097 137.234C135.212 137.234 138 135.083 138 134.509C138 133.935 135.026 132.358 133.539 132.645C131.866 132.931 127.777 133.218 122.387 133.075C75.5484 129.346 17 136.517 17 136.517L19.2304 137.521L105.659 150L114.767 138.238C113.837 137.952 113.28 137.808 114.209 137.378Z" fill="#9D5224"/>
<path d="M134.922 138.437C129.873 139.165 123.888 138.582 120.335 138.146C118.839 138 117.343 138 115.847 138C115.286 138 114.725 138 114.164 138L105 149.941L125.759 152.999C126.133 152.999 126.694 152.999 127.255 152.999C130.808 153.144 135.67 140.33 136.979 139.747C137.166 138.874 136.044 139.165 134.922 138.437Z" fill="#612E05"/>
<path d="M129.678 154.069C126.889 154.366 122.427 153.329 122.427 153.329C122.427 153.329 123.728 152.885 126.145 152.737L19.2312 136.889L17 136C17 136 18.3016 147.701 18.8594 148.145C19.975 148.738 19.975 148.886 21.0906 149.034C21.4625 149.034 22.5781 149.182 23.5078 149.182C23.8797 149.182 24.2516 149.182 24.6234 149.182C26.2969 149.182 24.9953 149.182 23.5078 149.182C21.4625 149.33 19.7891 149.626 19.4172 150.071C18.8594 150.515 19.975 156.587 19.975 156.587C19.975 156.587 20.9047 157.772 22.95 157.92C24.9953 158.068 25.1813 158.068 23.1359 158.068C21.0906 158.068 21.0906 158.661 21.0906 159.105C21.0906 161.475 22.95 163.845 24.2516 163.993C25.5531 164.141 37.2672 161.919 48.2375 161.623C61.625 162.067 108.109 159.994 119.266 159.994C130.608 159.994 136 155.402 136 155.402L134.513 154.514C134.698 154.07 132.467 153.773 129.678 154.069Z" fill="#612E05"/>
<path d="M35.1667 158.421H35.5C35.5 157.789 36 157.316 36.6667 157.316C37.3333 157.316 37.8333 157.789 37.8333 158.421C37.8333 159.053 37.3333 159.526 36.6667 159.526C36 159.526 35.5 159.053 35.5 158.421H35.1667H35C35 159.211 35.6667 159.842 36.5 160C37.3333 160 38 159.368 38 158.421C38 157.632 37.3333 157 36.5 157C35.6667 157 35 157.632 35 158.421H35.1667Z" fill="black"/>
<path d="M28.0485 162.82C29.3412 162.679 30.6338 162.679 31.9264 162.538C35.6197 162.256 39.4977 162.115 43.1909 161.974C45.5915 161.833 47.8075 161.833 50.2081 161.692C63.5039 162.115 109.67 160.141 120.75 160.141C132.014 160.141 134.784 158.449 134.784 158.449L135.338 154.642C135.338 154.642 133.861 154.642 131.091 154.924C128.321 155.206 123.889 154.219 123.889 154.219C123.889 154.219 125.551 153.514 129.059 153.655C132.568 153.796 134.415 153.937 135.707 153.232C137 149.707 137 140.965 136.631 139.414C131.645 140.119 125.736 139.555 122.227 139.132C120.934 138.991 119.272 138.991 117.98 138.991C115.948 138.991 114.471 139.132 115.579 138.427C117.426 137.299 134.23 138.286 135.338 138.286C136.446 138.286 137 135.467 137 134.903C137 134.339 136.261 133.493 134.784 133.634C133.122 133.916 129.059 134.198 123.704 134.057C77.169 130.391 19 137.44 19 137.44C19 137.44 19.1847 138.427 19.1847 139.837C19.1847 139.978 19.1847 140.119 19.1847 140.26C19.1847 140.965 19.3693 141.811 19.554 142.657C19.7387 143.785 19.9233 145.054 20.108 146.041C20.2926 147.028 20.4773 147.733 20.662 148.297C20.8466 148.72 20.8466 148.861 21.0313 148.861C21.77 148.861 28.2332 149.002 29.3412 149.143C30.4491 149.284 29.5258 149.848 26.9405 149.848C24.3552 149.848 22.1393 150.271 21.77 150.694C21.4006 150.976 21.5853 152.809 21.5853 154.36C21.5853 155.488 21.77 156.475 21.77 156.475C21.77 156.475 22.5086 157.321 24.5399 157.462C26.5712 157.603 27.4945 158.308 25.4632 158.308C23.4319 158.308 23.4319 158.449 23.2473 158.872C23.0626 159.154 23.2473 159.577 23.2473 160C23.2473 160 23.8013 162.961 24.5399 162.961C24.9092 163.102 28.0485 162.82 28.0485 162.82Z" fill="#804118"/>
<path d="M137 152C137 152 121.599 152.333 118.816 152.833C116.218 153.333 84.3038 155.333 75.5829 155.333C75.0263 155.333 74.4696 155.333 74.0985 155.333C72.243 155.167 69.4598 155.167 66.3054 155.167C59.2545 155.167 50.5337 155.333 48.6782 155.5C45.8949 155.667 27.5255 158 24 158C24.5567 158 26.041 158 27.8966 158C30.8654 158 35.133 157.833 39.4007 157.333C45.1527 156.5 51.8325 155.833 58.1412 155.833C60.5534 155.833 62.9655 156 65.1921 156.167C65.9343 156.167 67.0476 156.333 68.3465 156.333C81.7061 156.333 122.342 153 126.238 153C130.506 153.167 137 152 137 152Z" fill="#723412"/>
<path d="M114 157C114 157 101.817 157.286 99.4179 157.571C97.3874 157.857 71.7302 159.286 64.716 159.286C64.1623 159.286 63.7931 159.286 63.6085 159.286C62.1318 159.286 59.9168 159.143 57.3327 159.143C51.6105 159.143 44.7809 159.286 43.1197 159.286C40.9047 159.429 25.9533 161 23.1846 161H23C23.1846 161 24.4767 161 26.3225 161C28.7221 161 32.0446 160.857 35.5517 160.571C40.1663 160 45.5193 159.571 50.503 159.571C52.5335 159.571 54.3793 159.571 56.2252 159.857C56.7789 159.857 57.7018 159.857 58.6247 159.857C69.3306 159.857 101.817 157.571 104.955 157.571C109.016 157.714 114 157 114 157Z" fill="#723412"/>
<path d="M137 144C136.631 144 127.221 145.324 124.084 145.618C120.763 145.912 91.7941 149.441 87.7348 149.735C83.4909 150.029 56.5519 152.088 52.8616 152.235C50.0939 152.382 32.7496 153.412 25 154C33.4876 153.706 58.397 152.824 67.4382 152.382C78.5091 151.794 98.6211 149.294 104.895 148.706C111.168 147.971 136.446 144.147 137 144Z" fill="#723412"/>
<path d="M52 134C54.7602 135.4 84.3869 137 90.6434 137C96.7159 137 125.79 136 129.103 136C132.415 136 135.175 134.8 134.991 134.6C134.439 135.2 104.077 135.6 90.8274 135.8C90.2754 135.8 89.7233 135.8 88.9873 135.8C75.3701 136 52 134 52 134Z" fill="#723412"/>
<path d="M136.862 139C136.862 139 135.76 139.298 135.025 139.596C135.025 139.596 107.288 143.319 100.124 143.468C92.9604 143.617 81.7553 145.702 79.1837 146C79 146 79 146 79 146C79.5511 146 100.492 144.213 104.9 144.213C109.492 144.213 134.474 141.681 136.862 140.787C137.046 140.043 137.046 139.447 136.862 139Z" fill="#723412"/>
<path d="M37.1098 142C29.4848 142 21.1159 142 20 142C22.0457 142 46.4085 142.688 49.0122 142.688C51.6159 142.688 76.7226 143.1 76.7226 143.1C76.7226 143.1 61.2866 147.087 58.497 147.775C55.8933 148.462 37.1098 150.525 34.6921 150.8C32.2744 151.075 21.8598 153 21.8598 153C21.8598 153 30.4146 152.175 35.622 151.625C40.8293 150.938 51.4299 150.662 60.3567 148.188C69.0976 145.713 81 142.825 81 142.825C81 142.825 55.8933 142.138 48.0823 142C45.1067 142 41.2012 142 37.1098 142Z" fill="#723412"/>
<path d="M32.1807 148.484C30.5036 148.742 29.5719 149 29.5719 149C29.5719 149 30.6899 148.871 32.1807 148.484ZM21 145C21 145 32.367 145.774 36.0939 145.774C39.8208 145.774 49.3244 145.774 46.3429 145.903C44.1068 146.032 36.4666 147.581 32.367 148.484C33.1124 148.355 33.8578 148.226 34.9759 148.097C38.5164 147.581 57.5236 145.258 53.424 145.129C48.9518 145 21.1863 145 21 145Z" fill="#723412"/>
<path d="M33 137.5C33 136.562 33.6667 136 34.5 136C35.3333 136 36 136.75 36 137.5C36 138.437 35.3333 139 34.5 139C33.6667 139 33 138.25 33 137.5Z" fill="#240500"/>
<path d="M33 137.5C33 136.562 33.6667 136 34.5 136C35.3333 136 36 136.75 36 137.5C36 138.437 35.3333 139 34.5 139C33.6667 139 33 138.25 33 137.5Z" fill="#391B00"/>
<path d="M33 137C33 136.429 33.6429 136 34.5 136C35.3571 136 36 136.429 36 137C36 137.571 35.3571 138 34.5 138C33.6429 138 33 137.429 33 137Z" fill="#462500"/>
<path d="M120 135.5C120 134.563 120.667 134 121.5 134C122.333 134 123 134.75 123 135.5C123 136.438 122.333 137 121.5 137C120.667 137 120 136.25 120 135.5Z" fill="#240500"/>
<path d="M120 135.486C120 134.557 120.667 134 121.5 134C122.333 134 123 134.743 123 135.486C123 136.414 122.333 136.971 121.5 136.971C120.667 137.157 120 136.414 120 135.486Z" fill="#391B00"/>
<path d="M120 135C120 134.429 120.643 134 121.5 134C122.357 134 123 134.429 123 135C123 135.571 122.357 136 121.5 136C120.643 136 120 135.571 120 135Z" fill="#462500"/>
<path d="M120 157.99C120 157.371 120.889 157 122 157C123.111 157 124 157.495 124 157.99C124 158.609 123.111 158.981 122 158.981C120.889 159.105 120 158.609 120 157.99Z" fill="#240500"/>
<path d="M121 158C121 157.375 121.667 157 122.5 157C123.333 157 124 157.5 124 158C124 158.625 123.333 159 122.5 159C121.5 159 121 158.625 121 158Z" fill="#391B00"/>
<path d="M121 158C121 157.429 121.429 157 122 157C122.571 157 123 157.429 123 158C123 158.571 122.571 159 122 159C121.429 159 121 158.571 121 158Z" fill="#462500"/>
<path d="M34 159.99C34 159.371 34.8889 159 36 159C37.1111 159 38 159.495 38 159.99C38 160.609 37.1111 160.981 36 160.981C34.8889 161.105 34 160.609 34 159.99Z" fill="#240500"/>
<path d="M35 160C35 159.375 35.6667 159 36.5 159C37.3333 159 38 159.5 38 160C38 160.625 37.3333 161 36.5 161C35.6667 161 35 160.625 35 160Z" fill="#391B00"/>
<path d="M35 160C35 159.429 35.6429 159 36.5 159C37.3571 159 38 159.429 38 160C38 160.571 37.3571 161 36.5 161C35.6429 161 35 160.571 35 160Z" fill="#462500"/>
<path d="M120.4 168C120.2 168 120.2 168 120.4 168C119.8 169.315 119 180.27 119 180.27L120.8 171.213C120.6 172.09 121.8 181 121.8 181C121.8 181 121.8 181 122 180.562C122 179.393 121 168 120.4 168Z" fill="#632F0D"/>
<path d="M35.1517 169C34.677 170.33 35.4682 181.409 35.4682 181.409L35.7846 172.25C35.7846 173.136 37.8418 182 37.8418 182C37.8418 182 37.8418 182 38 181.409C37.8418 180.227 35.6264 169 35.1517 169Z" fill="#632F0D"/>
<path d="M33.8824 162.3H33L33.1765 162.9C33.1765 162.9 33.5294 162.9 34.2353 162.9C34.0588 162.75 33.8824 162.6 33.8824 162.3ZM38.8235 162C38.8235 162.9 38.8235 163.8 39 164.85C39 164.85 39 164.85 39 165C38.8235 164.1 38.8235 162 38.8235 162Z" fill="#5F2D0D"/>
<path d="M38.8276 162L34 162.316C34 162.632 34.1724 162.789 34.1724 162.947C35.7241 162.947 38.3103 163.263 39 165C39 163.895 38.8276 162.789 38.8276 162Z" fill="#52250A"/>
<path d="M119 160.549C119 160.549 124.829 160.686 124.829 161.92C124.829 162.469 125 160 125 160H119.171L119 160.549Z" fill="#4F2200"/>
<path d="M28.6786 134.425C28.6786 134.425 21 8.58202 21 7C21 7.14382 36 134.281 36 134.281L28.6786 135V134.425V134.425Z" fill="#4F2200"/>
<path d="M119 132C119 132 125.2 133 125.8 132.429C126 133 126 133 126 133C126 133 120.4 132.857 119 132.714C119 132.429 119 132 119 132Z" fill="#4F2200"/>
<path d="M117.386 104.446C119.613 103.448 137.432 105.302 138.545 105.445C139.659 105.445 143 103.448 143 102.877C143 102.306 140.03 100.452 138.36 100.737C136.689 100.88 132.049 101.022 126.481 100.594C76.9223 94.1747 14 98.3118 14 98.3118L16.2273 99.4531L107.177 117L117.942 105.302C116.829 105.017 116.458 104.874 117.386 104.446Z" fill="#9D5224"/>
<path d="M139.873 106.428C134.456 106.857 128.106 106 124.37 105.286C122.876 105 121.195 105 119.701 105C118.954 105 118.393 105 117.833 105L107 116.711L128.666 120.852C129.226 120.852 129.6 120.852 130.347 120.995C134.083 121.281 140.433 108.57 141.927 107.999C142.301 107.142 141.18 107.285 139.873 106.428Z" fill="#612E05"/>
<path d="M21.125 111C20.75 111 20.375 111 20 111C21.5 112.333 23 112.333 21.125 111Z" fill="#612E05"/>
<path d="M132.138 122.03C129.171 122.171 124.534 120.906 124.534 120.906C124.534 120.906 126.018 120.484 128.614 120.484L16.2255 99.1242L14 98C14 98 14.3709 109.664 14.9273 109.945C16.0401 110.647 16.0401 110.788 17.1528 110.928C17.5237 111.069 18.822 111.069 19.7493 111.209C20.1202 111.209 20.4911 111.209 20.862 111.209C22.5312 111.35 21.2329 111.209 19.7493 111.209C17.5237 111.209 15.6691 111.491 15.2982 111.772C14.7418 112.193 15.2982 118.236 15.2982 118.236C15.2982 118.236 16.2255 119.501 18.451 119.641C20.6766 119.922 20.862 119.922 18.6365 119.922C16.411 119.922 16.411 120.484 16.411 120.906C16.2255 123.295 18.0801 125.543 19.3783 125.824C20.6766 125.965 33.4733 124.419 45.1573 124.7C59.4377 125.824 108.77 126.246 120.825 126.948C132.88 127.511 139 123.295 139 123.295L137.516 122.452C137.516 122.311 135.291 121.889 132.138 122.03Z" fill="#612E05"/>
<path d="M31.4 122.35H31.8C31.8 121.75 32.6 121.3 33.4 121.45C34.2 121.45 34.8 122.05 34.8 122.5C34.8 123.1 34 123.55 33.2 123.4C32.4 123.4 31.8 122.8 31.8 122.35H31.4H31C31 123.1 31.8 123.85 32.8 124C34 124 34.8 123.4 35 122.65C35 121.9 34.2 121.15 33.2 121C32 121 31.2 121.6 31 122.35H31.4Z" fill="black"/>
<path d="M23.8258 126.411C25.3016 126.411 26.593 126.411 28.0688 126.411C32.1274 126.411 36.0015 126.411 40.06 126.411C42.6428 126.411 45.041 126.411 47.6237 126.556C61.8287 127.715 110.9 128.149 122.892 128.873C134.883 129.452 138.019 127.86 138.019 127.86L138.941 123.95C138.941 123.95 137.466 123.805 134.514 123.95C131.562 124.094 126.95 122.791 126.95 122.791C126.95 122.791 128.795 122.212 132.669 122.501C136.359 122.791 138.388 123.081 139.864 122.501C141.524 118.881 142.262 109.468 142.078 107.876C136.728 108.31 130.455 107.441 126.766 106.717C125.29 106.427 123.63 106.427 122.154 106.427C119.94 106.283 118.464 106.283 119.755 105.703C121.969 104.69 139.679 106.572 140.786 106.717C141.893 106.717 142.816 103.821 143 103.242C143 102.662 142.447 101.649 140.602 101.793C138.941 101.938 134.329 102.083 128.795 101.649C79.5388 95.1321 17 99.3316 17 99.3316C17 99.3316 17 100.345 17 101.938C17 102.083 17 102.228 17 102.517C17 103.386 17 104.255 17.1845 105.124C17.1845 106.427 17.369 107.586 17.369 108.744C17.369 109.758 17.5534 110.627 17.7379 111.206C17.7379 111.641 17.9224 111.785 18.1069 111.785C18.8448 111.785 25.6706 112.365 26.7775 112.509C27.8843 112.654 26.9619 113.234 24.1947 113.089C21.4275 112.944 19.2138 113.234 18.4758 113.668C18.1069 113.958 17.9224 115.84 17.9224 117.578C17.9224 118.881 17.9224 119.895 17.9224 119.895C17.9224 119.895 18.6603 120.909 20.8741 121.198C23.0878 121.488 24.0102 122.212 21.7965 122.067C19.5827 121.922 19.5827 122.212 19.3982 122.501C18.6603 122.357 18.6603 122.936 18.6603 123.226C18.6603 123.226 19.0293 126.411 19.7672 126.411C20.5051 126.556 23.8258 126.411 23.8258 126.411Z" fill="#804118"/>
<path d="M140 121.444C140 121.444 123.669 120.692 120.699 121.068C117.916 121.444 83.7684 121.632 74.3037 120.88C73.7469 120.88 73.1902 120.88 72.819 120.692C70.9632 120.504 67.8083 120.128 64.4678 119.94C56.8589 119.376 47.7653 119 45.5383 119C42.569 119 22.7117 120.316 19 120.128C19.7423 120.128 21.227 120.316 23.0828 120.504C26.2377 120.692 30.8773 120.88 35.3313 120.504C41.4555 119.94 48.6933 119.752 55.3742 120.128C57.9724 120.316 60.5706 120.504 62.9831 121.068C63.7255 121.256 64.839 121.256 66.3236 121.444C80.4279 122.384 124.04 121.632 128.308 121.82C133.133 122.384 140 121.444 140 121.444Z" fill="#723412"/>
<path d="M19 123.885C19 123.885 19.1844 123.885 19 123.885V123.885ZM116 124.622C116 124.622 102.907 124.18 100.51 124.327C98.2966 124.475 71.0038 124.622 63.443 124.18C62.8897 124.18 62.5209 124.18 62.1521 124.032C60.6768 123.885 58.0951 123.737 55.5133 123.59C49.4278 123.295 42.0513 123 40.3916 123C37.9943 123 21.9506 123.885 19.1844 123.737H19C19.1844 123.737 20.6597 123.885 22.5038 124.032C25.0856 124.18 28.7738 124.327 32.2776 124.032C37.2567 123.737 42.9734 123.59 48.3213 123.885C50.3498 124.032 52.3783 124.18 54.4068 124.475C54.9601 124.622 55.8821 124.622 56.9886 124.622C68.2376 125.212 103.091 124.77 106.595 124.917C110.652 125.212 116 124.622 116 124.622Z" fill="#723412"/>
<path d="M142 113C141.443 113 131.422 113.667 127.896 113.8C124.37 113.933 93.0061 115.667 88.5522 115.667C84.0982 115.667 54.9617 116.333 51.0644 116.2C47.9095 116.2 29.3512 116.333 21 116.333C30.0936 116.467 56.8175 117 66.6534 117C78.5307 117 100.244 115.667 107.11 115.533C113.977 115.533 141.258 113.133 142 113Z" fill="#723412"/>
<path d="M51 98C53.9664 99.167 85.6699 102.084 92.1589 102.522C98.6479 102.814 129.795 103.835 133.503 103.981C137.026 104.127 140.178 103.397 139.992 103.251C139.251 103.689 106.62 102.23 92.3443 101.647C91.7881 101.647 91.0465 101.647 90.4903 101.501C75.8437 100.772 51 98 51 98Z" fill="#723412"/>
<path d="M141.814 108C141.814 108 140.699 108.231 139.77 108.346C139.77 108.346 109.664 110.077 101.858 109.846C94.0531 109.615 81.9734 110.885 79.1858 111C79 111 79 111 79 111C79.7434 111 102.23 110.538 107.062 110.769C112.08 111 139.212 109.962 142 109.5C141.814 108.808 141.814 108.231 141.814 108Z" fill="#723412"/>
<path d="M34.9713 103.867C26.9026 103.434 18.2837 103.145 17 103C19.2006 103.145 44.6905 105.169 47.4413 105.313C50.192 105.458 76.4155 107.337 76.4155 107.337C76.4155 107.337 59.7278 110.952 56.9771 111.386C54.043 111.964 34.2378 113.12 31.6705 113.265C29.1032 113.41 17.9169 115 17.9169 115C17.9169 115 27.086 114.566 32.5874 114.133C38.0888 113.699 49.2751 113.988 58.8109 111.819C68.3467 109.651 81 107.193 81 107.193C81 107.193 54.5931 105.169 46.341 104.59C43.5903 104.446 39.3725 104.157 34.9713 103.867Z" fill="#723412"/>
<path d="M28.7051 111.444C26.8471 111.722 25.9182 112 25.9182 112C25.9182 112 27.0329 111.861 28.7051 111.444ZM17 107C17 107 28.8909 108.389 32.7926 108.667C36.6943 108.806 46.913 109.361 43.7545 109.361C41.3391 109.361 33.1642 110.75 28.7051 111.583C29.4483 111.444 30.3772 111.306 31.492 111.306C35.2079 110.889 55.8312 109.361 51.3721 108.944C46.913 108.528 17.3716 107 17 107Z" fill="#723412"/>
<path d="M31 99.9412C31 99.3529 31.7895 99 32.5789 99C33.3684 99 34 99.4706 34 100.059C34 100.647 33.2105 101 32.4211 101C31.4737 101 31 100.529 31 99.9412Z" fill="#240500"/>
<path d="M31 99.9412C31 99.3529 31.7895 99 32.5789 99C33.3684 99 34 99.4706 34 100.059C34 100.647 33.2105 101 32.4211 101C31.6316 101 31 100.529 31 99.9412Z" fill="#391B00"/>
<path d="M31 99.9333C31 99.4 31.8 99 32.6 99C33.4 99 34 99.5333 34 100.067C34 100.6 33.2 101 32.4 101C31.6 101 31 100.467 31 99.9333Z" fill="#462500"/>
<path d="M124.024 102.941C124.024 102.353 124.807 102 125.59 102C126.373 102 127 102.471 127 103.059C127 103.647 126.217 104 125.434 104C124.494 104 123.867 103.529 124.024 102.941Z" fill="#240500"/>
<path d="M124 102.941C124 102.353 125.053 102 126.105 102C127.158 102 128 102.471 128 103.059C128 103.647 126.947 104 125.895 104C124.842 104 124 103.529 124 102.941Z" fill="#391B00"/>
<path d="M124.031 102.933C124.031 102.4 124.823 102 125.614 102C126.406 102 127 102.533 127 103.067C127 103.6 126.208 104 125.416 104C124.625 104 123.833 103.467 124.031 102.933Z" fill="#462500"/>
<path d="M122 125.941C122 125.353 123.053 125 124.105 125C125.158 125 126 125.471 126 126.059C126 126.647 124.947 127 123.895 127C122.842 127 122 126.529 122 125.941Z" fill="#240500"/>
<path d="M123 125.941C123 125.353 123.789 125 124.579 125C125.368 125 126 125.471 126 126.059C126 126.647 125.211 127 124.421 127C123.474 127 123 126.529 123 125.941Z" fill="#391B00"/>
<path d="M123 125.933C123 125.4 123.8 125 124.6 125C125.4 125 126 125.533 126 126.067C126 126.6 125.2 127 124.4 127C123.6 126.867 123 126.467 123 125.933Z" fill="#462500"/>
<path d="M31 123.941C31 123.353 31.7895 123 32.5789 123C33.3684 123 34 123.471 34 124.059C34 124.647 33.2105 125 32.4211 125C31.4737 124.882 31 124.412 31 123.941Z" fill="#240500"/>
<path d="M31 123.412C31 122.529 31.7895 122 32.5789 122C33.3684 122 34 122.706 34 123.588C34 124.471 33.2105 125 32.4211 125C31.6316 125 31 124.294 31 123.412Z" fill="#391B00"/>
<path d="M31 123.933C31 123.4 31.8 123 32.6 123C33.4 123 34 123.533 34 124.067C34 124.6 33.2 125 32.4 125C31.6 124.867 31 124.333 31 123.933Z" fill="#462500"/>
<path d="M129 105.367V106C129 106 122.368 104.734 122 105.051C122.553 104.893 127.342 105.209 129 105.367Z" fill="#4F2200"/>
<path d="M111.184 58.8087C113.211 57.6616 131.83 57.805 132.937 57.805C134.043 57.805 137.177 55.3675 136.992 54.794C136.992 54.2204 133.674 52.6432 132.015 53.0734C130.356 53.3601 125.747 53.9337 119.848 53.9337C68.4153 52.2131 5 62.1065 5 62.1065L7.39651 62.9668L102.704 72L111.921 59.3822C110.815 59.3822 110.262 59.3822 111.184 58.8087Z" fill="#9D5224"/>
<path d="M134.716 59C129.368 59.8889 122.73 59.5926 118.858 59.4444C117.383 59.2963 115.539 59.4444 114.064 59.5926C113.326 59.5926 112.773 59.7407 112.22 59.7407L103 72.7778L125.68 75C126.234 75 126.787 75 127.34 75C131.212 75 135.638 61.2222 136.929 60.4815C137.297 59.4444 136.191 59.7407 134.716 59Z" fill="#612E05"/>
<path d="M129.955 75.4141C126.803 75.8516 121.983 74.9767 121.983 74.9767C121.983 74.9767 123.281 74.3935 126.062 74.2477L7.41011 62.8748L5 62C5 62 7.22472 73.9561 7.96629 74.2477C9.26404 74.8309 9.26405 74.9767 10.3764 75.1225C10.9326 75.1225 12.0449 75.1225 13.1573 75.1225C13.5281 75.1225 13.8989 75.1225 14.4551 74.9767C16.1236 74.9767 14.8258 74.9767 13.1573 75.1225C10.9326 75.2683 9.07865 75.7057 8.70787 76.1432C8.15169 76.5806 9.82022 82.7044 9.82022 82.7044C9.82022 82.7044 10.9326 83.8709 13.1573 83.8709C15.5674 83.8709 15.5674 84.0167 13.3427 84.0167C10.9326 84.1625 11.118 84.7457 11.118 85.1831C11.3034 87.6618 13.5281 89.8489 14.8258 89.9947C16.1236 90.1405 29.1011 87.2244 40.9663 86.4954C55.7978 86.3496 106.41 82.1212 118.831 81.538C131.253 80.9548 137 75.9974 137 75.9974L135.331 75.2683C135.331 75.2683 132.921 75.1225 129.955 75.4141Z" fill="#612E05"/>
<path d="M26.2857 84.5779H26.5714C26.5714 83.9548 27 83.4874 27.5714 83.4874C28.1429 83.4874 28.5714 83.9548 28.7143 84.5779C28.7143 85.201 28.2857 85.6684 27.7143 85.6684C27.1429 85.6684 26.7143 85.201 26.5714 84.5779H26.2857H26C26 85.3568 26.7143 86.1357 27.5714 85.9799C28.4286 85.9799 29 85.201 29 84.4221C29 83.6432 28.2857 82.8643 27.4286 83.0201C26.5714 83.0201 26 83.799 26 84.5779H26.2857Z" fill="black"/>
<path d="M18.513 89.2849C19.9985 89.1419 21.2984 88.9989 22.7839 88.8559C26.8692 88.4269 31.1401 88.1408 35.2254 87.7118C37.8251 87.4258 40.4248 87.2828 43.0245 87.1398C57.6943 86.9967 108.574 82.8494 121.016 82.2773C133.457 81.7053 136.428 79.8461 136.428 79.8461L136.8 75.8418C136.8 75.8418 135.314 75.8418 132.157 76.2708C129.001 76.6999 124.173 75.8418 124.173 75.8418C124.173 75.8418 126.029 75.1267 129.929 74.9837C133.829 74.9837 135.871 74.9837 137.357 74.2687C138.471 70.5504 137.914 61.2546 137.357 59.6814C131.972 60.5395 125.287 60.2535 121.387 60.1105C119.902 59.9675 118.045 60.1105 116.559 60.2535C114.331 60.3965 112.66 60.5395 113.959 59.8244C116.002 58.6803 134.757 58.8234 135.871 58.8234C136.985 58.8234 137.542 55.8201 137.542 55.2481C137.542 54.676 136.614 53.6749 134.943 54.104C133.271 54.39 128.629 54.962 122.687 54.962C70.8785 53.2459 7 63.1137 7 63.1137C7 63.1137 7.18569 64.1148 7.55708 65.6879C7.55708 65.831 7.55708 65.974 7.74277 66.26C7.92847 66.975 8.11416 67.9761 8.29985 68.8342C8.48555 70.1213 8.85693 71.2654 9.04263 72.4095C9.22832 73.4106 9.59971 74.2687 9.7854 74.6977C9.97109 75.1267 9.97109 75.2697 10.1568 75.2697C10.8996 75.2697 18.1416 75.1267 19.2558 75.1267C20.3699 75.2698 19.4415 75.8418 16.6561 75.9848C13.685 76.1278 11.4566 76.5569 10.8996 77.1289C10.5282 77.4149 10.7139 79.4171 10.8996 80.9902C11.0853 82.2773 11.2709 83.1354 11.2709 83.1354C11.2709 83.1354 12.1994 83.9935 14.4277 84.1365C16.8417 84.1365 17.7702 84.8516 15.5419 84.9946C13.1279 85.1376 13.3136 85.2806 13.1279 85.7096C12.9422 85.9957 13.1279 86.4247 13.1279 86.8537C13.1279 86.8537 14.0563 90 14.6134 90C15.1705 89.714 18.513 89.2849 18.513 89.2849Z" fill="#804118"/>
<path d="M137 74C137 74 120.133 74.9589 117.167 75.5068C114.202 76.0548 79.3557 79.2055 69.7175 79.4795C69.1614 79.4795 68.6054 79.4795 68.2347 79.4795C66.1958 79.4795 63.0448 79.6164 59.5232 79.7534C51.7384 80.0274 42.2855 80.5753 40.0613 80.7123C37.0957 80.9863 16.8924 83.726 13 84C13.7414 84 15.2242 84 17.2631 83.863C20.5994 83.726 25.2332 83.4521 29.867 82.7671C35.9836 81.8082 43.3976 80.9863 50.441 80.7123C53.2212 80.5753 55.8161 80.5753 58.2257 80.7123C58.9671 80.7123 60.2646 80.7123 61.562 80.7123C76.2048 80.1644 120.689 75.6438 125.138 75.5068C129.957 75.2329 137 74 137 74Z" fill="#723412"/>
<path d="M113 80C113 80 99.4815 80.7018 97.0741 81.1228C94.8518 81.5439 66.7037 84.0702 58.9259 84.3509C58.3704 84.3509 58 84.3509 57.6296 84.3509C55.963 84.3509 53.5556 84.4912 50.5926 84.4912C44.2963 84.7719 36.7037 85.193 35.037 85.3333C32.6296 85.4737 16.1481 87.8596 13.1852 88H13C13.1852 88 14.6667 88 16.7037 87.8597C19.2963 87.7193 23.1852 87.5789 26.8889 86.8772C31.8889 86.1754 37.8148 85.4737 43.3704 85.193C45.5926 85.0526 47.6296 85.0526 49.6667 85.193C50.2222 85.193 51.3333 85.193 52.4444 85.193C64.1111 84.7719 100.037 80.9825 103.556 80.8421C107.444 80.9825 113 80 113 80Z" fill="#723412"/>
<path d="M138 65C137.441 65 127.201 66.7143 123.664 67.1429C119.94 67.5714 88.1021 72.4286 83.4474 72.8571C78.7928 73.2857 49.003 76.5714 44.9069 77C41.7417 77.2857 22.5646 79.1429 14 80C23.4955 79.2857 50.8649 77.4286 60.9189 76.5714C73.2072 75.5714 95.3634 72.1429 102.252 71.2857C109.514 70.2857 137.255 65.1429 138 65Z" fill="#723412"/>
<path d="M11 80L10 81C10 81 10.5 81 11 80C11 81 11 81 11 80Z" fill="#562504"/>
<path d="M43 59.2357C46.1529 60.1182 79.1661 60.1182 86.0284 59.8241C92.8907 59.5299 124.977 57.4708 128.5 57.3237C132.21 57.1766 135.177 56.1471 134.992 56C134.435 56.4412 100.866 58.2062 86.0284 58.9416C85.472 58.9416 84.7301 58.9416 83.9883 59.0887C68.9654 59.5299 43 59.2357 43 59.2357Z" fill="#723412"/>
<path d="M137 60C137.333 60.3333 137.333 61.1667 137.667 62C138 62 138 61.8333 138 61.8333C137.667 61.6667 137 60 137 60Z" fill="#E3CDBF"/>
<path d="M137.445 60C137.445 60 136.335 60.2985 135.41 60.7463C135.41 60.7463 104.89 65.8209 97.1214 66.4179C89.1676 66.8657 76.9595 69.7015 74.185 70C74 70 74 70 74 70C74.7399 70 97.6763 67.1642 102.671 67.0149C107.85 66.8657 135.225 62.9851 138 61.9403C137.63 61.0448 137.445 60.4478 137.445 60Z" fill="#723412"/>
<path d="M26.7452 67.0316C18.3934 67.3263 9.29917 67.7684 8 67.9158C10.2271 67.9158 37.1385 67.4737 39.9224 67.3263C42.892 67.1789 70.3601 66.4421 70.3601 66.4421C70.3601 66.4421 53.6565 71.6 50.687 72.4842C47.903 73.3684 27.4875 76.4632 24.7036 76.9053C21.9197 77.3474 10.7839 80 10.7839 80C10.7839 80 20.2493 78.6737 25.8172 77.7895C31.385 76.7579 43.2632 76.021 52.7285 72.9263C62.1939 69.8316 75 66 75 66C75 66 47.5319 66.4421 38.6233 66.5895C35.8393 66.7368 31.385 66.8842 26.7452 67.0316Z" fill="#723412"/>
<path d="M21.5767 74.3595C19.7272 74.7438 18.8024 75 18.8024 75C18.8024 75 20.0971 74.7438 21.5767 74.3595ZM9 71.1567C9 71.1567 21.3917 71.4129 25.4606 71.2848C29.5296 71.1567 39.8868 70.7724 36.7427 71.0286C34.3383 71.1567 26.0155 73.2065 21.7616 74.2313C22.5014 74.1032 23.4262 73.847 24.5359 73.7189C28.4199 73.0784 48.9494 69.8756 44.3257 70.0037C39.7019 70.0037 9.3699 71.1567 9 71.1567Z" fill="#723412"/>
<path d="M22 63.0588C22 62.4706 22.6316 62 23.4211 62C24.2105 62 25 62.3529 25 62.9412C25 63.5294 24.3684 64 23.5789 64C22.6316 64 22 63.6471 22 63.0588Z" fill="#240500"/>
<path d="M22 63.0588C22 62.4706 22.8421 62 23.8947 62C24.9474 62 26 62.3529 26 62.9412C26 63.5294 25.1579 64 24.1053 64C23.0526 64 22.2105 63.5294 22 63.0588Z" fill="#391B00"/>
<path d="M22 63.0667C22 62.5333 22.6 62.1333 23.4 62C24.2 62 25 62.4 25 62.9333C25 63.4667 24.4 63.8667 23.6 64C22.8 64 22 63.6 22 63.0667Z" fill="#462500"/>
<path d="M118 57.0588C118 56.4706 118.632 56 119.421 56C120.211 56 121 56.3529 121 56.9412C121 57.5294 120.368 58 119.579 58C118.789 58 118.158 57.6471 118 57.0588Z" fill="#240500"/>
<path d="M118 57.0588C118 56.4706 118.842 56 119.895 56C120.947 56 122 56.3529 122 56.9412C122 57.5294 121.158 58 120.105 58C118.842 58 118 57.5294 118 57.0588Z" fill="#391B00"/>
<path d="M118 57.0667C118 56.5333 118.6 56.1333 119.4 56C120.2 56 121 56.4 121 56.9333C121 57.4667 120.4 57.8667 119.6 58C118.8 58 118.2 57.6 118 57.0667Z" fill="#462500"/>
<path d="M120 80.0588C120 79.4706 120.632 79 121.421 79C122.211 79 123 79.3529 123 79.9412C123 80.5294 122.368 81 121.579 81C120.789 81 120.158 80.5294 120 80.0588Z" fill="#240500"/>
<path d="M120 80.0493C120 79.4664 120.842 79 121.895 79C122.947 79 124 79.3498 124 79.9327C124 80.5157 123.158 80.982 122.105 80.982C121.053 81.0986 120 80.6322 120 80.0493Z" fill="#391B00"/>
<path d="M120 80.0667C120 79.5333 120.6 79.1333 121.4 79C122.2 79 123 79.4 123 79.9333C123 80.4667 122.4 80.8667 121.6 81C120.8 81 120.2 80.6 120 80.0667Z" fill="#462500"/>
<path d="M26 86.5882C26 85.7059 26.6316 85 27.4211 85C28.2105 85 29 85.5294 29 86.4118C29 87.2941 28.3684 88 27.5789 88C26.7895 88 26 87.4706 26 86.5882Z" fill="#240500"/>
<path d="M26 86.5882C26 85.7059 26.6316 85 27.4211 85C28.2105 85 29 85.5294 29 86.4118C29 87.2941 28.3684 88 27.5789 88C26.7895 88 26.1579 87.2941 26 86.5882Z" fill="#391B00"/>
<path d="M26 86.0667C26 85.5333 26.6 85.1333 27.4 85C28.2 85 29 85.4 29 85.9333C29 86.4667 28.4 86.8667 27.6 87C26.8 87 26 86.6 26 86.0667Z" fill="#462500"/>
<path d="M124 59V60C124 60 116.4 59.25 116 59.5C116.8 59.25 122.2 59 124 59Z" fill="#4F2200"/>
<path d="M112.296 22.7527C114.512 21.5881 134.09 22.7527 135.383 22.7527C136.675 22.7527 140 20.4236 140 19.8413C140 19.259 136.675 17.5121 134.828 17.8032C132.982 18.0944 128.179 18.3855 121.9 18.2399C67.7836 14.1639 0 21.4426 0 21.4426L2.58575 22.4616L102.507 36L113.219 23.4806C111.926 23.335 111.372 23.1895 112.296 22.7527Z" fill="#9D5224"/>
<path d="M137.397 24.4166C131.633 25.111 124.754 24.5555 120.663 24.1389C118.99 24 117.131 24 115.643 24C114.9 24 114.156 24 113.784 24L103 35.9435L126.985 38.9989C127.543 38.9989 128.101 38.9989 128.658 38.9989C132.749 39.1377 138.513 26.4998 140 25.8054C140 24.9721 138.884 25.111 137.397 24.4166Z" fill="#612E05"/>
<path d="M130.591 40.71C127.256 40.9956 122.255 39.9959 122.255 39.9959C122.255 39.9959 123.737 39.5674 126.701 39.4246L2.59329 22.9998L0 22C0 22 1.48188 33.8544 2.22282 34.1401C3.51946 34.7114 3.51946 34.997 4.81611 35.1398C5.37181 35.1398 6.48322 35.2827 7.77987 35.2827C8.15034 35.2827 8.70604 35.2827 9.07651 35.2827C10.9289 35.2827 9.44698 35.2827 7.77987 35.2827C5.37181 35.4255 3.51946 35.7111 2.96376 36.1396C2.40805 36.5681 3.51946 42.7095 3.51946 42.7095C3.51946 42.7095 4.63087 43.8521 7.03893 43.995C9.44698 44.1378 9.63222 44.2806 7.22416 44.1378C4.81611 44.1378 4.81611 44.7091 4.81611 45.1375C4.81611 47.5656 7.03893 49.8508 8.33557 49.9936C9.81745 50.1364 23.5248 47.8512 36.1208 47.7084C51.6805 48.1369 105.399 46.2801 118.55 46.2801C131.702 46.2801 138 41.7098 138 41.7098L136.333 40.8528C136.333 40.71 133.74 40.4243 130.591 40.71Z" fill="#612E05"/>
<path d="M20.3636 44.5H20.7273C20.7273 43.9 21.2727 43.45 22.1818 43.45C22.9091 43.45 23.6364 43.9 23.6364 44.5C23.6364 45.1 23.0909 45.55 22.1818 45.55C21.4545 45.55 20.7273 45.1 20.7273 44.5H20.3636H20C20 45.25 20.9091 46 22 46C23.0909 46 24 45.4 24 44.5C24 43.75 23.0909 43 22 43C20.9091 43 20 43.6 20 44.5H20.3636Z" fill="black"/>
<path d="M12.9435 49.5607C14.4167 49.4142 15.8898 49.4142 17.547 49.4142C21.9664 49.1214 26.2016 48.9749 30.621 48.8285C33.3831 48.682 36.1452 48.682 38.7231 48.5356C54.1909 48.9749 107.591 47.0712 120.665 47.0712C133.739 47.0712 136.87 45.3139 136.87 45.3139L137.422 41.2135C137.422 41.2135 135.765 41.2135 132.634 41.5064C129.32 41.7993 124.348 40.7742 124.348 40.7742C124.348 40.7742 126.374 40.042 130.425 40.1884C134.476 40.3349 136.685 40.4813 138.159 39.7491C139.632 35.9416 139.632 26.4229 139.263 24.8121C133.555 25.5443 126.742 24.9585 122.691 24.5192C121.034 24.3728 119.192 24.3728 117.719 24.3728C115.325 24.3728 113.668 24.5192 114.957 23.787C117.167 22.6155 136.685 23.787 137.974 23.787C139.263 23.787 140 20.7117 140 20.126C140 19.5402 139.263 18.5151 137.422 18.808C135.581 19.1009 130.793 19.3938 124.532 19.2473C70.3952 15.147 3 22.469 3 22.469C3 22.469 3.18414 23.4941 3.36828 25.105C3.36828 25.2514 3.36828 25.3979 3.36828 25.6907C3.55242 26.5694 3.55242 27.448 3.73656 28.3267C3.9207 29.6447 4.10484 30.8162 4.28898 31.9877C4.47312 33.0128 4.65726 33.8915 4.8414 34.4772C5.02554 34.9165 5.02554 35.063 5.20968 35.063C5.94624 35.063 13.496 35.2094 14.7849 35.3559C15.8898 35.2094 14.7849 35.7952 11.8387 35.7952C8.70833 35.7952 6.31452 36.2345 5.7621 36.6738C5.39382 36.9667 5.39382 39.0169 5.57796 40.6278C5.57796 41.9457 5.7621 42.9708 5.7621 42.9708C5.7621 42.9708 6.49866 43.9959 9.07661 44.1423C11.4704 44.2888 12.5753 45.021 9.99731 45.021C7.60349 45.021 7.60349 45.1674 7.41935 45.6068C7.23522 45.8996 7.41935 46.339 7.41935 46.7783C7.41935 46.7783 7.97177 50 8.89247 50C9.44489 49.8536 12.9435 49.5607 12.9435 49.5607Z" fill="#804118"/>
<path d="M139 39C139 39 121.152 39.2857 117.806 39.5714C114.645 40 77.462 41.7143 67.2366 41.7143C66.493 41.7143 65.9352 41.7143 65.5634 41.7143C63.5183 41.5714 60.1718 41.5714 56.4535 41.5714C48.2732 41.5714 38.0479 41.7143 35.8169 41.7143C32.6563 41.8571 11.0901 43.8571 7 43.8571C7.74366 43.8571 9.4169 44 11.462 44C14.9944 44 19.8282 43.8571 24.8479 43.4286C31.5408 42.7143 39.3493 42.1429 46.7859 42.2857C49.5746 42.2857 52.5493 42.4286 55.1521 42.5714C56.0817 42.5714 57.1972 42.7143 58.8704 42.7143C74.3014 42.7143 121.896 40 126.544 40C131.563 40 139 39 139 39Z" fill="#723412"/>
<path d="M113 44C113 44 98.7308 44.1429 96.1364 44.4286C93.7273 44.7143 63.8916 46.1429 55.5525 46.1429C54.9965 46.1429 54.6259 46.1429 54.2552 46.1429C52.5874 46 49.8077 46 46.8427 46C40.1713 46 32.2028 46.1429 30.3497 46.1429C27.9406 46.2857 10.3357 47.8571 7.18531 47.8571H7C7.18531 47.8571 8.66783 48 10.8916 48C13.6713 48 17.7483 47.8571 21.6399 47.5714C27.014 47 33.3147 46.5714 39.2448 46.5714C41.4685 46.5714 43.8776 46.7143 45.9161 46.8571C46.6573 46.8571 47.5839 47 48.8811 47C61.2972 47 99.2867 44.8571 103.178 44.8571C107.07 44.7143 113 44 113 44Z" fill="#723412"/>
<path d="M140 30C139.445 30 128.528 31.3433 124.828 31.6418C120.942 31.9403 87.2669 35.5224 82.2712 35.8209C77.4604 36.1194 45.8206 38.209 41.565 38.3582C38.2345 38.5075 18.0664 39.5522 9 40C18.9915 39.7015 47.8559 38.9552 58.4025 38.5075C71.3545 37.9104 94.8531 35.3731 102.069 34.7761C109.84 34.1791 139.26 30.1493 140 30Z" fill="#723412"/>
<path d="M40 20C43.3597 20.8235 78.2638 22 85.5432 22C92.8227 22 126.98 21.5294 130.9 21.5294C134.819 21.5294 138.179 20.8235 137.993 20.7059C137.433 21.0588 101.595 21.1765 85.9165 21.2941C85.1699 21.2941 84.6099 21.2941 83.8633 21.2941C67.4379 21.2941 40 20 40 20Z" fill="#723412"/>
<path d="M139.815 25C139.815 25 138.522 25.2979 137.598 25.5957C137.598 25.5957 105.076 29.3191 96.7609 29.4681C88.4456 29.617 75.3261 31.7021 72.1848 32C72 32 72 32 72 32C72.7391 32 97.1304 30.3617 102.489 30.3617C108.033 30.3617 137.228 27.8298 140 26.9362C140 26.0426 140 25.2979 139.815 25Z" fill="#723412"/>
<path d="M22.9921 27C14.0237 27 4.30789 27 3 27C5.42895 27 33.8289 27.8675 36.8184 27.8675C39.9947 27.8675 69.1421 28.4458 69.1421 28.4458C69.1421 28.4458 51.0184 32.7831 47.8421 33.506C44.6658 34.2289 22.8053 36.3976 20.0026 36.6867C17.2 36.9759 4.86842 39 4.86842 39C4.86842 39 14.9579 38.1325 20.9368 37.5542C26.9158 36.8313 39.4342 36.6867 49.8974 33.9398C60.1737 31.1928 74 28.1566 74 28.1566C74 28.1566 44.6658 27.2892 35.5105 27.1446C32.5211 27 27.85 27 22.9921 27Z" fill="#723412"/>
<path d="M17.1166 34.3939C15.0844 34.8485 14.1607 35 14.1607 35C14.1607 35 15.4539 34.697 17.1166 34.3939ZM4 30C4 30 17.1166 30.9091 21.3656 30.9091C25.6146 30.9091 36.699 30.9091 33.189 31.0606C30.6026 31.2121 21.7351 33.1818 17.1166 34.2424C17.8555 34.0909 18.964 33.9394 20.0724 33.7879C24.1367 33.1818 46.1208 30.4545 41.3176 30.303C36.5143 30.1515 4.36948 30 4 30Z" fill="#723412"/>
<path d="M18 23C18 22.4444 18.8 22 20 22C21 22 22 22.4444 22 23C22 23.5556 21.2 24 20 24C19 24 18 23.5556 18 23Z" fill="#240500"/>
<path d="M18 23C18 22.4444 18.8 22 20 22C21 22 22 22.4444 22 23C22 23.5556 21.2 24 20 24C18.8 24 18 23.5556 18 23Z" fill="#391B00"/>
<path d="M19 23C19 22.4286 19.75 22 20.5 22C21.4375 22 22 22.4286 22 23C22 23.5714 21.25 24 20.5 24C19.5625 24 19 23.5714 19 23Z" fill="#462500"/>
<path d="M119 21.5C119 20.6667 119.8 20 121 20C122 20 123 20.6667 123 21.5C123 22.3333 122.2 23 121 23C120 22.8333 119 22.3333 119 21.5Z" fill="#240500"/>
<path d="M120 21.5C120 20.6667 120.8 20 122 20C123 20 124 20.6667 124 21.5C124 22.3333 123.2 23 122 23C121 22.8333 120 22.1667 120 21.5Z" fill="#391B00"/>
<path d="M120 21C120 20.4286 120.75 20 121.5 20C122.437 20 123 20.4286 123 21C123 21.5714 122.25 22 121.5 22C120.75 22 120 21.5714 120 21Z" fill="#462500"/>
<path d="M120 44.5C120 43.6667 120.8 43 122 43C123 43 124 43.6667 124 44.5C124 45.3333 123.2 46 122 46C120.8 45.8333 120 45.1667 120 44.5Z" fill="#240500"/>
<path d="M120 44.5C120 43.6667 121 43 122 43C123 43 124 43.6667 124 44.5C124 45.3333 123.2 46 122 46C121 46 120 45.3333 120 44.5Z" fill="#391B00"/>
<path d="M121 43.989C121 43.4239 121.75 43 122.5 43C123.438 43 124 43.4239 124 43.989C124 44.5542 123.25 44.978 122.5 44.978C121.75 45.1193 121 44.5542 121 43.989Z" fill="#462500"/>
<path d="M20 46.5C20 45.6667 20.8 45 22 45C23 45 24 45.6667 24 46.5C24 47.3333 23.2 48 22 48C20.8 48 20 47.3333 20 46.5Z" fill="#240500"/>
<path d="M20 46.5C20 45.6667 20.8 45 22 45C23 45 24 45.6667 24 46.5C24 47.3333 23 48 22 48C21 47.8333 20 47.3333 20 46.5Z" fill="#391B00"/>
<path d="M21 47C21 46.4286 21.75 46 22.5 46C23.4375 46 24 46.4286 24 47C24 47.5714 23.25 48 22.5 48C21.75 48 21 47.5714 21 47Z" fill="#462500"/>
</svg>
