<svg width="83" height="366" viewBox="0 0 83 366" fill="none" xmlns="http://www.w3.org/2000/svg">
<path d="M1.47239 218.816C1.42855 218.772 1.3847 218.684 1.34086 218.64C1.12163 218.289 1.16547 217.763 1.34086 217.368C1.42855 217.236 1.51624 217.104 1.64778 217.06C1.51624 216.885 1.38471 216.709 1.29701 216.534C1.07779 216.138 1.25317 215.568 1.64778 215.348C1.16548 214.734 0.814712 213.461 1.42855 212.846C3.09469 211.178 5.19928 213.549 6.0762 215.129C7.04081 215.7 7.17234 217.587 7.39157 218.509C7.74234 220.133 7.69849 221.669 6.12005 222.503C4.80467 223.162 3.66468 222.196 3.09469 221.142C2.96315 220.923 2.87546 220.703 2.83162 220.484C2.34931 220.616 1.86701 220.572 1.42855 220.133C1.12163 219.826 0.946247 219.255 1.3847 218.904C1.3847 218.86 1.42855 218.816 1.47239 218.816Z" fill="url(#paint0_linear)"/>
<path d="M47.422 255.468L55.9719 256.433C55.9719 256.433 51.7189 262.666 47.7289 263.588L47.422 255.468Z" fill="url(#paint1_radial)"/>
<path d="M24.9294 241.598C24.1402 242.344 23.3071 242.959 22.4302 243.354C20.7202 242.3 19.8871 241.423 19.8871 241.423C19.8871 241.423 19.2733 240.369 20.4133 237.209C21.5533 234.048 23.5263 231.941 23.5263 231.941C23.5263 231.941 24.9732 233.565 26.8148 235.629C27.034 237.823 26.5955 239.974 24.9294 241.598Z" fill="url(#paint2_radial)"/>
<path d="M51.5436 255.16C51.6751 255.073 52.9028 255.643 53.122 255.687C53.6482 255.863 54.1743 255.994 54.7443 256.126C55.7966 256.389 56.8489 256.609 57.945 256.828C60.7073 257.311 63.5135 257.575 66.3196 257.706C67.7226 257.794 69.1696 257.838 70.5726 257.794C70.9672 257.794 71.3618 257.706 71.7565 257.618C72.1511 256.916 73.028 256.302 73.4664 255.819C74.3433 254.897 74.5626 253.8 75.0887 252.658C75.2203 252.351 75.7464 252.088 76.0972 252.351C77.6318 253.624 76.141 255.16 75.5272 256.433C76.0095 255.951 76.711 255.555 77.0618 255.38C77.9387 254.897 78.8156 254.283 79.6048 253.712C79.9556 253.449 80.6571 252.878 81.0956 253.185C82.1479 253.975 79.9994 255.424 79.561 255.819C78.8595 256.477 78.1141 257.092 77.3249 257.662C77.281 257.662 77.281 257.706 77.2372 257.706C77.7633 257.487 78.2895 257.355 78.8156 257.223C79.4733 257.048 81.3148 256.653 81.8848 257.355C82.3233 257.882 81.7533 258.452 81.2271 258.54C79.9118 258.804 78.5964 259.023 77.4126 259.638C78.3772 259.506 79.3418 259.506 80.3064 259.638C80.701 259.682 81.8848 260.164 81.4464 260.779C80.8325 261.657 79.8241 261.393 78.9033 261.306C78.2456 261.218 77.6318 261.218 77.0179 261.262C78.0702 261.525 79.1225 262.052 79.6487 262.93C80.5256 264.466 79.1225 264.334 78.0702 263.851C76.8864 263.281 76.0095 262.052 74.6064 262.754C73.9049 263.105 73.0718 263.281 72.3264 262.974C71.9757 262.842 71.7565 262.535 71.6688 262.184C70.8357 262.315 69.9149 262.447 69.7395 262.447C64.3027 263.018 58.3397 263.105 52.9905 261.876C51.5436 261.525 50.0967 261.042 48.7813 260.384C48.4305 260.208 48.0798 259.989 47.729 259.725C48.6936 257.926 49.9213 256.302 51.5436 255.16Z" fill="url(#paint3_linear)"/>
<path d="M4.62813 213.945C5.98735 214.121 7.34657 214.911 8.22349 215.92C8.70579 216.491 8.74963 217.281 8.39887 217.852C8.92502 218.247 9.45116 218.598 9.93347 219.037C10.9419 219.915 11.9504 220.793 13.0027 221.67C15.0634 223.382 16.8611 225.402 18.7903 227.245C22.6487 230.888 26.4195 234.883 29.5325 239.228C29.664 239.404 29.5325 239.623 29.3571 239.623C29.0064 240.326 27.8225 240.984 27.1648 241.116C26.4633 241.247 25.8056 241.291 25.2795 241.116C25.2356 241.16 25.1918 241.16 25.1041 241.116C23.1749 240.238 21.5964 238.438 20.0618 236.946C18.308 235.234 16.598 233.478 14.888 231.678C13.1781 229.879 11.5119 228.079 9.80193 226.279C8.96886 225.402 8.1358 224.568 7.34657 223.69C6.90812 223.207 6.33812 222.68 5.94351 222.109C4.89121 221.67 4.23352 220.705 4.32122 219.432C4.36506 218.773 4.58429 218.027 4.9789 217.501C4.54044 217.105 4.10199 216.71 3.70738 216.271C3.35661 215.92 2.87431 215.437 2.78662 214.911C2.69892 213.857 3.97045 213.857 4.62813 213.945Z" fill="url(#paint4_linear)"/>
<path d="M1.16358 213.945C1.42665 214.604 1.82126 215.043 2.43511 215.394C2.69818 215.569 2.96126 215.613 3.22433 215.613C3.31202 215.745 3.39971 215.833 3.53125 215.964C2.34741 216.096 1.11973 215.262 1.03204 213.945C1.03204 213.901 1.11973 213.857 1.16358 213.945Z" fill="url(#paint5_linear)"/>
<path d="M1.20975 216.271C1.86743 217.281 3.6651 218.027 4.54201 216.973C4.6297 217.017 4.7174 217.061 4.80509 217.105C4.84893 217.149 4.93662 217.149 4.98047 217.193C4.71739 217.676 4.01587 217.939 3.48972 217.983C2.43742 218.027 1.51666 217.325 1.1659 216.359C1.12205 216.271 1.20975 216.227 1.20975 216.271Z" fill="url(#paint6_linear)"/>
<path d="M1.25195 217.806C1.47118 218.684 2.56733 219.079 3.4004 218.992C3.83885 218.948 4.23346 218.728 4.58423 218.421C4.54038 218.597 4.54038 218.816 4.54038 218.992C4.05808 219.343 3.48808 219.518 2.91809 219.343C2.08502 219.123 1.12041 218.772 1.12041 217.763C1.07657 217.719 1.20811 217.719 1.25195 217.806Z" fill="url(#paint7_linear)"/>
<path d="M1.20811 219.562C1.73426 220.308 2.74271 220.352 3.48808 220.045C3.92654 219.869 4.23346 219.518 4.54038 219.211C4.54038 219.387 4.58423 219.562 4.58423 219.694C3.53193 220.703 1.90964 221.23 1.07657 219.694C1.03272 219.606 1.16426 219.518 1.20811 219.562Z" fill="url(#paint8_linear)"/>
<path d="M21.0269 241.158C22.0792 240.456 22.7369 239.227 23.1753 238.086C23.7453 236.505 24.3153 234.047 23.7453 232.204C24.4468 232.994 26.9899 235.847 29.4453 238.656C32.2952 241.904 38.5652 244.362 43.2128 249.454C47.8605 254.546 55.9719 256.477 55.9719 256.477C50.9297 255.38 47.7289 263.632 47.7289 263.632C36.8552 258.101 36.636 247.04 36.636 247.04C25.7622 247.04 20.5007 242.08 19.9746 241.553C20.3253 241.422 20.72 241.334 21.0269 241.158Z" fill="url(#paint9_radial)"/>
<path opacity="0.2" d="M21.9479 240.368C22.4302 240.632 22.9564 240.939 23.4825 241.158C25.7625 242.256 28.174 242.914 30.6732 243.09C31.9886 243.177 33.4355 243.177 34.7509 242.738C37.3816 244.494 40.3631 246.426 42.95 249.147C42.2485 249.762 41.7662 250.639 41.81 251.781C41.8977 254.195 42.95 256.346 44.5723 258.058C45.8438 259.374 47.2469 260.472 48.7815 261.437C48.1238 262.623 47.7292 263.588 47.7292 263.588C36.8555 258.058 36.6362 246.996 36.6362 246.996C25.7625 246.996 20.501 242.036 19.9749 241.509C20.3695 241.466 20.7202 241.378 21.071 241.202C21.3779 240.939 21.6848 240.675 21.9479 240.368Z" fill="url(#paint10_radial)"/>
<path d="M38.3021 244.45C38.3021 244.45 43.2567 246.162 40.8451 255.073C38.4336 263.983 35.6713 268.592 35.6713 268.592C35.6713 268.592 28.5683 271.226 14.8446 257.531C14.8446 257.531 21.2023 249.542 26.3761 244.406C31.5937 239.315 37.9513 241.29 38.3021 244.45Z" fill="url(#paint11_radial)"/>
<path opacity="0.5" d="M28.2179 265.959C28.8756 266.222 29.5771 266.31 30.3225 266.09C31.5502 265.695 32.4709 264.73 33.1286 263.632C35.1017 260.34 36.3732 256.346 37.4255 252.659C38.127 250.157 38.7409 247.567 39.0916 244.933C40.407 245.855 42.5993 248.533 40.8455 255.117C38.434 264.027 35.6717 268.636 35.6717 268.636C35.6717 268.636 33.0409 269.602 27.8671 267.275C27.9987 266.793 28.1302 266.398 28.2179 265.959Z" fill="url(#paint12_radial)"/>
<path d="M35.6718 268.592C35.6718 268.592 28.5688 271.226 14.8451 257.575C17.1689 257.882 21.8166 259.989 26.8588 261.964C36.8118 265.827 35.6718 268.592 35.6718 268.592Z" fill="url(#paint13_radial)"/>
<path d="M17.0373 258.101C20.9396 259.638 24.9734 260.954 28.8318 262.622C29.2264 262.798 29.621 262.974 29.9718 263.149C31.5941 264.071 33.2164 264.861 34.4879 266.222C33.6548 268.241 32.471 271.182 32.471 271.182L15.8096 260.954C15.8535 260.911 16.4235 259.506 17.0373 258.101Z" fill="url(#paint14_linear)"/>
<path d="M33.5672 270.039C33.5672 270.039 29.7526 268.591 24.8857 264.157C19.975 259.724 16.9497 258.363 16.9497 258.363C16.9497 258.363 16.5112 259.724 14.8889 259.943C13.2666 260.163 8.66282 261.831 7.25975 262.358C5.85669 262.884 10.5482 271.356 12.5212 272.146C14.4943 272.936 18.4404 271.356 20.6327 272.936C22.825 274.56 24.3157 279.959 25.1927 280.31C26.0257 280.662 36.0664 277.545 35.7156 275.702C35.3649 273.814 33.6549 272.497 33.348 271.927C33.041 271.356 33.5672 270.039 33.5672 270.039Z" fill="url(#paint15_radial)"/>
<path opacity="0.5" d="M16.0279 270.876C17.431 270.569 19.0094 270.218 20.4563 270.262C22.3417 270.305 23.5255 271.403 24.0955 273.202C24.7532 275.441 24.6655 277.767 24.8848 280.05C24.0079 278.821 22.6048 274.388 20.6317 272.983C18.4394 271.359 14.4933 272.983 12.5203 272.193C12.3887 272.149 12.2572 272.061 12.1257 271.93C13.3972 271.534 14.7126 271.139 16.0279 270.876Z" fill="url(#paint16_radial)"/>
<path opacity="0.5" d="M25.8943 267.801C22.2112 265.65 18.9228 262.709 16.2921 259.285C16.7744 258.846 16.9059 258.363 16.9059 258.363C16.9059 258.363 19.9313 259.724 24.842 264.157C29.7527 268.591 33.5234 270.039 33.5234 270.039C33.5234 270.039 33.3481 270.522 33.2604 271.005C30.7173 270.171 28.2181 269.161 25.8943 267.801Z" fill="url(#paint17_radial)"/>
<path d="M30.1034 276.14C32.6026 275.043 34.4003 275.087 35.6718 275.482C35.7156 275.569 35.7156 275.657 35.7156 275.745C36.0664 277.632 26.0257 280.705 25.1927 280.354C25.1488 280.31 25.0611 280.266 25.0173 280.222C25.6311 279.037 26.9903 277.501 30.1034 276.14Z" fill="url(#paint18_radial)"/>
<path d="M12.5209 272.191C10.5478 271.401 5.85632 262.886 7.25939 262.403C7.30323 262.403 7.30324 262.403 7.34708 262.359C10.504 263.105 12.4332 270.041 12.5209 272.191Z" fill="url(#paint19_radial)"/>
<path d="M35.6717 275.483C35.6717 275.483 40.2755 281.848 40.6262 294.665V297.694H36.7678C36.7678 297.694 37.6447 293.963 35.3647 286.896C33.0848 279.829 29.8402 276.23 29.8402 276.23C29.8402 276.23 33.0409 274.606 35.6717 275.483Z" fill="url(#paint20_linear)"/>
<path d="M11.2932 267.275C11.2932 267.275 7.04014 269.777 6.64553 270.216C6.64553 270.216 13.2224 278.205 14.8885 279.127C16.5547 280.049 18.44 280.4 17.4754 283.911C16.5108 287.423 13.1785 294.797 10.4163 293.919C7.65399 293.041 9.84627 287.116 10.504 284.965C11.1178 282.814 11.337 281.804 11.7755 281.717C11.7755 281.717 7.30322 278.424 3.79556 275.264C0.287903 272.104 -1.37824 269.294 1.38405 266.661C4.14633 264.027 7.25937 262.403 7.25937 262.403C7.25937 262.403 9.32012 262.403 11.2932 267.275Z" fill="url(#paint21_linear)"/>
<path d="M11.7324 281.674C12.4778 281.147 13.3986 281.059 14.4509 281.63C14.5824 281.718 14.7578 281.674 14.8455 281.542C15.1962 280.796 15.0647 280.006 15.0647 279.172C16.6432 280.006 18.3531 280.489 17.4324 283.869C16.4678 287.38 13.1355 294.754 10.3732 293.876C7.61093 292.999 9.80321 287.073 10.4609 284.922C11.0747 282.771 11.294 281.806 11.7324 281.674Z" fill="url(#paint22_radial)"/>
<path d="M14.8008 288.96C15.7654 287.029 16.4669 285.053 16.9931 282.947C17.2123 282.069 17.3439 281.322 17.2562 280.664C17.7385 281.322 17.9139 282.244 17.4754 283.912C16.5546 287.336 13.3101 294.535 10.5916 293.964C12.3893 292.998 14.1431 290.189 14.8008 288.96Z" fill="url(#paint23_radial)"/>
<path d="M38.7838 296.028C39.1784 295.457 39.7484 294.843 40.6254 294.711C42.2038 294.448 43.1684 296.511 47.2461 295.326C51.3237 294.14 52.7706 297.959 51.5868 299.627C50.4029 301.295 44.703 302.48 41.4584 302.349C38.2138 302.217 36.9423 301.12 36.7231 300.725C36.5039 300.373 35.7585 297.125 36.3285 296.467C36.5915 296.16 36.9862 296.247 37.3808 296.423C37.9069 296.598 38.4769 296.511 38.7838 296.028Z" fill="url(#paint24_radial)"/>
<path d="M37.9514 300.723C40.1437 301.645 42.6429 301.645 44.9667 301.206C46.8959 300.811 50.6228 299.845 51.982 297.957C52.0259 298.572 51.9382 299.186 51.5874 299.625C50.4036 301.293 44.7036 302.479 41.459 302.347C38.2145 302.215 36.9429 301.118 36.7237 300.723C36.6799 300.635 36.5922 300.372 36.4606 299.977C36.9868 300.24 37.4691 300.503 37.9514 300.723Z" fill="url(#paint25_radial)"/>
<path d="M40.2314 246.952C40.2314 246.952 38.4338 251.21 35.5838 249.718C32.7338 248.225 34.7946 244.231 36.0223 243.88C37.2499 243.529 40.2314 246.952 40.2314 246.952Z" fill="url(#paint26_linear)"/>
<path d="M67.0648 239.315C67.0648 239.315 68.7309 237.339 70.8355 239.095C72.9401 240.851 70.704 245.592 65.574 244.055C65.574 244.055 67.1525 239.315 67.0648 239.315Z" fill="url(#paint27_radial)"/>
<path d="M69.0823 240.061C70.31 239.885 70.3977 241.114 70.3977 241.114C70.2223 240.763 69.7839 240.28 68.7316 240.676C68.3808 240.807 68.1177 241.158 67.9423 241.597C68.1177 242.958 69.3454 242.124 69.3454 242.124C69.3454 242.124 68.9508 242.958 68.1177 242.782C67.8985 242.739 67.767 242.607 67.6793 242.475C67.5916 242.914 67.5916 243.309 67.5916 243.309C67.0654 242.563 67.8547 240.237 69.0823 240.061Z" fill="url(#paint28_linear)"/>
<path d="M72.0636 228.253C72.0636 228.253 72.8967 233.608 69.2575 238.042C65.6183 242.475 69.6082 246.118 61.1022 250.727C61.1022 250.727 44.0462 258.014 32.6024 243.221C32.6024 243.221 26.9902 237.691 31.1555 228.868C35.3647 220.045 39.3985 212.671 51.7192 212.583C64.1275 212.495 71.7567 222.24 72.0636 228.253Z" fill="url(#paint29_radial)"/>
<path d="M69.6519 234.312C69.915 232.03 68.9942 227.509 68.9942 227.596C68.9504 228.167 68.9066 228.957 68.5119 229.44C67.8543 230.274 66.8458 228.694 66.5827 228.255C66.0566 227.333 65.662 226.367 65.2235 225.446C64.6974 224.348 63.5574 222.022 63.5574 222.11C63.4258 222.68 63.4258 223.339 63.1628 223.865C62.812 224.524 61.9789 223.953 61.5843 223.646C59.6989 222.285 56.9367 218.51 56.8928 218.598C56.8928 219.695 56.849 221.319 56.0159 222.11C55.8844 222.153 55.7528 222.153 55.6213 222.153C54.6567 222.11 53.9113 221.451 53.2975 220.837C51.8067 219.344 50.886 217.457 49.6144 215.833C49.5706 215.789 49.1321 217.896 48.7375 218.817C48.3868 219.695 47.8168 220.881 46.7645 221.276C44.9668 222.022 44.5283 219.037 44.4845 218.027C44.4845 217.94 42.906 220.31 41.9853 221.363C41.1961 222.285 40.2753 223.119 39.1791 223.734C38.8284 223.909 38.0392 224.436 37.6445 224.216C37.3815 224.041 37.513 223.382 37.2061 223.251C37.1622 223.251 35.803 225.709 35.2769 226.982C34.7069 228.343 33.7861 229.396 32.8215 230.625C32.4269 230.011 32.8215 229.835 32.7338 229.089C32.69 228.474 32.6023 227.86 32.69 227.201C32.7777 226.587 32.9092 225.972 32.9531 225.314C36.6799 218.115 41.1522 212.584 51.8067 212.497C64.1274 212.409 71.8004 222.197 72.1073 228.211C72.1073 228.211 72.9404 233.566 69.3012 237.999C68.9504 238.394 68.6873 238.789 68.4681 239.184C68.5996 238.614 68.8627 237.999 69.0381 237.429C69.345 236.463 69.5204 235.366 69.6519 234.312Z" fill="url(#paint30_radial)"/>
<path d="M28.0864 206.701C30.0595 205.472 31.9887 204.375 34.2687 203.716C35.2333 203.453 36.3733 203.277 37.3379 203.233C37.2502 203.146 37.2064 203.058 37.1187 202.97C36.6802 202.399 35.7156 201.346 36.2856 200.6C36.8994 199.81 38.5217 200.293 39.2671 200.556C39.8809 200.775 40.4071 201.127 40.8455 201.522C41.1086 201.741 41.3717 202.004 41.6348 202.224C41.6786 201.522 41.854 200.819 42.0294 200.117C42.1609 199.59 42.6432 198.054 43.4763 198.229C44.2217 198.361 44.3094 199.371 44.3971 199.941C44.4409 200.293 44.4409 200.688 44.4409 201.039C46.4578 200.336 55.3585 198.054 66.4953 206.438C79.1667 216.007 82.2798 225.093 81.0082 230.009C81.0082 230.009 80.4382 231.194 77.939 228.473C77.9829 228.648 78.0267 228.78 78.0706 228.956C78.5529 230.623 78.3336 232.291 77.7636 233.959C77.6321 234.311 77.4129 235.189 76.8429 235.189C76.1852 235.189 75.7467 234.047 75.5275 233.652C75.4398 233.521 75.396 233.345 75.3083 233.213C75.3083 233.257 75.3083 233.257 75.3083 233.301C75.2206 233.74 75.2644 234.267 75.0891 234.706C74.6944 235.803 73.9491 236.461 72.9406 236.856C71.7129 237.559 70.0468 238.129 68.556 239.227C69.6083 237.471 72.1514 231.94 68.3807 224.654C68.3807 224.654 69.0383 227.112 68.0299 228.078C67.0214 229.043 63.9522 222.02 62.7684 219.782C62.7684 219.782 63.2069 222.679 61.9792 222.635C60.7515 222.591 55.5777 215.392 55.5777 215.392C55.5777 215.392 57.1562 220.967 54.5693 220.484C52.7277 220.133 49.4393 214.602 49.4393 214.602C49.4393 214.602 47.5978 221.406 46.3263 220.44C45.3617 219.738 45.1424 214.997 45.1424 214.997C45.1424 214.997 39.9686 223.425 38.741 223.293C37.5133 223.118 36.7679 221.932 36.9871 221.318L32.8218 230.755C32.8218 230.755 31.9887 230.097 30.9803 229.043C30.7172 229.658 30.498 230.272 30.3226 230.887C29.9718 232.028 29.8841 233.257 29.7087 234.442C29.621 234.969 29.621 235.54 29.6649 236.066C29.6649 236.418 29.7964 236.9 29.7964 237.383C29.7964 237.427 26.9465 235.145 26.3765 234.355C25.3242 232.862 24.228 231.809 23.8334 229.482C23.5265 227.726 23.3511 226.322 23.7019 224.566C23.658 224.654 23.5703 224.742 23.5265 224.829C23.2196 225.268 22.9126 225.707 22.6496 226.146C22.4742 226.366 22.255 226.805 21.948 226.849C20.4134 227.156 20.6327 223.732 20.7642 223.074C21.0711 221.274 21.5096 219.562 22.6934 217.982C22.4742 218.158 22.255 218.289 22.0357 218.421C21.7727 218.553 21.5973 218.377 21.5096 218.158C20.9834 216.051 22.4303 213.461 24.0526 211.968C24.4911 211.573 24.9295 211.222 25.368 210.871C25.1049 210.915 24.8419 210.915 24.6226 210.739C24.0088 210.344 24.9295 209.379 25.1926 209.071C25.9818 208.106 26.9903 207.403 28.0864 206.701Z" fill="url(#paint31_radial)"/>
<path d="M80.7449 229.351C80.7449 229.351 81.6218 219.65 69.2134 209.467C56.8051 199.327 50.0967 200.732 48.0359 201.083C48.0359 201.083 54.3497 199.854 66.9334 209.159C79.5172 218.509 80.7449 229.351 80.7449 229.351Z" fill="url(#paint32_radial)"/>
<path opacity="0.3" d="M24.8853 223.688C23.0877 228.912 27.8669 233.74 27.8669 233.74C27.8669 233.74 25.1923 229.79 25.8499 227.639C26.4638 225.488 29.2699 223.118 31.3307 225.137C33.3037 227.068 32.2514 229.921 32.1637 230.141C31.8568 229.877 31.4622 229.482 31.0676 229.043C30.8045 229.658 30.5853 230.273 30.4099 230.887C30.0591 232.028 29.9714 233.257 29.7961 234.442C29.7084 234.969 29.7084 235.54 29.7522 236.067C29.7522 236.418 29.8838 236.901 29.8838 237.383C29.8838 237.427 27.0338 235.145 26.4638 234.355C25.4115 232.862 24.3153 231.809 23.9207 229.482C23.6138 227.771 23.4384 226.322 23.7454 224.566C24.3592 223.557 24.8853 223.688 24.8853 223.688Z" fill="url(#paint33_radial)"/>
<path d="M31.988 230.845C31.988 230.845 33.3911 225.49 30.0588 225.095C26.7265 224.7 23.7012 231.503 30.4973 234.005L31.988 230.845Z" fill="url(#paint34_radial)"/>
<path d="M29.7523 227.946C30.7169 228.648 30.0153 230.931 29.0946 231.37C29.0946 231.37 29.3138 231.062 29.4892 230.624C29.3576 230.711 29.1823 230.755 28.963 230.667C28.13 230.448 28.3054 229.57 28.3054 229.57C28.3054 229.57 28.8753 230.799 29.84 229.702C29.9276 229.263 29.9276 228.824 29.7084 228.56C29.0507 227.77 28.3492 227.99 27.9984 228.253C27.9984 228.297 28.7877 227.244 29.7523 227.946Z" fill="url(#paint35_linear)"/>
<path d="M54.5696 224.26C55.4903 225.05 55.885 226.982 55.008 228.079C54.9642 228.123 54.8765 228.123 54.8765 228.035C54.8327 227.157 54.6134 226.148 53.9557 225.489C53.0788 224.568 51.9827 225.007 50.9304 225.533C50.7112 225.665 50.5358 225.226 50.6235 225.094C51.3688 223.865 53.4296 223.251 54.5696 224.26Z" fill="url(#paint36_radial)"/>
<path d="M45.625 232.028C45.625 232.028 45.7126 228.78 49.2203 226.981C52.8157 225.137 53.6487 228.166 53.6926 229.658C53.7364 231.15 51.1495 236.901 47.1157 235.057L46.8965 234.925C46.8965 234.925 46.8965 235.759 46.3265 236.506C46.3265 236.506 46.5457 232.555 43.345 230.36C43.345 230.404 44.6165 230.712 45.625 232.028Z" fill="url(#paint37_radial)"/>
<path d="M46.9386 229.571C45.5794 231.722 45.6671 234.093 47.2017 234.839C48.7363 235.585 51.0601 234.488 52.4193 232.337C53.7785 230.186 53.6908 227.816 52.1562 227.069C50.6216 226.323 48.2978 227.421 46.9386 229.571Z" fill="url(#paint38_linear)"/>
<path d="M47.3343 229.746C46.1943 231.326 46.1066 233.038 47.0712 233.608C48.0358 234.179 49.7458 233.345 50.8419 231.765C51.9819 230.185 52.0696 228.473 51.105 227.902C50.1404 227.331 48.4743 228.165 47.3343 229.746Z" fill="url(#paint39_radial)"/>
<path d="M47.9909 230.184C47.3332 231.105 47.2455 232.115 47.8155 232.422C48.3855 232.729 49.394 232.247 50.0078 231.369C50.6655 230.447 50.7532 229.437 50.1832 229.13C49.657 228.779 48.6486 229.262 47.9909 230.184Z" fill="url(#paint40_radial)"/>
<path d="M49.4386 229.921C49.0878 230.58 49.0878 231.238 49.5263 231.414C49.9209 231.589 50.5347 231.194 50.9293 230.58C51.2801 229.921 51.2801 229.263 50.8417 229.087C50.447 228.912 49.8332 229.263 49.4386 229.921Z" fill="url(#paint41_linear)"/>
<path d="M66.6715 232.424C67.0661 232.688 67.373 233.258 67.373 233.741C67.373 234.005 67.373 234.268 67.3292 234.487C67.3292 234.619 67.2854 234.707 67.1977 234.839L67.1538 234.883C67.1538 234.883 67.1538 234.883 67.1538 234.926C67.11 234.97 67.11 234.97 67.0661 235.014C67.0223 235.058 66.9784 235.014 66.9784 234.97C67.0223 234.4 66.6715 232.951 65.7508 233.215C65.0054 233.434 64.3477 233.873 63.69 234.18C63.5146 234.268 63.4269 234.005 63.5146 233.873C64.0846 233.039 65.5315 231.634 66.6715 232.424Z" fill="url(#paint42_radial)"/>
<path d="M60.2691 242.826C60.2691 242.826 58.5152 241.51 59.7429 238.92C60.7952 236.681 63.689 233.784 66.1444 235.935C66.1444 235.935 67.8105 236.988 66.0129 240.368C66.0129 240.368 64.4783 243.046 62.1983 243.221C62.1983 243.221 63.0313 243.397 64.1713 244.055C64.1713 244.055 61.4091 243.002 59.3483 243.309L60.2691 242.826Z" fill="url(#paint43_radial)"/>
<path d="M60.5323 237.954C59.2607 239.973 59.3484 242.168 60.7953 242.87C62.1984 243.573 64.3907 242.563 65.6622 240.544C66.9337 238.525 66.846 236.33 65.3991 235.628C63.9522 234.925 61.8038 235.979 60.5323 237.954Z" fill="url(#paint44_linear)"/>
<path d="M60.7951 238.173C59.8743 239.71 59.8743 241.29 60.7951 241.773C61.7159 242.212 63.2505 241.378 64.2151 239.841C65.1358 238.305 65.1358 236.725 64.2151 236.242C63.2505 235.803 61.7159 236.681 60.7951 238.173Z" fill="url(#paint45_radial)"/>
<path d="M61.4096 238.569C60.8396 239.446 60.8396 240.412 61.4096 240.676C61.9796 240.939 62.8565 240.456 63.3827 239.578C63.9527 238.7 63.9527 237.735 63.3827 237.471C62.8565 237.164 61.9796 237.691 61.4096 238.569Z" fill="url(#paint46_radial)"/>
<path d="M62.7678 238.263C62.4609 238.877 62.5486 239.492 62.9432 239.623C63.3378 239.755 63.864 239.36 64.1709 238.745C64.4778 238.131 64.3901 237.516 63.9955 237.385C63.6009 237.253 63.0748 237.648 62.7678 238.263Z" fill="url(#paint47_linear)"/>
<path d="M54.0879 248.402C54.0879 248.402 45.4064 243.925 42.2057 237.473C42.2057 237.473 37.6457 242.257 40.5834 246.339C43.5211 250.421 48.5633 252.002 54.0879 248.402Z" fill="url(#paint48_radial)"/>
<path d="M53.7363 248.531C53.7363 248.531 45.2741 244.097 42.1172 237.996C42.1172 237.996 37.0311 243.571 42.2926 247.96C47.5102 252.306 53.7363 248.531 53.7363 248.531Z" fill="url(#paint49_linear)"/>
<path d="M48.2549 247.916C45.6241 246.994 43.8264 244.58 42.5111 242.429C41.9411 241.508 41.4588 240.542 41.0203 239.532C41.5465 238.567 42.1165 237.996 42.1165 237.996C44.3964 242.429 49.4825 245.985 52.1133 247.609C50.9294 248.18 49.5702 248.355 48.2549 247.916Z" fill="url(#paint50_linear)"/>
<path d="M43.4322 245.592C44.3091 246.382 45.9752 248.357 45.1422 249.586C44.1775 249.279 43.2129 248.752 42.2922 247.962C40.626 246.601 40.0122 245.065 39.9245 243.66C41.2837 243.88 42.6429 244.889 43.4322 245.592Z" fill="url(#paint51_linear)"/>
<path d="M44.4413 247.305C44.792 247.568 45.1866 248.183 45.0989 248.49C44.792 249.324 43.6082 247.875 43.959 247.305C44.0466 247.085 44.222 247.129 44.4413 247.305Z" fill="url(#paint52_linear)"/>
<path d="M52.4645 242.563C55.183 244.626 57.9014 242.08 56.7614 240.324C55.7091 238.7 53.9553 239.754 53.9553 239.754C54.0868 239.666 54.4376 239.71 54.5691 239.71C54.9637 239.71 55.4022 239.71 55.7968 239.885C57.2437 240.544 56.6299 242.256 55.3583 242.826C54.9199 243.002 54.3937 243.002 53.9553 242.914C52.4645 242.607 52.4645 242.563 52.4645 242.563Z" fill="url(#paint53_radial)"/>
<path d="M54.9638 240.367C54.6569 240.674 54.6569 241.113 54.9638 241.42C55.2707 241.684 55.7969 241.684 56.1038 241.376C56.4107 241.069 56.4107 240.63 56.1038 240.323C55.7969 240.016 55.3146 240.06 54.9638 240.367Z" fill="url(#paint54_radial)"/>
<path opacity="0.7" d="M54.9638 240.367C54.6569 240.674 54.6569 241.113 54.9638 241.42C55.2707 241.684 55.7969 241.684 56.1038 241.376C56.4107 241.069 56.4107 240.63 56.1038 240.323C55.7969 240.016 55.3146 240.06 54.9638 240.367Z" fill="url(#paint55_radial)"/>
<path d="M5.10706 104.792C4.44484 73.7906 3.78261 42.7893 3.12038 11.788C3.03548 7.81344 2.94719 3.67993 2.86229 -0.294594L4.78195 -0.3356L5.6819 41.7944C6.32375 71.8418 6.9656 101.889 7.60745 131.937C8.0829 154.194 8.77792 175.492 7.85142 197.302C7.62755 202.556 7.41047 208.127 7.24817 214.016C7.14879 213.859 7.05281 213.861 6.95343 213.704C6.5593 213.235 6.16858 212.926 5.78465 212.934C5.63728 212.778 5.4933 212.781 5.34593 212.625C5.50483 206.578 5.72191 201.006 5.94578 195.753C7.1858 166.142 5.70092 134.84 5.10706 104.792Z" fill="#F2C94C"/>
<path d="M4.10208 219.913C4.23362 219.825 4.32131 219.694 4.45285 219.606C4.4967 220.352 4.84746 221.098 5.37361 221.669C5.4613 223.995 5.72438 226.541 6.33822 229.482C6.77668 231.589 7.17128 233.696 7.60974 235.979C10.0651 248.971 13.0905 265.124 25.9811 292.076C41.634 324.733 42.8179 354.054 38.6964 364.457C38.5648 364.808 38.2141 365.028 37.8633 365.028C37.7756 365.028 37.6441 365.028 37.5564 364.984C37.1179 364.808 36.8987 364.282 37.0741 363.843C39.2664 358.312 39.6171 348.041 37.951 336.409C36.5479 326.489 33.0403 310.906 24.4027 292.866C11.3805 265.695 8.31127 249.41 5.85591 236.33C5.41746 234.091 5.02285 231.94 4.58439 229.877C3.83901 226.234 3.57594 223.074 3.57594 220.264C3.75132 220.133 3.9267 220.045 4.10208 219.913Z" fill="#F2C94C"/>
<defs>
<linearGradient id="paint0_linear" x1="7.53398" y1="217.48" x2="1.04832" y2="217.48" gradientUnits="userSpaceOnUse">
<stop stop-color="#C78066"/>
<stop offset="0.4944" stop-color="#DBA694"/>
<stop offset="0.5912" stop-color="#DFAB9A"/>
<stop offset="1" stop-color="#ECBCAF"/>
</linearGradient>
<radialGradient id="paint1_radial" cx="0" cy="0" r="1" gradientUnits="userSpaceOnUse" gradientTransform="translate(51.6939 259.533) rotate(180) scale(4.16403 4.16865)">
<stop stop-color="#2565AE"/>
<stop offset="1" stop-color="#203C8A"/>
</radialGradient>
<radialGradient id="paint2_radial" cx="0" cy="0" r="1" gradientUnits="userSpaceOnUse" gradientTransform="translate(23.3108 237.656) rotate(180) scale(4.74529 4.75055)">
<stop stop-color="#2565AE"/>
<stop offset="1" stop-color="#203C8A"/>
</radialGradient>
<linearGradient id="paint3_linear" x1="82.0602" y1="258.189" x2="47.7104" y2="258.189" gradientUnits="userSpaceOnUse">
<stop stop-color="#ECBCAF"/>
<stop offset="0.4088" stop-color="#DFAB9A"/>
<stop offset="0.5056" stop-color="#DBA694"/>
<stop offset="1" stop-color="#C78066"/>
</linearGradient>
<linearGradient id="paint4_linear" x1="29.6005" y1="227.539" x2="2.85936" y2="227.539" gradientUnits="userSpaceOnUse">
<stop stop-color="#C78066"/>
<stop offset="0.4944" stop-color="#DBA694"/>
<stop offset="0.5912" stop-color="#DFAB9A"/>
<stop offset="1" stop-color="#ECBCAF"/>
</linearGradient>
<linearGradient id="paint5_linear" x1="-5.52084" y1="212.863" x2="5.85069" y2="216.01" gradientUnits="userSpaceOnUse">
<stop stop-color="#ECBCAF"/>
<stop offset="0.2707" stop-color="#DDA79A"/>
<stop offset="0.8287" stop-color="#B57064"/>
<stop offset="1" stop-color="#A85E52"/>
</linearGradient>
<linearGradient id="paint6_linear" x1="-6.02921" y1="214.71" x2="5.34149" y2="217.857" gradientUnits="userSpaceOnUse">
<stop stop-color="#ECBCAF"/>
<stop offset="0.2707" stop-color="#DDA79A"/>
<stop offset="0.8287" stop-color="#B57064"/>
<stop offset="1" stop-color="#A85E52"/>
</linearGradient>
<linearGradient id="paint7_linear" x1="-6.41562" y1="216.095" x2="4.95665" y2="219.243" gradientUnits="userSpaceOnUse">
<stop stop-color="#ECBCAF"/>
<stop offset="0.2707" stop-color="#DDA79A"/>
<stop offset="0.8287" stop-color="#B57064"/>
<stop offset="1" stop-color="#A85E52"/>
</linearGradient>
<linearGradient id="paint8_linear" x1="-6.69825" y1="217.12" x2="4.6727" y2="220.267" gradientUnits="userSpaceOnUse">
<stop stop-color="#ECBCAF"/>
<stop offset="0.2707" stop-color="#DDA79A"/>
<stop offset="0.8287" stop-color="#B57064"/>
<stop offset="1" stop-color="#A85E52"/>
</linearGradient>
<radialGradient id="paint9_radial" cx="0" cy="0" r="1" gradientUnits="userSpaceOnUse" gradientTransform="translate(37.9653 247.883) rotate(180) scale(16.8856 16.9043)">
<stop offset="0.1927" stop-color="#349AD5"/>
<stop offset="1" stop-color="#2565AE"/>
</radialGradient>
<radialGradient id="paint10_radial" cx="0" cy="0" r="1" gradientUnits="userSpaceOnUse" gradientTransform="translate(37.9655 247.883) rotate(180) scale(16.8855 16.9042)">
<stop offset="0.1927" stop-color="#349AD5"/>
<stop offset="1" stop-color="#2565AE"/>
</radialGradient>
<radialGradient id="paint11_radial" cx="0" cy="0" r="1" gradientUnits="userSpaceOnUse" gradientTransform="translate(26.7788 262.141) rotate(180) scale(18.2827 18.303)">
<stop offset="0.1927" stop-color="#349AD5"/>
<stop offset="1" stop-color="#2565AE"/>
</radialGradient>
<radialGradient id="paint12_radial" cx="0" cy="0" r="1" gradientUnits="userSpaceOnUse" gradientTransform="translate(26.7791 262.142) rotate(180) scale(18.2829 18.3031)">
<stop offset="0.1927" stop-color="#349AD5"/>
<stop offset="1" stop-color="#2565AE"/>
</radialGradient>
<radialGradient id="paint13_radial" cx="0" cy="0" r="1" gradientUnits="userSpaceOnUse" gradientTransform="translate(25.2892 263.179) rotate(180) scale(8.37146 8.38074)">
<stop stop-color="#2565AE"/>
<stop offset="1" stop-color="#203C8A"/>
</radialGradient>
<linearGradient id="paint14_linear" x1="22.7817" y1="268.744" x2="26.6755" y2="260.78" gradientUnits="userSpaceOnUse">
<stop stop-color="#DBA694"/>
<stop offset="1" stop-color="#C78066"/>
</linearGradient>
<radialGradient id="paint15_radial" cx="0" cy="0" r="1" gradientUnits="userSpaceOnUse" gradientTransform="translate(11.8717 282.185) rotate(180) scale(23.304 23.3298)">
<stop offset="0.3563" stop-color="#595958"/>
<stop offset="1" stop-color="#14140E"/>
</radialGradient>
<radialGradient id="paint16_radial" cx="0" cy="0" r="1" gradientUnits="userSpaceOnUse" gradientTransform="translate(11.8708 282.188) rotate(180) scale(23.3047 23.3306)">
<stop offset="0.3563" stop-color="#595958"/>
<stop offset="1" stop-color="#14140E"/>
</radialGradient>
<radialGradient id="paint17_radial" cx="0" cy="0" r="1" gradientUnits="userSpaceOnUse" gradientTransform="translate(11.8717 282.185) rotate(180) scale(23.3044 23.3302)">
<stop offset="0.3563" stop-color="#595958"/>
<stop offset="1" stop-color="#14140E"/>
</radialGradient>
<radialGradient id="paint18_radial" cx="0" cy="0" r="1" gradientUnits="userSpaceOnUse" gradientTransform="translate(30.3549 277.81) rotate(180) scale(4.21366 4.21833)">
<stop offset="0.5744" stop-color="#161412"/>
<stop offset="0.7977" stop-color="#161412"/>
<stop offset="1" stop-color="#161412"/>
</radialGradient>
<radialGradient id="paint19_radial" cx="0" cy="0" r="1" gradientUnits="userSpaceOnUse" gradientTransform="translate(9.75118 267.262) rotate(180) scale(3.98194 3.98635)">
<stop offset="0.5744" stop-color="#161412"/>
<stop offset="0.7977" stop-color="#161412"/>
<stop offset="1" stop-color="#161412"/>
</radialGradient>
<linearGradient id="paint20_linear" x1="36.8817" y1="298.159" x2="34.2452" y2="276.212" gradientUnits="userSpaceOnUse">
<stop stop-color="#ECBCAF"/>
<stop offset="0.4088" stop-color="#DFAB9A"/>
<stop offset="0.5056" stop-color="#DBA694"/>
<stop offset="1" stop-color="#C78066"/>
</linearGradient>
<linearGradient id="paint21_linear" x1="4.52892" y1="284.112" x2="13.7514" y2="268.868" gradientUnits="userSpaceOnUse">
<stop stop-color="#ECBCAF"/>
<stop offset="0.4088" stop-color="#DFAB9A"/>
<stop offset="0.5056" stop-color="#DBA694"/>
<stop offset="1" stop-color="#C78066"/>
</linearGradient>
<radialGradient id="paint22_radial" cx="0" cy="0" r="1" gradientUnits="userSpaceOnUse" gradientTransform="translate(9.26216 295.241) rotate(180) scale(17.2362 17.2553)">
<stop stop-color="#E41B26"/>
<stop offset="0.2154" stop-color="#DE1B26"/>
<stop offset="0.4895" stop-color="#CF1A24"/>
<stop offset="0.794" stop-color="#B51A23"/>
<stop offset="1" stop-color="#9F1921"/>
</radialGradient>
<radialGradient id="paint23_radial" cx="0" cy="0" r="1" gradientUnits="userSpaceOnUse" gradientTransform="translate(8.60462 297.115) rotate(180) scale(17.3417 17.361)">
<stop stop-color="#E41B26"/>
<stop offset="0.0136397" stop-color="#E21B26"/>
<stop offset="0.2681" stop-color="#C51A24"/>
<stop offset="0.5201" stop-color="#B01922"/>
<stop offset="0.7663" stop-color="#A31921"/>
<stop offset="1" stop-color="#9F1921"/>
</radialGradient>
<radialGradient id="paint24_radial" cx="0" cy="0" r="1" gradientUnits="userSpaceOnUse" gradientTransform="translate(51.3323 295.242) rotate(180) scale(17.4907 17.5101)">
<stop stop-color="#E41B26"/>
<stop offset="0.2154" stop-color="#DE1B26"/>
<stop offset="0.4895" stop-color="#CF1A24"/>
<stop offset="0.794" stop-color="#B51A23"/>
<stop offset="1" stop-color="#9F1921"/>
</radialGradient>
<radialGradient id="paint25_radial" cx="0" cy="0" r="1" gradientUnits="userSpaceOnUse" gradientTransform="translate(53.7776 298.216) rotate(180) scale(17.692 17.7116)">
<stop stop-color="#E41B26"/>
<stop offset="0.2065" stop-color="#CE1A24"/>
<stop offset="0.5106" stop-color="#B41A23"/>
<stop offset="0.7845" stop-color="#A51921"/>
<stop offset="1" stop-color="#9F1921"/>
</radialGradient>
<linearGradient id="paint26_linear" x1="32.6541" y1="251.561" x2="37.812" y2="245.97" gradientUnits="userSpaceOnUse">
<stop stop-color="#ECBCAF"/>
<stop offset="0.4088" stop-color="#DFAB9A"/>
<stop offset="0.5056" stop-color="#DBA694"/>
<stop offset="1" stop-color="#C78066"/>
</linearGradient>
<radialGradient id="paint27_radial" cx="0" cy="0" r="1" gradientUnits="userSpaceOnUse" gradientTransform="translate(73.3764 245.37) rotate(-161.768) scale(7.93236 7.59583)">
<stop stop-color="#ECBCAF"/>
<stop offset="0.6051" stop-color="#DFAB9A"/>
<stop offset="0.7485" stop-color="#DBA694"/>
<stop offset="0.8118" stop-color="#D8A08E"/>
<stop offset="0.8977" stop-color="#D18F7D"/>
<stop offset="0.996" stop-color="#C57261"/>
<stop offset="1" stop-color="#C47160"/>
</radialGradient>
<linearGradient id="paint28_linear" x1="71.2884" y1="245.876" x2="68.4027" y2="241.081" gradientUnits="userSpaceOnUse">
<stop stop-color="#ECBCAF"/>
<stop offset="0.2707" stop-color="#DDA79A"/>
<stop offset="0.8287" stop-color="#B57064"/>
<stop offset="1" stop-color="#A85E52"/>
</linearGradient>
<radialGradient id="paint29_radial" cx="0" cy="0" r="1" gradientUnits="userSpaceOnUse" gradientTransform="translate(51.6098 233.157) rotate(-138.645) scale(21.2373 20.694)">
<stop stop-color="#ECBCAF"/>
<stop offset="0.6051" stop-color="#DFAB9A"/>
<stop offset="0.7485" stop-color="#DBA694"/>
<stop offset="0.8118" stop-color="#D8A08E"/>
<stop offset="0.8977" stop-color="#D18F7D"/>
<stop offset="0.996" stop-color="#C57261"/>
<stop offset="1" stop-color="#C47160"/>
</radialGradient>
<radialGradient id="paint30_radial" cx="0" cy="0" r="1" gradientUnits="userSpaceOnUse" gradientTransform="translate(51.6341 233.134) rotate(-138.645) scale(21.23 20.6869)">
<stop stop-color="white"/>
<stop offset="0.3014" stop-color="#FEFDFD"/>
<stop offset="0.4586" stop-color="#FBF6F5"/>
<stop offset="0.5824" stop-color="#F6EAE7"/>
<stop offset="0.6889" stop-color="#EFD9D4"/>
<stop offset="0.7842" stop-color="#E6C3BC"/>
<stop offset="0.8716" stop-color="#DBA89D"/>
<stop offset="0.9512" stop-color="#CE887A"/>
<stop offset="1" stop-color="#C47160"/>
</radialGradient>
<radialGradient id="paint31_radial" cx="0" cy="0" r="1" gradientUnits="userSpaceOnUse" gradientTransform="translate(32.24 252.269) rotate(-138.645) scale(59.9644 62.1073)">
<stop offset="0.4271" stop-color="#4C0D1C"/>
<stop offset="0.5346" stop-color="#5B0E1C"/>
<stop offset="0.7401" stop-color="#81121C"/>
<stop offset="1" stop-color="#BA181D"/>
</radialGradient>
<radialGradient id="paint32_radial" cx="0" cy="0" r="1" gradientUnits="userSpaceOnUse" gradientTransform="translate(53.5969 220.636) rotate(-138.645) scale(22.3466 23.1452)">
<stop offset="0.4271" stop-color="#4C0D1C"/>
<stop offset="0.5346" stop-color="#5B0E1C"/>
<stop offset="0.7401" stop-color="#81121C"/>
<stop offset="1" stop-color="#BA181D"/>
</radialGradient>
<radialGradient id="paint33_radial" cx="0" cy="0" r="1" gradientUnits="userSpaceOnUse" gradientTransform="translate(32.2555 252.252) rotate(-138.645) scale(59.9558 62.0983)">
<stop offset="0.4271" stop-color="#4C0D1C"/>
<stop offset="0.5346" stop-color="#5B0E1C"/>
<stop offset="0.7401" stop-color="#81121C"/>
<stop offset="1" stop-color="#BA181D"/>
</radialGradient>
<radialGradient id="paint34_radial" cx="0" cy="0" r="1" gradientUnits="userSpaceOnUse" gradientTransform="translate(24.1356 226.76) rotate(-152.661) scale(10.2295 10.1005)">
<stop stop-color="#ECBCAF"/>
<stop offset="0.6051" stop-color="#DFAB9A"/>
<stop offset="0.7485" stop-color="#DBA694"/>
<stop offset="0.8118" stop-color="#D8A08E"/>
<stop offset="0.8977" stop-color="#D18F7D"/>
<stop offset="0.996" stop-color="#C57261"/>
<stop offset="1" stop-color="#C47160"/>
</radialGradient>
<linearGradient id="paint35_linear" x1="23.3167" y1="233.186" x2="30.5534" y2="228.503" gradientUnits="userSpaceOnUse">
<stop stop-color="#ECBCAF"/>
<stop offset="0.2707" stop-color="#DDA79A"/>
<stop offset="0.8287" stop-color="#B57064"/>
<stop offset="1" stop-color="#A85E52"/>
</linearGradient>
<radialGradient id="paint36_radial" cx="0" cy="0" r="1" gradientUnits="userSpaceOnUse" gradientTransform="translate(57.5362 218.873) rotate(-154.447) scale(14.3956 14.1277)">
<stop offset="0.3175" stop-color="#4C0D1C"/>
<stop offset="0.7249" stop-color="#4F0E1C"/>
<stop offset="1" stop-color="#57101D"/>
</radialGradient>
<radialGradient id="paint37_radial" cx="0" cy="0" r="1" gradientUnits="userSpaceOnUse" gradientTransform="translate(53.526 226.418) rotate(-147.218) scale(14.7876 14.8816)">
<stop stop-color="white"/>
<stop offset="0.1809" stop-color="#F8EDEA"/>
<stop offset="0.5535" stop-color="#E5C0B3"/>
<stop offset="0.7485" stop-color="#DBA694"/>
<stop offset="0.8118" stop-color="#D8A08E"/>
<stop offset="0.8977" stop-color="#D18F7D"/>
<stop offset="0.996" stop-color="#C57261"/>
<stop offset="1" stop-color="#C47160"/>
</radialGradient>
<linearGradient id="paint38_linear" x1="47.3569" y1="235.815" x2="52.095" y2="225.908" gradientUnits="userSpaceOnUse">
<stop stop-color="white"/>
<stop offset="0.6599" stop-color="#EAEAEA"/>
<stop offset="1" stop-color="#DDDDDD"/>
</linearGradient>
<radialGradient id="paint39_radial" cx="0" cy="0" r="1" gradientUnits="userSpaceOnUse" gradientTransform="translate(51.6684 227.161) rotate(-151.467) scale(6.95984 6.9009)">
<stop offset="0.2679" stop-color="#1D4461"/>
<stop offset="1" stop-color="#0D2333"/>
</radialGradient>
<radialGradient id="paint40_radial" cx="0" cy="0" r="1" gradientUnits="userSpaceOnUse" gradientTransform="translate(49.1572 229.02) rotate(-140.379) scale(4.84275 4.9882)">
<stop offset="0.2679" stop-color="#1D4461"/>
<stop offset="0.4773" stop-color="#1B415D"/>
<stop offset="0.7037" stop-color="#173850"/>
<stop offset="0.9374" stop-color="#0F283A"/>
<stop offset="1" stop-color="#0D2333"/>
</radialGradient>
<linearGradient id="paint41_linear" x1="48.8403" y1="229.475" x2="51.2117" y2="230.824" gradientUnits="userSpaceOnUse">
<stop stop-color="white"/>
<stop offset="0.6599" stop-color="#EAEAEA"/>
<stop offset="1" stop-color="#DDDDDD"/>
</linearGradient>
<radialGradient id="paint42_radial" cx="0" cy="0" r="1" gradientUnits="userSpaceOnUse" gradientTransform="translate(67.3116 231.521) rotate(-154.447) scale(7.46352 7.32467)">
<stop offset="0.3175" stop-color="#4C0D1C"/>
<stop offset="0.7249" stop-color="#4F0E1C"/>
<stop offset="1" stop-color="#57101D"/>
</radialGradient>
<radialGradient id="paint43_radial" cx="0" cy="0" r="1" gradientUnits="userSpaceOnUse" gradientTransform="translate(63.8955 235.606) rotate(-147.218) scale(10.0818 10.1459)">
<stop stop-color="white"/>
<stop offset="0.1809" stop-color="#F8EDEA"/>
<stop offset="0.5535" stop-color="#E5C0B3"/>
<stop offset="0.7485" stop-color="#DBA694"/>
<stop offset="0.8118" stop-color="#D8A08E"/>
<stop offset="0.8977" stop-color="#D18F7D"/>
<stop offset="0.996" stop-color="#C57261"/>
<stop offset="1" stop-color="#C47160"/>
</radialGradient>
<linearGradient id="paint44_linear" x1="61.5441" y1="243.178" x2="64.9367" y2="234.493" gradientUnits="userSpaceOnUse">
<stop stop-color="white"/>
<stop offset="0.6599" stop-color="#EAEAEA"/>
<stop offset="1" stop-color="#DDDDDD"/>
</linearGradient>
<radialGradient id="paint45_radial" cx="0" cy="0" r="1" gradientUnits="userSpaceOnUse" gradientTransform="translate(64.646 235.569) rotate(-155.191) scale(6.52387 6.38595)">
<stop offset="0.2679" stop-color="#1D4461"/>
<stop offset="1" stop-color="#0D2333"/>
</radialGradient>
<radialGradient id="paint46_radial" cx="0" cy="0" r="1" gradientUnits="userSpaceOnUse" gradientTransform="translate(62.4321 237.433) rotate(-144.251) scale(4.54002 4.6156)">
<stop offset="0.2679" stop-color="#1D4461"/>
<stop offset="0.4773" stop-color="#1B415D"/>
<stop offset="0.7037" stop-color="#173850"/>
<stop offset="0.9374" stop-color="#0F283A"/>
<stop offset="1" stop-color="#0D2333"/>
</radialGradient>
<linearGradient id="paint47_linear" x1="62.165" y1="237.875" x2="64.467" y2="238.99" gradientUnits="userSpaceOnUse">
<stop stop-color="white"/>
<stop offset="0.6599" stop-color="#EAEAEA"/>
<stop offset="1" stop-color="#DDDDDD"/>
</linearGradient>
<radialGradient id="paint48_radial" cx="0" cy="0" r="1" gradientUnits="userSpaceOnUse" gradientTransform="translate(55.3646 242.656) rotate(-127.031) scale(15.5016 16.5987)">
<stop stop-color="white"/>
<stop offset="0.1809" stop-color="#F8EDEA"/>
<stop offset="0.5535" stop-color="#E5C0B3"/>
<stop offset="0.7485" stop-color="#DBA694"/>
<stop offset="0.8118" stop-color="#D8A08E"/>
<stop offset="0.8977" stop-color="#D18F7D"/>
<stop offset="0.996" stop-color="#C57261"/>
<stop offset="1" stop-color="#C47160"/>
</radialGradient>
<linearGradient id="paint49_linear" x1="51.0666" y1="244.853" x2="40.1076" y2="243.39" gradientUnits="userSpaceOnUse">
<stop offset="0.1146" stop-color="#D83D54"/>
<stop offset="1" stop-color="#2D110C"/>
</linearGradient>
<linearGradient id="paint50_linear" x1="45.1417" y1="245.645" x2="47.6366" y2="241.907" gradientUnits="userSpaceOnUse">
<stop stop-color="white"/>
<stop offset="0.6599" stop-color="#EAEAEA"/>
<stop offset="1" stop-color="#DDDDDD"/>
</linearGradient>
<linearGradient id="paint51_linear" x1="42.1456" y1="247.422" x2="43.7856" y2="244.035" gradientUnits="userSpaceOnUse">
<stop offset="0.1146" stop-color="#D83D54"/>
<stop offset="1" stop-color="#B61919"/>
</linearGradient>
<linearGradient id="paint52_linear" x1="46.718" y1="246.605" x2="43.3882" y2="248.565" gradientUnits="userSpaceOnUse">
<stop offset="0.0995025" stop-color="#F0A99E"/>
<stop offset="1" stop-color="#DA3449"/>
</linearGradient>
<radialGradient id="paint53_radial" cx="0" cy="0" r="1" gradientUnits="userSpaceOnUse" gradientTransform="translate(51.6094 240.574) rotate(-138.645) scale(7.70671 7.98211)">
<stop stop-color="white"/>
<stop offset="0.1809" stop-color="#F8EDEA"/>
<stop offset="0.5535" stop-color="#E5C0B3"/>
<stop offset="0.7485" stop-color="#DBA694"/>
<stop offset="0.8118" stop-color="#D8A08E"/>
<stop offset="0.8977" stop-color="#D18F7D"/>
<stop offset="0.996" stop-color="#C57261"/>
<stop offset="1" stop-color="#C47160"/>
</radialGradient>
<radialGradient id="paint54_radial" cx="0" cy="0" r="1" gradientUnits="userSpaceOnUse" gradientTransform="translate(56.4738 240.88) rotate(-138.645) scale(3.27763 3.39476)">
<stop stop-color="white"/>
<stop offset="0.0858033" stop-color="#F4F4F4"/>
<stop offset="0.2353" stop-color="#D8D8D8"/>
<stop offset="0.4306" stop-color="#A9A9A9"/>
<stop offset="0.6642" stop-color="#696969"/>
<stop offset="0.9275" stop-color="#181818"/>
<stop offset="1"/>
</radialGradient>
<radialGradient id="paint55_radial" cx="0" cy="0" r="1" gradientUnits="userSpaceOnUse" gradientTransform="translate(56.4738 240.88) rotate(-138.645) scale(3.27763 3.39476)">
<stop stop-color="white"/>
<stop offset="1" stop-color="white"/>
</radialGradient>
</defs>
</svg>
