<svg width="33" height="34" viewBox="0 0 33 34" fill="none" xmlns="http://www.w3.org/2000/svg">
<path d="M12.6623 27.2882C9.64814 28.3679 8.36788 29.6481 7.28823 32.6623C7.04919 33.3299 6.11381 33.3299 5.87476 32.6623C4.79511 29.6481 3.51486 28.3679 0.500731 27.2882C-0.16691 27.0492 -0.16691 26.1138 0.500731 25.8748C3.51486 24.7951 4.79511 23.5149 5.87476 20.5007C6.11381 19.8331 7.04919 19.8331 7.28823 20.5007C8.36788 23.5149 9.64814 24.7951 12.6623 25.8748C13.3299 26.1138 13.3299 27.0489 12.6623 27.2882Z" fill="#FFCF4B"/>
<path d="M31.8667 9.13266C28.0898 10.4855 26.4855 12.0898 25.1327 15.8667C24.8331 16.7033 23.661 16.7033 23.3615 15.8667C22.0086 12.0898 20.4044 10.4855 16.6274 9.13266C15.7908 8.83312 15.7908 7.66103 16.6274 7.36149C20.4044 6.00861 22.0086 4.40435 23.3615 0.62745C23.661 -0.20915 24.8331 -0.20915 25.1327 0.62745C26.4855 4.40435 28.0898 6.00861 31.8667 7.36149C32.7033 7.66103 32.7033 8.83279 31.8667 9.13266Z" fill="#FF824B"/>
</svg>
