<svg width="31" height="84" viewBox="0 0 31 84" fill="none" xmlns="http://www.w3.org/2000/svg">
<path d="M29.8207 70.1644C22.7222 72.7071 19.7071 75.7222 17.1644 82.8207C16.6014 84.3931 14.3986 84.3931 13.8356 82.8207C11.2929 75.7222 8.27779 72.7071 1.17926 70.1644C-0.393088 69.6015 -0.393088 67.3986 1.17926 66.8356C8.27779 64.2929 11.2929 61.2778 13.8356 54.1793C14.3986 52.6069 16.6014 52.6069 17.1644 54.1793C19.7071 61.2778 22.7222 64.2929 29.8207 66.8356C31.3931 67.3986 31.3931 69.6008 29.8207 70.1644Z" fill="#FFCF4B"/>
<path d="M21.9342 8.59594C18.3793 9.86931 16.8693 11.3793 15.5959 14.9342C15.314 15.7217 14.2108 15.7217 13.9289 14.9342C12.6555 11.3793 11.1455 9.86931 7.59058 8.59594C6.80314 8.31401 6.80314 7.21079 7.59058 6.92886C11.1455 5.65549 12.6555 4.14551 13.9289 0.590575C14.2108 -0.196858 15.314 -0.196858 15.5959 0.590575C16.8693 4.14551 18.3793 5.65549 21.9342 6.92886C22.7217 7.21079 22.7217 8.31369 21.9342 8.59594Z" fill="#FF824B"/>
</svg>
